M48
; DRILL file {KiCad (5.1.2)-2} date 2021-03-22 2:37:19 AM
; FORMAT={-:-/ absolute / inch / decimal}
; #@! TF.CreationDate,2021-03-22T02:37:19-04:00
; #@! TF.GenerationSoftware,Kicad,Pcbnew,(5.1.2)-2
; #@! TF.FileFunction,Plated,1,4,PTH
FMAT,2
INCH
T1C0.0118
T2C0.0157
T3C0.0236
T4C0.0335
T5C0.0394
T6C0.0472
T7C0.0984
%
G90
G05
T1
X3.0945Y-3.435
X3.2067Y-3.4469
X3.7244Y-3.6791
X4.0453Y-3.3583
X4.0453Y-3.5118
X4.1698Y-3.4759
X4.2106Y-3.4528
X4.2815Y-3.4055
X4.3465Y-3.5217
X4.4016Y-3.4665
X4.4016Y-3.5217
X4.4016Y-3.5768
X4.4567Y-3.5217
X4.5197Y-3.6378
X4.5453Y-3.4154
X4.5906Y-3.5925
X4.6068Y-3.4764
X4.6476Y-3.6831
X4.7028Y-3.5118
X4.75Y-3.378
T2
X2.2756Y-3.56
X2.3287Y-3.3474
X2.3287Y-3.3829
X2.3297Y-3.4518
X2.3297Y-3.4872
X2.439Y-3.2874
X2.439Y-3.3209
X2.4744Y-3.2874
X2.4744Y-3.3209
X2.5098Y-3.2874
X2.5098Y-3.3209
X2.5433Y-3.4232
X2.5807Y-3.56
X2.6781Y-3.312
X3.2579Y-3.4094
X3.312Y-3.6663
X4.3524Y-3.685
X4.7559Y-3.5728
X4.7933Y-3.5236
X4.8307Y-3.6043
X4.874Y-3.5413
X4.9803Y-3.5039
X5.6791Y-3.811
X5.7136Y-3.5413
X5.7441Y-3.5039
X5.7589Y-3.7372
X5.8169Y-3.6831
X5.8642Y-3.4764
X5.9055Y-3.5748
X6.0157Y-3.2618
X6.0167Y-3.6014
X6.0551Y-3.3543
X6.0667Y-3.736
X6.0679Y-3.8681
X6.0817Y-3.2638
X6.0955Y-3.5669
X6.128Y-3.4035
X6.1634Y-3.1713
X6.1673Y-3.5728
X6.2165Y-3.5413
X6.2421Y-3.7244
X6.2628Y-3.8681
X6.2657Y-3.5433
X6.2933Y-3.7244
X6.3169Y-3.3543
X6.3258Y-3.5925
X6.4783Y-3.7362
X6.6142Y-3.6191
X6.6535Y-3.5423
X6.748Y-3.4724
X6.8278Y-3.5581
X6.8496Y-3.8496
X6.8976Y-3.3287
X6.939Y-3.2638
X6.9488Y-3.3996
X6.9496Y-3.811
X7.0Y-3.5413
X7.0Y-3.811
X7.0492Y-3.2402
X7.0492Y-3.7362
X7.0996Y-3.2567
X7.126Y-3.7224
X7.1496Y-3.3366
X7.1752Y-3.7224
X7.2008Y-3.5709
X7.5531Y-3.6535
X7.626Y-3.4724
X7.6358Y-3.6988
X7.6693Y-3.5709
X7.7815Y-3.2953
X7.8325Y-3.7754
X7.8327Y-3.3858
X7.8819Y-3.5335
X7.9311Y-3.2028
X7.9325Y-3.5931
X7.9823Y-3.2559
X7.9823Y-3.7264
X8.0315Y-3.3366
X8.0827Y-3.5394
X8.0827Y-3.7283
X8.1555Y-3.811
T4
X3.4961Y-3.7751
X3.6929Y-3.7751
T5
X3.9961Y-3.878
X4.0961Y-3.878
X4.1961Y-3.878
X4.2961Y-3.878
X4.502Y-3.878
X4.602Y-3.878
X4.702Y-3.878
X4.802Y-3.878
T6
X4.7371Y-3.0754
X4.8749Y-3.0754
X5.0127Y-3.0754
X5.1504Y-3.0754
X5.2882Y-3.0754
X3.1341Y-3.0754
X3.2719Y-3.0754
X3.4097Y-3.0754
X3.5475Y-3.0754
X3.6853Y-3.0754
X3.9356Y-3.0754
X4.0734Y-3.0754
X4.2112Y-3.0754
X4.349Y-3.0754
X4.4868Y-3.0754
X5.5385Y-3.0754
X5.6763Y-3.0754
X5.8141Y-3.0754
X5.9519Y-3.0754
X6.0897Y-3.0754
X6.34Y-3.0754
X6.4778Y-3.0754
X6.6156Y-3.0754
X6.7534Y-3.0754
X6.8912Y-3.0754
X7.9429Y-3.0754
X8.0807Y-3.0754
X8.2185Y-3.0754
X8.3563Y-3.0754
X8.4941Y-3.0754
X7.1415Y-3.0754
X7.2792Y-3.0754
X7.417Y-3.0754
X7.5548Y-3.0754
X7.6926Y-3.0754
X2.9488Y-3.7913
X3.0866Y-3.7913
X2.3327Y-3.0754
X2.4705Y-3.0754
X2.6083Y-3.0754
X2.7461Y-3.0754
X2.8839Y-3.0754
X2.4173Y-3.7913
X2.5551Y-3.7913
T7
X8.7402Y-3.0709
X2.0866Y-3.0709
X2.0866Y-3.8189
X5.4134Y-3.8189
X8.7402Y-3.8189
T3
G00X3.4567Y-3.8952
M15
G01X3.4567Y-3.8676
M16
G05
G00X3.7323Y-3.8676
M15
G01X3.7323Y-3.8952
M16
G05
T0
M30
