G04 #@! TF.GenerationSoftware,KiCad,Pcbnew,(5.1.2)-2*
G04 #@! TF.CreationDate,2021-03-22T02:37:46-04:00*
G04 #@! TF.ProjectId,Repowered_Electronic_Load_Controller,5265706f-7765-4726-9564-5f456c656374,rev?*
G04 #@! TF.SameCoordinates,Original*
G04 #@! TF.FileFunction,Soldermask,Top*
G04 #@! TF.FilePolarity,Negative*
%FSLAX46Y46*%
G04 Gerber Fmt 4.6, Leading zero omitted, Abs format (unit mm)*
G04 Created by KiCad (PCBNEW (5.1.2)-2) date 2021-03-22 02:37:46*
%MOMM*%
%LPD*%
G04 APERTURE LIST*
%ADD10C,0.100000*%
G04 APERTURE END LIST*
D10*
G36*
X87825862Y-97585898D02*
G01*
X87838114Y-97586500D01*
X89051000Y-97586500D01*
X89051000Y-99588500D01*
X87838114Y-99588500D01*
X87825862Y-99589102D01*
X87800000Y-99591649D01*
X87774138Y-99589102D01*
X87761886Y-99588500D01*
X87688594Y-99588500D01*
X87671836Y-99579543D01*
X87660299Y-99575415D01*
X87575307Y-99549632D01*
X87549664Y-99541854D01*
X87436575Y-99481406D01*
X87337447Y-99400054D01*
X87256094Y-99300924D01*
X87195646Y-99187835D01*
X87181192Y-99140185D01*
X87158420Y-99065117D01*
X87149000Y-98969472D01*
X87149000Y-98205527D01*
X87158420Y-98109882D01*
X87195645Y-97987168D01*
X87220608Y-97940466D01*
X87256095Y-97874075D01*
X87337447Y-97774946D01*
X87436576Y-97693594D01*
X87549666Y-97633146D01*
X87619253Y-97612037D01*
X87660290Y-97599588D01*
X87682925Y-97590212D01*
X87688481Y-97586500D01*
X87761886Y-97586500D01*
X87774138Y-97585898D01*
X87800000Y-97583351D01*
X87825862Y-97585898D01*
X87825862Y-97585898D01*
G37*
G36*
X94825862Y-97585898D02*
G01*
X94838114Y-97586500D01*
X94911406Y-97586500D01*
X94928164Y-97595457D01*
X94939707Y-97599587D01*
X94980747Y-97612037D01*
X95050334Y-97633146D01*
X95163424Y-97693594D01*
X95262554Y-97774947D01*
X95343906Y-97874075D01*
X95404354Y-97987164D01*
X95404585Y-97987926D01*
X95441580Y-98109882D01*
X95451000Y-98205527D01*
X95451000Y-98969473D01*
X95441580Y-99065118D01*
X95418808Y-99140186D01*
X95404354Y-99187836D01*
X95343906Y-99300925D01*
X95262554Y-99400054D01*
X95163425Y-99481406D01*
X95050336Y-99541854D01*
X95024693Y-99549632D01*
X94939708Y-99575413D01*
X94917075Y-99584787D01*
X94911518Y-99588500D01*
X94838114Y-99588500D01*
X94825862Y-99589102D01*
X94800000Y-99591649D01*
X94774138Y-99589102D01*
X94761886Y-99588500D01*
X93549000Y-99588500D01*
X93549000Y-97586500D01*
X94761886Y-97586500D01*
X94774138Y-97585898D01*
X94800000Y-97583351D01*
X94825862Y-97585898D01*
X94825862Y-97585898D01*
G37*
G36*
X93101000Y-99588500D02*
G01*
X91499000Y-99588500D01*
X91499000Y-97586500D01*
X93101000Y-97586500D01*
X93101000Y-99588500D01*
X93101000Y-99588500D01*
G37*
G36*
X91101000Y-99588500D02*
G01*
X89499000Y-99588500D01*
X89499000Y-97586500D01*
X91101000Y-97586500D01*
X91101000Y-99588500D01*
X91101000Y-99588500D01*
G37*
G36*
X138244098Y-94547033D02*
G01*
X138672030Y-94724288D01*
X138708352Y-94739333D01*
X139126168Y-95018509D01*
X139481491Y-95373832D01*
X139639813Y-95610778D01*
X139760668Y-95791650D01*
X139952967Y-96255902D01*
X140051000Y-96748747D01*
X140051000Y-97251253D01*
X139952967Y-97744098D01*
X139784423Y-98151000D01*
X139760667Y-98208352D01*
X139481491Y-98626168D01*
X139126168Y-98981491D01*
X138708352Y-99260667D01*
X138708351Y-99260668D01*
X138708350Y-99260668D01*
X138244098Y-99452967D01*
X137751253Y-99551000D01*
X137248747Y-99551000D01*
X136755902Y-99452967D01*
X136291650Y-99260668D01*
X136291649Y-99260668D01*
X136291648Y-99260667D01*
X135873832Y-98981491D01*
X135518509Y-98626168D01*
X135239333Y-98208352D01*
X135215577Y-98151000D01*
X135047033Y-97744098D01*
X134949000Y-97251253D01*
X134949000Y-96748747D01*
X135047033Y-96255902D01*
X135239332Y-95791650D01*
X135360187Y-95610778D01*
X135518509Y-95373832D01*
X135873832Y-95018509D01*
X136291648Y-94739333D01*
X136327970Y-94724288D01*
X136755902Y-94547033D01*
X137248747Y-94449000D01*
X137751253Y-94449000D01*
X138244098Y-94547033D01*
X138244098Y-94547033D01*
G37*
G36*
X222744098Y-94547033D02*
G01*
X223172030Y-94724288D01*
X223208352Y-94739333D01*
X223626168Y-95018509D01*
X223981491Y-95373832D01*
X224139813Y-95610778D01*
X224260668Y-95791650D01*
X224452967Y-96255902D01*
X224551000Y-96748747D01*
X224551000Y-97251253D01*
X224452967Y-97744098D01*
X224284423Y-98151000D01*
X224260667Y-98208352D01*
X223981491Y-98626168D01*
X223626168Y-98981491D01*
X223208352Y-99260667D01*
X223208351Y-99260668D01*
X223208350Y-99260668D01*
X222744098Y-99452967D01*
X222251253Y-99551000D01*
X221748747Y-99551000D01*
X221255902Y-99452967D01*
X220791650Y-99260668D01*
X220791649Y-99260668D01*
X220791648Y-99260667D01*
X220373832Y-98981491D01*
X220018509Y-98626168D01*
X219739333Y-98208352D01*
X219715577Y-98151000D01*
X219547033Y-97744098D01*
X219449000Y-97251253D01*
X219449000Y-96748747D01*
X219547033Y-96255902D01*
X219739332Y-95791650D01*
X219860187Y-95610778D01*
X220018509Y-95373832D01*
X220373832Y-95018509D01*
X220791648Y-94739333D01*
X220827970Y-94724288D01*
X221255902Y-94547033D01*
X221748747Y-94449000D01*
X222251253Y-94449000D01*
X222744098Y-94547033D01*
X222744098Y-94547033D01*
G37*
G36*
X53744098Y-94547033D02*
G01*
X54172030Y-94724288D01*
X54208352Y-94739333D01*
X54626168Y-95018509D01*
X54981491Y-95373832D01*
X55139813Y-95610778D01*
X55260668Y-95791650D01*
X55452967Y-96255902D01*
X55551000Y-96748747D01*
X55551000Y-97251253D01*
X55452967Y-97744098D01*
X55284423Y-98151000D01*
X55260667Y-98208352D01*
X54981491Y-98626168D01*
X54626168Y-98981491D01*
X54208352Y-99260667D01*
X54208351Y-99260668D01*
X54208350Y-99260668D01*
X53744098Y-99452967D01*
X53251253Y-99551000D01*
X52748747Y-99551000D01*
X52255902Y-99452967D01*
X51791650Y-99260668D01*
X51791649Y-99260668D01*
X51791648Y-99260667D01*
X51373832Y-98981491D01*
X51018509Y-98626168D01*
X50739333Y-98208352D01*
X50715577Y-98151000D01*
X50547033Y-97744098D01*
X50449000Y-97251253D01*
X50449000Y-96748747D01*
X50547033Y-96255902D01*
X50739332Y-95791650D01*
X50860187Y-95610778D01*
X51018509Y-95373832D01*
X51373832Y-95018509D01*
X51791648Y-94739333D01*
X51827970Y-94724288D01*
X52255902Y-94547033D01*
X52748747Y-94449000D01*
X53251253Y-94449000D01*
X53744098Y-94547033D01*
X53744098Y-94547033D01*
G37*
G36*
X122080443Y-97605519D02*
G01*
X122146627Y-97612037D01*
X122316466Y-97663557D01*
X122472991Y-97747222D01*
X122506773Y-97774946D01*
X122610186Y-97859814D01*
X122674654Y-97938370D01*
X122722778Y-97997009D01*
X122763601Y-98073382D01*
X122783113Y-98109886D01*
X122806443Y-98153534D01*
X122857963Y-98323373D01*
X122875359Y-98500000D01*
X122857963Y-98676627D01*
X122806443Y-98846466D01*
X122722778Y-99002991D01*
X122693448Y-99038729D01*
X122610186Y-99140186D01*
X122508729Y-99223448D01*
X122472991Y-99252778D01*
X122316466Y-99336443D01*
X122146627Y-99387963D01*
X122080442Y-99394482D01*
X122014260Y-99401000D01*
X121925740Y-99401000D01*
X121859558Y-99394482D01*
X121793373Y-99387963D01*
X121623534Y-99336443D01*
X121467009Y-99252778D01*
X121431271Y-99223448D01*
X121329814Y-99140186D01*
X121246552Y-99038729D01*
X121217222Y-99002991D01*
X121133557Y-98846466D01*
X121082037Y-98676627D01*
X121064641Y-98500000D01*
X121082037Y-98323373D01*
X121133557Y-98153534D01*
X121156888Y-98109886D01*
X121176399Y-98073382D01*
X121217222Y-97997009D01*
X121265346Y-97938370D01*
X121329814Y-97859814D01*
X121433227Y-97774946D01*
X121467009Y-97747222D01*
X121623534Y-97663557D01*
X121793373Y-97612037D01*
X121859557Y-97605519D01*
X121925740Y-97599000D01*
X122014260Y-97599000D01*
X122080443Y-97605519D01*
X122080443Y-97605519D01*
G37*
G36*
X104150443Y-97605519D02*
G01*
X104216627Y-97612037D01*
X104386466Y-97663557D01*
X104542991Y-97747222D01*
X104576773Y-97774946D01*
X104680186Y-97859814D01*
X104744654Y-97938370D01*
X104792778Y-97997009D01*
X104833601Y-98073382D01*
X104853113Y-98109886D01*
X104876443Y-98153534D01*
X104927963Y-98323373D01*
X104945359Y-98500000D01*
X104927963Y-98676627D01*
X104876443Y-98846466D01*
X104792778Y-99002991D01*
X104763448Y-99038729D01*
X104680186Y-99140186D01*
X104578729Y-99223448D01*
X104542991Y-99252778D01*
X104386466Y-99336443D01*
X104216627Y-99387963D01*
X104150442Y-99394482D01*
X104084260Y-99401000D01*
X103995740Y-99401000D01*
X103929558Y-99394482D01*
X103863373Y-99387963D01*
X103693534Y-99336443D01*
X103537009Y-99252778D01*
X103501271Y-99223448D01*
X103399814Y-99140186D01*
X103316552Y-99038729D01*
X103287222Y-99002991D01*
X103203557Y-98846466D01*
X103152037Y-98676627D01*
X103134641Y-98500000D01*
X103152037Y-98323373D01*
X103203557Y-98153534D01*
X103226888Y-98109886D01*
X103246399Y-98073382D01*
X103287222Y-97997009D01*
X103335346Y-97938370D01*
X103399814Y-97859814D01*
X103503227Y-97774946D01*
X103537009Y-97747222D01*
X103693534Y-97663557D01*
X103863373Y-97612037D01*
X103929557Y-97605519D01*
X103995740Y-97599000D01*
X104084260Y-97599000D01*
X104150443Y-97605519D01*
X104150443Y-97605519D01*
G37*
G36*
X106690443Y-97605519D02*
G01*
X106756627Y-97612037D01*
X106926466Y-97663557D01*
X107082991Y-97747222D01*
X107116773Y-97774946D01*
X107220186Y-97859814D01*
X107284654Y-97938370D01*
X107332778Y-97997009D01*
X107373601Y-98073382D01*
X107393113Y-98109886D01*
X107416443Y-98153534D01*
X107467963Y-98323373D01*
X107485359Y-98500000D01*
X107467963Y-98676627D01*
X107416443Y-98846466D01*
X107332778Y-99002991D01*
X107303448Y-99038729D01*
X107220186Y-99140186D01*
X107118729Y-99223448D01*
X107082991Y-99252778D01*
X106926466Y-99336443D01*
X106756627Y-99387963D01*
X106690442Y-99394482D01*
X106624260Y-99401000D01*
X106535740Y-99401000D01*
X106469558Y-99394482D01*
X106403373Y-99387963D01*
X106233534Y-99336443D01*
X106077009Y-99252778D01*
X106041271Y-99223448D01*
X105939814Y-99140186D01*
X105856552Y-99038729D01*
X105827222Y-99002991D01*
X105743557Y-98846466D01*
X105692037Y-98676627D01*
X105674641Y-98500000D01*
X105692037Y-98323373D01*
X105743557Y-98153534D01*
X105766888Y-98109886D01*
X105786399Y-98073382D01*
X105827222Y-97997009D01*
X105875346Y-97938370D01*
X105939814Y-97859814D01*
X106043227Y-97774946D01*
X106077009Y-97747222D01*
X106233534Y-97663557D01*
X106403373Y-97612037D01*
X106469557Y-97605519D01*
X106535740Y-97599000D01*
X106624260Y-97599000D01*
X106690443Y-97605519D01*
X106690443Y-97605519D01*
G37*
G36*
X102401000Y-99401000D02*
G01*
X100599000Y-99401000D01*
X100599000Y-97599000D01*
X102401000Y-97599000D01*
X102401000Y-99401000D01*
X102401000Y-99401000D01*
G37*
G36*
X117000443Y-97605519D02*
G01*
X117066627Y-97612037D01*
X117236466Y-97663557D01*
X117392991Y-97747222D01*
X117426773Y-97774946D01*
X117530186Y-97859814D01*
X117594654Y-97938370D01*
X117642778Y-97997009D01*
X117683601Y-98073382D01*
X117703113Y-98109886D01*
X117726443Y-98153534D01*
X117777963Y-98323373D01*
X117795359Y-98500000D01*
X117777963Y-98676627D01*
X117726443Y-98846466D01*
X117642778Y-99002991D01*
X117613448Y-99038729D01*
X117530186Y-99140186D01*
X117428729Y-99223448D01*
X117392991Y-99252778D01*
X117236466Y-99336443D01*
X117066627Y-99387963D01*
X117000442Y-99394482D01*
X116934260Y-99401000D01*
X116845740Y-99401000D01*
X116779558Y-99394482D01*
X116713373Y-99387963D01*
X116543534Y-99336443D01*
X116387009Y-99252778D01*
X116351271Y-99223448D01*
X116249814Y-99140186D01*
X116166552Y-99038729D01*
X116137222Y-99002991D01*
X116053557Y-98846466D01*
X116002037Y-98676627D01*
X115984641Y-98500000D01*
X116002037Y-98323373D01*
X116053557Y-98153534D01*
X116076888Y-98109886D01*
X116096399Y-98073382D01*
X116137222Y-97997009D01*
X116185346Y-97938370D01*
X116249814Y-97859814D01*
X116353227Y-97774946D01*
X116387009Y-97747222D01*
X116543534Y-97663557D01*
X116713373Y-97612037D01*
X116779557Y-97605519D01*
X116845740Y-97599000D01*
X116934260Y-97599000D01*
X117000443Y-97605519D01*
X117000443Y-97605519D01*
G37*
G36*
X115251000Y-99401000D02*
G01*
X113449000Y-99401000D01*
X113449000Y-97599000D01*
X115251000Y-97599000D01*
X115251000Y-99401000D01*
X115251000Y-99401000D01*
G37*
G36*
X109230443Y-97605519D02*
G01*
X109296627Y-97612037D01*
X109466466Y-97663557D01*
X109622991Y-97747222D01*
X109656773Y-97774946D01*
X109760186Y-97859814D01*
X109824654Y-97938370D01*
X109872778Y-97997009D01*
X109913601Y-98073382D01*
X109933113Y-98109886D01*
X109956443Y-98153534D01*
X110007963Y-98323373D01*
X110025359Y-98500000D01*
X110007963Y-98676627D01*
X109956443Y-98846466D01*
X109872778Y-99002991D01*
X109843448Y-99038729D01*
X109760186Y-99140186D01*
X109658729Y-99223448D01*
X109622991Y-99252778D01*
X109466466Y-99336443D01*
X109296627Y-99387963D01*
X109230442Y-99394482D01*
X109164260Y-99401000D01*
X109075740Y-99401000D01*
X109009558Y-99394482D01*
X108943373Y-99387963D01*
X108773534Y-99336443D01*
X108617009Y-99252778D01*
X108581271Y-99223448D01*
X108479814Y-99140186D01*
X108396552Y-99038729D01*
X108367222Y-99002991D01*
X108283557Y-98846466D01*
X108232037Y-98676627D01*
X108214641Y-98500000D01*
X108232037Y-98323373D01*
X108283557Y-98153534D01*
X108306888Y-98109886D01*
X108326399Y-98073382D01*
X108367222Y-97997009D01*
X108415346Y-97938370D01*
X108479814Y-97859814D01*
X108583227Y-97774946D01*
X108617009Y-97747222D01*
X108773534Y-97663557D01*
X108943373Y-97612037D01*
X109009557Y-97605519D01*
X109075740Y-97599000D01*
X109164260Y-97599000D01*
X109230443Y-97605519D01*
X109230443Y-97605519D01*
G37*
G36*
X119540443Y-97605519D02*
G01*
X119606627Y-97612037D01*
X119776466Y-97663557D01*
X119932991Y-97747222D01*
X119966773Y-97774946D01*
X120070186Y-97859814D01*
X120134654Y-97938370D01*
X120182778Y-97997009D01*
X120223601Y-98073382D01*
X120243113Y-98109886D01*
X120266443Y-98153534D01*
X120317963Y-98323373D01*
X120335359Y-98500000D01*
X120317963Y-98676627D01*
X120266443Y-98846466D01*
X120182778Y-99002991D01*
X120153448Y-99038729D01*
X120070186Y-99140186D01*
X119968729Y-99223448D01*
X119932991Y-99252778D01*
X119776466Y-99336443D01*
X119606627Y-99387963D01*
X119540442Y-99394482D01*
X119474260Y-99401000D01*
X119385740Y-99401000D01*
X119319558Y-99394482D01*
X119253373Y-99387963D01*
X119083534Y-99336443D01*
X118927009Y-99252778D01*
X118891271Y-99223448D01*
X118789814Y-99140186D01*
X118706552Y-99038729D01*
X118677222Y-99002991D01*
X118593557Y-98846466D01*
X118542037Y-98676627D01*
X118524641Y-98500000D01*
X118542037Y-98323373D01*
X118593557Y-98153534D01*
X118616888Y-98109886D01*
X118636399Y-98073382D01*
X118677222Y-97997009D01*
X118725346Y-97938370D01*
X118789814Y-97859814D01*
X118893227Y-97774946D01*
X118927009Y-97747222D01*
X119083534Y-97663557D01*
X119253373Y-97612037D01*
X119319557Y-97605519D01*
X119385740Y-97599000D01*
X119474260Y-97599000D01*
X119540443Y-97605519D01*
X119540443Y-97605519D01*
G37*
G36*
X65086424Y-94462760D02*
G01*
X65086427Y-94462761D01*
X65086428Y-94462761D01*
X65265692Y-94517140D01*
X65265695Y-94517142D01*
X65265696Y-94517142D01*
X65430903Y-94605446D01*
X65575712Y-94724288D01*
X65694554Y-94869097D01*
X65774416Y-95018509D01*
X65782860Y-95034307D01*
X65782860Y-95034308D01*
X65837240Y-95213575D01*
X65851000Y-95353282D01*
X65851000Y-97246718D01*
X65837240Y-97386425D01*
X65837239Y-97386428D01*
X65837239Y-97386429D01*
X65782860Y-97565693D01*
X65782858Y-97565696D01*
X65782858Y-97565697D01*
X65694554Y-97730903D01*
X65575712Y-97875712D01*
X65430903Y-97994554D01*
X65283425Y-98073382D01*
X65265693Y-98082860D01*
X65086429Y-98137239D01*
X65086428Y-98137239D01*
X65086425Y-98137240D01*
X64900000Y-98155601D01*
X64713576Y-98137240D01*
X64713573Y-98137239D01*
X64713572Y-98137239D01*
X64534308Y-98082860D01*
X64516576Y-98073382D01*
X64369098Y-97994554D01*
X64224289Y-97875712D01*
X64105447Y-97730903D01*
X64017143Y-97565697D01*
X64017143Y-97565696D01*
X64017141Y-97565693D01*
X63962762Y-97386429D01*
X63962762Y-97386428D01*
X63962761Y-97386425D01*
X63949000Y-97246717D01*
X63949000Y-95353283D01*
X63962760Y-95213576D01*
X63962761Y-95213572D01*
X64017140Y-95034308D01*
X64025585Y-95018509D01*
X64105446Y-94869097D01*
X64224288Y-94724288D01*
X64369097Y-94605446D01*
X64534303Y-94517142D01*
X64534304Y-94517142D01*
X64534307Y-94517140D01*
X64713571Y-94462761D01*
X64713572Y-94462761D01*
X64713575Y-94462760D01*
X64900000Y-94444399D01*
X65086424Y-94462760D01*
X65086424Y-94462760D01*
G37*
G36*
X78586424Y-94462760D02*
G01*
X78586427Y-94462761D01*
X78586428Y-94462761D01*
X78765692Y-94517140D01*
X78765695Y-94517142D01*
X78765696Y-94517142D01*
X78930903Y-94605446D01*
X79075712Y-94724288D01*
X79194554Y-94869097D01*
X79274416Y-95018509D01*
X79282860Y-95034307D01*
X79282860Y-95034308D01*
X79337240Y-95213575D01*
X79351000Y-95353282D01*
X79351000Y-97246718D01*
X79337240Y-97386425D01*
X79337239Y-97386428D01*
X79337239Y-97386429D01*
X79282860Y-97565693D01*
X79282858Y-97565696D01*
X79282858Y-97565697D01*
X79194554Y-97730903D01*
X79075712Y-97875712D01*
X78930903Y-97994554D01*
X78783425Y-98073382D01*
X78765693Y-98082860D01*
X78586429Y-98137239D01*
X78586428Y-98137239D01*
X78586425Y-98137240D01*
X78400000Y-98155601D01*
X78213576Y-98137240D01*
X78213573Y-98137239D01*
X78213572Y-98137239D01*
X78034308Y-98082860D01*
X78016576Y-98073382D01*
X77869098Y-97994554D01*
X77724289Y-97875712D01*
X77605447Y-97730903D01*
X77517143Y-97565697D01*
X77517143Y-97565696D01*
X77517141Y-97565693D01*
X77462762Y-97386429D01*
X77462762Y-97386428D01*
X77462761Y-97386425D01*
X77449000Y-97246717D01*
X77449000Y-95353283D01*
X77462760Y-95213576D01*
X77462761Y-95213572D01*
X77517140Y-95034308D01*
X77525585Y-95018509D01*
X77605446Y-94869097D01*
X77724288Y-94724288D01*
X77869097Y-94605446D01*
X78034303Y-94517142D01*
X78034304Y-94517142D01*
X78034307Y-94517140D01*
X78213571Y-94462761D01*
X78213572Y-94462761D01*
X78213575Y-94462760D01*
X78400000Y-94444399D01*
X78586424Y-94462760D01*
X78586424Y-94462760D01*
G37*
G36*
X62210915Y-94452934D02*
G01*
X62243424Y-94462795D01*
X62273382Y-94478809D01*
X62299641Y-94500359D01*
X62321191Y-94526618D01*
X62337205Y-94556576D01*
X62347066Y-94589085D01*
X62351000Y-94629029D01*
X62351000Y-97970971D01*
X62347066Y-98010915D01*
X62337205Y-98043424D01*
X62321191Y-98073382D01*
X62299641Y-98099641D01*
X62273382Y-98121191D01*
X62243424Y-98137205D01*
X62210915Y-98147066D01*
X62170971Y-98151000D01*
X60629029Y-98151000D01*
X60589085Y-98147066D01*
X60556576Y-98137205D01*
X60526618Y-98121191D01*
X60500359Y-98099641D01*
X60478809Y-98073382D01*
X60462795Y-98043424D01*
X60452934Y-98010915D01*
X60449000Y-97970971D01*
X60449000Y-94629029D01*
X60452934Y-94589085D01*
X60462795Y-94556576D01*
X60478809Y-94526618D01*
X60500359Y-94500359D01*
X60526618Y-94478809D01*
X60556576Y-94462795D01*
X60589085Y-94452934D01*
X60629029Y-94449000D01*
X62170971Y-94449000D01*
X62210915Y-94452934D01*
X62210915Y-94452934D01*
G37*
G36*
X75710915Y-94452934D02*
G01*
X75743424Y-94462795D01*
X75773382Y-94478809D01*
X75799641Y-94500359D01*
X75821191Y-94526618D01*
X75837205Y-94556576D01*
X75847066Y-94589085D01*
X75851000Y-94629029D01*
X75851000Y-97970971D01*
X75847066Y-98010915D01*
X75837205Y-98043424D01*
X75821191Y-98073382D01*
X75799641Y-98099641D01*
X75773382Y-98121191D01*
X75743424Y-98137205D01*
X75710915Y-98147066D01*
X75670971Y-98151000D01*
X74129029Y-98151000D01*
X74089085Y-98147066D01*
X74056576Y-98137205D01*
X74026618Y-98121191D01*
X74000359Y-98099641D01*
X73978809Y-98073382D01*
X73962795Y-98043424D01*
X73952934Y-98010915D01*
X73949000Y-97970971D01*
X73949000Y-94629029D01*
X73952934Y-94589085D01*
X73962795Y-94556576D01*
X73978809Y-94526618D01*
X74000359Y-94500359D01*
X74026618Y-94478809D01*
X74056576Y-94462795D01*
X74089085Y-94452934D01*
X74129029Y-94449000D01*
X75670971Y-94449000D01*
X75710915Y-94452934D01*
X75710915Y-94452934D01*
G37*
G36*
X89026348Y-95141320D02*
G01*
X89026350Y-95141321D01*
X89026351Y-95141321D01*
X89167574Y-95199817D01*
X89167577Y-95199819D01*
X89294669Y-95284739D01*
X89402761Y-95392831D01*
X89459375Y-95477560D01*
X89487683Y-95519926D01*
X89508517Y-95570225D01*
X89520068Y-95591836D01*
X89535614Y-95610778D01*
X89554556Y-95626323D01*
X89576166Y-95637874D01*
X89599615Y-95644987D01*
X89624001Y-95647389D01*
X89648387Y-95644987D01*
X89671836Y-95637874D01*
X89693447Y-95626323D01*
X89712389Y-95610777D01*
X89727934Y-95591835D01*
X89739485Y-95570225D01*
X89746598Y-95546776D01*
X89749000Y-95522390D01*
X89749000Y-95161500D01*
X92851000Y-95161500D01*
X92851000Y-95522390D01*
X92853402Y-95546776D01*
X92860515Y-95570225D01*
X92872066Y-95591836D01*
X92887611Y-95610778D01*
X92906553Y-95626323D01*
X92928164Y-95637874D01*
X92951613Y-95644987D01*
X92975999Y-95647389D01*
X93000385Y-95644987D01*
X93023834Y-95637874D01*
X93045445Y-95626323D01*
X93064387Y-95610778D01*
X93079932Y-95591836D01*
X93091483Y-95570225D01*
X93112317Y-95519926D01*
X93140625Y-95477560D01*
X93197239Y-95392831D01*
X93305331Y-95284739D01*
X93432423Y-95199819D01*
X93432426Y-95199817D01*
X93573649Y-95141321D01*
X93573650Y-95141321D01*
X93573652Y-95141320D01*
X93723569Y-95111500D01*
X93876431Y-95111500D01*
X94026348Y-95141320D01*
X94026350Y-95141321D01*
X94026351Y-95141321D01*
X94167574Y-95199817D01*
X94167577Y-95199819D01*
X94294669Y-95284739D01*
X94402761Y-95392831D01*
X94487681Y-95519923D01*
X94487683Y-95519926D01*
X94546179Y-95661149D01*
X94576000Y-95811071D01*
X94576000Y-95963929D01*
X94546179Y-96113851D01*
X94487683Y-96255074D01*
X94487682Y-96255075D01*
X94487681Y-96255077D01*
X94402761Y-96382169D01*
X94294669Y-96490261D01*
X94167577Y-96575181D01*
X94167574Y-96575183D01*
X94026351Y-96633679D01*
X94026350Y-96633679D01*
X94026348Y-96633680D01*
X93876431Y-96663500D01*
X93723569Y-96663500D01*
X93573652Y-96633680D01*
X93573650Y-96633679D01*
X93573649Y-96633679D01*
X93432426Y-96575183D01*
X93432423Y-96575181D01*
X93305331Y-96490261D01*
X93197239Y-96382169D01*
X93140625Y-96297440D01*
X93112317Y-96255074D01*
X93091481Y-96204772D01*
X93079932Y-96183164D01*
X93064386Y-96164222D01*
X93045444Y-96148677D01*
X93023834Y-96137126D01*
X93000385Y-96130013D01*
X92975999Y-96127611D01*
X92951613Y-96130013D01*
X92928164Y-96137126D01*
X92906553Y-96148677D01*
X92887611Y-96164223D01*
X92872066Y-96183165D01*
X92860515Y-96204775D01*
X92853402Y-96228224D01*
X92851000Y-96252610D01*
X92851000Y-96613500D01*
X89749000Y-96613500D01*
X89749000Y-96252610D01*
X89746598Y-96228224D01*
X89739485Y-96204775D01*
X89727934Y-96183164D01*
X89712389Y-96164222D01*
X89693447Y-96148677D01*
X89671836Y-96137126D01*
X89648387Y-96130013D01*
X89624001Y-96127611D01*
X89599615Y-96130013D01*
X89576166Y-96137126D01*
X89554555Y-96148677D01*
X89535613Y-96164222D01*
X89520068Y-96183164D01*
X89508519Y-96204772D01*
X89487683Y-96255074D01*
X89459375Y-96297440D01*
X89402761Y-96382169D01*
X89294669Y-96490261D01*
X89167577Y-96575181D01*
X89167574Y-96575183D01*
X89026351Y-96633679D01*
X89026350Y-96633679D01*
X89026348Y-96633680D01*
X88876431Y-96663500D01*
X88723569Y-96663500D01*
X88573652Y-96633680D01*
X88573650Y-96633679D01*
X88573649Y-96633679D01*
X88432426Y-96575183D01*
X88432423Y-96575181D01*
X88305331Y-96490261D01*
X88197239Y-96382169D01*
X88112319Y-96255077D01*
X88112318Y-96255075D01*
X88112317Y-96255074D01*
X88053821Y-96113851D01*
X88024000Y-95963929D01*
X88024000Y-95811071D01*
X88053821Y-95661149D01*
X88112317Y-95519926D01*
X88112319Y-95519923D01*
X88197239Y-95392831D01*
X88305331Y-95284739D01*
X88432423Y-95199819D01*
X88432426Y-95199817D01*
X88573649Y-95141321D01*
X88573650Y-95141321D01*
X88573652Y-95141320D01*
X88723569Y-95111500D01*
X88876431Y-95111500D01*
X89026348Y-95141320D01*
X89026348Y-95141320D01*
G37*
G36*
X153084928Y-92201764D02*
G01*
X153106009Y-92208160D01*
X153125445Y-92218548D01*
X153142476Y-92232524D01*
X153156452Y-92249555D01*
X153166840Y-92268991D01*
X153173236Y-92290072D01*
X153176000Y-92318140D01*
X153176000Y-94131860D01*
X153173236Y-94159928D01*
X153166840Y-94181009D01*
X153156452Y-94200445D01*
X153142476Y-94217476D01*
X153125445Y-94231452D01*
X153106009Y-94241840D01*
X153084928Y-94248236D01*
X153056860Y-94251000D01*
X152593140Y-94251000D01*
X152565072Y-94248236D01*
X152543991Y-94241840D01*
X152524555Y-94231452D01*
X152507524Y-94217476D01*
X152493548Y-94200445D01*
X152483160Y-94181009D01*
X152476764Y-94159928D01*
X152474000Y-94131860D01*
X152474000Y-92318140D01*
X152476764Y-92290072D01*
X152483160Y-92268991D01*
X152493548Y-92249555D01*
X152507524Y-92232524D01*
X152524555Y-92218548D01*
X152543991Y-92208160D01*
X152565072Y-92201764D01*
X152593140Y-92199000D01*
X153056860Y-92199000D01*
X153084928Y-92201764D01*
X153084928Y-92201764D01*
G37*
G36*
X156894928Y-92201764D02*
G01*
X156916009Y-92208160D01*
X156935445Y-92218548D01*
X156952476Y-92232524D01*
X156966452Y-92249555D01*
X156976840Y-92268991D01*
X156983236Y-92290072D01*
X156986000Y-92318140D01*
X156986000Y-94131860D01*
X156983236Y-94159928D01*
X156976840Y-94181009D01*
X156966452Y-94200445D01*
X156952476Y-94217476D01*
X156935445Y-94231452D01*
X156916009Y-94241840D01*
X156894928Y-94248236D01*
X156866860Y-94251000D01*
X156403140Y-94251000D01*
X156375072Y-94248236D01*
X156353991Y-94241840D01*
X156334555Y-94231452D01*
X156317524Y-94217476D01*
X156303548Y-94200445D01*
X156293160Y-94181009D01*
X156286764Y-94159928D01*
X156284000Y-94131860D01*
X156284000Y-92318140D01*
X156286764Y-92290072D01*
X156293160Y-92268991D01*
X156303548Y-92249555D01*
X156317524Y-92232524D01*
X156334555Y-92218548D01*
X156353991Y-92208160D01*
X156375072Y-92201764D01*
X156403140Y-92199000D01*
X156866860Y-92199000D01*
X156894928Y-92201764D01*
X156894928Y-92201764D01*
G37*
G36*
X155624928Y-92201764D02*
G01*
X155646009Y-92208160D01*
X155665445Y-92218548D01*
X155682476Y-92232524D01*
X155696452Y-92249555D01*
X155706840Y-92268991D01*
X155713236Y-92290072D01*
X155716000Y-92318140D01*
X155716000Y-94131860D01*
X155713236Y-94159928D01*
X155706840Y-94181009D01*
X155696452Y-94200445D01*
X155682476Y-94217476D01*
X155665445Y-94231452D01*
X155646009Y-94241840D01*
X155624928Y-94248236D01*
X155596860Y-94251000D01*
X155133140Y-94251000D01*
X155105072Y-94248236D01*
X155083991Y-94241840D01*
X155064555Y-94231452D01*
X155047524Y-94217476D01*
X155033548Y-94200445D01*
X155023160Y-94181009D01*
X155016764Y-94159928D01*
X155014000Y-94131860D01*
X155014000Y-92318140D01*
X155016764Y-92290072D01*
X155023160Y-92268991D01*
X155033548Y-92249555D01*
X155047524Y-92232524D01*
X155064555Y-92218548D01*
X155083991Y-92208160D01*
X155105072Y-92201764D01*
X155133140Y-92199000D01*
X155596860Y-92199000D01*
X155624928Y-92201764D01*
X155624928Y-92201764D01*
G37*
G36*
X154354928Y-92201764D02*
G01*
X154376009Y-92208160D01*
X154395445Y-92218548D01*
X154412476Y-92232524D01*
X154426452Y-92249555D01*
X154436840Y-92268991D01*
X154443236Y-92290072D01*
X154446000Y-92318140D01*
X154446000Y-94131860D01*
X154443236Y-94159928D01*
X154436840Y-94181009D01*
X154426452Y-94200445D01*
X154412476Y-94217476D01*
X154395445Y-94231452D01*
X154376009Y-94241840D01*
X154354928Y-94248236D01*
X154326860Y-94251000D01*
X153863140Y-94251000D01*
X153835072Y-94248236D01*
X153813991Y-94241840D01*
X153794555Y-94231452D01*
X153777524Y-94217476D01*
X153763548Y-94200445D01*
X153753160Y-94181009D01*
X153746764Y-94159928D01*
X153744000Y-94131860D01*
X153744000Y-92318140D01*
X153746764Y-92290072D01*
X153753160Y-92268991D01*
X153763548Y-92249555D01*
X153777524Y-92232524D01*
X153794555Y-92218548D01*
X153813991Y-92208160D01*
X153835072Y-92201764D01*
X153863140Y-92199000D01*
X154326860Y-92199000D01*
X154354928Y-92201764D01*
X154354928Y-92201764D01*
G37*
G36*
X151814928Y-92201764D02*
G01*
X151836009Y-92208160D01*
X151855445Y-92218548D01*
X151872476Y-92232524D01*
X151886452Y-92249555D01*
X151896840Y-92268991D01*
X151903236Y-92290072D01*
X151906000Y-92318140D01*
X151906000Y-94131860D01*
X151903236Y-94159928D01*
X151896840Y-94181009D01*
X151886452Y-94200445D01*
X151872476Y-94217476D01*
X151855445Y-94231452D01*
X151836009Y-94241840D01*
X151814928Y-94248236D01*
X151786860Y-94251000D01*
X151323140Y-94251000D01*
X151295072Y-94248236D01*
X151273991Y-94241840D01*
X151254555Y-94231452D01*
X151237524Y-94217476D01*
X151223548Y-94200445D01*
X151213160Y-94181009D01*
X151206764Y-94159928D01*
X151204000Y-94131860D01*
X151204000Y-92318140D01*
X151206764Y-92290072D01*
X151213160Y-92268991D01*
X151223548Y-92249555D01*
X151237524Y-92232524D01*
X151254555Y-92218548D01*
X151273991Y-92208160D01*
X151295072Y-92201764D01*
X151323140Y-92199000D01*
X151786860Y-92199000D01*
X151814928Y-92201764D01*
X151814928Y-92201764D01*
G37*
G36*
X158164928Y-92201764D02*
G01*
X158186009Y-92208160D01*
X158205445Y-92218548D01*
X158222476Y-92232524D01*
X158236452Y-92249555D01*
X158246840Y-92268991D01*
X158253236Y-92290072D01*
X158256000Y-92318140D01*
X158256000Y-94131860D01*
X158253236Y-94159928D01*
X158246840Y-94181009D01*
X158236452Y-94200445D01*
X158222476Y-94217476D01*
X158205445Y-94231452D01*
X158186009Y-94241840D01*
X158164928Y-94248236D01*
X158136860Y-94251000D01*
X157673140Y-94251000D01*
X157645072Y-94248236D01*
X157623991Y-94241840D01*
X157604555Y-94231452D01*
X157587524Y-94217476D01*
X157573548Y-94200445D01*
X157563160Y-94181009D01*
X157556764Y-94159928D01*
X157554000Y-94131860D01*
X157554000Y-92318140D01*
X157556764Y-92290072D01*
X157563160Y-92268991D01*
X157573548Y-92249555D01*
X157587524Y-92232524D01*
X157604555Y-92218548D01*
X157623991Y-92208160D01*
X157645072Y-92201764D01*
X157673140Y-92199000D01*
X158136860Y-92199000D01*
X158164928Y-92201764D01*
X158164928Y-92201764D01*
G37*
G36*
X159434928Y-92201764D02*
G01*
X159456009Y-92208160D01*
X159475445Y-92218548D01*
X159492476Y-92232524D01*
X159506452Y-92249555D01*
X159516840Y-92268991D01*
X159523236Y-92290072D01*
X159526000Y-92318140D01*
X159526000Y-94131860D01*
X159523236Y-94159928D01*
X159516840Y-94181009D01*
X159506452Y-94200445D01*
X159492476Y-94217476D01*
X159475445Y-94231452D01*
X159456009Y-94241840D01*
X159434928Y-94248236D01*
X159406860Y-94251000D01*
X158943140Y-94251000D01*
X158915072Y-94248236D01*
X158893991Y-94241840D01*
X158874555Y-94231452D01*
X158857524Y-94217476D01*
X158843548Y-94200445D01*
X158833160Y-94181009D01*
X158826764Y-94159928D01*
X158824000Y-94131860D01*
X158824000Y-92318140D01*
X158826764Y-92290072D01*
X158833160Y-92268991D01*
X158843548Y-92249555D01*
X158857524Y-92232524D01*
X158874555Y-92218548D01*
X158893991Y-92208160D01*
X158915072Y-92201764D01*
X158943140Y-92199000D01*
X159406860Y-92199000D01*
X159434928Y-92201764D01*
X159434928Y-92201764D01*
G37*
G36*
X160704928Y-92201764D02*
G01*
X160726009Y-92208160D01*
X160745445Y-92218548D01*
X160762476Y-92232524D01*
X160776452Y-92249555D01*
X160786840Y-92268991D01*
X160793236Y-92290072D01*
X160796000Y-92318140D01*
X160796000Y-94131860D01*
X160793236Y-94159928D01*
X160786840Y-94181009D01*
X160776452Y-94200445D01*
X160762476Y-94217476D01*
X160745445Y-94231452D01*
X160726009Y-94241840D01*
X160704928Y-94248236D01*
X160676860Y-94251000D01*
X160213140Y-94251000D01*
X160185072Y-94248236D01*
X160163991Y-94241840D01*
X160144555Y-94231452D01*
X160127524Y-94217476D01*
X160113548Y-94200445D01*
X160103160Y-94181009D01*
X160096764Y-94159928D01*
X160094000Y-94131860D01*
X160094000Y-92318140D01*
X160096764Y-92290072D01*
X160103160Y-92268991D01*
X160113548Y-92249555D01*
X160127524Y-92232524D01*
X160144555Y-92218548D01*
X160163991Y-92208160D01*
X160185072Y-92201764D01*
X160213140Y-92199000D01*
X160676860Y-92199000D01*
X160704928Y-92201764D01*
X160704928Y-92201764D01*
G37*
G36*
X92134468Y-92703565D02*
G01*
X92173138Y-92715296D01*
X92208777Y-92734346D01*
X92240017Y-92759983D01*
X92265654Y-92791223D01*
X92284704Y-92826862D01*
X92296435Y-92865532D01*
X92301000Y-92911888D01*
X92301000Y-93988112D01*
X92296435Y-94034468D01*
X92284704Y-94073138D01*
X92265654Y-94108777D01*
X92240017Y-94140017D01*
X92208777Y-94165654D01*
X92173138Y-94184704D01*
X92134468Y-94196435D01*
X92088112Y-94201000D01*
X91436888Y-94201000D01*
X91390532Y-94196435D01*
X91351862Y-94184704D01*
X91316223Y-94165654D01*
X91284983Y-94140017D01*
X91259346Y-94108777D01*
X91240296Y-94073138D01*
X91228565Y-94034468D01*
X91224000Y-93988112D01*
X91224000Y-92911888D01*
X91228565Y-92865532D01*
X91240296Y-92826862D01*
X91259346Y-92791223D01*
X91284983Y-92759983D01*
X91316223Y-92734346D01*
X91351862Y-92715296D01*
X91390532Y-92703565D01*
X91436888Y-92699000D01*
X92088112Y-92699000D01*
X92134468Y-92703565D01*
X92134468Y-92703565D01*
G37*
G36*
X94009468Y-92703565D02*
G01*
X94048138Y-92715296D01*
X94083777Y-92734346D01*
X94115017Y-92759983D01*
X94140654Y-92791223D01*
X94159704Y-92826862D01*
X94171435Y-92865532D01*
X94176000Y-92911888D01*
X94176000Y-93988112D01*
X94171435Y-94034468D01*
X94159704Y-94073138D01*
X94140654Y-94108777D01*
X94115017Y-94140017D01*
X94083777Y-94165654D01*
X94048138Y-94184704D01*
X94009468Y-94196435D01*
X93963112Y-94201000D01*
X93311888Y-94201000D01*
X93265532Y-94196435D01*
X93226862Y-94184704D01*
X93191223Y-94165654D01*
X93159983Y-94140017D01*
X93134346Y-94108777D01*
X93115296Y-94073138D01*
X93103565Y-94034468D01*
X93099000Y-93988112D01*
X93099000Y-92911888D01*
X93103565Y-92865532D01*
X93115296Y-92826862D01*
X93134346Y-92791223D01*
X93159983Y-92759983D01*
X93191223Y-92734346D01*
X93226862Y-92715296D01*
X93265532Y-92703565D01*
X93311888Y-92699000D01*
X93963112Y-92699000D01*
X94009468Y-92703565D01*
X94009468Y-92703565D01*
G37*
G36*
X180589928Y-92101764D02*
G01*
X180611009Y-92108160D01*
X180630445Y-92118548D01*
X180647476Y-92132524D01*
X180661452Y-92149555D01*
X180671840Y-92168991D01*
X180678236Y-92190072D01*
X180681000Y-92218140D01*
X180681000Y-94031860D01*
X180678236Y-94059928D01*
X180671840Y-94081009D01*
X180661452Y-94100445D01*
X180647476Y-94117476D01*
X180630445Y-94131452D01*
X180611009Y-94141840D01*
X180589928Y-94148236D01*
X180561860Y-94151000D01*
X180098140Y-94151000D01*
X180070072Y-94148236D01*
X180048991Y-94141840D01*
X180029555Y-94131452D01*
X180012524Y-94117476D01*
X179998548Y-94100445D01*
X179988160Y-94081009D01*
X179981764Y-94059928D01*
X179979000Y-94031860D01*
X179979000Y-92218140D01*
X179981764Y-92190072D01*
X179988160Y-92168991D01*
X179998548Y-92149555D01*
X180012524Y-92132524D01*
X180029555Y-92118548D01*
X180048991Y-92108160D01*
X180070072Y-92101764D01*
X180098140Y-92099000D01*
X180561860Y-92099000D01*
X180589928Y-92101764D01*
X180589928Y-92101764D01*
G37*
G36*
X203014928Y-92101764D02*
G01*
X203036009Y-92108160D01*
X203055445Y-92118548D01*
X203072476Y-92132524D01*
X203086452Y-92149555D01*
X203096840Y-92168991D01*
X203103236Y-92190072D01*
X203106000Y-92218140D01*
X203106000Y-94031860D01*
X203103236Y-94059928D01*
X203096840Y-94081009D01*
X203086452Y-94100445D01*
X203072476Y-94117476D01*
X203055445Y-94131452D01*
X203036009Y-94141840D01*
X203014928Y-94148236D01*
X202986860Y-94151000D01*
X202523140Y-94151000D01*
X202495072Y-94148236D01*
X202473991Y-94141840D01*
X202454555Y-94131452D01*
X202437524Y-94117476D01*
X202423548Y-94100445D01*
X202413160Y-94081009D01*
X202406764Y-94059928D01*
X202404000Y-94031860D01*
X202404000Y-92218140D01*
X202406764Y-92190072D01*
X202413160Y-92168991D01*
X202423548Y-92149555D01*
X202437524Y-92132524D01*
X202454555Y-92118548D01*
X202473991Y-92108160D01*
X202495072Y-92101764D01*
X202523140Y-92099000D01*
X202986860Y-92099000D01*
X203014928Y-92101764D01*
X203014928Y-92101764D01*
G37*
G36*
X201744928Y-92101764D02*
G01*
X201766009Y-92108160D01*
X201785445Y-92118548D01*
X201802476Y-92132524D01*
X201816452Y-92149555D01*
X201826840Y-92168991D01*
X201833236Y-92190072D01*
X201836000Y-92218140D01*
X201836000Y-94031860D01*
X201833236Y-94059928D01*
X201826840Y-94081009D01*
X201816452Y-94100445D01*
X201802476Y-94117476D01*
X201785445Y-94131452D01*
X201766009Y-94141840D01*
X201744928Y-94148236D01*
X201716860Y-94151000D01*
X201253140Y-94151000D01*
X201225072Y-94148236D01*
X201203991Y-94141840D01*
X201184555Y-94131452D01*
X201167524Y-94117476D01*
X201153548Y-94100445D01*
X201143160Y-94081009D01*
X201136764Y-94059928D01*
X201134000Y-94031860D01*
X201134000Y-92218140D01*
X201136764Y-92190072D01*
X201143160Y-92168991D01*
X201153548Y-92149555D01*
X201167524Y-92132524D01*
X201184555Y-92118548D01*
X201203991Y-92108160D01*
X201225072Y-92101764D01*
X201253140Y-92099000D01*
X201716860Y-92099000D01*
X201744928Y-92101764D01*
X201744928Y-92101764D01*
G37*
G36*
X200474928Y-92101764D02*
G01*
X200496009Y-92108160D01*
X200515445Y-92118548D01*
X200532476Y-92132524D01*
X200546452Y-92149555D01*
X200556840Y-92168991D01*
X200563236Y-92190072D01*
X200566000Y-92218140D01*
X200566000Y-94031860D01*
X200563236Y-94059928D01*
X200556840Y-94081009D01*
X200546452Y-94100445D01*
X200532476Y-94117476D01*
X200515445Y-94131452D01*
X200496009Y-94141840D01*
X200474928Y-94148236D01*
X200446860Y-94151000D01*
X199983140Y-94151000D01*
X199955072Y-94148236D01*
X199933991Y-94141840D01*
X199914555Y-94131452D01*
X199897524Y-94117476D01*
X199883548Y-94100445D01*
X199873160Y-94081009D01*
X199866764Y-94059928D01*
X199864000Y-94031860D01*
X199864000Y-92218140D01*
X199866764Y-92190072D01*
X199873160Y-92168991D01*
X199883548Y-92149555D01*
X199897524Y-92132524D01*
X199914555Y-92118548D01*
X199933991Y-92108160D01*
X199955072Y-92101764D01*
X199983140Y-92099000D01*
X200446860Y-92099000D01*
X200474928Y-92101764D01*
X200474928Y-92101764D01*
G37*
G36*
X197934928Y-92101764D02*
G01*
X197956009Y-92108160D01*
X197975445Y-92118548D01*
X197992476Y-92132524D01*
X198006452Y-92149555D01*
X198016840Y-92168991D01*
X198023236Y-92190072D01*
X198026000Y-92218140D01*
X198026000Y-94031860D01*
X198023236Y-94059928D01*
X198016840Y-94081009D01*
X198006452Y-94100445D01*
X197992476Y-94117476D01*
X197975445Y-94131452D01*
X197956009Y-94141840D01*
X197934928Y-94148236D01*
X197906860Y-94151000D01*
X197443140Y-94151000D01*
X197415072Y-94148236D01*
X197393991Y-94141840D01*
X197374555Y-94131452D01*
X197357524Y-94117476D01*
X197343548Y-94100445D01*
X197333160Y-94081009D01*
X197326764Y-94059928D01*
X197324000Y-94031860D01*
X197324000Y-92218140D01*
X197326764Y-92190072D01*
X197333160Y-92168991D01*
X197343548Y-92149555D01*
X197357524Y-92132524D01*
X197374555Y-92118548D01*
X197393991Y-92108160D01*
X197415072Y-92101764D01*
X197443140Y-92099000D01*
X197906860Y-92099000D01*
X197934928Y-92101764D01*
X197934928Y-92101764D01*
G37*
G36*
X196664928Y-92101764D02*
G01*
X196686009Y-92108160D01*
X196705445Y-92118548D01*
X196722476Y-92132524D01*
X196736452Y-92149555D01*
X196746840Y-92168991D01*
X196753236Y-92190072D01*
X196756000Y-92218140D01*
X196756000Y-94031860D01*
X196753236Y-94059928D01*
X196746840Y-94081009D01*
X196736452Y-94100445D01*
X196722476Y-94117476D01*
X196705445Y-94131452D01*
X196686009Y-94141840D01*
X196664928Y-94148236D01*
X196636860Y-94151000D01*
X196173140Y-94151000D01*
X196145072Y-94148236D01*
X196123991Y-94141840D01*
X196104555Y-94131452D01*
X196087524Y-94117476D01*
X196073548Y-94100445D01*
X196063160Y-94081009D01*
X196056764Y-94059928D01*
X196054000Y-94031860D01*
X196054000Y-92218140D01*
X196056764Y-92190072D01*
X196063160Y-92168991D01*
X196073548Y-92149555D01*
X196087524Y-92132524D01*
X196104555Y-92118548D01*
X196123991Y-92108160D01*
X196145072Y-92101764D01*
X196173140Y-92099000D01*
X196636860Y-92099000D01*
X196664928Y-92101764D01*
X196664928Y-92101764D01*
G37*
G36*
X183129928Y-92101764D02*
G01*
X183151009Y-92108160D01*
X183170445Y-92118548D01*
X183187476Y-92132524D01*
X183201452Y-92149555D01*
X183211840Y-92168991D01*
X183218236Y-92190072D01*
X183221000Y-92218140D01*
X183221000Y-94031860D01*
X183218236Y-94059928D01*
X183211840Y-94081009D01*
X183201452Y-94100445D01*
X183187476Y-94117476D01*
X183170445Y-94131452D01*
X183151009Y-94141840D01*
X183129928Y-94148236D01*
X183101860Y-94151000D01*
X182638140Y-94151000D01*
X182610072Y-94148236D01*
X182588991Y-94141840D01*
X182569555Y-94131452D01*
X182552524Y-94117476D01*
X182538548Y-94100445D01*
X182528160Y-94081009D01*
X182521764Y-94059928D01*
X182519000Y-94031860D01*
X182519000Y-92218140D01*
X182521764Y-92190072D01*
X182528160Y-92168991D01*
X182538548Y-92149555D01*
X182552524Y-92132524D01*
X182569555Y-92118548D01*
X182588991Y-92108160D01*
X182610072Y-92101764D01*
X182638140Y-92099000D01*
X183101860Y-92099000D01*
X183129928Y-92101764D01*
X183129928Y-92101764D01*
G37*
G36*
X181859928Y-92101764D02*
G01*
X181881009Y-92108160D01*
X181900445Y-92118548D01*
X181917476Y-92132524D01*
X181931452Y-92149555D01*
X181941840Y-92168991D01*
X181948236Y-92190072D01*
X181951000Y-92218140D01*
X181951000Y-94031860D01*
X181948236Y-94059928D01*
X181941840Y-94081009D01*
X181931452Y-94100445D01*
X181917476Y-94117476D01*
X181900445Y-94131452D01*
X181881009Y-94141840D01*
X181859928Y-94148236D01*
X181831860Y-94151000D01*
X181368140Y-94151000D01*
X181340072Y-94148236D01*
X181318991Y-94141840D01*
X181299555Y-94131452D01*
X181282524Y-94117476D01*
X181268548Y-94100445D01*
X181258160Y-94081009D01*
X181251764Y-94059928D01*
X181249000Y-94031860D01*
X181249000Y-92218140D01*
X181251764Y-92190072D01*
X181258160Y-92168991D01*
X181268548Y-92149555D01*
X181282524Y-92132524D01*
X181299555Y-92118548D01*
X181318991Y-92108160D01*
X181340072Y-92101764D01*
X181368140Y-92099000D01*
X181831860Y-92099000D01*
X181859928Y-92101764D01*
X181859928Y-92101764D01*
G37*
G36*
X179319928Y-92101764D02*
G01*
X179341009Y-92108160D01*
X179360445Y-92118548D01*
X179377476Y-92132524D01*
X179391452Y-92149555D01*
X179401840Y-92168991D01*
X179408236Y-92190072D01*
X179411000Y-92218140D01*
X179411000Y-94031860D01*
X179408236Y-94059928D01*
X179401840Y-94081009D01*
X179391452Y-94100445D01*
X179377476Y-94117476D01*
X179360445Y-94131452D01*
X179341009Y-94141840D01*
X179319928Y-94148236D01*
X179291860Y-94151000D01*
X178828140Y-94151000D01*
X178800072Y-94148236D01*
X178778991Y-94141840D01*
X178759555Y-94131452D01*
X178742524Y-94117476D01*
X178728548Y-94100445D01*
X178718160Y-94081009D01*
X178711764Y-94059928D01*
X178709000Y-94031860D01*
X178709000Y-92218140D01*
X178711764Y-92190072D01*
X178718160Y-92168991D01*
X178728548Y-92149555D01*
X178742524Y-92132524D01*
X178759555Y-92118548D01*
X178778991Y-92108160D01*
X178800072Y-92101764D01*
X178828140Y-92099000D01*
X179291860Y-92099000D01*
X179319928Y-92101764D01*
X179319928Y-92101764D01*
G37*
G36*
X178049928Y-92101764D02*
G01*
X178071009Y-92108160D01*
X178090445Y-92118548D01*
X178107476Y-92132524D01*
X178121452Y-92149555D01*
X178131840Y-92168991D01*
X178138236Y-92190072D01*
X178141000Y-92218140D01*
X178141000Y-94031860D01*
X178138236Y-94059928D01*
X178131840Y-94081009D01*
X178121452Y-94100445D01*
X178107476Y-94117476D01*
X178090445Y-94131452D01*
X178071009Y-94141840D01*
X178049928Y-94148236D01*
X178021860Y-94151000D01*
X177558140Y-94151000D01*
X177530072Y-94148236D01*
X177508991Y-94141840D01*
X177489555Y-94131452D01*
X177472524Y-94117476D01*
X177458548Y-94100445D01*
X177448160Y-94081009D01*
X177441764Y-94059928D01*
X177439000Y-94031860D01*
X177439000Y-92218140D01*
X177441764Y-92190072D01*
X177448160Y-92168991D01*
X177458548Y-92149555D01*
X177472524Y-92132524D01*
X177489555Y-92118548D01*
X177508991Y-92108160D01*
X177530072Y-92101764D01*
X177558140Y-92099000D01*
X178021860Y-92099000D01*
X178049928Y-92101764D01*
X178049928Y-92101764D01*
G37*
G36*
X176779928Y-92101764D02*
G01*
X176801009Y-92108160D01*
X176820445Y-92118548D01*
X176837476Y-92132524D01*
X176851452Y-92149555D01*
X176861840Y-92168991D01*
X176868236Y-92190072D01*
X176871000Y-92218140D01*
X176871000Y-94031860D01*
X176868236Y-94059928D01*
X176861840Y-94081009D01*
X176851452Y-94100445D01*
X176837476Y-94117476D01*
X176820445Y-94131452D01*
X176801009Y-94141840D01*
X176779928Y-94148236D01*
X176751860Y-94151000D01*
X176288140Y-94151000D01*
X176260072Y-94148236D01*
X176238991Y-94141840D01*
X176219555Y-94131452D01*
X176202524Y-94117476D01*
X176188548Y-94100445D01*
X176178160Y-94081009D01*
X176171764Y-94059928D01*
X176169000Y-94031860D01*
X176169000Y-92218140D01*
X176171764Y-92190072D01*
X176178160Y-92168991D01*
X176188548Y-92149555D01*
X176202524Y-92132524D01*
X176219555Y-92118548D01*
X176238991Y-92108160D01*
X176260072Y-92101764D01*
X176288140Y-92099000D01*
X176751860Y-92099000D01*
X176779928Y-92101764D01*
X176779928Y-92101764D01*
G37*
G36*
X175509928Y-92101764D02*
G01*
X175531009Y-92108160D01*
X175550445Y-92118548D01*
X175567476Y-92132524D01*
X175581452Y-92149555D01*
X175591840Y-92168991D01*
X175598236Y-92190072D01*
X175601000Y-92218140D01*
X175601000Y-94031860D01*
X175598236Y-94059928D01*
X175591840Y-94081009D01*
X175581452Y-94100445D01*
X175567476Y-94117476D01*
X175550445Y-94131452D01*
X175531009Y-94141840D01*
X175509928Y-94148236D01*
X175481860Y-94151000D01*
X175018140Y-94151000D01*
X174990072Y-94148236D01*
X174968991Y-94141840D01*
X174949555Y-94131452D01*
X174932524Y-94117476D01*
X174918548Y-94100445D01*
X174908160Y-94081009D01*
X174901764Y-94059928D01*
X174899000Y-94031860D01*
X174899000Y-92218140D01*
X174901764Y-92190072D01*
X174908160Y-92168991D01*
X174918548Y-92149555D01*
X174932524Y-92132524D01*
X174949555Y-92118548D01*
X174968991Y-92108160D01*
X174990072Y-92101764D01*
X175018140Y-92099000D01*
X175481860Y-92099000D01*
X175509928Y-92101764D01*
X175509928Y-92101764D01*
G37*
G36*
X174239928Y-92101764D02*
G01*
X174261009Y-92108160D01*
X174280445Y-92118548D01*
X174297476Y-92132524D01*
X174311452Y-92149555D01*
X174321840Y-92168991D01*
X174328236Y-92190072D01*
X174331000Y-92218140D01*
X174331000Y-94031860D01*
X174328236Y-94059928D01*
X174321840Y-94081009D01*
X174311452Y-94100445D01*
X174297476Y-94117476D01*
X174280445Y-94131452D01*
X174261009Y-94141840D01*
X174239928Y-94148236D01*
X174211860Y-94151000D01*
X173748140Y-94151000D01*
X173720072Y-94148236D01*
X173698991Y-94141840D01*
X173679555Y-94131452D01*
X173662524Y-94117476D01*
X173648548Y-94100445D01*
X173638160Y-94081009D01*
X173631764Y-94059928D01*
X173629000Y-94031860D01*
X173629000Y-92218140D01*
X173631764Y-92190072D01*
X173638160Y-92168991D01*
X173648548Y-92149555D01*
X173662524Y-92132524D01*
X173679555Y-92118548D01*
X173698991Y-92108160D01*
X173720072Y-92101764D01*
X173748140Y-92099000D01*
X174211860Y-92099000D01*
X174239928Y-92101764D01*
X174239928Y-92101764D01*
G37*
G36*
X204284928Y-92101764D02*
G01*
X204306009Y-92108160D01*
X204325445Y-92118548D01*
X204342476Y-92132524D01*
X204356452Y-92149555D01*
X204366840Y-92168991D01*
X204373236Y-92190072D01*
X204376000Y-92218140D01*
X204376000Y-94031860D01*
X204373236Y-94059928D01*
X204366840Y-94081009D01*
X204356452Y-94100445D01*
X204342476Y-94117476D01*
X204325445Y-94131452D01*
X204306009Y-94141840D01*
X204284928Y-94148236D01*
X204256860Y-94151000D01*
X203793140Y-94151000D01*
X203765072Y-94148236D01*
X203743991Y-94141840D01*
X203724555Y-94131452D01*
X203707524Y-94117476D01*
X203693548Y-94100445D01*
X203683160Y-94081009D01*
X203676764Y-94059928D01*
X203674000Y-94031860D01*
X203674000Y-92218140D01*
X203676764Y-92190072D01*
X203683160Y-92168991D01*
X203693548Y-92149555D01*
X203707524Y-92132524D01*
X203724555Y-92118548D01*
X203743991Y-92108160D01*
X203765072Y-92101764D01*
X203793140Y-92099000D01*
X204256860Y-92099000D01*
X204284928Y-92101764D01*
X204284928Y-92101764D01*
G37*
G36*
X205554928Y-92101764D02*
G01*
X205576009Y-92108160D01*
X205595445Y-92118548D01*
X205612476Y-92132524D01*
X205626452Y-92149555D01*
X205636840Y-92168991D01*
X205643236Y-92190072D01*
X205646000Y-92218140D01*
X205646000Y-94031860D01*
X205643236Y-94059928D01*
X205636840Y-94081009D01*
X205626452Y-94100445D01*
X205612476Y-94117476D01*
X205595445Y-94131452D01*
X205576009Y-94141840D01*
X205554928Y-94148236D01*
X205526860Y-94151000D01*
X205063140Y-94151000D01*
X205035072Y-94148236D01*
X205013991Y-94141840D01*
X204994555Y-94131452D01*
X204977524Y-94117476D01*
X204963548Y-94100445D01*
X204953160Y-94081009D01*
X204946764Y-94059928D01*
X204944000Y-94031860D01*
X204944000Y-92218140D01*
X204946764Y-92190072D01*
X204953160Y-92168991D01*
X204963548Y-92149555D01*
X204977524Y-92132524D01*
X204994555Y-92118548D01*
X205013991Y-92108160D01*
X205035072Y-92101764D01*
X205063140Y-92099000D01*
X205526860Y-92099000D01*
X205554928Y-92101764D01*
X205554928Y-92101764D01*
G37*
G36*
X199204928Y-92101764D02*
G01*
X199226009Y-92108160D01*
X199245445Y-92118548D01*
X199262476Y-92132524D01*
X199276452Y-92149555D01*
X199286840Y-92168991D01*
X199293236Y-92190072D01*
X199296000Y-92218140D01*
X199296000Y-94031860D01*
X199293236Y-94059928D01*
X199286840Y-94081009D01*
X199276452Y-94100445D01*
X199262476Y-94117476D01*
X199245445Y-94131452D01*
X199226009Y-94141840D01*
X199204928Y-94148236D01*
X199176860Y-94151000D01*
X198713140Y-94151000D01*
X198685072Y-94148236D01*
X198663991Y-94141840D01*
X198644555Y-94131452D01*
X198627524Y-94117476D01*
X198613548Y-94100445D01*
X198603160Y-94081009D01*
X198596764Y-94059928D01*
X198594000Y-94031860D01*
X198594000Y-92218140D01*
X198596764Y-92190072D01*
X198603160Y-92168991D01*
X198613548Y-92149555D01*
X198627524Y-92132524D01*
X198644555Y-92118548D01*
X198663991Y-92108160D01*
X198685072Y-92101764D01*
X198713140Y-92099000D01*
X199176860Y-92099000D01*
X199204928Y-92101764D01*
X199204928Y-92101764D01*
G37*
G36*
X89301000Y-93776000D02*
G01*
X88299000Y-93776000D01*
X88299000Y-92474000D01*
X89301000Y-92474000D01*
X89301000Y-93776000D01*
X89301000Y-93776000D01*
G37*
G36*
X86001000Y-93776000D02*
G01*
X84999000Y-93776000D01*
X84999000Y-92474000D01*
X86001000Y-92474000D01*
X86001000Y-93776000D01*
X86001000Y-93776000D01*
G37*
G36*
X116079591Y-92303085D02*
G01*
X116113569Y-92313393D01*
X116144890Y-92330134D01*
X116172339Y-92352661D01*
X116194866Y-92380110D01*
X116211607Y-92411431D01*
X116221915Y-92445409D01*
X116226000Y-92486890D01*
X116226000Y-93088110D01*
X116221915Y-93129591D01*
X116211607Y-93163569D01*
X116194866Y-93194890D01*
X116172339Y-93222339D01*
X116144890Y-93244866D01*
X116113569Y-93261607D01*
X116079591Y-93271915D01*
X116038110Y-93276000D01*
X115361890Y-93276000D01*
X115320409Y-93271915D01*
X115286431Y-93261607D01*
X115255110Y-93244866D01*
X115227661Y-93222339D01*
X115205134Y-93194890D01*
X115188393Y-93163569D01*
X115178085Y-93129591D01*
X115174000Y-93088110D01*
X115174000Y-92486890D01*
X115178085Y-92445409D01*
X115188393Y-92411431D01*
X115205134Y-92380110D01*
X115227661Y-92352661D01*
X115255110Y-92330134D01*
X115286431Y-92313393D01*
X115320409Y-92303085D01*
X115361890Y-92299000D01*
X116038110Y-92299000D01*
X116079591Y-92303085D01*
X116079591Y-92303085D01*
G37*
G36*
X118634468Y-92103565D02*
G01*
X118673138Y-92115296D01*
X118708777Y-92134346D01*
X118740017Y-92159983D01*
X118765654Y-92191223D01*
X118784704Y-92226862D01*
X118796435Y-92265532D01*
X118801000Y-92311888D01*
X118801000Y-92963112D01*
X118796435Y-93009468D01*
X118784704Y-93048138D01*
X118765654Y-93083777D01*
X118740017Y-93115017D01*
X118708777Y-93140654D01*
X118673138Y-93159704D01*
X118634468Y-93171435D01*
X118588112Y-93176000D01*
X117511888Y-93176000D01*
X117465532Y-93171435D01*
X117426862Y-93159704D01*
X117391223Y-93140654D01*
X117359983Y-93115017D01*
X117334346Y-93083777D01*
X117315296Y-93048138D01*
X117303565Y-93009468D01*
X117299000Y-92963112D01*
X117299000Y-92311888D01*
X117303565Y-92265532D01*
X117315296Y-92226862D01*
X117334346Y-92191223D01*
X117359983Y-92159983D01*
X117391223Y-92134346D01*
X117426862Y-92115296D01*
X117465532Y-92103565D01*
X117511888Y-92099000D01*
X118588112Y-92099000D01*
X118634468Y-92103565D01*
X118634468Y-92103565D01*
G37*
G36*
X110205355Y-86525083D02*
G01*
X110210029Y-86526501D01*
X110214330Y-86528800D01*
X110220702Y-86534029D01*
X110241076Y-86547643D01*
X110263715Y-86557020D01*
X110287749Y-86561800D01*
X110312253Y-86561800D01*
X110336286Y-86557019D01*
X110358925Y-86547642D01*
X110379298Y-86534029D01*
X110385670Y-86528800D01*
X110389971Y-86526501D01*
X110394645Y-86525083D01*
X110405641Y-86524000D01*
X110694359Y-86524000D01*
X110705355Y-86525083D01*
X110710029Y-86526501D01*
X110714330Y-86528800D01*
X110720702Y-86534029D01*
X110741076Y-86547643D01*
X110763715Y-86557020D01*
X110787749Y-86561800D01*
X110812253Y-86561800D01*
X110836286Y-86557019D01*
X110858925Y-86547642D01*
X110879298Y-86534029D01*
X110885670Y-86528800D01*
X110889971Y-86526501D01*
X110894645Y-86525083D01*
X110905641Y-86524000D01*
X111194359Y-86524000D01*
X111205355Y-86525083D01*
X111210029Y-86526501D01*
X111214330Y-86528800D01*
X111220702Y-86534029D01*
X111241076Y-86547643D01*
X111263715Y-86557020D01*
X111287749Y-86561800D01*
X111312253Y-86561800D01*
X111336286Y-86557019D01*
X111358925Y-86547642D01*
X111379298Y-86534029D01*
X111385670Y-86528800D01*
X111389971Y-86526501D01*
X111394645Y-86525083D01*
X111405641Y-86524000D01*
X111694359Y-86524000D01*
X111705355Y-86525083D01*
X111710029Y-86526501D01*
X111714330Y-86528800D01*
X111720702Y-86534029D01*
X111741076Y-86547643D01*
X111763715Y-86557020D01*
X111787749Y-86561800D01*
X111812253Y-86561800D01*
X111836286Y-86557019D01*
X111858925Y-86547642D01*
X111879298Y-86534029D01*
X111885670Y-86528800D01*
X111889971Y-86526501D01*
X111894645Y-86525083D01*
X111905641Y-86524000D01*
X112194359Y-86524000D01*
X112205355Y-86525083D01*
X112210029Y-86526501D01*
X112214330Y-86528800D01*
X112220702Y-86534029D01*
X112241076Y-86547643D01*
X112263715Y-86557020D01*
X112287749Y-86561800D01*
X112312253Y-86561800D01*
X112336286Y-86557019D01*
X112358925Y-86547642D01*
X112379298Y-86534029D01*
X112385670Y-86528800D01*
X112389971Y-86526501D01*
X112394645Y-86525083D01*
X112405641Y-86524000D01*
X112694359Y-86524000D01*
X112705355Y-86525083D01*
X112710029Y-86526501D01*
X112714330Y-86528800D01*
X112720702Y-86534029D01*
X112741076Y-86547643D01*
X112763715Y-86557020D01*
X112787749Y-86561800D01*
X112812253Y-86561800D01*
X112836286Y-86557019D01*
X112858925Y-86547642D01*
X112879298Y-86534029D01*
X112885670Y-86528800D01*
X112889971Y-86526501D01*
X112894645Y-86525083D01*
X112905641Y-86524000D01*
X113194359Y-86524000D01*
X113205355Y-86525083D01*
X113210029Y-86526501D01*
X113214330Y-86528800D01*
X113220702Y-86534029D01*
X113241076Y-86547643D01*
X113263715Y-86557020D01*
X113287749Y-86561800D01*
X113312253Y-86561800D01*
X113336286Y-86557019D01*
X113358925Y-86547642D01*
X113379298Y-86534029D01*
X113385670Y-86528800D01*
X113389971Y-86526501D01*
X113394645Y-86525083D01*
X113405641Y-86524000D01*
X113694359Y-86524000D01*
X113705355Y-86525083D01*
X113710029Y-86526501D01*
X113714331Y-86528800D01*
X113718104Y-86531896D01*
X113721200Y-86535669D01*
X113723499Y-86539971D01*
X113724917Y-86544645D01*
X113726000Y-86555641D01*
X113726000Y-87399001D01*
X113728402Y-87423387D01*
X113735515Y-87446836D01*
X113747066Y-87468447D01*
X113762611Y-87487389D01*
X113781553Y-87502934D01*
X113803164Y-87514485D01*
X113826613Y-87521598D01*
X113850999Y-87524000D01*
X114694359Y-87524000D01*
X114705355Y-87525083D01*
X114710029Y-87526501D01*
X114714331Y-87528800D01*
X114718104Y-87531896D01*
X114721200Y-87535669D01*
X114723499Y-87539971D01*
X114724917Y-87544645D01*
X114726000Y-87555641D01*
X114726000Y-87844359D01*
X114724917Y-87855355D01*
X114723499Y-87860029D01*
X114721200Y-87864330D01*
X114715971Y-87870702D01*
X114702357Y-87891076D01*
X114692980Y-87913715D01*
X114688200Y-87937749D01*
X114688200Y-87962253D01*
X114692981Y-87986286D01*
X114702358Y-88008925D01*
X114715971Y-88029298D01*
X114721200Y-88035670D01*
X114723499Y-88039971D01*
X114724917Y-88044645D01*
X114726000Y-88055641D01*
X114726000Y-88344359D01*
X114724917Y-88355355D01*
X114723499Y-88360029D01*
X114721200Y-88364330D01*
X114715971Y-88370702D01*
X114702357Y-88391076D01*
X114692980Y-88413715D01*
X114688200Y-88437749D01*
X114688200Y-88462253D01*
X114692981Y-88486286D01*
X114702358Y-88508925D01*
X114715971Y-88529298D01*
X114721200Y-88535670D01*
X114723499Y-88539971D01*
X114724917Y-88544645D01*
X114726000Y-88555641D01*
X114726000Y-88844359D01*
X114724917Y-88855355D01*
X114723499Y-88860029D01*
X114721200Y-88864330D01*
X114715971Y-88870702D01*
X114702357Y-88891076D01*
X114692980Y-88913715D01*
X114688200Y-88937749D01*
X114688200Y-88962253D01*
X114692981Y-88986286D01*
X114702358Y-89008925D01*
X114715971Y-89029298D01*
X114721200Y-89035670D01*
X114723499Y-89039971D01*
X114724917Y-89044645D01*
X114726000Y-89055641D01*
X114726000Y-89344359D01*
X114724917Y-89355355D01*
X114723499Y-89360029D01*
X114721200Y-89364330D01*
X114715971Y-89370702D01*
X114702357Y-89391076D01*
X114692980Y-89413715D01*
X114688200Y-89437749D01*
X114688200Y-89462253D01*
X114692981Y-89486286D01*
X114702358Y-89508925D01*
X114715971Y-89529298D01*
X114721200Y-89535670D01*
X114723499Y-89539971D01*
X114724917Y-89544645D01*
X114726000Y-89555641D01*
X114726000Y-89844359D01*
X114724917Y-89855355D01*
X114723499Y-89860029D01*
X114721200Y-89864330D01*
X114715971Y-89870702D01*
X114702357Y-89891076D01*
X114692980Y-89913715D01*
X114688200Y-89937749D01*
X114688200Y-89962253D01*
X114692981Y-89986286D01*
X114702358Y-90008925D01*
X114715971Y-90029298D01*
X114721200Y-90035670D01*
X114723499Y-90039971D01*
X114724917Y-90044645D01*
X114726000Y-90055641D01*
X114726000Y-90344359D01*
X114724917Y-90355355D01*
X114723499Y-90360029D01*
X114721200Y-90364330D01*
X114715971Y-90370702D01*
X114702357Y-90391076D01*
X114692980Y-90413715D01*
X114688200Y-90437749D01*
X114688200Y-90462253D01*
X114692981Y-90486286D01*
X114702358Y-90508925D01*
X114715971Y-90529298D01*
X114721200Y-90535670D01*
X114723499Y-90539971D01*
X114724917Y-90544645D01*
X114726000Y-90555641D01*
X114726000Y-90844359D01*
X114724917Y-90855355D01*
X114723499Y-90860029D01*
X114721200Y-90864330D01*
X114715971Y-90870702D01*
X114702357Y-90891076D01*
X114692980Y-90913715D01*
X114688200Y-90937749D01*
X114688200Y-90962253D01*
X114692981Y-90986286D01*
X114702358Y-91008925D01*
X114715971Y-91029298D01*
X114721200Y-91035670D01*
X114723499Y-91039971D01*
X114724917Y-91044645D01*
X114726000Y-91055641D01*
X114726000Y-91344359D01*
X114724917Y-91355355D01*
X114723499Y-91360029D01*
X114721200Y-91364331D01*
X114718104Y-91368104D01*
X114714331Y-91371200D01*
X114710029Y-91373499D01*
X114705355Y-91374917D01*
X114694359Y-91376000D01*
X113850999Y-91376000D01*
X113826613Y-91378402D01*
X113803164Y-91385515D01*
X113781553Y-91397066D01*
X113762611Y-91412611D01*
X113747066Y-91431553D01*
X113735515Y-91453164D01*
X113728402Y-91476613D01*
X113726000Y-91500999D01*
X113726000Y-92344359D01*
X113724917Y-92355355D01*
X113723499Y-92360029D01*
X113721200Y-92364331D01*
X113718104Y-92368104D01*
X113714331Y-92371200D01*
X113710029Y-92373499D01*
X113705355Y-92374917D01*
X113694359Y-92376000D01*
X113405641Y-92376000D01*
X113394645Y-92374917D01*
X113389971Y-92373499D01*
X113385670Y-92371200D01*
X113379298Y-92365971D01*
X113358924Y-92352357D01*
X113336285Y-92342980D01*
X113312251Y-92338200D01*
X113287747Y-92338200D01*
X113263714Y-92342981D01*
X113241075Y-92352358D01*
X113220702Y-92365971D01*
X113214330Y-92371200D01*
X113210029Y-92373499D01*
X113205355Y-92374917D01*
X113194359Y-92376000D01*
X112905641Y-92376000D01*
X112894645Y-92374917D01*
X112889971Y-92373499D01*
X112885670Y-92371200D01*
X112879298Y-92365971D01*
X112858924Y-92352357D01*
X112836285Y-92342980D01*
X112812251Y-92338200D01*
X112787747Y-92338200D01*
X112763714Y-92342981D01*
X112741075Y-92352358D01*
X112720702Y-92365971D01*
X112714330Y-92371200D01*
X112710029Y-92373499D01*
X112705355Y-92374917D01*
X112694359Y-92376000D01*
X112405641Y-92376000D01*
X112394645Y-92374917D01*
X112389971Y-92373499D01*
X112385670Y-92371200D01*
X112379298Y-92365971D01*
X112358924Y-92352357D01*
X112336285Y-92342980D01*
X112312251Y-92338200D01*
X112287747Y-92338200D01*
X112263714Y-92342981D01*
X112241075Y-92352358D01*
X112220702Y-92365971D01*
X112214330Y-92371200D01*
X112210029Y-92373499D01*
X112205355Y-92374917D01*
X112194359Y-92376000D01*
X111905641Y-92376000D01*
X111894645Y-92374917D01*
X111889971Y-92373499D01*
X111885670Y-92371200D01*
X111879298Y-92365971D01*
X111858924Y-92352357D01*
X111836285Y-92342980D01*
X111812251Y-92338200D01*
X111787747Y-92338200D01*
X111763714Y-92342981D01*
X111741075Y-92352358D01*
X111720702Y-92365971D01*
X111714330Y-92371200D01*
X111710029Y-92373499D01*
X111705355Y-92374917D01*
X111694359Y-92376000D01*
X111405641Y-92376000D01*
X111394645Y-92374917D01*
X111389971Y-92373499D01*
X111385670Y-92371200D01*
X111379298Y-92365971D01*
X111358924Y-92352357D01*
X111336285Y-92342980D01*
X111312251Y-92338200D01*
X111287747Y-92338200D01*
X111263714Y-92342981D01*
X111241075Y-92352358D01*
X111220702Y-92365971D01*
X111214330Y-92371200D01*
X111210029Y-92373499D01*
X111205355Y-92374917D01*
X111194359Y-92376000D01*
X110905641Y-92376000D01*
X110894645Y-92374917D01*
X110889971Y-92373499D01*
X110885670Y-92371200D01*
X110879298Y-92365971D01*
X110858924Y-92352357D01*
X110836285Y-92342980D01*
X110812251Y-92338200D01*
X110787747Y-92338200D01*
X110763714Y-92342981D01*
X110741075Y-92352358D01*
X110720702Y-92365971D01*
X110714330Y-92371200D01*
X110710029Y-92373499D01*
X110705355Y-92374917D01*
X110694359Y-92376000D01*
X110405641Y-92376000D01*
X110394645Y-92374917D01*
X110389971Y-92373499D01*
X110385670Y-92371200D01*
X110379298Y-92365971D01*
X110358924Y-92352357D01*
X110336285Y-92342980D01*
X110312251Y-92338200D01*
X110287747Y-92338200D01*
X110263714Y-92342981D01*
X110241075Y-92352358D01*
X110220702Y-92365971D01*
X110214330Y-92371200D01*
X110210029Y-92373499D01*
X110205355Y-92374917D01*
X110194359Y-92376000D01*
X109905641Y-92376000D01*
X109894645Y-92374917D01*
X109889971Y-92373499D01*
X109885669Y-92371200D01*
X109881896Y-92368104D01*
X109878800Y-92364331D01*
X109876501Y-92360029D01*
X109875083Y-92355355D01*
X109874000Y-92344359D01*
X109874000Y-91500999D01*
X109871598Y-91476613D01*
X109864485Y-91453164D01*
X109852934Y-91431553D01*
X109837389Y-91412611D01*
X109818447Y-91397066D01*
X109796836Y-91385515D01*
X109773387Y-91378402D01*
X109749001Y-91376000D01*
X108905641Y-91376000D01*
X108894645Y-91374917D01*
X108889971Y-91373499D01*
X108885669Y-91371200D01*
X108881896Y-91368104D01*
X108878800Y-91364331D01*
X108876501Y-91360029D01*
X108875083Y-91355355D01*
X108874000Y-91344359D01*
X108874000Y-91265801D01*
X109851000Y-91265801D01*
X109851000Y-91274001D01*
X109853402Y-91298387D01*
X109860515Y-91321836D01*
X109872066Y-91343447D01*
X109887611Y-91362389D01*
X109906553Y-91377934D01*
X109928164Y-91389485D01*
X109951613Y-91396598D01*
X109975999Y-91399000D01*
X109984199Y-91399000D01*
X110008585Y-91396598D01*
X110032034Y-91389485D01*
X110053645Y-91377934D01*
X110072587Y-91362389D01*
X110088132Y-91343447D01*
X110099683Y-91321836D01*
X110106796Y-91298387D01*
X110107991Y-91286247D01*
X113491403Y-91286247D01*
X113496183Y-91310281D01*
X113505559Y-91332920D01*
X113519172Y-91353295D01*
X113536498Y-91370623D01*
X113556872Y-91384238D01*
X113579510Y-91393616D01*
X113603543Y-91398398D01*
X113615801Y-91399000D01*
X113624001Y-91399000D01*
X113648387Y-91396598D01*
X113671836Y-91389485D01*
X113693447Y-91377934D01*
X113712389Y-91362389D01*
X113727934Y-91343447D01*
X113739485Y-91321836D01*
X113746598Y-91298387D01*
X113749000Y-91274001D01*
X113749000Y-91265801D01*
X113746598Y-91241415D01*
X113739485Y-91217966D01*
X113727934Y-91196355D01*
X113712389Y-91177413D01*
X113693447Y-91161868D01*
X113671836Y-91150317D01*
X113648387Y-91143204D01*
X113624001Y-91140802D01*
X113599615Y-91143204D01*
X113576166Y-91150317D01*
X113554555Y-91161868D01*
X113535613Y-91177413D01*
X113527382Y-91186496D01*
X113519179Y-91194698D01*
X113505564Y-91215072D01*
X113496186Y-91237710D01*
X113491404Y-91261743D01*
X113491403Y-91286247D01*
X110107991Y-91286247D01*
X110109198Y-91274001D01*
X110106796Y-91249615D01*
X110099683Y-91226166D01*
X110088132Y-91204555D01*
X110072587Y-91185613D01*
X110063504Y-91177382D01*
X110055302Y-91169179D01*
X110034928Y-91155564D01*
X110012290Y-91146186D01*
X109988257Y-91141404D01*
X109963753Y-91141403D01*
X109939719Y-91146183D01*
X109917080Y-91155559D01*
X109896705Y-91169172D01*
X109879377Y-91186498D01*
X109865762Y-91206872D01*
X109856384Y-91229510D01*
X109851602Y-91253543D01*
X109851000Y-91265801D01*
X108874000Y-91265801D01*
X108874000Y-91055641D01*
X108875083Y-91044645D01*
X108876501Y-91039971D01*
X108878800Y-91035670D01*
X108884029Y-91029298D01*
X108897643Y-91008924D01*
X108907020Y-90986285D01*
X108911800Y-90962251D01*
X108911800Y-90937747D01*
X108907019Y-90913714D01*
X108897642Y-90891075D01*
X108884029Y-90870702D01*
X108878800Y-90864330D01*
X108876501Y-90860029D01*
X108875083Y-90855355D01*
X108874000Y-90844359D01*
X108874000Y-90555641D01*
X108875083Y-90544645D01*
X108876501Y-90539971D01*
X108878800Y-90535670D01*
X108884029Y-90529298D01*
X108897643Y-90508924D01*
X108907020Y-90486285D01*
X108911800Y-90462251D01*
X108911800Y-90437747D01*
X108907019Y-90413714D01*
X108897642Y-90391075D01*
X108884029Y-90370702D01*
X108878800Y-90364330D01*
X108876501Y-90360029D01*
X108875083Y-90355355D01*
X108874000Y-90344359D01*
X108874000Y-90055641D01*
X108875083Y-90044645D01*
X108876501Y-90039971D01*
X108878800Y-90035670D01*
X108884029Y-90029298D01*
X108897643Y-90008924D01*
X108907020Y-89986285D01*
X108911800Y-89962251D01*
X108911800Y-89937747D01*
X108907019Y-89913714D01*
X108897642Y-89891075D01*
X108884029Y-89870702D01*
X108878800Y-89864330D01*
X108876501Y-89860029D01*
X108875083Y-89855355D01*
X108874000Y-89844359D01*
X108874000Y-89555641D01*
X108875083Y-89544645D01*
X108876501Y-89539971D01*
X108878800Y-89535670D01*
X108884029Y-89529298D01*
X108897643Y-89508924D01*
X108907020Y-89486285D01*
X108911800Y-89462251D01*
X108911800Y-89437747D01*
X108907019Y-89413714D01*
X108897642Y-89391075D01*
X108884029Y-89370702D01*
X108878800Y-89364330D01*
X108876501Y-89360029D01*
X108875083Y-89355355D01*
X108874000Y-89344359D01*
X108874000Y-89055641D01*
X108875083Y-89044645D01*
X108876501Y-89039971D01*
X108878800Y-89035670D01*
X108884029Y-89029298D01*
X108897643Y-89008924D01*
X108907020Y-88986285D01*
X108911800Y-88962251D01*
X108911800Y-88937747D01*
X108907019Y-88913714D01*
X108897642Y-88891075D01*
X108884029Y-88870702D01*
X108878800Y-88864330D01*
X108876501Y-88860029D01*
X108875083Y-88855355D01*
X108874000Y-88844359D01*
X108874000Y-88555641D01*
X108875083Y-88544645D01*
X108876501Y-88539971D01*
X108878800Y-88535670D01*
X108884029Y-88529298D01*
X108897643Y-88508924D01*
X108907020Y-88486285D01*
X108911800Y-88462251D01*
X108911800Y-88437747D01*
X108907019Y-88413714D01*
X108897642Y-88391075D01*
X108884029Y-88370702D01*
X108878800Y-88364330D01*
X108876501Y-88360029D01*
X108875083Y-88355355D01*
X108874000Y-88344359D01*
X108874000Y-88055641D01*
X108875083Y-88044645D01*
X108876501Y-88039971D01*
X108878800Y-88035670D01*
X108884029Y-88029298D01*
X108897643Y-88008924D01*
X108907020Y-87986285D01*
X108911800Y-87962251D01*
X108911800Y-87937747D01*
X108907019Y-87913714D01*
X108897642Y-87891075D01*
X108884029Y-87870702D01*
X108878800Y-87864330D01*
X108876501Y-87860029D01*
X108875083Y-87855355D01*
X108874000Y-87844359D01*
X108874000Y-87625999D01*
X109851000Y-87625999D01*
X109851000Y-87634199D01*
X109853402Y-87658585D01*
X109860515Y-87682034D01*
X109872066Y-87703645D01*
X109887611Y-87722587D01*
X109906553Y-87738132D01*
X109928164Y-87749683D01*
X109951613Y-87756796D01*
X109975999Y-87759198D01*
X110000385Y-87756796D01*
X110023834Y-87749683D01*
X110045445Y-87738132D01*
X110064387Y-87722587D01*
X110072620Y-87713502D01*
X110080821Y-87705302D01*
X110094436Y-87684928D01*
X110103814Y-87662290D01*
X110108596Y-87638257D01*
X110108596Y-87625999D01*
X113490802Y-87625999D01*
X113493204Y-87650385D01*
X113500317Y-87673834D01*
X113511868Y-87695445D01*
X113527413Y-87714387D01*
X113536496Y-87722618D01*
X113544698Y-87730821D01*
X113565072Y-87744436D01*
X113587710Y-87753814D01*
X113611743Y-87758596D01*
X113636247Y-87758597D01*
X113660281Y-87753817D01*
X113682920Y-87744441D01*
X113703295Y-87730828D01*
X113720623Y-87713502D01*
X113734238Y-87693128D01*
X113743616Y-87670490D01*
X113748398Y-87646457D01*
X113749000Y-87634199D01*
X113749000Y-87625999D01*
X113746598Y-87601613D01*
X113739485Y-87578164D01*
X113727934Y-87556553D01*
X113712389Y-87537611D01*
X113693447Y-87522066D01*
X113671836Y-87510515D01*
X113648387Y-87503402D01*
X113624001Y-87501000D01*
X113615801Y-87501000D01*
X113591415Y-87503402D01*
X113567966Y-87510515D01*
X113546355Y-87522066D01*
X113527413Y-87537611D01*
X113511868Y-87556553D01*
X113500317Y-87578164D01*
X113493204Y-87601613D01*
X113490802Y-87625999D01*
X110108596Y-87625999D01*
X110108597Y-87613753D01*
X110103817Y-87589719D01*
X110094441Y-87567080D01*
X110080828Y-87546705D01*
X110063502Y-87529377D01*
X110043128Y-87515762D01*
X110020490Y-87506384D01*
X109996457Y-87501602D01*
X109984199Y-87501000D01*
X109975999Y-87501000D01*
X109951613Y-87503402D01*
X109928164Y-87510515D01*
X109906553Y-87522066D01*
X109887611Y-87537611D01*
X109872066Y-87556553D01*
X109860515Y-87578164D01*
X109853402Y-87601613D01*
X109851000Y-87625999D01*
X108874000Y-87625999D01*
X108874000Y-87555641D01*
X108875083Y-87544645D01*
X108876501Y-87539971D01*
X108878800Y-87535669D01*
X108881896Y-87531896D01*
X108885669Y-87528800D01*
X108889971Y-87526501D01*
X108894645Y-87525083D01*
X108905641Y-87524000D01*
X109749001Y-87524000D01*
X109773387Y-87521598D01*
X109796836Y-87514485D01*
X109818447Y-87502934D01*
X109837389Y-87487389D01*
X109852934Y-87468447D01*
X109864485Y-87446836D01*
X109871598Y-87423387D01*
X109874000Y-87399001D01*
X109874000Y-86555641D01*
X109875083Y-86544645D01*
X109876501Y-86539971D01*
X109878800Y-86535669D01*
X109881896Y-86531896D01*
X109885669Y-86528800D01*
X109889971Y-86526501D01*
X109894645Y-86525083D01*
X109905641Y-86524000D01*
X110194359Y-86524000D01*
X110205355Y-86525083D01*
X110205355Y-86525083D01*
G37*
G36*
X116079591Y-90728085D02*
G01*
X116113569Y-90738393D01*
X116144890Y-90755134D01*
X116172339Y-90777661D01*
X116194866Y-90805110D01*
X116211607Y-90836431D01*
X116221915Y-90870409D01*
X116226000Y-90911890D01*
X116226000Y-91513110D01*
X116221915Y-91554591D01*
X116211607Y-91588569D01*
X116194866Y-91619890D01*
X116172339Y-91647339D01*
X116144890Y-91669866D01*
X116113569Y-91686607D01*
X116079591Y-91696915D01*
X116038110Y-91701000D01*
X115361890Y-91701000D01*
X115320409Y-91696915D01*
X115286431Y-91686607D01*
X115255110Y-91669866D01*
X115227661Y-91647339D01*
X115205134Y-91619890D01*
X115188393Y-91588569D01*
X115178085Y-91554591D01*
X115174000Y-91513110D01*
X115174000Y-90911890D01*
X115178085Y-90870409D01*
X115188393Y-90836431D01*
X115205134Y-90805110D01*
X115227661Y-90777661D01*
X115255110Y-90755134D01*
X115286431Y-90738393D01*
X115320409Y-90728085D01*
X115361890Y-90724000D01*
X116038110Y-90724000D01*
X116079591Y-90728085D01*
X116079591Y-90728085D01*
G37*
G36*
X118634468Y-90228565D02*
G01*
X118673138Y-90240296D01*
X118708777Y-90259346D01*
X118740017Y-90284983D01*
X118765654Y-90316223D01*
X118784704Y-90351862D01*
X118796435Y-90390532D01*
X118801000Y-90436888D01*
X118801000Y-91088112D01*
X118796435Y-91134468D01*
X118784704Y-91173138D01*
X118765654Y-91208777D01*
X118740017Y-91240017D01*
X118708777Y-91265654D01*
X118673138Y-91284704D01*
X118634468Y-91296435D01*
X118588112Y-91301000D01*
X117511888Y-91301000D01*
X117465532Y-91296435D01*
X117426862Y-91284704D01*
X117391223Y-91265654D01*
X117359983Y-91240017D01*
X117334346Y-91208777D01*
X117315296Y-91173138D01*
X117303565Y-91134468D01*
X117299000Y-91088112D01*
X117299000Y-90436888D01*
X117303565Y-90390532D01*
X117315296Y-90351862D01*
X117334346Y-90316223D01*
X117359983Y-90284983D01*
X117391223Y-90259346D01*
X117426862Y-90240296D01*
X117465532Y-90228565D01*
X117511888Y-90224000D01*
X118588112Y-90224000D01*
X118634468Y-90228565D01*
X118634468Y-90228565D01*
G37*
G36*
X59351000Y-91076000D02*
G01*
X58349000Y-91076000D01*
X58349000Y-89774000D01*
X59351000Y-89774000D01*
X59351000Y-91076000D01*
X59351000Y-91076000D01*
G37*
G36*
X62651000Y-91076000D02*
G01*
X61649000Y-91076000D01*
X61649000Y-89774000D01*
X62651000Y-89774000D01*
X62651000Y-91076000D01*
X62651000Y-91076000D01*
G37*
G36*
X77159468Y-89253565D02*
G01*
X77198138Y-89265296D01*
X77233777Y-89284346D01*
X77265017Y-89309983D01*
X77290654Y-89341223D01*
X77309704Y-89376862D01*
X77321435Y-89415532D01*
X77326000Y-89461888D01*
X77326000Y-90538112D01*
X77321435Y-90584468D01*
X77309704Y-90623138D01*
X77290654Y-90658777D01*
X77265017Y-90690017D01*
X77233777Y-90715654D01*
X77198138Y-90734704D01*
X77159468Y-90746435D01*
X77113112Y-90751000D01*
X76461888Y-90751000D01*
X76415532Y-90746435D01*
X76376862Y-90734704D01*
X76341223Y-90715654D01*
X76309983Y-90690017D01*
X76284346Y-90658777D01*
X76265296Y-90623138D01*
X76253565Y-90584468D01*
X76249000Y-90538112D01*
X76249000Y-89461888D01*
X76253565Y-89415532D01*
X76265296Y-89376862D01*
X76284346Y-89341223D01*
X76309983Y-89309983D01*
X76341223Y-89284346D01*
X76376862Y-89265296D01*
X76415532Y-89253565D01*
X76461888Y-89249000D01*
X77113112Y-89249000D01*
X77159468Y-89253565D01*
X77159468Y-89253565D01*
G37*
G36*
X75284468Y-89253565D02*
G01*
X75323138Y-89265296D01*
X75358777Y-89284346D01*
X75390017Y-89309983D01*
X75415654Y-89341223D01*
X75434704Y-89376862D01*
X75446435Y-89415532D01*
X75451000Y-89461888D01*
X75451000Y-90538112D01*
X75446435Y-90584468D01*
X75434704Y-90623138D01*
X75415654Y-90658777D01*
X75390017Y-90690017D01*
X75358777Y-90715654D01*
X75323138Y-90734704D01*
X75284468Y-90746435D01*
X75238112Y-90751000D01*
X74586888Y-90751000D01*
X74540532Y-90746435D01*
X74501862Y-90734704D01*
X74466223Y-90715654D01*
X74434983Y-90690017D01*
X74409346Y-90658777D01*
X74390296Y-90623138D01*
X74378565Y-90584468D01*
X74374000Y-90538112D01*
X74374000Y-89461888D01*
X74378565Y-89415532D01*
X74390296Y-89376862D01*
X74409346Y-89341223D01*
X74434983Y-89309983D01*
X74466223Y-89284346D01*
X74501862Y-89265296D01*
X74540532Y-89253565D01*
X74586888Y-89249000D01*
X75238112Y-89249000D01*
X75284468Y-89253565D01*
X75284468Y-89253565D01*
G37*
G36*
X79184468Y-89503565D02*
G01*
X79223138Y-89515296D01*
X79258777Y-89534346D01*
X79290017Y-89559983D01*
X79315654Y-89591223D01*
X79334704Y-89626862D01*
X79346435Y-89665532D01*
X79351000Y-89711888D01*
X79351000Y-90363112D01*
X79346435Y-90409468D01*
X79334704Y-90448138D01*
X79315654Y-90483777D01*
X79290017Y-90515017D01*
X79258777Y-90540654D01*
X79223138Y-90559704D01*
X79184468Y-90571435D01*
X79138112Y-90576000D01*
X78061888Y-90576000D01*
X78015532Y-90571435D01*
X77976862Y-90559704D01*
X77941223Y-90540654D01*
X77909983Y-90515017D01*
X77884346Y-90483777D01*
X77865296Y-90448138D01*
X77853565Y-90409468D01*
X77849000Y-90363112D01*
X77849000Y-89711888D01*
X77853565Y-89665532D01*
X77865296Y-89626862D01*
X77884346Y-89591223D01*
X77909983Y-89559983D01*
X77941223Y-89534346D01*
X77976862Y-89515296D01*
X78015532Y-89503565D01*
X78061888Y-89499000D01*
X79138112Y-89499000D01*
X79184468Y-89503565D01*
X79184468Y-89503565D01*
G37*
G36*
X81829591Y-89515585D02*
G01*
X81863569Y-89525893D01*
X81894890Y-89542634D01*
X81922339Y-89565161D01*
X81944866Y-89592610D01*
X81961607Y-89623931D01*
X81971915Y-89657909D01*
X81976000Y-89699390D01*
X81976000Y-90300610D01*
X81971915Y-90342091D01*
X81961607Y-90376069D01*
X81944866Y-90407390D01*
X81922339Y-90434839D01*
X81894890Y-90457366D01*
X81863569Y-90474107D01*
X81829591Y-90484415D01*
X81788110Y-90488500D01*
X81111890Y-90488500D01*
X81070409Y-90484415D01*
X81036431Y-90474107D01*
X81005110Y-90457366D01*
X80977661Y-90434839D01*
X80955134Y-90407390D01*
X80938393Y-90376069D01*
X80928085Y-90342091D01*
X80924000Y-90300610D01*
X80924000Y-89699390D01*
X80928085Y-89657909D01*
X80938393Y-89623931D01*
X80955134Y-89592610D01*
X80977661Y-89565161D01*
X81005110Y-89542634D01*
X81036431Y-89525893D01*
X81070409Y-89515585D01*
X81111890Y-89511500D01*
X81788110Y-89511500D01*
X81829591Y-89515585D01*
X81829591Y-89515585D01*
G37*
G36*
X150379591Y-89353085D02*
G01*
X150413569Y-89363393D01*
X150444890Y-89380134D01*
X150472339Y-89402661D01*
X150494866Y-89430110D01*
X150511607Y-89461431D01*
X150521915Y-89495409D01*
X150526000Y-89536890D01*
X150526000Y-90138110D01*
X150521915Y-90179591D01*
X150511607Y-90213569D01*
X150494866Y-90244890D01*
X150472339Y-90272339D01*
X150444890Y-90294866D01*
X150413569Y-90311607D01*
X150379591Y-90321915D01*
X150338110Y-90326000D01*
X149661890Y-90326000D01*
X149620409Y-90321915D01*
X149586431Y-90311607D01*
X149555110Y-90294866D01*
X149527661Y-90272339D01*
X149505134Y-90244890D01*
X149488393Y-90213569D01*
X149478085Y-90179591D01*
X149474000Y-90138110D01*
X149474000Y-89536890D01*
X149478085Y-89495409D01*
X149488393Y-89461431D01*
X149505134Y-89430110D01*
X149527661Y-89402661D01*
X149555110Y-89380134D01*
X149586431Y-89363393D01*
X149620409Y-89353085D01*
X149661890Y-89349000D01*
X150338110Y-89349000D01*
X150379591Y-89353085D01*
X150379591Y-89353085D01*
G37*
G36*
X172779591Y-89253085D02*
G01*
X172813569Y-89263393D01*
X172844890Y-89280134D01*
X172872339Y-89302661D01*
X172894866Y-89330110D01*
X172911607Y-89361431D01*
X172921915Y-89395409D01*
X172926000Y-89436890D01*
X172926000Y-90038110D01*
X172921915Y-90079591D01*
X172911607Y-90113569D01*
X172894866Y-90144890D01*
X172872339Y-90172339D01*
X172844890Y-90194866D01*
X172813569Y-90211607D01*
X172779591Y-90221915D01*
X172738110Y-90226000D01*
X172061890Y-90226000D01*
X172020409Y-90221915D01*
X171986431Y-90211607D01*
X171955110Y-90194866D01*
X171927661Y-90172339D01*
X171905134Y-90144890D01*
X171888393Y-90113569D01*
X171878085Y-90079591D01*
X171874000Y-90038110D01*
X171874000Y-89436890D01*
X171878085Y-89395409D01*
X171888393Y-89361431D01*
X171905134Y-89330110D01*
X171927661Y-89302661D01*
X171955110Y-89280134D01*
X171986431Y-89263393D01*
X172020409Y-89253085D01*
X172061890Y-89249000D01*
X172738110Y-89249000D01*
X172779591Y-89253085D01*
X172779591Y-89253085D01*
G37*
G36*
X195179591Y-89253085D02*
G01*
X195213569Y-89263393D01*
X195244890Y-89280134D01*
X195272339Y-89302661D01*
X195294866Y-89330110D01*
X195311607Y-89361431D01*
X195321915Y-89395409D01*
X195326000Y-89436890D01*
X195326000Y-90038110D01*
X195321915Y-90079591D01*
X195311607Y-90113569D01*
X195294866Y-90144890D01*
X195272339Y-90172339D01*
X195244890Y-90194866D01*
X195213569Y-90211607D01*
X195179591Y-90221915D01*
X195138110Y-90226000D01*
X194461890Y-90226000D01*
X194420409Y-90221915D01*
X194386431Y-90211607D01*
X194355110Y-90194866D01*
X194327661Y-90172339D01*
X194305134Y-90144890D01*
X194288393Y-90113569D01*
X194278085Y-90079591D01*
X194274000Y-90038110D01*
X194274000Y-89436890D01*
X194278085Y-89395409D01*
X194288393Y-89361431D01*
X194305134Y-89330110D01*
X194327661Y-89302661D01*
X194355110Y-89280134D01*
X194386431Y-89263393D01*
X194420409Y-89253085D01*
X194461890Y-89249000D01*
X195138110Y-89249000D01*
X195179591Y-89253085D01*
X195179591Y-89253085D01*
G37*
G36*
X118929591Y-88678085D02*
G01*
X118963569Y-88688393D01*
X118994890Y-88705134D01*
X119022339Y-88727661D01*
X119044866Y-88755110D01*
X119061607Y-88786431D01*
X119071915Y-88820409D01*
X119076000Y-88861890D01*
X119076000Y-89538110D01*
X119071915Y-89579591D01*
X119061607Y-89613569D01*
X119044866Y-89644890D01*
X119022339Y-89672339D01*
X118994890Y-89694866D01*
X118963569Y-89711607D01*
X118929591Y-89721915D01*
X118888110Y-89726000D01*
X118286890Y-89726000D01*
X118245409Y-89721915D01*
X118211431Y-89711607D01*
X118180110Y-89694866D01*
X118152661Y-89672339D01*
X118130134Y-89644890D01*
X118113393Y-89613569D01*
X118103085Y-89579591D01*
X118099000Y-89538110D01*
X118099000Y-88861890D01*
X118103085Y-88820409D01*
X118113393Y-88786431D01*
X118130134Y-88755110D01*
X118152661Y-88727661D01*
X118180110Y-88705134D01*
X118211431Y-88688393D01*
X118245409Y-88678085D01*
X118286890Y-88674000D01*
X118888110Y-88674000D01*
X118929591Y-88678085D01*
X118929591Y-88678085D01*
G37*
G36*
X117354591Y-88678085D02*
G01*
X117388569Y-88688393D01*
X117419890Y-88705134D01*
X117447339Y-88727661D01*
X117469866Y-88755110D01*
X117486607Y-88786431D01*
X117496915Y-88820409D01*
X117501000Y-88861890D01*
X117501000Y-89538110D01*
X117496915Y-89579591D01*
X117486607Y-89613569D01*
X117469866Y-89644890D01*
X117447339Y-89672339D01*
X117419890Y-89694866D01*
X117388569Y-89711607D01*
X117354591Y-89721915D01*
X117313110Y-89726000D01*
X116711890Y-89726000D01*
X116670409Y-89721915D01*
X116636431Y-89711607D01*
X116605110Y-89694866D01*
X116577661Y-89672339D01*
X116555134Y-89644890D01*
X116538393Y-89613569D01*
X116528085Y-89579591D01*
X116524000Y-89538110D01*
X116524000Y-88861890D01*
X116528085Y-88820409D01*
X116538393Y-88786431D01*
X116555134Y-88755110D01*
X116577661Y-88727661D01*
X116605110Y-88705134D01*
X116636431Y-88688393D01*
X116670409Y-88678085D01*
X116711890Y-88674000D01*
X117313110Y-88674000D01*
X117354591Y-88678085D01*
X117354591Y-88678085D01*
G37*
G36*
X156894928Y-87251764D02*
G01*
X156916009Y-87258160D01*
X156935445Y-87268548D01*
X156952476Y-87282524D01*
X156966452Y-87299555D01*
X156976840Y-87318991D01*
X156983236Y-87340072D01*
X156986000Y-87368140D01*
X156986000Y-89181860D01*
X156983236Y-89209928D01*
X156976840Y-89231009D01*
X156966452Y-89250445D01*
X156952476Y-89267476D01*
X156935445Y-89281452D01*
X156916009Y-89291840D01*
X156894928Y-89298236D01*
X156866860Y-89301000D01*
X156403140Y-89301000D01*
X156375072Y-89298236D01*
X156353991Y-89291840D01*
X156334555Y-89281452D01*
X156317524Y-89267476D01*
X156303548Y-89250445D01*
X156293160Y-89231009D01*
X156286764Y-89209928D01*
X156284000Y-89181860D01*
X156284000Y-87368140D01*
X156286764Y-87340072D01*
X156293160Y-87318991D01*
X156303548Y-87299555D01*
X156317524Y-87282524D01*
X156334555Y-87268548D01*
X156353991Y-87258160D01*
X156375072Y-87251764D01*
X156403140Y-87249000D01*
X156866860Y-87249000D01*
X156894928Y-87251764D01*
X156894928Y-87251764D01*
G37*
G36*
X155624928Y-87251764D02*
G01*
X155646009Y-87258160D01*
X155665445Y-87268548D01*
X155682476Y-87282524D01*
X155696452Y-87299555D01*
X155706840Y-87318991D01*
X155713236Y-87340072D01*
X155716000Y-87368140D01*
X155716000Y-89181860D01*
X155713236Y-89209928D01*
X155706840Y-89231009D01*
X155696452Y-89250445D01*
X155682476Y-89267476D01*
X155665445Y-89281452D01*
X155646009Y-89291840D01*
X155624928Y-89298236D01*
X155596860Y-89301000D01*
X155133140Y-89301000D01*
X155105072Y-89298236D01*
X155083991Y-89291840D01*
X155064555Y-89281452D01*
X155047524Y-89267476D01*
X155033548Y-89250445D01*
X155023160Y-89231009D01*
X155016764Y-89209928D01*
X155014000Y-89181860D01*
X155014000Y-87368140D01*
X155016764Y-87340072D01*
X155023160Y-87318991D01*
X155033548Y-87299555D01*
X155047524Y-87282524D01*
X155064555Y-87268548D01*
X155083991Y-87258160D01*
X155105072Y-87251764D01*
X155133140Y-87249000D01*
X155596860Y-87249000D01*
X155624928Y-87251764D01*
X155624928Y-87251764D01*
G37*
G36*
X154354928Y-87251764D02*
G01*
X154376009Y-87258160D01*
X154395445Y-87268548D01*
X154412476Y-87282524D01*
X154426452Y-87299555D01*
X154436840Y-87318991D01*
X154443236Y-87340072D01*
X154446000Y-87368140D01*
X154446000Y-89181860D01*
X154443236Y-89209928D01*
X154436840Y-89231009D01*
X154426452Y-89250445D01*
X154412476Y-89267476D01*
X154395445Y-89281452D01*
X154376009Y-89291840D01*
X154354928Y-89298236D01*
X154326860Y-89301000D01*
X153863140Y-89301000D01*
X153835072Y-89298236D01*
X153813991Y-89291840D01*
X153794555Y-89281452D01*
X153777524Y-89267476D01*
X153763548Y-89250445D01*
X153753160Y-89231009D01*
X153746764Y-89209928D01*
X153744000Y-89181860D01*
X153744000Y-87368140D01*
X153746764Y-87340072D01*
X153753160Y-87318991D01*
X153763548Y-87299555D01*
X153777524Y-87282524D01*
X153794555Y-87268548D01*
X153813991Y-87258160D01*
X153835072Y-87251764D01*
X153863140Y-87249000D01*
X154326860Y-87249000D01*
X154354928Y-87251764D01*
X154354928Y-87251764D01*
G37*
G36*
X153084928Y-87251764D02*
G01*
X153106009Y-87258160D01*
X153125445Y-87268548D01*
X153142476Y-87282524D01*
X153156452Y-87299555D01*
X153166840Y-87318991D01*
X153173236Y-87340072D01*
X153176000Y-87368140D01*
X153176000Y-89181860D01*
X153173236Y-89209928D01*
X153166840Y-89231009D01*
X153156452Y-89250445D01*
X153142476Y-89267476D01*
X153125445Y-89281452D01*
X153106009Y-89291840D01*
X153084928Y-89298236D01*
X153056860Y-89301000D01*
X152593140Y-89301000D01*
X152565072Y-89298236D01*
X152543991Y-89291840D01*
X152524555Y-89281452D01*
X152507524Y-89267476D01*
X152493548Y-89250445D01*
X152483160Y-89231009D01*
X152476764Y-89209928D01*
X152474000Y-89181860D01*
X152474000Y-87368140D01*
X152476764Y-87340072D01*
X152483160Y-87318991D01*
X152493548Y-87299555D01*
X152507524Y-87282524D01*
X152524555Y-87268548D01*
X152543991Y-87258160D01*
X152565072Y-87251764D01*
X152593140Y-87249000D01*
X153056860Y-87249000D01*
X153084928Y-87251764D01*
X153084928Y-87251764D01*
G37*
G36*
X151814928Y-87251764D02*
G01*
X151836009Y-87258160D01*
X151855445Y-87268548D01*
X151872476Y-87282524D01*
X151886452Y-87299555D01*
X151896840Y-87318991D01*
X151903236Y-87340072D01*
X151906000Y-87368140D01*
X151906000Y-89181860D01*
X151903236Y-89209928D01*
X151896840Y-89231009D01*
X151886452Y-89250445D01*
X151872476Y-89267476D01*
X151855445Y-89281452D01*
X151836009Y-89291840D01*
X151814928Y-89298236D01*
X151786860Y-89301000D01*
X151323140Y-89301000D01*
X151295072Y-89298236D01*
X151273991Y-89291840D01*
X151254555Y-89281452D01*
X151237524Y-89267476D01*
X151223548Y-89250445D01*
X151213160Y-89231009D01*
X151206764Y-89209928D01*
X151204000Y-89181860D01*
X151204000Y-87368140D01*
X151206764Y-87340072D01*
X151213160Y-87318991D01*
X151223548Y-87299555D01*
X151237524Y-87282524D01*
X151254555Y-87268548D01*
X151273991Y-87258160D01*
X151295072Y-87251764D01*
X151323140Y-87249000D01*
X151786860Y-87249000D01*
X151814928Y-87251764D01*
X151814928Y-87251764D01*
G37*
G36*
X159434928Y-87251764D02*
G01*
X159456009Y-87258160D01*
X159475445Y-87268548D01*
X159492476Y-87282524D01*
X159506452Y-87299555D01*
X159516840Y-87318991D01*
X159523236Y-87340072D01*
X159526000Y-87368140D01*
X159526000Y-89181860D01*
X159523236Y-89209928D01*
X159516840Y-89231009D01*
X159506452Y-89250445D01*
X159492476Y-89267476D01*
X159475445Y-89281452D01*
X159456009Y-89291840D01*
X159434928Y-89298236D01*
X159406860Y-89301000D01*
X158943140Y-89301000D01*
X158915072Y-89298236D01*
X158893991Y-89291840D01*
X158874555Y-89281452D01*
X158857524Y-89267476D01*
X158843548Y-89250445D01*
X158833160Y-89231009D01*
X158826764Y-89209928D01*
X158824000Y-89181860D01*
X158824000Y-87368140D01*
X158826764Y-87340072D01*
X158833160Y-87318991D01*
X158843548Y-87299555D01*
X158857524Y-87282524D01*
X158874555Y-87268548D01*
X158893991Y-87258160D01*
X158915072Y-87251764D01*
X158943140Y-87249000D01*
X159406860Y-87249000D01*
X159434928Y-87251764D01*
X159434928Y-87251764D01*
G37*
G36*
X160704928Y-87251764D02*
G01*
X160726009Y-87258160D01*
X160745445Y-87268548D01*
X160762476Y-87282524D01*
X160776452Y-87299555D01*
X160786840Y-87318991D01*
X160793236Y-87340072D01*
X160796000Y-87368140D01*
X160796000Y-89181860D01*
X160793236Y-89209928D01*
X160786840Y-89231009D01*
X160776452Y-89250445D01*
X160762476Y-89267476D01*
X160745445Y-89281452D01*
X160726009Y-89291840D01*
X160704928Y-89298236D01*
X160676860Y-89301000D01*
X160213140Y-89301000D01*
X160185072Y-89298236D01*
X160163991Y-89291840D01*
X160144555Y-89281452D01*
X160127524Y-89267476D01*
X160113548Y-89250445D01*
X160103160Y-89231009D01*
X160096764Y-89209928D01*
X160094000Y-89181860D01*
X160094000Y-87368140D01*
X160096764Y-87340072D01*
X160103160Y-87318991D01*
X160113548Y-87299555D01*
X160127524Y-87282524D01*
X160144555Y-87268548D01*
X160163991Y-87258160D01*
X160185072Y-87251764D01*
X160213140Y-87249000D01*
X160676860Y-87249000D01*
X160704928Y-87251764D01*
X160704928Y-87251764D01*
G37*
G36*
X158164928Y-87251764D02*
G01*
X158186009Y-87258160D01*
X158205445Y-87268548D01*
X158222476Y-87282524D01*
X158236452Y-87299555D01*
X158246840Y-87318991D01*
X158253236Y-87340072D01*
X158256000Y-87368140D01*
X158256000Y-89181860D01*
X158253236Y-89209928D01*
X158246840Y-89231009D01*
X158236452Y-89250445D01*
X158222476Y-89267476D01*
X158205445Y-89281452D01*
X158186009Y-89291840D01*
X158164928Y-89298236D01*
X158136860Y-89301000D01*
X157673140Y-89301000D01*
X157645072Y-89298236D01*
X157623991Y-89291840D01*
X157604555Y-89281452D01*
X157587524Y-89267476D01*
X157573548Y-89250445D01*
X157563160Y-89231009D01*
X157556764Y-89209928D01*
X157554000Y-89181860D01*
X157554000Y-87368140D01*
X157556764Y-87340072D01*
X157563160Y-87318991D01*
X157573548Y-87299555D01*
X157587524Y-87282524D01*
X157604555Y-87268548D01*
X157623991Y-87258160D01*
X157645072Y-87251764D01*
X157673140Y-87249000D01*
X158136860Y-87249000D01*
X158164928Y-87251764D01*
X158164928Y-87251764D01*
G37*
G36*
X196664928Y-87151764D02*
G01*
X196686009Y-87158160D01*
X196705445Y-87168548D01*
X196722476Y-87182524D01*
X196736452Y-87199555D01*
X196746840Y-87218991D01*
X196753236Y-87240072D01*
X196756000Y-87268140D01*
X196756000Y-89081860D01*
X196753236Y-89109928D01*
X196746840Y-89131009D01*
X196736452Y-89150445D01*
X196722476Y-89167476D01*
X196705445Y-89181452D01*
X196686009Y-89191840D01*
X196664928Y-89198236D01*
X196636860Y-89201000D01*
X196173140Y-89201000D01*
X196145072Y-89198236D01*
X196123991Y-89191840D01*
X196104555Y-89181452D01*
X196087524Y-89167476D01*
X196073548Y-89150445D01*
X196063160Y-89131009D01*
X196056764Y-89109928D01*
X196054000Y-89081860D01*
X196054000Y-87268140D01*
X196056764Y-87240072D01*
X196063160Y-87218991D01*
X196073548Y-87199555D01*
X196087524Y-87182524D01*
X196104555Y-87168548D01*
X196123991Y-87158160D01*
X196145072Y-87151764D01*
X196173140Y-87149000D01*
X196636860Y-87149000D01*
X196664928Y-87151764D01*
X196664928Y-87151764D01*
G37*
G36*
X205554928Y-87151764D02*
G01*
X205576009Y-87158160D01*
X205595445Y-87168548D01*
X205612476Y-87182524D01*
X205626452Y-87199555D01*
X205636840Y-87218991D01*
X205643236Y-87240072D01*
X205646000Y-87268140D01*
X205646000Y-89081860D01*
X205643236Y-89109928D01*
X205636840Y-89131009D01*
X205626452Y-89150445D01*
X205612476Y-89167476D01*
X205595445Y-89181452D01*
X205576009Y-89191840D01*
X205554928Y-89198236D01*
X205526860Y-89201000D01*
X205063140Y-89201000D01*
X205035072Y-89198236D01*
X205013991Y-89191840D01*
X204994555Y-89181452D01*
X204977524Y-89167476D01*
X204963548Y-89150445D01*
X204953160Y-89131009D01*
X204946764Y-89109928D01*
X204944000Y-89081860D01*
X204944000Y-87268140D01*
X204946764Y-87240072D01*
X204953160Y-87218991D01*
X204963548Y-87199555D01*
X204977524Y-87182524D01*
X204994555Y-87168548D01*
X205013991Y-87158160D01*
X205035072Y-87151764D01*
X205063140Y-87149000D01*
X205526860Y-87149000D01*
X205554928Y-87151764D01*
X205554928Y-87151764D01*
G37*
G36*
X204284928Y-87151764D02*
G01*
X204306009Y-87158160D01*
X204325445Y-87168548D01*
X204342476Y-87182524D01*
X204356452Y-87199555D01*
X204366840Y-87218991D01*
X204373236Y-87240072D01*
X204376000Y-87268140D01*
X204376000Y-89081860D01*
X204373236Y-89109928D01*
X204366840Y-89131009D01*
X204356452Y-89150445D01*
X204342476Y-89167476D01*
X204325445Y-89181452D01*
X204306009Y-89191840D01*
X204284928Y-89198236D01*
X204256860Y-89201000D01*
X203793140Y-89201000D01*
X203765072Y-89198236D01*
X203743991Y-89191840D01*
X203724555Y-89181452D01*
X203707524Y-89167476D01*
X203693548Y-89150445D01*
X203683160Y-89131009D01*
X203676764Y-89109928D01*
X203674000Y-89081860D01*
X203674000Y-87268140D01*
X203676764Y-87240072D01*
X203683160Y-87218991D01*
X203693548Y-87199555D01*
X203707524Y-87182524D01*
X203724555Y-87168548D01*
X203743991Y-87158160D01*
X203765072Y-87151764D01*
X203793140Y-87149000D01*
X204256860Y-87149000D01*
X204284928Y-87151764D01*
X204284928Y-87151764D01*
G37*
G36*
X203014928Y-87151764D02*
G01*
X203036009Y-87158160D01*
X203055445Y-87168548D01*
X203072476Y-87182524D01*
X203086452Y-87199555D01*
X203096840Y-87218991D01*
X203103236Y-87240072D01*
X203106000Y-87268140D01*
X203106000Y-89081860D01*
X203103236Y-89109928D01*
X203096840Y-89131009D01*
X203086452Y-89150445D01*
X203072476Y-89167476D01*
X203055445Y-89181452D01*
X203036009Y-89191840D01*
X203014928Y-89198236D01*
X202986860Y-89201000D01*
X202523140Y-89201000D01*
X202495072Y-89198236D01*
X202473991Y-89191840D01*
X202454555Y-89181452D01*
X202437524Y-89167476D01*
X202423548Y-89150445D01*
X202413160Y-89131009D01*
X202406764Y-89109928D01*
X202404000Y-89081860D01*
X202404000Y-87268140D01*
X202406764Y-87240072D01*
X202413160Y-87218991D01*
X202423548Y-87199555D01*
X202437524Y-87182524D01*
X202454555Y-87168548D01*
X202473991Y-87158160D01*
X202495072Y-87151764D01*
X202523140Y-87149000D01*
X202986860Y-87149000D01*
X203014928Y-87151764D01*
X203014928Y-87151764D01*
G37*
G36*
X201744928Y-87151764D02*
G01*
X201766009Y-87158160D01*
X201785445Y-87168548D01*
X201802476Y-87182524D01*
X201816452Y-87199555D01*
X201826840Y-87218991D01*
X201833236Y-87240072D01*
X201836000Y-87268140D01*
X201836000Y-89081860D01*
X201833236Y-89109928D01*
X201826840Y-89131009D01*
X201816452Y-89150445D01*
X201802476Y-89167476D01*
X201785445Y-89181452D01*
X201766009Y-89191840D01*
X201744928Y-89198236D01*
X201716860Y-89201000D01*
X201253140Y-89201000D01*
X201225072Y-89198236D01*
X201203991Y-89191840D01*
X201184555Y-89181452D01*
X201167524Y-89167476D01*
X201153548Y-89150445D01*
X201143160Y-89131009D01*
X201136764Y-89109928D01*
X201134000Y-89081860D01*
X201134000Y-87268140D01*
X201136764Y-87240072D01*
X201143160Y-87218991D01*
X201153548Y-87199555D01*
X201167524Y-87182524D01*
X201184555Y-87168548D01*
X201203991Y-87158160D01*
X201225072Y-87151764D01*
X201253140Y-87149000D01*
X201716860Y-87149000D01*
X201744928Y-87151764D01*
X201744928Y-87151764D01*
G37*
G36*
X200474928Y-87151764D02*
G01*
X200496009Y-87158160D01*
X200515445Y-87168548D01*
X200532476Y-87182524D01*
X200546452Y-87199555D01*
X200556840Y-87218991D01*
X200563236Y-87240072D01*
X200566000Y-87268140D01*
X200566000Y-89081860D01*
X200563236Y-89109928D01*
X200556840Y-89131009D01*
X200546452Y-89150445D01*
X200532476Y-89167476D01*
X200515445Y-89181452D01*
X200496009Y-89191840D01*
X200474928Y-89198236D01*
X200446860Y-89201000D01*
X199983140Y-89201000D01*
X199955072Y-89198236D01*
X199933991Y-89191840D01*
X199914555Y-89181452D01*
X199897524Y-89167476D01*
X199883548Y-89150445D01*
X199873160Y-89131009D01*
X199866764Y-89109928D01*
X199864000Y-89081860D01*
X199864000Y-87268140D01*
X199866764Y-87240072D01*
X199873160Y-87218991D01*
X199883548Y-87199555D01*
X199897524Y-87182524D01*
X199914555Y-87168548D01*
X199933991Y-87158160D01*
X199955072Y-87151764D01*
X199983140Y-87149000D01*
X200446860Y-87149000D01*
X200474928Y-87151764D01*
X200474928Y-87151764D01*
G37*
G36*
X199204928Y-87151764D02*
G01*
X199226009Y-87158160D01*
X199245445Y-87168548D01*
X199262476Y-87182524D01*
X199276452Y-87199555D01*
X199286840Y-87218991D01*
X199293236Y-87240072D01*
X199296000Y-87268140D01*
X199296000Y-89081860D01*
X199293236Y-89109928D01*
X199286840Y-89131009D01*
X199276452Y-89150445D01*
X199262476Y-89167476D01*
X199245445Y-89181452D01*
X199226009Y-89191840D01*
X199204928Y-89198236D01*
X199176860Y-89201000D01*
X198713140Y-89201000D01*
X198685072Y-89198236D01*
X198663991Y-89191840D01*
X198644555Y-89181452D01*
X198627524Y-89167476D01*
X198613548Y-89150445D01*
X198603160Y-89131009D01*
X198596764Y-89109928D01*
X198594000Y-89081860D01*
X198594000Y-87268140D01*
X198596764Y-87240072D01*
X198603160Y-87218991D01*
X198613548Y-87199555D01*
X198627524Y-87182524D01*
X198644555Y-87168548D01*
X198663991Y-87158160D01*
X198685072Y-87151764D01*
X198713140Y-87149000D01*
X199176860Y-87149000D01*
X199204928Y-87151764D01*
X199204928Y-87151764D01*
G37*
G36*
X183129928Y-87151764D02*
G01*
X183151009Y-87158160D01*
X183170445Y-87168548D01*
X183187476Y-87182524D01*
X183201452Y-87199555D01*
X183211840Y-87218991D01*
X183218236Y-87240072D01*
X183221000Y-87268140D01*
X183221000Y-89081860D01*
X183218236Y-89109928D01*
X183211840Y-89131009D01*
X183201452Y-89150445D01*
X183187476Y-89167476D01*
X183170445Y-89181452D01*
X183151009Y-89191840D01*
X183129928Y-89198236D01*
X183101860Y-89201000D01*
X182638140Y-89201000D01*
X182610072Y-89198236D01*
X182588991Y-89191840D01*
X182569555Y-89181452D01*
X182552524Y-89167476D01*
X182538548Y-89150445D01*
X182528160Y-89131009D01*
X182521764Y-89109928D01*
X182519000Y-89081860D01*
X182519000Y-87268140D01*
X182521764Y-87240072D01*
X182528160Y-87218991D01*
X182538548Y-87199555D01*
X182552524Y-87182524D01*
X182569555Y-87168548D01*
X182588991Y-87158160D01*
X182610072Y-87151764D01*
X182638140Y-87149000D01*
X183101860Y-87149000D01*
X183129928Y-87151764D01*
X183129928Y-87151764D01*
G37*
G36*
X181859928Y-87151764D02*
G01*
X181881009Y-87158160D01*
X181900445Y-87168548D01*
X181917476Y-87182524D01*
X181931452Y-87199555D01*
X181941840Y-87218991D01*
X181948236Y-87240072D01*
X181951000Y-87268140D01*
X181951000Y-89081860D01*
X181948236Y-89109928D01*
X181941840Y-89131009D01*
X181931452Y-89150445D01*
X181917476Y-89167476D01*
X181900445Y-89181452D01*
X181881009Y-89191840D01*
X181859928Y-89198236D01*
X181831860Y-89201000D01*
X181368140Y-89201000D01*
X181340072Y-89198236D01*
X181318991Y-89191840D01*
X181299555Y-89181452D01*
X181282524Y-89167476D01*
X181268548Y-89150445D01*
X181258160Y-89131009D01*
X181251764Y-89109928D01*
X181249000Y-89081860D01*
X181249000Y-87268140D01*
X181251764Y-87240072D01*
X181258160Y-87218991D01*
X181268548Y-87199555D01*
X181282524Y-87182524D01*
X181299555Y-87168548D01*
X181318991Y-87158160D01*
X181340072Y-87151764D01*
X181368140Y-87149000D01*
X181831860Y-87149000D01*
X181859928Y-87151764D01*
X181859928Y-87151764D01*
G37*
G36*
X174239928Y-87151764D02*
G01*
X174261009Y-87158160D01*
X174280445Y-87168548D01*
X174297476Y-87182524D01*
X174311452Y-87199555D01*
X174321840Y-87218991D01*
X174328236Y-87240072D01*
X174331000Y-87268140D01*
X174331000Y-89081860D01*
X174328236Y-89109928D01*
X174321840Y-89131009D01*
X174311452Y-89150445D01*
X174297476Y-89167476D01*
X174280445Y-89181452D01*
X174261009Y-89191840D01*
X174239928Y-89198236D01*
X174211860Y-89201000D01*
X173748140Y-89201000D01*
X173720072Y-89198236D01*
X173698991Y-89191840D01*
X173679555Y-89181452D01*
X173662524Y-89167476D01*
X173648548Y-89150445D01*
X173638160Y-89131009D01*
X173631764Y-89109928D01*
X173629000Y-89081860D01*
X173629000Y-87268140D01*
X173631764Y-87240072D01*
X173638160Y-87218991D01*
X173648548Y-87199555D01*
X173662524Y-87182524D01*
X173679555Y-87168548D01*
X173698991Y-87158160D01*
X173720072Y-87151764D01*
X173748140Y-87149000D01*
X174211860Y-87149000D01*
X174239928Y-87151764D01*
X174239928Y-87151764D01*
G37*
G36*
X197934928Y-87151764D02*
G01*
X197956009Y-87158160D01*
X197975445Y-87168548D01*
X197992476Y-87182524D01*
X198006452Y-87199555D01*
X198016840Y-87218991D01*
X198023236Y-87240072D01*
X198026000Y-87268140D01*
X198026000Y-89081860D01*
X198023236Y-89109928D01*
X198016840Y-89131009D01*
X198006452Y-89150445D01*
X197992476Y-89167476D01*
X197975445Y-89181452D01*
X197956009Y-89191840D01*
X197934928Y-89198236D01*
X197906860Y-89201000D01*
X197443140Y-89201000D01*
X197415072Y-89198236D01*
X197393991Y-89191840D01*
X197374555Y-89181452D01*
X197357524Y-89167476D01*
X197343548Y-89150445D01*
X197333160Y-89131009D01*
X197326764Y-89109928D01*
X197324000Y-89081860D01*
X197324000Y-87268140D01*
X197326764Y-87240072D01*
X197333160Y-87218991D01*
X197343548Y-87199555D01*
X197357524Y-87182524D01*
X197374555Y-87168548D01*
X197393991Y-87158160D01*
X197415072Y-87151764D01*
X197443140Y-87149000D01*
X197906860Y-87149000D01*
X197934928Y-87151764D01*
X197934928Y-87151764D01*
G37*
G36*
X175509928Y-87151764D02*
G01*
X175531009Y-87158160D01*
X175550445Y-87168548D01*
X175567476Y-87182524D01*
X175581452Y-87199555D01*
X175591840Y-87218991D01*
X175598236Y-87240072D01*
X175601000Y-87268140D01*
X175601000Y-89081860D01*
X175598236Y-89109928D01*
X175591840Y-89131009D01*
X175581452Y-89150445D01*
X175567476Y-89167476D01*
X175550445Y-89181452D01*
X175531009Y-89191840D01*
X175509928Y-89198236D01*
X175481860Y-89201000D01*
X175018140Y-89201000D01*
X174990072Y-89198236D01*
X174968991Y-89191840D01*
X174949555Y-89181452D01*
X174932524Y-89167476D01*
X174918548Y-89150445D01*
X174908160Y-89131009D01*
X174901764Y-89109928D01*
X174899000Y-89081860D01*
X174899000Y-87268140D01*
X174901764Y-87240072D01*
X174908160Y-87218991D01*
X174918548Y-87199555D01*
X174932524Y-87182524D01*
X174949555Y-87168548D01*
X174968991Y-87158160D01*
X174990072Y-87151764D01*
X175018140Y-87149000D01*
X175481860Y-87149000D01*
X175509928Y-87151764D01*
X175509928Y-87151764D01*
G37*
G36*
X176779928Y-87151764D02*
G01*
X176801009Y-87158160D01*
X176820445Y-87168548D01*
X176837476Y-87182524D01*
X176851452Y-87199555D01*
X176861840Y-87218991D01*
X176868236Y-87240072D01*
X176871000Y-87268140D01*
X176871000Y-89081860D01*
X176868236Y-89109928D01*
X176861840Y-89131009D01*
X176851452Y-89150445D01*
X176837476Y-89167476D01*
X176820445Y-89181452D01*
X176801009Y-89191840D01*
X176779928Y-89198236D01*
X176751860Y-89201000D01*
X176288140Y-89201000D01*
X176260072Y-89198236D01*
X176238991Y-89191840D01*
X176219555Y-89181452D01*
X176202524Y-89167476D01*
X176188548Y-89150445D01*
X176178160Y-89131009D01*
X176171764Y-89109928D01*
X176169000Y-89081860D01*
X176169000Y-87268140D01*
X176171764Y-87240072D01*
X176178160Y-87218991D01*
X176188548Y-87199555D01*
X176202524Y-87182524D01*
X176219555Y-87168548D01*
X176238991Y-87158160D01*
X176260072Y-87151764D01*
X176288140Y-87149000D01*
X176751860Y-87149000D01*
X176779928Y-87151764D01*
X176779928Y-87151764D01*
G37*
G36*
X178049928Y-87151764D02*
G01*
X178071009Y-87158160D01*
X178090445Y-87168548D01*
X178107476Y-87182524D01*
X178121452Y-87199555D01*
X178131840Y-87218991D01*
X178138236Y-87240072D01*
X178141000Y-87268140D01*
X178141000Y-89081860D01*
X178138236Y-89109928D01*
X178131840Y-89131009D01*
X178121452Y-89150445D01*
X178107476Y-89167476D01*
X178090445Y-89181452D01*
X178071009Y-89191840D01*
X178049928Y-89198236D01*
X178021860Y-89201000D01*
X177558140Y-89201000D01*
X177530072Y-89198236D01*
X177508991Y-89191840D01*
X177489555Y-89181452D01*
X177472524Y-89167476D01*
X177458548Y-89150445D01*
X177448160Y-89131009D01*
X177441764Y-89109928D01*
X177439000Y-89081860D01*
X177439000Y-87268140D01*
X177441764Y-87240072D01*
X177448160Y-87218991D01*
X177458548Y-87199555D01*
X177472524Y-87182524D01*
X177489555Y-87168548D01*
X177508991Y-87158160D01*
X177530072Y-87151764D01*
X177558140Y-87149000D01*
X178021860Y-87149000D01*
X178049928Y-87151764D01*
X178049928Y-87151764D01*
G37*
G36*
X179319928Y-87151764D02*
G01*
X179341009Y-87158160D01*
X179360445Y-87168548D01*
X179377476Y-87182524D01*
X179391452Y-87199555D01*
X179401840Y-87218991D01*
X179408236Y-87240072D01*
X179411000Y-87268140D01*
X179411000Y-89081860D01*
X179408236Y-89109928D01*
X179401840Y-89131009D01*
X179391452Y-89150445D01*
X179377476Y-89167476D01*
X179360445Y-89181452D01*
X179341009Y-89191840D01*
X179319928Y-89198236D01*
X179291860Y-89201000D01*
X178828140Y-89201000D01*
X178800072Y-89198236D01*
X178778991Y-89191840D01*
X178759555Y-89181452D01*
X178742524Y-89167476D01*
X178728548Y-89150445D01*
X178718160Y-89131009D01*
X178711764Y-89109928D01*
X178709000Y-89081860D01*
X178709000Y-87268140D01*
X178711764Y-87240072D01*
X178718160Y-87218991D01*
X178728548Y-87199555D01*
X178742524Y-87182524D01*
X178759555Y-87168548D01*
X178778991Y-87158160D01*
X178800072Y-87151764D01*
X178828140Y-87149000D01*
X179291860Y-87149000D01*
X179319928Y-87151764D01*
X179319928Y-87151764D01*
G37*
G36*
X180589928Y-87151764D02*
G01*
X180611009Y-87158160D01*
X180630445Y-87168548D01*
X180647476Y-87182524D01*
X180661452Y-87199555D01*
X180671840Y-87218991D01*
X180678236Y-87240072D01*
X180681000Y-87268140D01*
X180681000Y-89081860D01*
X180678236Y-89109928D01*
X180671840Y-89131009D01*
X180661452Y-89150445D01*
X180647476Y-89167476D01*
X180630445Y-89181452D01*
X180611009Y-89191840D01*
X180589928Y-89198236D01*
X180561860Y-89201000D01*
X180098140Y-89201000D01*
X180070072Y-89198236D01*
X180048991Y-89191840D01*
X180029555Y-89181452D01*
X180012524Y-89167476D01*
X179998548Y-89150445D01*
X179988160Y-89131009D01*
X179981764Y-89109928D01*
X179979000Y-89081860D01*
X179979000Y-87268140D01*
X179981764Y-87240072D01*
X179988160Y-87218991D01*
X179998548Y-87199555D01*
X180012524Y-87182524D01*
X180029555Y-87168548D01*
X180048991Y-87158160D01*
X180070072Y-87151764D01*
X180098140Y-87149000D01*
X180561860Y-87149000D01*
X180589928Y-87151764D01*
X180589928Y-87151764D01*
G37*
G36*
X62434468Y-87428565D02*
G01*
X62473138Y-87440296D01*
X62508777Y-87459346D01*
X62540017Y-87484983D01*
X62565654Y-87516223D01*
X62584704Y-87551862D01*
X62596435Y-87590532D01*
X62601000Y-87636888D01*
X62601000Y-88713112D01*
X62596435Y-88759468D01*
X62584704Y-88798138D01*
X62565654Y-88833777D01*
X62540017Y-88865017D01*
X62508777Y-88890654D01*
X62473138Y-88909704D01*
X62434468Y-88921435D01*
X62388112Y-88926000D01*
X61736888Y-88926000D01*
X61690532Y-88921435D01*
X61651862Y-88909704D01*
X61616223Y-88890654D01*
X61584983Y-88865017D01*
X61559346Y-88833777D01*
X61540296Y-88798138D01*
X61528565Y-88759468D01*
X61524000Y-88713112D01*
X61524000Y-87636888D01*
X61528565Y-87590532D01*
X61540296Y-87551862D01*
X61559346Y-87516223D01*
X61584983Y-87484983D01*
X61616223Y-87459346D01*
X61651862Y-87440296D01*
X61690532Y-87428565D01*
X61736888Y-87424000D01*
X62388112Y-87424000D01*
X62434468Y-87428565D01*
X62434468Y-87428565D01*
G37*
G36*
X60559468Y-87428565D02*
G01*
X60598138Y-87440296D01*
X60633777Y-87459346D01*
X60665017Y-87484983D01*
X60690654Y-87516223D01*
X60709704Y-87551862D01*
X60721435Y-87590532D01*
X60726000Y-87636888D01*
X60726000Y-88713112D01*
X60721435Y-88759468D01*
X60709704Y-88798138D01*
X60690654Y-88833777D01*
X60665017Y-88865017D01*
X60633777Y-88890654D01*
X60598138Y-88909704D01*
X60559468Y-88921435D01*
X60513112Y-88926000D01*
X59861888Y-88926000D01*
X59815532Y-88921435D01*
X59776862Y-88909704D01*
X59741223Y-88890654D01*
X59709983Y-88865017D01*
X59684346Y-88833777D01*
X59665296Y-88798138D01*
X59653565Y-88759468D01*
X59649000Y-88713112D01*
X59649000Y-87636888D01*
X59653565Y-87590532D01*
X59665296Y-87551862D01*
X59684346Y-87516223D01*
X59709983Y-87484983D01*
X59741223Y-87459346D01*
X59776862Y-87440296D01*
X59815532Y-87428565D01*
X59861888Y-87424000D01*
X60513112Y-87424000D01*
X60559468Y-87428565D01*
X60559468Y-87428565D01*
G37*
G36*
X81829591Y-87940585D02*
G01*
X81863569Y-87950893D01*
X81894890Y-87967634D01*
X81922339Y-87990161D01*
X81944866Y-88017610D01*
X81961607Y-88048931D01*
X81971915Y-88082909D01*
X81976000Y-88124390D01*
X81976000Y-88725610D01*
X81971915Y-88767091D01*
X81961607Y-88801069D01*
X81944866Y-88832390D01*
X81922339Y-88859839D01*
X81894890Y-88882366D01*
X81863569Y-88899107D01*
X81829591Y-88909415D01*
X81788110Y-88913500D01*
X81111890Y-88913500D01*
X81070409Y-88909415D01*
X81036431Y-88899107D01*
X81005110Y-88882366D01*
X80977661Y-88859839D01*
X80955134Y-88832390D01*
X80938393Y-88801069D01*
X80928085Y-88767091D01*
X80924000Y-88725610D01*
X80924000Y-88124390D01*
X80928085Y-88082909D01*
X80938393Y-88048931D01*
X80955134Y-88017610D01*
X80977661Y-87990161D01*
X81005110Y-87967634D01*
X81036431Y-87950893D01*
X81070409Y-87940585D01*
X81111890Y-87936500D01*
X81788110Y-87936500D01*
X81829591Y-87940585D01*
X81829591Y-87940585D01*
G37*
G36*
X103334468Y-87753565D02*
G01*
X103373138Y-87765296D01*
X103408777Y-87784346D01*
X103440017Y-87809983D01*
X103465654Y-87841223D01*
X103484704Y-87876862D01*
X103496435Y-87915532D01*
X103501000Y-87961888D01*
X103501000Y-88613112D01*
X103496435Y-88659468D01*
X103484704Y-88698138D01*
X103465654Y-88733777D01*
X103440017Y-88765017D01*
X103408777Y-88790654D01*
X103373138Y-88809704D01*
X103334468Y-88821435D01*
X103288112Y-88826000D01*
X102211888Y-88826000D01*
X102165532Y-88821435D01*
X102126862Y-88809704D01*
X102091223Y-88790654D01*
X102059983Y-88765017D01*
X102034346Y-88733777D01*
X102015296Y-88698138D01*
X102003565Y-88659468D01*
X101999000Y-88613112D01*
X101999000Y-87961888D01*
X102003565Y-87915532D01*
X102015296Y-87876862D01*
X102034346Y-87841223D01*
X102059983Y-87809983D01*
X102091223Y-87784346D01*
X102126862Y-87765296D01*
X102165532Y-87753565D01*
X102211888Y-87749000D01*
X103288112Y-87749000D01*
X103334468Y-87753565D01*
X103334468Y-87753565D01*
G37*
G36*
X105334468Y-87753565D02*
G01*
X105373138Y-87765296D01*
X105408777Y-87784346D01*
X105440017Y-87809983D01*
X105465654Y-87841223D01*
X105484704Y-87876862D01*
X105496435Y-87915532D01*
X105501000Y-87961888D01*
X105501000Y-88613112D01*
X105496435Y-88659468D01*
X105484704Y-88698138D01*
X105465654Y-88733777D01*
X105440017Y-88765017D01*
X105408777Y-88790654D01*
X105373138Y-88809704D01*
X105334468Y-88821435D01*
X105288112Y-88826000D01*
X104211888Y-88826000D01*
X104165532Y-88821435D01*
X104126862Y-88809704D01*
X104091223Y-88790654D01*
X104059983Y-88765017D01*
X104034346Y-88733777D01*
X104015296Y-88698138D01*
X104003565Y-88659468D01*
X103999000Y-88613112D01*
X103999000Y-87961888D01*
X104003565Y-87915532D01*
X104015296Y-87876862D01*
X104034346Y-87841223D01*
X104059983Y-87809983D01*
X104091223Y-87784346D01*
X104126862Y-87765296D01*
X104165532Y-87753565D01*
X104211888Y-87749000D01*
X105288112Y-87749000D01*
X105334468Y-87753565D01*
X105334468Y-87753565D01*
G37*
G36*
X150379591Y-87778085D02*
G01*
X150413569Y-87788393D01*
X150444890Y-87805134D01*
X150472339Y-87827661D01*
X150494866Y-87855110D01*
X150511607Y-87886431D01*
X150521915Y-87920409D01*
X150526000Y-87961890D01*
X150526000Y-88563110D01*
X150521915Y-88604591D01*
X150511607Y-88638569D01*
X150494866Y-88669890D01*
X150472339Y-88697339D01*
X150444890Y-88719866D01*
X150413569Y-88736607D01*
X150379591Y-88746915D01*
X150338110Y-88751000D01*
X149661890Y-88751000D01*
X149620409Y-88746915D01*
X149586431Y-88736607D01*
X149555110Y-88719866D01*
X149527661Y-88697339D01*
X149505134Y-88669890D01*
X149488393Y-88638569D01*
X149478085Y-88604591D01*
X149474000Y-88563110D01*
X149474000Y-87961890D01*
X149478085Y-87920409D01*
X149488393Y-87886431D01*
X149505134Y-87855110D01*
X149527661Y-87827661D01*
X149555110Y-87805134D01*
X149586431Y-87788393D01*
X149620409Y-87778085D01*
X149661890Y-87774000D01*
X150338110Y-87774000D01*
X150379591Y-87778085D01*
X150379591Y-87778085D01*
G37*
G36*
X79184468Y-87628565D02*
G01*
X79223138Y-87640296D01*
X79258777Y-87659346D01*
X79290017Y-87684983D01*
X79315654Y-87716223D01*
X79334704Y-87751862D01*
X79346435Y-87790532D01*
X79351000Y-87836888D01*
X79351000Y-88488112D01*
X79346435Y-88534468D01*
X79334704Y-88573138D01*
X79315654Y-88608777D01*
X79290017Y-88640017D01*
X79258777Y-88665654D01*
X79223138Y-88684704D01*
X79184468Y-88696435D01*
X79138112Y-88701000D01*
X78061888Y-88701000D01*
X78015532Y-88696435D01*
X77976862Y-88684704D01*
X77941223Y-88665654D01*
X77909983Y-88640017D01*
X77884346Y-88608777D01*
X77865296Y-88573138D01*
X77853565Y-88534468D01*
X77849000Y-88488112D01*
X77849000Y-87836888D01*
X77853565Y-87790532D01*
X77865296Y-87751862D01*
X77884346Y-87716223D01*
X77909983Y-87684983D01*
X77941223Y-87659346D01*
X77976862Y-87640296D01*
X78015532Y-87628565D01*
X78061888Y-87624000D01*
X79138112Y-87624000D01*
X79184468Y-87628565D01*
X79184468Y-87628565D01*
G37*
G36*
X195179591Y-87678085D02*
G01*
X195213569Y-87688393D01*
X195244890Y-87705134D01*
X195272339Y-87727661D01*
X195294866Y-87755110D01*
X195311607Y-87786431D01*
X195321915Y-87820409D01*
X195326000Y-87861890D01*
X195326000Y-88463110D01*
X195321915Y-88504591D01*
X195311607Y-88538569D01*
X195294866Y-88569890D01*
X195272339Y-88597339D01*
X195244890Y-88619866D01*
X195213569Y-88636607D01*
X195179591Y-88646915D01*
X195138110Y-88651000D01*
X194461890Y-88651000D01*
X194420409Y-88646915D01*
X194386431Y-88636607D01*
X194355110Y-88619866D01*
X194327661Y-88597339D01*
X194305134Y-88569890D01*
X194288393Y-88538569D01*
X194278085Y-88504591D01*
X194274000Y-88463110D01*
X194274000Y-87861890D01*
X194278085Y-87820409D01*
X194288393Y-87786431D01*
X194305134Y-87755110D01*
X194327661Y-87727661D01*
X194355110Y-87705134D01*
X194386431Y-87688393D01*
X194420409Y-87678085D01*
X194461890Y-87674000D01*
X195138110Y-87674000D01*
X195179591Y-87678085D01*
X195179591Y-87678085D01*
G37*
G36*
X172779591Y-87678085D02*
G01*
X172813569Y-87688393D01*
X172844890Y-87705134D01*
X172872339Y-87727661D01*
X172894866Y-87755110D01*
X172911607Y-87786431D01*
X172921915Y-87820409D01*
X172926000Y-87861890D01*
X172926000Y-88463110D01*
X172921915Y-88504591D01*
X172911607Y-88538569D01*
X172894866Y-88569890D01*
X172872339Y-88597339D01*
X172844890Y-88619866D01*
X172813569Y-88636607D01*
X172779591Y-88646915D01*
X172738110Y-88651000D01*
X172061890Y-88651000D01*
X172020409Y-88646915D01*
X171986431Y-88636607D01*
X171955110Y-88619866D01*
X171927661Y-88597339D01*
X171905134Y-88569890D01*
X171888393Y-88538569D01*
X171878085Y-88504591D01*
X171874000Y-88463110D01*
X171874000Y-87861890D01*
X171878085Y-87820409D01*
X171888393Y-87786431D01*
X171905134Y-87755110D01*
X171927661Y-87727661D01*
X171955110Y-87705134D01*
X171986431Y-87688393D01*
X172020409Y-87678085D01*
X172061890Y-87674000D01*
X172738110Y-87674000D01*
X172779591Y-87678085D01*
X172779591Y-87678085D01*
G37*
G36*
X65926000Y-88531000D02*
G01*
X63274000Y-88531000D01*
X63274000Y-87369000D01*
X65926000Y-87369000D01*
X65926000Y-88531000D01*
X65926000Y-88531000D01*
G37*
G36*
X118534468Y-86703565D02*
G01*
X118573138Y-86715296D01*
X118608777Y-86734346D01*
X118640017Y-86759983D01*
X118665654Y-86791223D01*
X118684704Y-86826862D01*
X118696435Y-86865532D01*
X118701000Y-86911888D01*
X118701000Y-87988112D01*
X118696435Y-88034468D01*
X118684704Y-88073138D01*
X118665654Y-88108777D01*
X118640017Y-88140017D01*
X118608777Y-88165654D01*
X118573138Y-88184704D01*
X118534468Y-88196435D01*
X118488112Y-88201000D01*
X117836888Y-88201000D01*
X117790532Y-88196435D01*
X117751862Y-88184704D01*
X117716223Y-88165654D01*
X117684983Y-88140017D01*
X117659346Y-88108777D01*
X117640296Y-88073138D01*
X117628565Y-88034468D01*
X117624000Y-87988112D01*
X117624000Y-86911888D01*
X117628565Y-86865532D01*
X117640296Y-86826862D01*
X117659346Y-86791223D01*
X117684983Y-86759983D01*
X117716223Y-86734346D01*
X117751862Y-86715296D01*
X117790532Y-86703565D01*
X117836888Y-86699000D01*
X118488112Y-86699000D01*
X118534468Y-86703565D01*
X118534468Y-86703565D01*
G37*
G36*
X120409468Y-86703565D02*
G01*
X120448138Y-86715296D01*
X120483777Y-86734346D01*
X120515017Y-86759983D01*
X120540654Y-86791223D01*
X120559704Y-86826862D01*
X120571435Y-86865532D01*
X120576000Y-86911888D01*
X120576000Y-87988112D01*
X120571435Y-88034468D01*
X120559704Y-88073138D01*
X120540654Y-88108777D01*
X120515017Y-88140017D01*
X120483777Y-88165654D01*
X120448138Y-88184704D01*
X120409468Y-88196435D01*
X120363112Y-88201000D01*
X119711888Y-88201000D01*
X119665532Y-88196435D01*
X119626862Y-88184704D01*
X119591223Y-88165654D01*
X119559983Y-88140017D01*
X119534346Y-88108777D01*
X119515296Y-88073138D01*
X119503565Y-88034468D01*
X119499000Y-87988112D01*
X119499000Y-86911888D01*
X119503565Y-86865532D01*
X119515296Y-86826862D01*
X119534346Y-86791223D01*
X119559983Y-86759983D01*
X119591223Y-86734346D01*
X119626862Y-86715296D01*
X119665532Y-86703565D01*
X119711888Y-86699000D01*
X120363112Y-86699000D01*
X120409468Y-86703565D01*
X120409468Y-86703565D01*
G37*
G36*
X108229591Y-87203085D02*
G01*
X108263569Y-87213393D01*
X108294890Y-87230134D01*
X108322339Y-87252661D01*
X108344866Y-87280110D01*
X108361607Y-87311431D01*
X108371915Y-87345409D01*
X108376000Y-87386890D01*
X108376000Y-87988110D01*
X108371915Y-88029591D01*
X108361607Y-88063569D01*
X108344866Y-88094890D01*
X108322339Y-88122339D01*
X108294890Y-88144866D01*
X108263569Y-88161607D01*
X108229591Y-88171915D01*
X108188110Y-88176000D01*
X107511890Y-88176000D01*
X107470409Y-88171915D01*
X107436431Y-88161607D01*
X107405110Y-88144866D01*
X107377661Y-88122339D01*
X107355134Y-88094890D01*
X107338393Y-88063569D01*
X107328085Y-88029591D01*
X107324000Y-87988110D01*
X107324000Y-87386890D01*
X107328085Y-87345409D01*
X107338393Y-87311431D01*
X107355134Y-87280110D01*
X107377661Y-87252661D01*
X107405110Y-87230134D01*
X107436431Y-87213393D01*
X107470409Y-87203085D01*
X107511890Y-87199000D01*
X108188110Y-87199000D01*
X108229591Y-87203085D01*
X108229591Y-87203085D01*
G37*
G36*
X103334468Y-85878565D02*
G01*
X103373138Y-85890296D01*
X103408777Y-85909346D01*
X103440017Y-85934983D01*
X103465654Y-85966223D01*
X103484704Y-86001862D01*
X103496435Y-86040532D01*
X103501000Y-86086888D01*
X103501000Y-86738112D01*
X103496435Y-86784468D01*
X103484704Y-86823138D01*
X103465654Y-86858777D01*
X103440017Y-86890017D01*
X103408777Y-86915654D01*
X103373138Y-86934704D01*
X103334468Y-86946435D01*
X103288112Y-86951000D01*
X102211888Y-86951000D01*
X102165532Y-86946435D01*
X102126862Y-86934704D01*
X102091223Y-86915654D01*
X102059983Y-86890017D01*
X102034346Y-86858777D01*
X102015296Y-86823138D01*
X102003565Y-86784468D01*
X101999000Y-86738112D01*
X101999000Y-86086888D01*
X102003565Y-86040532D01*
X102015296Y-86001862D01*
X102034346Y-85966223D01*
X102059983Y-85934983D01*
X102091223Y-85909346D01*
X102126862Y-85890296D01*
X102165532Y-85878565D01*
X102211888Y-85874000D01*
X103288112Y-85874000D01*
X103334468Y-85878565D01*
X103334468Y-85878565D01*
G37*
G36*
X105334468Y-85878565D02*
G01*
X105373138Y-85890296D01*
X105408777Y-85909346D01*
X105440017Y-85934983D01*
X105465654Y-85966223D01*
X105484704Y-86001862D01*
X105496435Y-86040532D01*
X105501000Y-86086888D01*
X105501000Y-86738112D01*
X105496435Y-86784468D01*
X105484704Y-86823138D01*
X105465654Y-86858777D01*
X105440017Y-86890017D01*
X105408777Y-86915654D01*
X105373138Y-86934704D01*
X105334468Y-86946435D01*
X105288112Y-86951000D01*
X104211888Y-86951000D01*
X104165532Y-86946435D01*
X104126862Y-86934704D01*
X104091223Y-86915654D01*
X104059983Y-86890017D01*
X104034346Y-86858777D01*
X104015296Y-86823138D01*
X104003565Y-86784468D01*
X103999000Y-86738112D01*
X103999000Y-86086888D01*
X104003565Y-86040532D01*
X104015296Y-86001862D01*
X104034346Y-85966223D01*
X104059983Y-85934983D01*
X104091223Y-85909346D01*
X104126862Y-85890296D01*
X104165532Y-85878565D01*
X104211888Y-85874000D01*
X105288112Y-85874000D01*
X105334468Y-85878565D01*
X105334468Y-85878565D01*
G37*
G36*
X108229591Y-85628085D02*
G01*
X108263569Y-85638393D01*
X108294890Y-85655134D01*
X108322339Y-85677661D01*
X108344866Y-85705110D01*
X108361607Y-85736431D01*
X108371915Y-85770409D01*
X108376000Y-85811890D01*
X108376000Y-86413110D01*
X108371915Y-86454591D01*
X108361607Y-86488569D01*
X108344866Y-86519890D01*
X108322339Y-86547339D01*
X108294890Y-86569866D01*
X108263569Y-86586607D01*
X108229591Y-86596915D01*
X108188110Y-86601000D01*
X107511890Y-86601000D01*
X107470409Y-86596915D01*
X107436431Y-86586607D01*
X107405110Y-86569866D01*
X107377661Y-86547339D01*
X107355134Y-86519890D01*
X107338393Y-86488569D01*
X107328085Y-86454591D01*
X107324000Y-86413110D01*
X107324000Y-85811890D01*
X107328085Y-85770409D01*
X107338393Y-85736431D01*
X107355134Y-85705110D01*
X107377661Y-85677661D01*
X107405110Y-85655134D01*
X107436431Y-85638393D01*
X107470409Y-85628085D01*
X107511890Y-85624000D01*
X108188110Y-85624000D01*
X108229591Y-85628085D01*
X108229591Y-85628085D01*
G37*
G36*
X65926000Y-86331000D02*
G01*
X65174000Y-86331000D01*
X65174000Y-85169000D01*
X65926000Y-85169000D01*
X65926000Y-86331000D01*
X65926000Y-86331000D01*
G37*
G36*
X64026000Y-86331000D02*
G01*
X63274000Y-86331000D01*
X63274000Y-85169000D01*
X64026000Y-85169000D01*
X64026000Y-86331000D01*
X64026000Y-86331000D01*
G37*
G36*
X60559468Y-84828565D02*
G01*
X60598138Y-84840296D01*
X60633777Y-84859346D01*
X60665017Y-84884983D01*
X60690654Y-84916223D01*
X60709704Y-84951862D01*
X60721435Y-84990532D01*
X60726000Y-85036888D01*
X60726000Y-86113112D01*
X60721435Y-86159468D01*
X60709704Y-86198138D01*
X60690654Y-86233777D01*
X60665017Y-86265017D01*
X60633777Y-86290654D01*
X60598138Y-86309704D01*
X60559468Y-86321435D01*
X60513112Y-86326000D01*
X59861888Y-86326000D01*
X59815532Y-86321435D01*
X59776862Y-86309704D01*
X59741223Y-86290654D01*
X59709983Y-86265017D01*
X59684346Y-86233777D01*
X59665296Y-86198138D01*
X59653565Y-86159468D01*
X59649000Y-86113112D01*
X59649000Y-85036888D01*
X59653565Y-84990532D01*
X59665296Y-84951862D01*
X59684346Y-84916223D01*
X59709983Y-84884983D01*
X59741223Y-84859346D01*
X59776862Y-84840296D01*
X59815532Y-84828565D01*
X59861888Y-84824000D01*
X60513112Y-84824000D01*
X60559468Y-84828565D01*
X60559468Y-84828565D01*
G37*
G36*
X62434468Y-84828565D02*
G01*
X62473138Y-84840296D01*
X62508777Y-84859346D01*
X62540017Y-84884983D01*
X62565654Y-84916223D01*
X62584704Y-84951862D01*
X62596435Y-84990532D01*
X62601000Y-85036888D01*
X62601000Y-86113112D01*
X62596435Y-86159468D01*
X62584704Y-86198138D01*
X62565654Y-86233777D01*
X62540017Y-86265017D01*
X62508777Y-86290654D01*
X62473138Y-86309704D01*
X62434468Y-86321435D01*
X62388112Y-86326000D01*
X61736888Y-86326000D01*
X61690532Y-86321435D01*
X61651862Y-86309704D01*
X61616223Y-86290654D01*
X61584983Y-86265017D01*
X61559346Y-86233777D01*
X61540296Y-86198138D01*
X61528565Y-86159468D01*
X61524000Y-86113112D01*
X61524000Y-85036888D01*
X61528565Y-84990532D01*
X61540296Y-84951862D01*
X61559346Y-84916223D01*
X61584983Y-84884983D01*
X61616223Y-84859346D01*
X61651862Y-84840296D01*
X61690532Y-84828565D01*
X61736888Y-84824000D01*
X62388112Y-84824000D01*
X62434468Y-84828565D01*
X62434468Y-84828565D01*
G37*
G36*
X118504591Y-85278085D02*
G01*
X118538569Y-85288393D01*
X118569890Y-85305134D01*
X118597339Y-85327661D01*
X118619866Y-85355110D01*
X118636607Y-85386431D01*
X118646915Y-85420409D01*
X118651000Y-85461890D01*
X118651000Y-86138110D01*
X118646915Y-86179591D01*
X118636607Y-86213569D01*
X118619866Y-86244890D01*
X118597339Y-86272339D01*
X118569890Y-86294866D01*
X118538569Y-86311607D01*
X118504591Y-86321915D01*
X118463110Y-86326000D01*
X117861890Y-86326000D01*
X117820409Y-86321915D01*
X117786431Y-86311607D01*
X117755110Y-86294866D01*
X117727661Y-86272339D01*
X117705134Y-86244890D01*
X117688393Y-86213569D01*
X117678085Y-86179591D01*
X117674000Y-86138110D01*
X117674000Y-85461890D01*
X117678085Y-85420409D01*
X117688393Y-85386431D01*
X117705134Y-85355110D01*
X117727661Y-85327661D01*
X117755110Y-85305134D01*
X117786431Y-85288393D01*
X117820409Y-85278085D01*
X117861890Y-85274000D01*
X118463110Y-85274000D01*
X118504591Y-85278085D01*
X118504591Y-85278085D01*
G37*
G36*
X120079591Y-85278085D02*
G01*
X120113569Y-85288393D01*
X120144890Y-85305134D01*
X120172339Y-85327661D01*
X120194866Y-85355110D01*
X120211607Y-85386431D01*
X120221915Y-85420409D01*
X120226000Y-85461890D01*
X120226000Y-86138110D01*
X120221915Y-86179591D01*
X120211607Y-86213569D01*
X120194866Y-86244890D01*
X120172339Y-86272339D01*
X120144890Y-86294866D01*
X120113569Y-86311607D01*
X120079591Y-86321915D01*
X120038110Y-86326000D01*
X119436890Y-86326000D01*
X119395409Y-86321915D01*
X119361431Y-86311607D01*
X119330110Y-86294866D01*
X119302661Y-86272339D01*
X119280134Y-86244890D01*
X119263393Y-86213569D01*
X119253085Y-86179591D01*
X119249000Y-86138110D01*
X119249000Y-85461890D01*
X119253085Y-85420409D01*
X119263393Y-85386431D01*
X119280134Y-85355110D01*
X119302661Y-85327661D01*
X119330110Y-85305134D01*
X119361431Y-85288393D01*
X119395409Y-85278085D01*
X119436890Y-85274000D01*
X120038110Y-85274000D01*
X120079591Y-85278085D01*
X120079591Y-85278085D01*
G37*
G36*
X67467091Y-83603085D02*
G01*
X67501069Y-83613393D01*
X67532390Y-83630134D01*
X67559839Y-83652661D01*
X67582366Y-83680110D01*
X67599107Y-83711431D01*
X67609415Y-83745409D01*
X67613500Y-83786890D01*
X67613500Y-84463110D01*
X67609415Y-84504591D01*
X67599107Y-84538569D01*
X67582366Y-84569890D01*
X67559839Y-84597339D01*
X67532390Y-84619866D01*
X67501069Y-84636607D01*
X67467091Y-84646915D01*
X67425610Y-84651000D01*
X66824390Y-84651000D01*
X66782909Y-84646915D01*
X66748931Y-84636607D01*
X66717610Y-84619866D01*
X66690161Y-84597339D01*
X66667634Y-84569890D01*
X66650893Y-84538569D01*
X66640585Y-84504591D01*
X66636500Y-84463110D01*
X66636500Y-83786890D01*
X66640585Y-83745409D01*
X66650893Y-83711431D01*
X66667634Y-83680110D01*
X66690161Y-83652661D01*
X66717610Y-83630134D01*
X66748931Y-83613393D01*
X66782909Y-83603085D01*
X66824390Y-83599000D01*
X67425610Y-83599000D01*
X67467091Y-83603085D01*
X67467091Y-83603085D01*
G37*
G36*
X65892091Y-83603085D02*
G01*
X65926069Y-83613393D01*
X65957390Y-83630134D01*
X65984839Y-83652661D01*
X66007366Y-83680110D01*
X66024107Y-83711431D01*
X66034415Y-83745409D01*
X66038500Y-83786890D01*
X66038500Y-84463110D01*
X66034415Y-84504591D01*
X66024107Y-84538569D01*
X66007366Y-84569890D01*
X65984839Y-84597339D01*
X65957390Y-84619866D01*
X65926069Y-84636607D01*
X65892091Y-84646915D01*
X65850610Y-84651000D01*
X65249390Y-84651000D01*
X65207909Y-84646915D01*
X65173931Y-84636607D01*
X65142610Y-84619866D01*
X65115161Y-84597339D01*
X65092634Y-84569890D01*
X65075893Y-84538569D01*
X65065585Y-84504591D01*
X65061500Y-84463110D01*
X65061500Y-83786890D01*
X65065585Y-83745409D01*
X65075893Y-83711431D01*
X65092634Y-83680110D01*
X65115161Y-83652661D01*
X65142610Y-83630134D01*
X65173931Y-83613393D01*
X65207909Y-83603085D01*
X65249390Y-83599000D01*
X65850610Y-83599000D01*
X65892091Y-83603085D01*
X65892091Y-83603085D01*
G37*
G36*
X222744098Y-75547033D02*
G01*
X223208350Y-75739332D01*
X223208352Y-75739333D01*
X223626168Y-76018509D01*
X223981491Y-76373832D01*
X224260667Y-76791648D01*
X224260668Y-76791650D01*
X224452967Y-77255902D01*
X224551000Y-77748747D01*
X224551000Y-78251253D01*
X224452967Y-78744098D01*
X224321407Y-79061713D01*
X224260667Y-79208352D01*
X223981491Y-79626168D01*
X223626168Y-79981491D01*
X223208352Y-80260667D01*
X223208351Y-80260668D01*
X223208350Y-80260668D01*
X222744098Y-80452967D01*
X222251253Y-80551000D01*
X221748747Y-80551000D01*
X221255902Y-80452967D01*
X220791650Y-80260668D01*
X220791649Y-80260668D01*
X220791648Y-80260667D01*
X220373832Y-79981491D01*
X220018509Y-79626168D01*
X219739333Y-79208352D01*
X219678593Y-79061713D01*
X219547033Y-78744098D01*
X219449000Y-78251253D01*
X219449000Y-77748747D01*
X219547033Y-77255902D01*
X219739332Y-76791650D01*
X219739333Y-76791648D01*
X220018509Y-76373832D01*
X220373832Y-76018509D01*
X220791648Y-75739333D01*
X220791650Y-75739332D01*
X221255902Y-75547033D01*
X221748747Y-75449000D01*
X222251253Y-75449000D01*
X222744098Y-75547033D01*
X222744098Y-75547033D01*
G37*
G36*
X53744098Y-75547033D02*
G01*
X54208350Y-75739332D01*
X54208352Y-75739333D01*
X54626168Y-76018509D01*
X54981491Y-76373832D01*
X55260667Y-76791648D01*
X55260668Y-76791650D01*
X55452967Y-77255902D01*
X55551000Y-77748747D01*
X55551000Y-78251253D01*
X55452967Y-78744098D01*
X55321407Y-79061713D01*
X55260667Y-79208352D01*
X54981491Y-79626168D01*
X54626168Y-79981491D01*
X54208352Y-80260667D01*
X54208351Y-80260668D01*
X54208350Y-80260668D01*
X53744098Y-80452967D01*
X53251253Y-80551000D01*
X52748747Y-80551000D01*
X52255902Y-80452967D01*
X51791650Y-80260668D01*
X51791649Y-80260668D01*
X51791648Y-80260667D01*
X51373832Y-79981491D01*
X51018509Y-79626168D01*
X50739333Y-79208352D01*
X50678593Y-79061713D01*
X50547033Y-78744098D01*
X50449000Y-78251253D01*
X50449000Y-77748747D01*
X50547033Y-77255902D01*
X50739332Y-76791650D01*
X50739333Y-76791648D01*
X51018509Y-76373832D01*
X51373832Y-76018509D01*
X51791648Y-75739333D01*
X51791650Y-75739332D01*
X52255902Y-75547033D01*
X52748747Y-75449000D01*
X53251253Y-75449000D01*
X53744098Y-75547033D01*
X53744098Y-75547033D01*
G37*
G36*
X201936425Y-76277760D02*
G01*
X201936428Y-76277761D01*
X201936429Y-76277761D01*
X202115693Y-76332140D01*
X202115696Y-76332142D01*
X202115697Y-76332142D01*
X202280903Y-76420446D01*
X202425712Y-76539288D01*
X202544554Y-76684097D01*
X202602042Y-76791650D01*
X202632860Y-76849307D01*
X202687239Y-77028571D01*
X202687240Y-77028575D01*
X202701000Y-77168282D01*
X202701000Y-79061718D01*
X202687240Y-79201425D01*
X202687239Y-79201428D01*
X202687239Y-79201429D01*
X202632860Y-79380693D01*
X202632858Y-79380696D01*
X202632858Y-79380697D01*
X202544554Y-79545903D01*
X202425712Y-79690712D01*
X202280903Y-79809554D01*
X202132964Y-79888628D01*
X202115692Y-79897860D01*
X201936428Y-79952239D01*
X201936427Y-79952239D01*
X201936424Y-79952240D01*
X201750000Y-79970601D01*
X201563575Y-79952240D01*
X201563572Y-79952239D01*
X201563571Y-79952239D01*
X201384307Y-79897860D01*
X201366575Y-79888382D01*
X201219097Y-79809554D01*
X201074288Y-79690712D01*
X200955446Y-79545903D01*
X200867142Y-79380696D01*
X200867141Y-79380693D01*
X200867140Y-79380692D01*
X200812761Y-79201428D01*
X200812761Y-79201427D01*
X200812760Y-79201424D01*
X200799000Y-79061717D01*
X200799000Y-77168283D01*
X200812761Y-77028575D01*
X200812762Y-77028571D01*
X200867141Y-76849307D01*
X200897959Y-76791650D01*
X200955447Y-76684097D01*
X201074289Y-76539288D01*
X201219098Y-76420446D01*
X201384304Y-76332142D01*
X201384305Y-76332142D01*
X201384308Y-76332140D01*
X201563572Y-76277761D01*
X201563573Y-76277761D01*
X201563576Y-76277760D01*
X201750000Y-76259399D01*
X201936425Y-76277760D01*
X201936425Y-76277760D01*
G37*
G36*
X192079277Y-76277760D02*
G01*
X192079280Y-76277761D01*
X192079281Y-76277761D01*
X192258545Y-76332140D01*
X192258548Y-76332142D01*
X192258549Y-76332142D01*
X192423755Y-76420446D01*
X192568564Y-76539288D01*
X192687406Y-76684097D01*
X192744894Y-76791650D01*
X192775712Y-76849307D01*
X192830091Y-77028571D01*
X192830092Y-77028575D01*
X192843852Y-77168282D01*
X192843852Y-79061718D01*
X192830092Y-79201425D01*
X192830091Y-79201428D01*
X192830091Y-79201429D01*
X192775712Y-79380693D01*
X192775710Y-79380696D01*
X192775710Y-79380697D01*
X192687406Y-79545903D01*
X192568564Y-79690712D01*
X192423755Y-79809554D01*
X192275816Y-79888628D01*
X192258544Y-79897860D01*
X192079280Y-79952239D01*
X192079279Y-79952239D01*
X192079276Y-79952240D01*
X191892852Y-79970601D01*
X191706427Y-79952240D01*
X191706424Y-79952239D01*
X191706423Y-79952239D01*
X191527159Y-79897860D01*
X191509427Y-79888382D01*
X191361949Y-79809554D01*
X191217140Y-79690712D01*
X191098298Y-79545903D01*
X191009994Y-79380696D01*
X191009993Y-79380693D01*
X191009992Y-79380692D01*
X190955613Y-79201428D01*
X190955613Y-79201427D01*
X190955612Y-79201424D01*
X190941852Y-79061717D01*
X190941852Y-77168283D01*
X190955613Y-77028575D01*
X190955614Y-77028571D01*
X191009993Y-76849307D01*
X191040811Y-76791650D01*
X191098299Y-76684097D01*
X191217141Y-76539288D01*
X191361950Y-76420446D01*
X191527156Y-76332142D01*
X191527157Y-76332142D01*
X191527160Y-76332140D01*
X191706424Y-76277761D01*
X191706425Y-76277761D01*
X191706428Y-76277760D01*
X191892852Y-76259399D01*
X192079277Y-76277760D01*
X192079277Y-76277760D01*
G37*
G36*
X188579277Y-76277760D02*
G01*
X188579280Y-76277761D01*
X188579281Y-76277761D01*
X188758545Y-76332140D01*
X188758548Y-76332142D01*
X188758549Y-76332142D01*
X188923755Y-76420446D01*
X189068564Y-76539288D01*
X189187406Y-76684097D01*
X189244894Y-76791650D01*
X189275712Y-76849307D01*
X189330091Y-77028571D01*
X189330092Y-77028575D01*
X189343852Y-77168282D01*
X189343852Y-79061718D01*
X189330092Y-79201425D01*
X189330091Y-79201428D01*
X189330091Y-79201429D01*
X189275712Y-79380693D01*
X189275710Y-79380696D01*
X189275710Y-79380697D01*
X189187406Y-79545903D01*
X189068564Y-79690712D01*
X188923755Y-79809554D01*
X188775816Y-79888628D01*
X188758544Y-79897860D01*
X188579280Y-79952239D01*
X188579279Y-79952239D01*
X188579276Y-79952240D01*
X188392852Y-79970601D01*
X188206427Y-79952240D01*
X188206424Y-79952239D01*
X188206423Y-79952239D01*
X188027159Y-79897860D01*
X188009427Y-79888382D01*
X187861949Y-79809554D01*
X187717140Y-79690712D01*
X187598298Y-79545903D01*
X187509994Y-79380696D01*
X187509993Y-79380693D01*
X187509992Y-79380692D01*
X187455613Y-79201428D01*
X187455613Y-79201427D01*
X187455612Y-79201424D01*
X187441852Y-79061717D01*
X187441852Y-77168283D01*
X187455613Y-77028575D01*
X187455614Y-77028571D01*
X187509993Y-76849307D01*
X187540811Y-76791650D01*
X187598299Y-76684097D01*
X187717141Y-76539288D01*
X187861950Y-76420446D01*
X188027156Y-76332142D01*
X188027157Y-76332142D01*
X188027160Y-76332140D01*
X188206424Y-76277761D01*
X188206425Y-76277761D01*
X188206428Y-76277760D01*
X188392852Y-76259399D01*
X188579277Y-76277760D01*
X188579277Y-76277760D01*
G37*
G36*
X185079277Y-76277760D02*
G01*
X185079280Y-76277761D01*
X185079281Y-76277761D01*
X185258545Y-76332140D01*
X185258548Y-76332142D01*
X185258549Y-76332142D01*
X185423755Y-76420446D01*
X185568564Y-76539288D01*
X185687406Y-76684097D01*
X185744894Y-76791650D01*
X185775712Y-76849307D01*
X185830091Y-77028571D01*
X185830092Y-77028575D01*
X185843852Y-77168282D01*
X185843852Y-79061718D01*
X185830092Y-79201425D01*
X185830091Y-79201428D01*
X185830091Y-79201429D01*
X185775712Y-79380693D01*
X185775710Y-79380696D01*
X185775710Y-79380697D01*
X185687406Y-79545903D01*
X185568564Y-79690712D01*
X185423755Y-79809554D01*
X185275816Y-79888628D01*
X185258544Y-79897860D01*
X185079280Y-79952239D01*
X185079279Y-79952239D01*
X185079276Y-79952240D01*
X184892852Y-79970601D01*
X184706427Y-79952240D01*
X184706424Y-79952239D01*
X184706423Y-79952239D01*
X184527159Y-79897860D01*
X184509427Y-79888382D01*
X184361949Y-79809554D01*
X184217140Y-79690712D01*
X184098298Y-79545903D01*
X184009994Y-79380696D01*
X184009993Y-79380693D01*
X184009992Y-79380692D01*
X183955613Y-79201428D01*
X183955613Y-79201427D01*
X183955612Y-79201424D01*
X183941852Y-79061717D01*
X183941852Y-77168283D01*
X183955613Y-77028575D01*
X183955614Y-77028571D01*
X184009993Y-76849307D01*
X184040811Y-76791650D01*
X184098299Y-76684097D01*
X184217141Y-76539288D01*
X184361950Y-76420446D01*
X184527156Y-76332142D01*
X184527157Y-76332142D01*
X184527160Y-76332140D01*
X184706424Y-76277761D01*
X184706425Y-76277761D01*
X184706428Y-76277760D01*
X184892852Y-76259399D01*
X185079277Y-76277760D01*
X185079277Y-76277760D01*
G37*
G36*
X181579277Y-76277760D02*
G01*
X181579280Y-76277761D01*
X181579281Y-76277761D01*
X181758545Y-76332140D01*
X181758548Y-76332142D01*
X181758549Y-76332142D01*
X181923755Y-76420446D01*
X182068564Y-76539288D01*
X182187406Y-76684097D01*
X182244894Y-76791650D01*
X182275712Y-76849307D01*
X182330091Y-77028571D01*
X182330092Y-77028575D01*
X182343852Y-77168282D01*
X182343852Y-79061718D01*
X182330092Y-79201425D01*
X182330091Y-79201428D01*
X182330091Y-79201429D01*
X182275712Y-79380693D01*
X182275710Y-79380696D01*
X182275710Y-79380697D01*
X182187406Y-79545903D01*
X182068564Y-79690712D01*
X181923755Y-79809554D01*
X181775816Y-79888628D01*
X181758544Y-79897860D01*
X181579280Y-79952239D01*
X181579279Y-79952239D01*
X181579276Y-79952240D01*
X181392852Y-79970601D01*
X181206427Y-79952240D01*
X181206424Y-79952239D01*
X181206423Y-79952239D01*
X181027159Y-79897860D01*
X181009427Y-79888382D01*
X180861949Y-79809554D01*
X180717140Y-79690712D01*
X180598298Y-79545903D01*
X180509994Y-79380696D01*
X180509993Y-79380693D01*
X180509992Y-79380692D01*
X180455613Y-79201428D01*
X180455613Y-79201427D01*
X180455612Y-79201424D01*
X180441852Y-79061717D01*
X180441852Y-77168283D01*
X180455613Y-77028575D01*
X180455614Y-77028571D01*
X180509993Y-76849307D01*
X180540811Y-76791650D01*
X180598299Y-76684097D01*
X180717141Y-76539288D01*
X180861950Y-76420446D01*
X181027156Y-76332142D01*
X181027157Y-76332142D01*
X181027160Y-76332140D01*
X181206424Y-76277761D01*
X181206425Y-76277761D01*
X181206428Y-76277760D01*
X181392852Y-76259399D01*
X181579277Y-76277760D01*
X181579277Y-76277760D01*
G37*
G36*
X171722135Y-76277760D02*
G01*
X171722138Y-76277761D01*
X171722139Y-76277761D01*
X171901403Y-76332140D01*
X171901406Y-76332142D01*
X171901407Y-76332142D01*
X172066613Y-76420446D01*
X172211422Y-76539288D01*
X172330264Y-76684097D01*
X172387752Y-76791650D01*
X172418570Y-76849307D01*
X172472949Y-77028571D01*
X172472950Y-77028575D01*
X172486710Y-77168282D01*
X172486710Y-79061718D01*
X172472950Y-79201425D01*
X172472949Y-79201428D01*
X172472949Y-79201429D01*
X172418570Y-79380693D01*
X172418568Y-79380696D01*
X172418568Y-79380697D01*
X172330264Y-79545903D01*
X172211422Y-79690712D01*
X172066613Y-79809554D01*
X171918674Y-79888628D01*
X171901402Y-79897860D01*
X171722138Y-79952239D01*
X171722137Y-79952239D01*
X171722134Y-79952240D01*
X171535710Y-79970601D01*
X171349285Y-79952240D01*
X171349282Y-79952239D01*
X171349281Y-79952239D01*
X171170017Y-79897860D01*
X171152285Y-79888382D01*
X171004807Y-79809554D01*
X170859998Y-79690712D01*
X170741156Y-79545903D01*
X170652852Y-79380696D01*
X170652851Y-79380693D01*
X170652850Y-79380692D01*
X170598471Y-79201428D01*
X170598471Y-79201427D01*
X170598470Y-79201424D01*
X170584710Y-79061717D01*
X170584710Y-77168283D01*
X170598471Y-77028575D01*
X170598472Y-77028571D01*
X170652851Y-76849307D01*
X170683669Y-76791650D01*
X170741157Y-76684097D01*
X170859999Y-76539288D01*
X171004808Y-76420446D01*
X171170014Y-76332142D01*
X171170015Y-76332142D01*
X171170018Y-76332140D01*
X171349282Y-76277761D01*
X171349283Y-76277761D01*
X171349286Y-76277760D01*
X171535710Y-76259399D01*
X171722135Y-76277760D01*
X171722135Y-76277760D01*
G37*
G36*
X120507851Y-76277760D02*
G01*
X120507854Y-76277761D01*
X120507855Y-76277761D01*
X120687119Y-76332140D01*
X120687122Y-76332142D01*
X120687123Y-76332142D01*
X120852329Y-76420446D01*
X120997138Y-76539288D01*
X121115980Y-76684097D01*
X121173468Y-76791650D01*
X121204286Y-76849307D01*
X121258665Y-77028571D01*
X121258666Y-77028575D01*
X121272426Y-77168282D01*
X121272426Y-79061718D01*
X121258666Y-79201425D01*
X121258665Y-79201428D01*
X121258665Y-79201429D01*
X121204286Y-79380693D01*
X121204284Y-79380696D01*
X121204284Y-79380697D01*
X121115980Y-79545903D01*
X120997138Y-79690712D01*
X120852329Y-79809554D01*
X120704390Y-79888628D01*
X120687118Y-79897860D01*
X120507854Y-79952239D01*
X120507853Y-79952239D01*
X120507850Y-79952240D01*
X120321426Y-79970601D01*
X120135001Y-79952240D01*
X120134998Y-79952239D01*
X120134997Y-79952239D01*
X119955733Y-79897860D01*
X119938001Y-79888382D01*
X119790523Y-79809554D01*
X119645714Y-79690712D01*
X119526872Y-79545903D01*
X119438568Y-79380696D01*
X119438567Y-79380693D01*
X119438566Y-79380692D01*
X119384187Y-79201428D01*
X119384187Y-79201427D01*
X119384186Y-79201424D01*
X119370426Y-79061717D01*
X119370426Y-77168283D01*
X119384187Y-77028575D01*
X119384188Y-77028571D01*
X119438567Y-76849307D01*
X119469385Y-76791650D01*
X119526873Y-76684097D01*
X119645715Y-76539288D01*
X119790524Y-76420446D01*
X119955730Y-76332142D01*
X119955731Y-76332142D01*
X119955734Y-76332140D01*
X120134998Y-76277761D01*
X120134999Y-76277761D01*
X120135002Y-76277760D01*
X120321426Y-76259399D01*
X120507851Y-76277760D01*
X120507851Y-76277760D01*
G37*
G36*
X164722135Y-76277760D02*
G01*
X164722138Y-76277761D01*
X164722139Y-76277761D01*
X164901403Y-76332140D01*
X164901406Y-76332142D01*
X164901407Y-76332142D01*
X165066613Y-76420446D01*
X165211422Y-76539288D01*
X165330264Y-76684097D01*
X165387752Y-76791650D01*
X165418570Y-76849307D01*
X165472949Y-77028571D01*
X165472950Y-77028575D01*
X165486710Y-77168282D01*
X165486710Y-79061718D01*
X165472950Y-79201425D01*
X165472949Y-79201428D01*
X165472949Y-79201429D01*
X165418570Y-79380693D01*
X165418568Y-79380696D01*
X165418568Y-79380697D01*
X165330264Y-79545903D01*
X165211422Y-79690712D01*
X165066613Y-79809554D01*
X164918674Y-79888628D01*
X164901402Y-79897860D01*
X164722138Y-79952239D01*
X164722137Y-79952239D01*
X164722134Y-79952240D01*
X164535710Y-79970601D01*
X164349285Y-79952240D01*
X164349282Y-79952239D01*
X164349281Y-79952239D01*
X164170017Y-79897860D01*
X164152285Y-79888382D01*
X164004807Y-79809554D01*
X163859998Y-79690712D01*
X163741156Y-79545903D01*
X163652852Y-79380696D01*
X163652851Y-79380693D01*
X163652850Y-79380692D01*
X163598471Y-79201428D01*
X163598471Y-79201427D01*
X163598470Y-79201424D01*
X163584710Y-79061717D01*
X163584710Y-77168283D01*
X163598471Y-77028575D01*
X163598472Y-77028571D01*
X163652851Y-76849307D01*
X163683669Y-76791650D01*
X163741157Y-76684097D01*
X163859999Y-76539288D01*
X164004808Y-76420446D01*
X164170014Y-76332142D01*
X164170015Y-76332142D01*
X164170018Y-76332140D01*
X164349282Y-76277761D01*
X164349283Y-76277761D01*
X164349286Y-76277760D01*
X164535710Y-76259399D01*
X164722135Y-76277760D01*
X164722135Y-76277760D01*
G37*
G36*
X161222135Y-76277760D02*
G01*
X161222138Y-76277761D01*
X161222139Y-76277761D01*
X161401403Y-76332140D01*
X161401406Y-76332142D01*
X161401407Y-76332142D01*
X161566613Y-76420446D01*
X161711422Y-76539288D01*
X161830264Y-76684097D01*
X161887752Y-76791650D01*
X161918570Y-76849307D01*
X161972949Y-77028571D01*
X161972950Y-77028575D01*
X161986710Y-77168282D01*
X161986710Y-79061718D01*
X161972950Y-79201425D01*
X161972949Y-79201428D01*
X161972949Y-79201429D01*
X161918570Y-79380693D01*
X161918568Y-79380696D01*
X161918568Y-79380697D01*
X161830264Y-79545903D01*
X161711422Y-79690712D01*
X161566613Y-79809554D01*
X161418674Y-79888628D01*
X161401402Y-79897860D01*
X161222138Y-79952239D01*
X161222137Y-79952239D01*
X161222134Y-79952240D01*
X161035710Y-79970601D01*
X160849285Y-79952240D01*
X160849282Y-79952239D01*
X160849281Y-79952239D01*
X160670017Y-79897860D01*
X160652285Y-79888382D01*
X160504807Y-79809554D01*
X160359998Y-79690712D01*
X160241156Y-79545903D01*
X160152852Y-79380696D01*
X160152851Y-79380693D01*
X160152850Y-79380692D01*
X160098471Y-79201428D01*
X160098471Y-79201427D01*
X160098470Y-79201424D01*
X160084710Y-79061717D01*
X160084710Y-77168283D01*
X160098471Y-77028575D01*
X160098472Y-77028571D01*
X160152851Y-76849307D01*
X160183669Y-76791650D01*
X160241157Y-76684097D01*
X160359999Y-76539288D01*
X160504808Y-76420446D01*
X160670014Y-76332142D01*
X160670015Y-76332142D01*
X160670018Y-76332140D01*
X160849282Y-76277761D01*
X160849283Y-76277761D01*
X160849286Y-76277760D01*
X161035710Y-76259399D01*
X161222135Y-76277760D01*
X161222135Y-76277760D01*
G37*
G36*
X151364993Y-76277760D02*
G01*
X151364996Y-76277761D01*
X151364997Y-76277761D01*
X151544261Y-76332140D01*
X151544264Y-76332142D01*
X151544265Y-76332142D01*
X151709471Y-76420446D01*
X151854280Y-76539288D01*
X151973122Y-76684097D01*
X152030610Y-76791650D01*
X152061428Y-76849307D01*
X152115807Y-77028571D01*
X152115808Y-77028575D01*
X152129568Y-77168282D01*
X152129568Y-79061718D01*
X152115808Y-79201425D01*
X152115807Y-79201428D01*
X152115807Y-79201429D01*
X152061428Y-79380693D01*
X152061426Y-79380696D01*
X152061426Y-79380697D01*
X151973122Y-79545903D01*
X151854280Y-79690712D01*
X151709471Y-79809554D01*
X151561532Y-79888628D01*
X151544260Y-79897860D01*
X151364996Y-79952239D01*
X151364995Y-79952239D01*
X151364992Y-79952240D01*
X151178568Y-79970601D01*
X150992143Y-79952240D01*
X150992140Y-79952239D01*
X150992139Y-79952239D01*
X150812875Y-79897860D01*
X150795143Y-79888382D01*
X150647665Y-79809554D01*
X150502856Y-79690712D01*
X150384014Y-79545903D01*
X150295710Y-79380696D01*
X150295709Y-79380693D01*
X150295708Y-79380692D01*
X150241329Y-79201428D01*
X150241329Y-79201427D01*
X150241328Y-79201424D01*
X150227568Y-79061717D01*
X150227568Y-77168283D01*
X150241329Y-77028575D01*
X150241330Y-77028571D01*
X150295709Y-76849307D01*
X150326527Y-76791650D01*
X150384015Y-76684097D01*
X150502857Y-76539288D01*
X150647666Y-76420446D01*
X150812872Y-76332142D01*
X150812873Y-76332142D01*
X150812876Y-76332140D01*
X150992140Y-76277761D01*
X150992141Y-76277761D01*
X150992144Y-76277760D01*
X151178568Y-76259399D01*
X151364993Y-76277760D01*
X151364993Y-76277760D01*
G37*
G36*
X147864993Y-76277760D02*
G01*
X147864996Y-76277761D01*
X147864997Y-76277761D01*
X148044261Y-76332140D01*
X148044264Y-76332142D01*
X148044265Y-76332142D01*
X148209471Y-76420446D01*
X148354280Y-76539288D01*
X148473122Y-76684097D01*
X148530610Y-76791650D01*
X148561428Y-76849307D01*
X148615807Y-77028571D01*
X148615808Y-77028575D01*
X148629568Y-77168282D01*
X148629568Y-79061718D01*
X148615808Y-79201425D01*
X148615807Y-79201428D01*
X148615807Y-79201429D01*
X148561428Y-79380693D01*
X148561426Y-79380696D01*
X148561426Y-79380697D01*
X148473122Y-79545903D01*
X148354280Y-79690712D01*
X148209471Y-79809554D01*
X148061532Y-79888628D01*
X148044260Y-79897860D01*
X147864996Y-79952239D01*
X147864995Y-79952239D01*
X147864992Y-79952240D01*
X147678568Y-79970601D01*
X147492143Y-79952240D01*
X147492140Y-79952239D01*
X147492139Y-79952239D01*
X147312875Y-79897860D01*
X147295143Y-79888382D01*
X147147665Y-79809554D01*
X147002856Y-79690712D01*
X146884014Y-79545903D01*
X146795710Y-79380696D01*
X146795709Y-79380693D01*
X146795708Y-79380692D01*
X146741329Y-79201428D01*
X146741329Y-79201427D01*
X146741328Y-79201424D01*
X146727568Y-79061717D01*
X146727568Y-77168283D01*
X146741329Y-77028575D01*
X146741330Y-77028571D01*
X146795709Y-76849307D01*
X146826527Y-76791650D01*
X146884015Y-76684097D01*
X147002857Y-76539288D01*
X147147666Y-76420446D01*
X147312872Y-76332142D01*
X147312873Y-76332142D01*
X147312876Y-76332140D01*
X147492140Y-76277761D01*
X147492141Y-76277761D01*
X147492144Y-76277760D01*
X147678568Y-76259399D01*
X147864993Y-76277760D01*
X147864993Y-76277760D01*
G37*
G36*
X144364993Y-76277760D02*
G01*
X144364996Y-76277761D01*
X144364997Y-76277761D01*
X144544261Y-76332140D01*
X144544264Y-76332142D01*
X144544265Y-76332142D01*
X144709471Y-76420446D01*
X144854280Y-76539288D01*
X144973122Y-76684097D01*
X145030610Y-76791650D01*
X145061428Y-76849307D01*
X145115807Y-77028571D01*
X145115808Y-77028575D01*
X145129568Y-77168282D01*
X145129568Y-79061718D01*
X145115808Y-79201425D01*
X145115807Y-79201428D01*
X145115807Y-79201429D01*
X145061428Y-79380693D01*
X145061426Y-79380696D01*
X145061426Y-79380697D01*
X144973122Y-79545903D01*
X144854280Y-79690712D01*
X144709471Y-79809554D01*
X144561532Y-79888628D01*
X144544260Y-79897860D01*
X144364996Y-79952239D01*
X144364995Y-79952239D01*
X144364992Y-79952240D01*
X144178568Y-79970601D01*
X143992143Y-79952240D01*
X143992140Y-79952239D01*
X143992139Y-79952239D01*
X143812875Y-79897860D01*
X143795143Y-79888382D01*
X143647665Y-79809554D01*
X143502856Y-79690712D01*
X143384014Y-79545903D01*
X143295710Y-79380696D01*
X143295709Y-79380693D01*
X143295708Y-79380692D01*
X143241329Y-79201428D01*
X143241329Y-79201427D01*
X143241328Y-79201424D01*
X143227568Y-79061717D01*
X143227568Y-77168283D01*
X143241329Y-77028575D01*
X143241330Y-77028571D01*
X143295709Y-76849307D01*
X143326527Y-76791650D01*
X143384015Y-76684097D01*
X143502857Y-76539288D01*
X143647666Y-76420446D01*
X143812872Y-76332142D01*
X143812873Y-76332142D01*
X143812876Y-76332140D01*
X143992140Y-76277761D01*
X143992141Y-76277761D01*
X143992144Y-76277760D01*
X144178568Y-76259399D01*
X144364993Y-76277760D01*
X144364993Y-76277760D01*
G37*
G36*
X59436425Y-76277760D02*
G01*
X59436428Y-76277761D01*
X59436429Y-76277761D01*
X59615693Y-76332140D01*
X59615696Y-76332142D01*
X59615697Y-76332142D01*
X59780903Y-76420446D01*
X59925712Y-76539288D01*
X60044554Y-76684097D01*
X60102042Y-76791650D01*
X60132860Y-76849307D01*
X60187239Y-77028571D01*
X60187240Y-77028575D01*
X60201000Y-77168282D01*
X60201000Y-79061718D01*
X60187240Y-79201425D01*
X60187239Y-79201428D01*
X60187239Y-79201429D01*
X60132860Y-79380693D01*
X60132858Y-79380696D01*
X60132858Y-79380697D01*
X60044554Y-79545903D01*
X59925712Y-79690712D01*
X59780903Y-79809554D01*
X59632964Y-79888628D01*
X59615692Y-79897860D01*
X59436428Y-79952239D01*
X59436427Y-79952239D01*
X59436424Y-79952240D01*
X59250000Y-79970601D01*
X59063575Y-79952240D01*
X59063572Y-79952239D01*
X59063571Y-79952239D01*
X58884307Y-79897860D01*
X58866575Y-79888382D01*
X58719097Y-79809554D01*
X58574288Y-79690712D01*
X58455446Y-79545903D01*
X58367142Y-79380696D01*
X58367141Y-79380693D01*
X58367140Y-79380692D01*
X58312761Y-79201428D01*
X58312761Y-79201427D01*
X58312760Y-79201424D01*
X58299000Y-79061717D01*
X58299000Y-77168283D01*
X58312761Y-77028575D01*
X58312762Y-77028571D01*
X58367141Y-76849307D01*
X58397959Y-76791650D01*
X58455447Y-76684097D01*
X58574289Y-76539288D01*
X58719098Y-76420446D01*
X58884304Y-76332142D01*
X58884305Y-76332142D01*
X58884308Y-76332140D01*
X59063572Y-76277761D01*
X59063573Y-76277761D01*
X59063576Y-76277760D01*
X59250000Y-76259399D01*
X59436425Y-76277760D01*
X59436425Y-76277760D01*
G37*
G36*
X131007851Y-76277760D02*
G01*
X131007854Y-76277761D01*
X131007855Y-76277761D01*
X131187119Y-76332140D01*
X131187122Y-76332142D01*
X131187123Y-76332142D01*
X131352329Y-76420446D01*
X131497138Y-76539288D01*
X131615980Y-76684097D01*
X131673468Y-76791650D01*
X131704286Y-76849307D01*
X131758665Y-77028571D01*
X131758666Y-77028575D01*
X131772426Y-77168282D01*
X131772426Y-79061718D01*
X131758666Y-79201425D01*
X131758665Y-79201428D01*
X131758665Y-79201429D01*
X131704286Y-79380693D01*
X131704284Y-79380696D01*
X131704284Y-79380697D01*
X131615980Y-79545903D01*
X131497138Y-79690712D01*
X131352329Y-79809554D01*
X131204390Y-79888628D01*
X131187118Y-79897860D01*
X131007854Y-79952239D01*
X131007853Y-79952239D01*
X131007850Y-79952240D01*
X130821426Y-79970601D01*
X130635001Y-79952240D01*
X130634998Y-79952239D01*
X130634997Y-79952239D01*
X130455733Y-79897860D01*
X130438001Y-79888382D01*
X130290523Y-79809554D01*
X130145714Y-79690712D01*
X130026872Y-79545903D01*
X129938568Y-79380696D01*
X129938567Y-79380693D01*
X129938566Y-79380692D01*
X129884187Y-79201428D01*
X129884187Y-79201427D01*
X129884186Y-79201424D01*
X129870426Y-79061717D01*
X129870426Y-77168283D01*
X129884187Y-77028575D01*
X129884188Y-77028571D01*
X129938567Y-76849307D01*
X129969385Y-76791650D01*
X130026873Y-76684097D01*
X130145715Y-76539288D01*
X130290524Y-76420446D01*
X130455730Y-76332142D01*
X130455731Y-76332142D01*
X130455734Y-76332140D01*
X130634998Y-76277761D01*
X130634999Y-76277761D01*
X130635002Y-76277760D01*
X130821426Y-76259399D01*
X131007851Y-76277760D01*
X131007851Y-76277760D01*
G37*
G36*
X127507851Y-76277760D02*
G01*
X127507854Y-76277761D01*
X127507855Y-76277761D01*
X127687119Y-76332140D01*
X127687122Y-76332142D01*
X127687123Y-76332142D01*
X127852329Y-76420446D01*
X127997138Y-76539288D01*
X128115980Y-76684097D01*
X128173468Y-76791650D01*
X128204286Y-76849307D01*
X128258665Y-77028571D01*
X128258666Y-77028575D01*
X128272426Y-77168282D01*
X128272426Y-79061718D01*
X128258666Y-79201425D01*
X128258665Y-79201428D01*
X128258665Y-79201429D01*
X128204286Y-79380693D01*
X128204284Y-79380696D01*
X128204284Y-79380697D01*
X128115980Y-79545903D01*
X127997138Y-79690712D01*
X127852329Y-79809554D01*
X127704390Y-79888628D01*
X127687118Y-79897860D01*
X127507854Y-79952239D01*
X127507853Y-79952239D01*
X127507850Y-79952240D01*
X127321426Y-79970601D01*
X127135001Y-79952240D01*
X127134998Y-79952239D01*
X127134997Y-79952239D01*
X126955733Y-79897860D01*
X126938001Y-79888382D01*
X126790523Y-79809554D01*
X126645714Y-79690712D01*
X126526872Y-79545903D01*
X126438568Y-79380696D01*
X126438567Y-79380693D01*
X126438566Y-79380692D01*
X126384187Y-79201428D01*
X126384187Y-79201427D01*
X126384186Y-79201424D01*
X126370426Y-79061717D01*
X126370426Y-77168283D01*
X126384187Y-77028575D01*
X126384188Y-77028571D01*
X126438567Y-76849307D01*
X126469385Y-76791650D01*
X126526873Y-76684097D01*
X126645715Y-76539288D01*
X126790524Y-76420446D01*
X126955730Y-76332142D01*
X126955731Y-76332142D01*
X126955734Y-76332140D01*
X127134998Y-76277761D01*
X127134999Y-76277761D01*
X127135002Y-76277760D01*
X127321426Y-76259399D01*
X127507851Y-76277760D01*
X127507851Y-76277760D01*
G37*
G36*
X124007851Y-76277760D02*
G01*
X124007854Y-76277761D01*
X124007855Y-76277761D01*
X124187119Y-76332140D01*
X124187122Y-76332142D01*
X124187123Y-76332142D01*
X124352329Y-76420446D01*
X124497138Y-76539288D01*
X124615980Y-76684097D01*
X124673468Y-76791650D01*
X124704286Y-76849307D01*
X124758665Y-77028571D01*
X124758666Y-77028575D01*
X124772426Y-77168282D01*
X124772426Y-79061718D01*
X124758666Y-79201425D01*
X124758665Y-79201428D01*
X124758665Y-79201429D01*
X124704286Y-79380693D01*
X124704284Y-79380696D01*
X124704284Y-79380697D01*
X124615980Y-79545903D01*
X124497138Y-79690712D01*
X124352329Y-79809554D01*
X124204390Y-79888628D01*
X124187118Y-79897860D01*
X124007854Y-79952239D01*
X124007853Y-79952239D01*
X124007850Y-79952240D01*
X123821426Y-79970601D01*
X123635001Y-79952240D01*
X123634998Y-79952239D01*
X123634997Y-79952239D01*
X123455733Y-79897860D01*
X123438001Y-79888382D01*
X123290523Y-79809554D01*
X123145714Y-79690712D01*
X123026872Y-79545903D01*
X122938568Y-79380696D01*
X122938567Y-79380693D01*
X122938566Y-79380692D01*
X122884187Y-79201428D01*
X122884187Y-79201427D01*
X122884186Y-79201424D01*
X122870426Y-79061717D01*
X122870426Y-77168283D01*
X122884187Y-77028575D01*
X122884188Y-77028571D01*
X122938567Y-76849307D01*
X122969385Y-76791650D01*
X123026873Y-76684097D01*
X123145715Y-76539288D01*
X123290524Y-76420446D01*
X123455730Y-76332142D01*
X123455731Y-76332142D01*
X123455734Y-76332140D01*
X123634998Y-76277761D01*
X123634999Y-76277761D01*
X123635002Y-76277760D01*
X123821426Y-76259399D01*
X124007851Y-76277760D01*
X124007851Y-76277760D01*
G37*
G36*
X208936425Y-76277760D02*
G01*
X208936428Y-76277761D01*
X208936429Y-76277761D01*
X209115693Y-76332140D01*
X209115696Y-76332142D01*
X209115697Y-76332142D01*
X209280903Y-76420446D01*
X209425712Y-76539288D01*
X209544554Y-76684097D01*
X209602042Y-76791650D01*
X209632860Y-76849307D01*
X209687239Y-77028571D01*
X209687240Y-77028575D01*
X209701000Y-77168282D01*
X209701000Y-79061718D01*
X209687240Y-79201425D01*
X209687239Y-79201428D01*
X209687239Y-79201429D01*
X209632860Y-79380693D01*
X209632858Y-79380696D01*
X209632858Y-79380697D01*
X209544554Y-79545903D01*
X209425712Y-79690712D01*
X209280903Y-79809554D01*
X209132964Y-79888628D01*
X209115692Y-79897860D01*
X208936428Y-79952239D01*
X208936427Y-79952239D01*
X208936424Y-79952240D01*
X208750000Y-79970601D01*
X208563575Y-79952240D01*
X208563572Y-79952239D01*
X208563571Y-79952239D01*
X208384307Y-79897860D01*
X208366575Y-79888382D01*
X208219097Y-79809554D01*
X208074288Y-79690712D01*
X207955446Y-79545903D01*
X207867142Y-79380696D01*
X207867141Y-79380693D01*
X207867140Y-79380692D01*
X207812761Y-79201428D01*
X207812761Y-79201427D01*
X207812760Y-79201424D01*
X207799000Y-79061717D01*
X207799000Y-77168283D01*
X207812761Y-77028575D01*
X207812762Y-77028571D01*
X207867141Y-76849307D01*
X207897959Y-76791650D01*
X207955447Y-76684097D01*
X208074289Y-76539288D01*
X208219098Y-76420446D01*
X208384304Y-76332142D01*
X208384305Y-76332142D01*
X208384308Y-76332140D01*
X208563572Y-76277761D01*
X208563573Y-76277761D01*
X208563576Y-76277760D01*
X208750000Y-76259399D01*
X208936425Y-76277760D01*
X208936425Y-76277760D01*
G37*
G36*
X110650709Y-76277760D02*
G01*
X110650712Y-76277761D01*
X110650713Y-76277761D01*
X110829977Y-76332140D01*
X110829980Y-76332142D01*
X110829981Y-76332142D01*
X110995187Y-76420446D01*
X111139996Y-76539288D01*
X111258838Y-76684097D01*
X111316326Y-76791650D01*
X111347144Y-76849307D01*
X111401523Y-77028571D01*
X111401524Y-77028575D01*
X111415284Y-77168282D01*
X111415284Y-79061718D01*
X111401524Y-79201425D01*
X111401523Y-79201428D01*
X111401523Y-79201429D01*
X111347144Y-79380693D01*
X111347142Y-79380696D01*
X111347142Y-79380697D01*
X111258838Y-79545903D01*
X111139996Y-79690712D01*
X110995187Y-79809554D01*
X110847248Y-79888628D01*
X110829976Y-79897860D01*
X110650712Y-79952239D01*
X110650711Y-79952239D01*
X110650708Y-79952240D01*
X110464284Y-79970601D01*
X110277859Y-79952240D01*
X110277856Y-79952239D01*
X110277855Y-79952239D01*
X110098591Y-79897860D01*
X110080859Y-79888382D01*
X109933381Y-79809554D01*
X109788572Y-79690712D01*
X109669730Y-79545903D01*
X109581426Y-79380696D01*
X109581425Y-79380693D01*
X109581424Y-79380692D01*
X109527045Y-79201428D01*
X109527045Y-79201427D01*
X109527044Y-79201424D01*
X109513284Y-79061717D01*
X109513284Y-77168283D01*
X109527045Y-77028575D01*
X109527046Y-77028571D01*
X109581425Y-76849307D01*
X109612243Y-76791650D01*
X109669731Y-76684097D01*
X109788573Y-76539288D01*
X109933382Y-76420446D01*
X110098588Y-76332142D01*
X110098589Y-76332142D01*
X110098592Y-76332140D01*
X110277856Y-76277761D01*
X110277857Y-76277761D01*
X110277860Y-76277760D01*
X110464284Y-76259399D01*
X110650709Y-76277760D01*
X110650709Y-76277760D01*
G37*
G36*
X100150709Y-76277760D02*
G01*
X100150712Y-76277761D01*
X100150713Y-76277761D01*
X100329977Y-76332140D01*
X100329980Y-76332142D01*
X100329981Y-76332142D01*
X100495187Y-76420446D01*
X100639996Y-76539288D01*
X100758838Y-76684097D01*
X100816326Y-76791650D01*
X100847144Y-76849307D01*
X100901523Y-77028571D01*
X100901524Y-77028575D01*
X100915284Y-77168282D01*
X100915284Y-79061718D01*
X100901524Y-79201425D01*
X100901523Y-79201428D01*
X100901523Y-79201429D01*
X100847144Y-79380693D01*
X100847142Y-79380696D01*
X100847142Y-79380697D01*
X100758838Y-79545903D01*
X100639996Y-79690712D01*
X100495187Y-79809554D01*
X100347248Y-79888628D01*
X100329976Y-79897860D01*
X100150712Y-79952239D01*
X100150711Y-79952239D01*
X100150708Y-79952240D01*
X99964284Y-79970601D01*
X99777859Y-79952240D01*
X99777856Y-79952239D01*
X99777855Y-79952239D01*
X99598591Y-79897860D01*
X99580859Y-79888382D01*
X99433381Y-79809554D01*
X99288572Y-79690712D01*
X99169730Y-79545903D01*
X99081426Y-79380696D01*
X99081425Y-79380693D01*
X99081424Y-79380692D01*
X99027045Y-79201428D01*
X99027045Y-79201427D01*
X99027044Y-79201424D01*
X99013284Y-79061717D01*
X99013284Y-77168283D01*
X99027045Y-77028575D01*
X99027046Y-77028571D01*
X99081425Y-76849307D01*
X99112243Y-76791650D01*
X99169731Y-76684097D01*
X99288573Y-76539288D01*
X99433382Y-76420446D01*
X99598588Y-76332142D01*
X99598589Y-76332142D01*
X99598592Y-76332140D01*
X99777856Y-76277761D01*
X99777857Y-76277761D01*
X99777860Y-76277760D01*
X99964284Y-76259399D01*
X100150709Y-76277760D01*
X100150709Y-76277760D01*
G37*
G36*
X103650709Y-76277760D02*
G01*
X103650712Y-76277761D01*
X103650713Y-76277761D01*
X103829977Y-76332140D01*
X103829980Y-76332142D01*
X103829981Y-76332142D01*
X103995187Y-76420446D01*
X104139996Y-76539288D01*
X104258838Y-76684097D01*
X104316326Y-76791650D01*
X104347144Y-76849307D01*
X104401523Y-77028571D01*
X104401524Y-77028575D01*
X104415284Y-77168282D01*
X104415284Y-79061718D01*
X104401524Y-79201425D01*
X104401523Y-79201428D01*
X104401523Y-79201429D01*
X104347144Y-79380693D01*
X104347142Y-79380696D01*
X104347142Y-79380697D01*
X104258838Y-79545903D01*
X104139996Y-79690712D01*
X103995187Y-79809554D01*
X103847248Y-79888628D01*
X103829976Y-79897860D01*
X103650712Y-79952239D01*
X103650711Y-79952239D01*
X103650708Y-79952240D01*
X103464284Y-79970601D01*
X103277859Y-79952240D01*
X103277856Y-79952239D01*
X103277855Y-79952239D01*
X103098591Y-79897860D01*
X103080859Y-79888382D01*
X102933381Y-79809554D01*
X102788572Y-79690712D01*
X102669730Y-79545903D01*
X102581426Y-79380696D01*
X102581425Y-79380693D01*
X102581424Y-79380692D01*
X102527045Y-79201428D01*
X102527045Y-79201427D01*
X102527044Y-79201424D01*
X102513284Y-79061717D01*
X102513284Y-77168283D01*
X102527045Y-77028575D01*
X102527046Y-77028571D01*
X102581425Y-76849307D01*
X102612243Y-76791650D01*
X102669731Y-76684097D01*
X102788573Y-76539288D01*
X102933382Y-76420446D01*
X103098588Y-76332142D01*
X103098589Y-76332142D01*
X103098592Y-76332140D01*
X103277856Y-76277761D01*
X103277857Y-76277761D01*
X103277860Y-76277760D01*
X103464284Y-76259399D01*
X103650709Y-76277760D01*
X103650709Y-76277760D01*
G37*
G36*
X107150709Y-76277760D02*
G01*
X107150712Y-76277761D01*
X107150713Y-76277761D01*
X107329977Y-76332140D01*
X107329980Y-76332142D01*
X107329981Y-76332142D01*
X107495187Y-76420446D01*
X107639996Y-76539288D01*
X107758838Y-76684097D01*
X107816326Y-76791650D01*
X107847144Y-76849307D01*
X107901523Y-77028571D01*
X107901524Y-77028575D01*
X107915284Y-77168282D01*
X107915284Y-79061718D01*
X107901524Y-79201425D01*
X107901523Y-79201428D01*
X107901523Y-79201429D01*
X107847144Y-79380693D01*
X107847142Y-79380696D01*
X107847142Y-79380697D01*
X107758838Y-79545903D01*
X107639996Y-79690712D01*
X107495187Y-79809554D01*
X107347248Y-79888628D01*
X107329976Y-79897860D01*
X107150712Y-79952239D01*
X107150711Y-79952239D01*
X107150708Y-79952240D01*
X106964284Y-79970601D01*
X106777859Y-79952240D01*
X106777856Y-79952239D01*
X106777855Y-79952239D01*
X106598591Y-79897860D01*
X106580859Y-79888382D01*
X106433381Y-79809554D01*
X106288572Y-79690712D01*
X106169730Y-79545903D01*
X106081426Y-79380696D01*
X106081425Y-79380693D01*
X106081424Y-79380692D01*
X106027045Y-79201428D01*
X106027045Y-79201427D01*
X106027044Y-79201424D01*
X106013284Y-79061717D01*
X106013284Y-77168283D01*
X106027045Y-77028575D01*
X106027046Y-77028571D01*
X106081425Y-76849307D01*
X106112243Y-76791650D01*
X106169731Y-76684097D01*
X106288573Y-76539288D01*
X106433382Y-76420446D01*
X106598588Y-76332142D01*
X106598589Y-76332142D01*
X106598592Y-76332140D01*
X106777856Y-76277761D01*
X106777857Y-76277761D01*
X106777860Y-76277760D01*
X106964284Y-76259399D01*
X107150709Y-76277760D01*
X107150709Y-76277760D01*
G37*
G36*
X90293567Y-76277760D02*
G01*
X90293570Y-76277761D01*
X90293571Y-76277761D01*
X90472835Y-76332140D01*
X90472838Y-76332142D01*
X90472839Y-76332142D01*
X90638045Y-76420446D01*
X90782854Y-76539288D01*
X90901696Y-76684097D01*
X90959184Y-76791650D01*
X90990002Y-76849307D01*
X91044381Y-77028571D01*
X91044382Y-77028575D01*
X91058142Y-77168282D01*
X91058142Y-79061718D01*
X91044382Y-79201425D01*
X91044381Y-79201428D01*
X91044381Y-79201429D01*
X90990002Y-79380693D01*
X90990000Y-79380696D01*
X90990000Y-79380697D01*
X90901696Y-79545903D01*
X90782854Y-79690712D01*
X90638045Y-79809554D01*
X90490106Y-79888628D01*
X90472834Y-79897860D01*
X90293570Y-79952239D01*
X90293569Y-79952239D01*
X90293566Y-79952240D01*
X90107142Y-79970601D01*
X89920717Y-79952240D01*
X89920714Y-79952239D01*
X89920713Y-79952239D01*
X89741449Y-79897860D01*
X89723717Y-79888382D01*
X89576239Y-79809554D01*
X89431430Y-79690712D01*
X89312588Y-79545903D01*
X89224284Y-79380696D01*
X89224283Y-79380693D01*
X89224282Y-79380692D01*
X89169903Y-79201428D01*
X89169903Y-79201427D01*
X89169902Y-79201424D01*
X89156142Y-79061717D01*
X89156142Y-77168283D01*
X89169903Y-77028575D01*
X89169904Y-77028571D01*
X89224283Y-76849307D01*
X89255101Y-76791650D01*
X89312589Y-76684097D01*
X89431431Y-76539288D01*
X89576240Y-76420446D01*
X89741446Y-76332142D01*
X89741447Y-76332142D01*
X89741450Y-76332140D01*
X89920714Y-76277761D01*
X89920715Y-76277761D01*
X89920718Y-76277760D01*
X90107142Y-76259399D01*
X90293567Y-76277760D01*
X90293567Y-76277760D01*
G37*
G36*
X86793567Y-76277760D02*
G01*
X86793570Y-76277761D01*
X86793571Y-76277761D01*
X86972835Y-76332140D01*
X86972838Y-76332142D01*
X86972839Y-76332142D01*
X87138045Y-76420446D01*
X87282854Y-76539288D01*
X87401696Y-76684097D01*
X87459184Y-76791650D01*
X87490002Y-76849307D01*
X87544381Y-77028571D01*
X87544382Y-77028575D01*
X87558142Y-77168282D01*
X87558142Y-79061718D01*
X87544382Y-79201425D01*
X87544381Y-79201428D01*
X87544381Y-79201429D01*
X87490002Y-79380693D01*
X87490000Y-79380696D01*
X87490000Y-79380697D01*
X87401696Y-79545903D01*
X87282854Y-79690712D01*
X87138045Y-79809554D01*
X86990106Y-79888628D01*
X86972834Y-79897860D01*
X86793570Y-79952239D01*
X86793569Y-79952239D01*
X86793566Y-79952240D01*
X86607142Y-79970601D01*
X86420717Y-79952240D01*
X86420714Y-79952239D01*
X86420713Y-79952239D01*
X86241449Y-79897860D01*
X86223717Y-79888382D01*
X86076239Y-79809554D01*
X85931430Y-79690712D01*
X85812588Y-79545903D01*
X85724284Y-79380696D01*
X85724283Y-79380693D01*
X85724282Y-79380692D01*
X85669903Y-79201428D01*
X85669903Y-79201427D01*
X85669902Y-79201424D01*
X85656142Y-79061717D01*
X85656142Y-77168283D01*
X85669903Y-77028575D01*
X85669904Y-77028571D01*
X85724283Y-76849307D01*
X85755101Y-76791650D01*
X85812589Y-76684097D01*
X85931431Y-76539288D01*
X86076240Y-76420446D01*
X86241446Y-76332142D01*
X86241447Y-76332142D01*
X86241450Y-76332140D01*
X86420714Y-76277761D01*
X86420715Y-76277761D01*
X86420718Y-76277760D01*
X86607142Y-76259399D01*
X86793567Y-76277760D01*
X86793567Y-76277760D01*
G37*
G36*
X83293567Y-76277760D02*
G01*
X83293570Y-76277761D01*
X83293571Y-76277761D01*
X83472835Y-76332140D01*
X83472838Y-76332142D01*
X83472839Y-76332142D01*
X83638045Y-76420446D01*
X83782854Y-76539288D01*
X83901696Y-76684097D01*
X83959184Y-76791650D01*
X83990002Y-76849307D01*
X84044381Y-77028571D01*
X84044382Y-77028575D01*
X84058142Y-77168282D01*
X84058142Y-79061718D01*
X84044382Y-79201425D01*
X84044381Y-79201428D01*
X84044381Y-79201429D01*
X83990002Y-79380693D01*
X83990000Y-79380696D01*
X83990000Y-79380697D01*
X83901696Y-79545903D01*
X83782854Y-79690712D01*
X83638045Y-79809554D01*
X83490106Y-79888628D01*
X83472834Y-79897860D01*
X83293570Y-79952239D01*
X83293569Y-79952239D01*
X83293566Y-79952240D01*
X83107142Y-79970601D01*
X82920717Y-79952240D01*
X82920714Y-79952239D01*
X82920713Y-79952239D01*
X82741449Y-79897860D01*
X82723717Y-79888382D01*
X82576239Y-79809554D01*
X82431430Y-79690712D01*
X82312588Y-79545903D01*
X82224284Y-79380696D01*
X82224283Y-79380693D01*
X82224282Y-79380692D01*
X82169903Y-79201428D01*
X82169903Y-79201427D01*
X82169902Y-79201424D01*
X82156142Y-79061717D01*
X82156142Y-77168283D01*
X82169903Y-77028575D01*
X82169904Y-77028571D01*
X82224283Y-76849307D01*
X82255101Y-76791650D01*
X82312589Y-76684097D01*
X82431431Y-76539288D01*
X82576240Y-76420446D01*
X82741446Y-76332142D01*
X82741447Y-76332142D01*
X82741450Y-76332140D01*
X82920714Y-76277761D01*
X82920715Y-76277761D01*
X82920718Y-76277760D01*
X83107142Y-76259399D01*
X83293567Y-76277760D01*
X83293567Y-76277760D01*
G37*
G36*
X62936425Y-76277760D02*
G01*
X62936428Y-76277761D01*
X62936429Y-76277761D01*
X63115693Y-76332140D01*
X63115696Y-76332142D01*
X63115697Y-76332142D01*
X63280903Y-76420446D01*
X63425712Y-76539288D01*
X63544554Y-76684097D01*
X63602042Y-76791650D01*
X63632860Y-76849307D01*
X63687239Y-77028571D01*
X63687240Y-77028575D01*
X63701000Y-77168282D01*
X63701000Y-79061718D01*
X63687240Y-79201425D01*
X63687239Y-79201428D01*
X63687239Y-79201429D01*
X63632860Y-79380693D01*
X63632858Y-79380696D01*
X63632858Y-79380697D01*
X63544554Y-79545903D01*
X63425712Y-79690712D01*
X63280903Y-79809554D01*
X63132964Y-79888628D01*
X63115692Y-79897860D01*
X62936428Y-79952239D01*
X62936427Y-79952239D01*
X62936424Y-79952240D01*
X62750000Y-79970601D01*
X62563575Y-79952240D01*
X62563572Y-79952239D01*
X62563571Y-79952239D01*
X62384307Y-79897860D01*
X62366575Y-79888382D01*
X62219097Y-79809554D01*
X62074288Y-79690712D01*
X61955446Y-79545903D01*
X61867142Y-79380696D01*
X61867141Y-79380693D01*
X61867140Y-79380692D01*
X61812761Y-79201428D01*
X61812761Y-79201427D01*
X61812760Y-79201424D01*
X61799000Y-79061717D01*
X61799000Y-77168283D01*
X61812761Y-77028575D01*
X61812762Y-77028571D01*
X61867141Y-76849307D01*
X61897959Y-76791650D01*
X61955447Y-76684097D01*
X62074289Y-76539288D01*
X62219098Y-76420446D01*
X62384304Y-76332142D01*
X62384305Y-76332142D01*
X62384308Y-76332140D01*
X62563572Y-76277761D01*
X62563573Y-76277761D01*
X62563576Y-76277760D01*
X62750000Y-76259399D01*
X62936425Y-76277760D01*
X62936425Y-76277760D01*
G37*
G36*
X79793567Y-76277760D02*
G01*
X79793570Y-76277761D01*
X79793571Y-76277761D01*
X79972835Y-76332140D01*
X79972838Y-76332142D01*
X79972839Y-76332142D01*
X80138045Y-76420446D01*
X80282854Y-76539288D01*
X80401696Y-76684097D01*
X80459184Y-76791650D01*
X80490002Y-76849307D01*
X80544381Y-77028571D01*
X80544382Y-77028575D01*
X80558142Y-77168282D01*
X80558142Y-79061718D01*
X80544382Y-79201425D01*
X80544381Y-79201428D01*
X80544381Y-79201429D01*
X80490002Y-79380693D01*
X80490000Y-79380696D01*
X80490000Y-79380697D01*
X80401696Y-79545903D01*
X80282854Y-79690712D01*
X80138045Y-79809554D01*
X79990106Y-79888628D01*
X79972834Y-79897860D01*
X79793570Y-79952239D01*
X79793569Y-79952239D01*
X79793566Y-79952240D01*
X79607142Y-79970601D01*
X79420717Y-79952240D01*
X79420714Y-79952239D01*
X79420713Y-79952239D01*
X79241449Y-79897860D01*
X79223717Y-79888382D01*
X79076239Y-79809554D01*
X78931430Y-79690712D01*
X78812588Y-79545903D01*
X78724284Y-79380696D01*
X78724283Y-79380693D01*
X78724282Y-79380692D01*
X78669903Y-79201428D01*
X78669903Y-79201427D01*
X78669902Y-79201424D01*
X78656142Y-79061717D01*
X78656142Y-77168283D01*
X78669903Y-77028575D01*
X78669904Y-77028571D01*
X78724283Y-76849307D01*
X78755101Y-76791650D01*
X78812589Y-76684097D01*
X78931431Y-76539288D01*
X79076240Y-76420446D01*
X79241446Y-76332142D01*
X79241447Y-76332142D01*
X79241450Y-76332140D01*
X79420714Y-76277761D01*
X79420715Y-76277761D01*
X79420718Y-76277760D01*
X79607142Y-76259399D01*
X79793567Y-76277760D01*
X79793567Y-76277760D01*
G37*
G36*
X69936425Y-76277760D02*
G01*
X69936428Y-76277761D01*
X69936429Y-76277761D01*
X70115693Y-76332140D01*
X70115696Y-76332142D01*
X70115697Y-76332142D01*
X70280903Y-76420446D01*
X70425712Y-76539288D01*
X70544554Y-76684097D01*
X70602042Y-76791650D01*
X70632860Y-76849307D01*
X70687239Y-77028571D01*
X70687240Y-77028575D01*
X70701000Y-77168282D01*
X70701000Y-79061718D01*
X70687240Y-79201425D01*
X70687239Y-79201428D01*
X70687239Y-79201429D01*
X70632860Y-79380693D01*
X70632858Y-79380696D01*
X70632858Y-79380697D01*
X70544554Y-79545903D01*
X70425712Y-79690712D01*
X70280903Y-79809554D01*
X70132964Y-79888628D01*
X70115692Y-79897860D01*
X69936428Y-79952239D01*
X69936427Y-79952239D01*
X69936424Y-79952240D01*
X69750000Y-79970601D01*
X69563575Y-79952240D01*
X69563572Y-79952239D01*
X69563571Y-79952239D01*
X69384307Y-79897860D01*
X69366575Y-79888382D01*
X69219097Y-79809554D01*
X69074288Y-79690712D01*
X68955446Y-79545903D01*
X68867142Y-79380696D01*
X68867141Y-79380693D01*
X68867140Y-79380692D01*
X68812761Y-79201428D01*
X68812761Y-79201427D01*
X68812760Y-79201424D01*
X68799000Y-79061717D01*
X68799000Y-77168283D01*
X68812761Y-77028575D01*
X68812762Y-77028571D01*
X68867141Y-76849307D01*
X68897959Y-76791650D01*
X68955447Y-76684097D01*
X69074289Y-76539288D01*
X69219098Y-76420446D01*
X69384304Y-76332142D01*
X69384305Y-76332142D01*
X69384308Y-76332140D01*
X69563572Y-76277761D01*
X69563573Y-76277761D01*
X69563576Y-76277760D01*
X69750000Y-76259399D01*
X69936425Y-76277760D01*
X69936425Y-76277760D01*
G37*
G36*
X66436425Y-76277760D02*
G01*
X66436428Y-76277761D01*
X66436429Y-76277761D01*
X66615693Y-76332140D01*
X66615696Y-76332142D01*
X66615697Y-76332142D01*
X66780903Y-76420446D01*
X66925712Y-76539288D01*
X67044554Y-76684097D01*
X67102042Y-76791650D01*
X67132860Y-76849307D01*
X67187239Y-77028571D01*
X67187240Y-77028575D01*
X67201000Y-77168282D01*
X67201000Y-79061718D01*
X67187240Y-79201425D01*
X67187239Y-79201428D01*
X67187239Y-79201429D01*
X67132860Y-79380693D01*
X67132858Y-79380696D01*
X67132858Y-79380697D01*
X67044554Y-79545903D01*
X66925712Y-79690712D01*
X66780903Y-79809554D01*
X66632964Y-79888628D01*
X66615692Y-79897860D01*
X66436428Y-79952239D01*
X66436427Y-79952239D01*
X66436424Y-79952240D01*
X66250000Y-79970601D01*
X66063575Y-79952240D01*
X66063572Y-79952239D01*
X66063571Y-79952239D01*
X65884307Y-79897860D01*
X65866575Y-79888382D01*
X65719097Y-79809554D01*
X65574288Y-79690712D01*
X65455446Y-79545903D01*
X65367142Y-79380696D01*
X65367141Y-79380693D01*
X65367140Y-79380692D01*
X65312761Y-79201428D01*
X65312761Y-79201427D01*
X65312760Y-79201424D01*
X65299000Y-79061717D01*
X65299000Y-77168283D01*
X65312761Y-77028575D01*
X65312762Y-77028571D01*
X65367141Y-76849307D01*
X65397959Y-76791650D01*
X65455447Y-76684097D01*
X65574289Y-76539288D01*
X65719098Y-76420446D01*
X65884304Y-76332142D01*
X65884305Y-76332142D01*
X65884308Y-76332140D01*
X66063572Y-76277761D01*
X66063573Y-76277761D01*
X66063576Y-76277760D01*
X66250000Y-76259399D01*
X66436425Y-76277760D01*
X66436425Y-76277760D01*
G37*
G36*
X168222135Y-76277760D02*
G01*
X168222138Y-76277761D01*
X168222139Y-76277761D01*
X168401403Y-76332140D01*
X168401406Y-76332142D01*
X168401407Y-76332142D01*
X168566613Y-76420446D01*
X168711422Y-76539288D01*
X168830264Y-76684097D01*
X168887752Y-76791650D01*
X168918570Y-76849307D01*
X168972949Y-77028571D01*
X168972950Y-77028575D01*
X168986710Y-77168282D01*
X168986710Y-79061718D01*
X168972950Y-79201425D01*
X168972949Y-79201428D01*
X168972949Y-79201429D01*
X168918570Y-79380693D01*
X168918568Y-79380696D01*
X168918568Y-79380697D01*
X168830264Y-79545903D01*
X168711422Y-79690712D01*
X168566613Y-79809554D01*
X168418674Y-79888628D01*
X168401402Y-79897860D01*
X168222138Y-79952239D01*
X168222137Y-79952239D01*
X168222134Y-79952240D01*
X168035710Y-79970601D01*
X167849285Y-79952240D01*
X167849282Y-79952239D01*
X167849281Y-79952239D01*
X167670017Y-79897860D01*
X167652285Y-79888382D01*
X167504807Y-79809554D01*
X167359998Y-79690712D01*
X167241156Y-79545903D01*
X167152852Y-79380696D01*
X167152851Y-79380693D01*
X167152850Y-79380692D01*
X167098471Y-79201428D01*
X167098471Y-79201427D01*
X167098470Y-79201424D01*
X167084710Y-79061717D01*
X167084710Y-77168283D01*
X167098471Y-77028575D01*
X167098472Y-77028571D01*
X167152851Y-76849307D01*
X167183669Y-76791650D01*
X167241157Y-76684097D01*
X167359999Y-76539288D01*
X167504808Y-76420446D01*
X167670014Y-76332142D01*
X167670015Y-76332142D01*
X167670018Y-76332140D01*
X167849282Y-76277761D01*
X167849283Y-76277761D01*
X167849286Y-76277760D01*
X168035710Y-76259399D01*
X168222135Y-76277760D01*
X168222135Y-76277760D01*
G37*
G36*
X140864993Y-76277760D02*
G01*
X140864996Y-76277761D01*
X140864997Y-76277761D01*
X141044261Y-76332140D01*
X141044264Y-76332142D01*
X141044265Y-76332142D01*
X141209471Y-76420446D01*
X141354280Y-76539288D01*
X141473122Y-76684097D01*
X141530610Y-76791650D01*
X141561428Y-76849307D01*
X141615807Y-77028571D01*
X141615808Y-77028575D01*
X141629568Y-77168282D01*
X141629568Y-79061718D01*
X141615808Y-79201425D01*
X141615807Y-79201428D01*
X141615807Y-79201429D01*
X141561428Y-79380693D01*
X141561426Y-79380696D01*
X141561426Y-79380697D01*
X141473122Y-79545903D01*
X141354280Y-79690712D01*
X141209471Y-79809554D01*
X141061532Y-79888628D01*
X141044260Y-79897860D01*
X140864996Y-79952239D01*
X140864995Y-79952239D01*
X140864992Y-79952240D01*
X140678568Y-79970601D01*
X140492143Y-79952240D01*
X140492140Y-79952239D01*
X140492139Y-79952239D01*
X140312875Y-79897860D01*
X140295143Y-79888382D01*
X140147665Y-79809554D01*
X140002856Y-79690712D01*
X139884014Y-79545903D01*
X139795710Y-79380696D01*
X139795709Y-79380693D01*
X139795708Y-79380692D01*
X139741329Y-79201428D01*
X139741329Y-79201427D01*
X139741328Y-79201424D01*
X139727568Y-79061717D01*
X139727568Y-77168283D01*
X139741329Y-77028575D01*
X139741330Y-77028571D01*
X139795709Y-76849307D01*
X139826527Y-76791650D01*
X139884015Y-76684097D01*
X140002857Y-76539288D01*
X140147666Y-76420446D01*
X140312872Y-76332142D01*
X140312873Y-76332142D01*
X140312876Y-76332140D01*
X140492140Y-76277761D01*
X140492141Y-76277761D01*
X140492144Y-76277760D01*
X140678568Y-76259399D01*
X140864993Y-76277760D01*
X140864993Y-76277760D01*
G37*
G36*
X212436425Y-76277760D02*
G01*
X212436428Y-76277761D01*
X212436429Y-76277761D01*
X212615693Y-76332140D01*
X212615696Y-76332142D01*
X212615697Y-76332142D01*
X212780903Y-76420446D01*
X212925712Y-76539288D01*
X213044554Y-76684097D01*
X213102042Y-76791650D01*
X213132860Y-76849307D01*
X213187239Y-77028571D01*
X213187240Y-77028575D01*
X213201000Y-77168282D01*
X213201000Y-79061718D01*
X213187240Y-79201425D01*
X213187239Y-79201428D01*
X213187239Y-79201429D01*
X213132860Y-79380693D01*
X213132858Y-79380696D01*
X213132858Y-79380697D01*
X213044554Y-79545903D01*
X212925712Y-79690712D01*
X212780903Y-79809554D01*
X212632964Y-79888628D01*
X212615692Y-79897860D01*
X212436428Y-79952239D01*
X212436427Y-79952239D01*
X212436424Y-79952240D01*
X212250000Y-79970601D01*
X212063575Y-79952240D01*
X212063572Y-79952239D01*
X212063571Y-79952239D01*
X211884307Y-79897860D01*
X211866575Y-79888382D01*
X211719097Y-79809554D01*
X211574288Y-79690712D01*
X211455446Y-79545903D01*
X211367142Y-79380696D01*
X211367141Y-79380693D01*
X211367140Y-79380692D01*
X211312761Y-79201428D01*
X211312761Y-79201427D01*
X211312760Y-79201424D01*
X211299000Y-79061717D01*
X211299000Y-77168283D01*
X211312761Y-77028575D01*
X211312762Y-77028571D01*
X211367141Y-76849307D01*
X211397959Y-76791650D01*
X211455447Y-76684097D01*
X211574289Y-76539288D01*
X211719098Y-76420446D01*
X211884304Y-76332142D01*
X211884305Y-76332142D01*
X211884308Y-76332140D01*
X212063572Y-76277761D01*
X212063573Y-76277761D01*
X212063576Y-76277760D01*
X212250000Y-76259399D01*
X212436425Y-76277760D01*
X212436425Y-76277760D01*
G37*
G36*
X205436425Y-76277760D02*
G01*
X205436428Y-76277761D01*
X205436429Y-76277761D01*
X205615693Y-76332140D01*
X205615696Y-76332142D01*
X205615697Y-76332142D01*
X205780903Y-76420446D01*
X205925712Y-76539288D01*
X206044554Y-76684097D01*
X206102042Y-76791650D01*
X206132860Y-76849307D01*
X206187239Y-77028571D01*
X206187240Y-77028575D01*
X206201000Y-77168282D01*
X206201000Y-79061718D01*
X206187240Y-79201425D01*
X206187239Y-79201428D01*
X206187239Y-79201429D01*
X206132860Y-79380693D01*
X206132858Y-79380696D01*
X206132858Y-79380697D01*
X206044554Y-79545903D01*
X205925712Y-79690712D01*
X205780903Y-79809554D01*
X205632964Y-79888628D01*
X205615692Y-79897860D01*
X205436428Y-79952239D01*
X205436427Y-79952239D01*
X205436424Y-79952240D01*
X205250000Y-79970601D01*
X205063575Y-79952240D01*
X205063572Y-79952239D01*
X205063571Y-79952239D01*
X204884307Y-79897860D01*
X204866575Y-79888382D01*
X204719097Y-79809554D01*
X204574288Y-79690712D01*
X204455446Y-79545903D01*
X204367142Y-79380696D01*
X204367141Y-79380693D01*
X204367140Y-79380692D01*
X204312761Y-79201428D01*
X204312761Y-79201427D01*
X204312760Y-79201424D01*
X204299000Y-79061717D01*
X204299000Y-77168283D01*
X204312761Y-77028575D01*
X204312762Y-77028571D01*
X204367141Y-76849307D01*
X204397959Y-76791650D01*
X204455447Y-76684097D01*
X204574289Y-76539288D01*
X204719098Y-76420446D01*
X204884304Y-76332142D01*
X204884305Y-76332142D01*
X204884308Y-76332140D01*
X205063572Y-76277761D01*
X205063573Y-76277761D01*
X205063576Y-76277760D01*
X205250000Y-76259399D01*
X205436425Y-76277760D01*
X205436425Y-76277760D01*
G37*
G36*
X114775199Y-76267934D02*
G01*
X114807708Y-76277795D01*
X114837666Y-76293809D01*
X114863925Y-76315359D01*
X114885475Y-76341618D01*
X114901489Y-76371576D01*
X114911350Y-76404085D01*
X114915284Y-76444029D01*
X114915284Y-79785971D01*
X114911350Y-79825915D01*
X114901489Y-79858424D01*
X114885475Y-79888382D01*
X114863925Y-79914641D01*
X114837666Y-79936191D01*
X114807708Y-79952205D01*
X114775199Y-79962066D01*
X114735255Y-79966000D01*
X113193313Y-79966000D01*
X113153369Y-79962066D01*
X113120860Y-79952205D01*
X113090902Y-79936191D01*
X113064643Y-79914641D01*
X113043093Y-79888382D01*
X113027079Y-79858424D01*
X113017218Y-79825915D01*
X113013284Y-79785971D01*
X113013284Y-76444029D01*
X113017218Y-76404085D01*
X113027079Y-76371576D01*
X113043093Y-76341618D01*
X113064643Y-76315359D01*
X113090902Y-76293809D01*
X113120860Y-76277795D01*
X113153369Y-76267934D01*
X113193313Y-76264000D01*
X114735255Y-76264000D01*
X114775199Y-76267934D01*
X114775199Y-76267934D01*
G37*
G36*
X94418057Y-76267934D02*
G01*
X94450566Y-76277795D01*
X94480524Y-76293809D01*
X94506783Y-76315359D01*
X94528333Y-76341618D01*
X94544347Y-76371576D01*
X94554208Y-76404085D01*
X94558142Y-76444029D01*
X94558142Y-79785971D01*
X94554208Y-79825915D01*
X94544347Y-79858424D01*
X94528333Y-79888382D01*
X94506783Y-79914641D01*
X94480524Y-79936191D01*
X94450566Y-79952205D01*
X94418057Y-79962066D01*
X94378113Y-79966000D01*
X92836171Y-79966000D01*
X92796227Y-79962066D01*
X92763718Y-79952205D01*
X92733760Y-79936191D01*
X92707501Y-79914641D01*
X92685951Y-79888382D01*
X92669937Y-79858424D01*
X92660076Y-79825915D01*
X92656142Y-79785971D01*
X92656142Y-76444029D01*
X92660076Y-76404085D01*
X92669937Y-76371576D01*
X92685951Y-76341618D01*
X92707501Y-76315359D01*
X92733760Y-76293809D01*
X92763718Y-76277795D01*
X92796227Y-76267934D01*
X92836171Y-76264000D01*
X94378113Y-76264000D01*
X94418057Y-76267934D01*
X94418057Y-76267934D01*
G37*
G36*
X74060915Y-76267934D02*
G01*
X74093424Y-76277795D01*
X74123382Y-76293809D01*
X74149641Y-76315359D01*
X74171191Y-76341618D01*
X74187205Y-76371576D01*
X74197066Y-76404085D01*
X74201000Y-76444029D01*
X74201000Y-79785971D01*
X74197066Y-79825915D01*
X74187205Y-79858424D01*
X74171191Y-79888382D01*
X74149641Y-79914641D01*
X74123382Y-79936191D01*
X74093424Y-79952205D01*
X74060915Y-79962066D01*
X74020971Y-79966000D01*
X72479029Y-79966000D01*
X72439085Y-79962066D01*
X72406576Y-79952205D01*
X72376618Y-79936191D01*
X72350359Y-79914641D01*
X72328809Y-79888382D01*
X72312795Y-79858424D01*
X72302934Y-79825915D01*
X72299000Y-79785971D01*
X72299000Y-76444029D01*
X72302934Y-76404085D01*
X72312795Y-76371576D01*
X72328809Y-76341618D01*
X72350359Y-76315359D01*
X72376618Y-76293809D01*
X72406576Y-76277795D01*
X72439085Y-76267934D01*
X72479029Y-76264000D01*
X74020971Y-76264000D01*
X74060915Y-76267934D01*
X74060915Y-76267934D01*
G37*
G36*
X155489483Y-76267934D02*
G01*
X155521992Y-76277795D01*
X155551950Y-76293809D01*
X155578209Y-76315359D01*
X155599759Y-76341618D01*
X155615773Y-76371576D01*
X155625634Y-76404085D01*
X155629568Y-76444029D01*
X155629568Y-79785971D01*
X155625634Y-79825915D01*
X155615773Y-79858424D01*
X155599759Y-79888382D01*
X155578209Y-79914641D01*
X155551950Y-79936191D01*
X155521992Y-79952205D01*
X155489483Y-79962066D01*
X155449539Y-79966000D01*
X153907597Y-79966000D01*
X153867653Y-79962066D01*
X153835144Y-79952205D01*
X153805186Y-79936191D01*
X153778927Y-79914641D01*
X153757377Y-79888382D01*
X153741363Y-79858424D01*
X153731502Y-79825915D01*
X153727568Y-79785971D01*
X153727568Y-76444029D01*
X153731502Y-76404085D01*
X153741363Y-76371576D01*
X153757377Y-76341618D01*
X153778927Y-76315359D01*
X153805186Y-76293809D01*
X153835144Y-76277795D01*
X153867653Y-76267934D01*
X153907597Y-76264000D01*
X155449539Y-76264000D01*
X155489483Y-76267934D01*
X155489483Y-76267934D01*
G37*
G36*
X135132341Y-76267934D02*
G01*
X135164850Y-76277795D01*
X135194808Y-76293809D01*
X135221067Y-76315359D01*
X135242617Y-76341618D01*
X135258631Y-76371576D01*
X135268492Y-76404085D01*
X135272426Y-76444029D01*
X135272426Y-79785971D01*
X135268492Y-79825915D01*
X135258631Y-79858424D01*
X135242617Y-79888382D01*
X135221067Y-79914641D01*
X135194808Y-79936191D01*
X135164850Y-79952205D01*
X135132341Y-79962066D01*
X135092397Y-79966000D01*
X133550455Y-79966000D01*
X133510511Y-79962066D01*
X133478002Y-79952205D01*
X133448044Y-79936191D01*
X133421785Y-79914641D01*
X133400235Y-79888382D01*
X133384221Y-79858424D01*
X133374360Y-79825915D01*
X133370426Y-79785971D01*
X133370426Y-76444029D01*
X133374360Y-76404085D01*
X133384221Y-76371576D01*
X133400235Y-76341618D01*
X133421785Y-76315359D01*
X133448044Y-76293809D01*
X133478002Y-76277795D01*
X133510511Y-76267934D01*
X133550455Y-76264000D01*
X135092397Y-76264000D01*
X135132341Y-76267934D01*
X135132341Y-76267934D01*
G37*
G36*
X175846625Y-76267934D02*
G01*
X175879134Y-76277795D01*
X175909092Y-76293809D01*
X175935351Y-76315359D01*
X175956901Y-76341618D01*
X175972915Y-76371576D01*
X175982776Y-76404085D01*
X175986710Y-76444029D01*
X175986710Y-79785971D01*
X175982776Y-79825915D01*
X175972915Y-79858424D01*
X175956901Y-79888382D01*
X175935351Y-79914641D01*
X175909092Y-79936191D01*
X175879134Y-79952205D01*
X175846625Y-79962066D01*
X175806681Y-79966000D01*
X174264739Y-79966000D01*
X174224795Y-79962066D01*
X174192286Y-79952205D01*
X174162328Y-79936191D01*
X174136069Y-79914641D01*
X174114519Y-79888382D01*
X174098505Y-79858424D01*
X174088644Y-79825915D01*
X174084710Y-79785971D01*
X174084710Y-76444029D01*
X174088644Y-76404085D01*
X174098505Y-76371576D01*
X174114519Y-76341618D01*
X174136069Y-76315359D01*
X174162328Y-76293809D01*
X174192286Y-76277795D01*
X174224795Y-76267934D01*
X174264739Y-76264000D01*
X175806681Y-76264000D01*
X175846625Y-76267934D01*
X175846625Y-76267934D01*
G37*
G36*
X196203767Y-76267934D02*
G01*
X196236276Y-76277795D01*
X196266234Y-76293809D01*
X196292493Y-76315359D01*
X196314043Y-76341618D01*
X196330057Y-76371576D01*
X196339918Y-76404085D01*
X196343852Y-76444029D01*
X196343852Y-79785971D01*
X196339918Y-79825915D01*
X196330057Y-79858424D01*
X196314043Y-79888382D01*
X196292493Y-79914641D01*
X196266234Y-79936191D01*
X196236276Y-79952205D01*
X196203767Y-79962066D01*
X196163823Y-79966000D01*
X194621881Y-79966000D01*
X194581937Y-79962066D01*
X194549428Y-79952205D01*
X194519470Y-79936191D01*
X194493211Y-79914641D01*
X194471661Y-79888382D01*
X194455647Y-79858424D01*
X194445786Y-79825915D01*
X194441852Y-79785971D01*
X194441852Y-76444029D01*
X194445786Y-76404085D01*
X194455647Y-76371576D01*
X194471661Y-76341618D01*
X194493211Y-76315359D01*
X194519470Y-76293809D01*
X194549428Y-76277795D01*
X194581937Y-76267934D01*
X194621881Y-76264000D01*
X196163823Y-76264000D01*
X196203767Y-76267934D01*
X196203767Y-76267934D01*
G37*
G36*
X216560915Y-76267934D02*
G01*
X216593424Y-76277795D01*
X216623382Y-76293809D01*
X216649641Y-76315359D01*
X216671191Y-76341618D01*
X216687205Y-76371576D01*
X216697066Y-76404085D01*
X216701000Y-76444029D01*
X216701000Y-79785971D01*
X216697066Y-79825915D01*
X216687205Y-79858424D01*
X216671191Y-79888382D01*
X216649641Y-79914641D01*
X216623382Y-79936191D01*
X216593424Y-79952205D01*
X216560915Y-79962066D01*
X216520971Y-79966000D01*
X214979029Y-79966000D01*
X214939085Y-79962066D01*
X214906576Y-79952205D01*
X214876618Y-79936191D01*
X214850359Y-79914641D01*
X214828809Y-79888382D01*
X214812795Y-79858424D01*
X214802934Y-79825915D01*
X214799000Y-79785971D01*
X214799000Y-76444029D01*
X214802934Y-76404085D01*
X214812795Y-76371576D01*
X214828809Y-76341618D01*
X214850359Y-76315359D01*
X214876618Y-76293809D01*
X214906576Y-76277795D01*
X214939085Y-76267934D01*
X214979029Y-76264000D01*
X216520971Y-76264000D01*
X216560915Y-76267934D01*
X216560915Y-76267934D01*
G37*
M02*
