G04 #@! TF.GenerationSoftware,KiCad,Pcbnew,(5.1.2)-2*
G04 #@! TF.CreationDate,2021-03-22T02:37:46-04:00*
G04 #@! TF.ProjectId,Repowered_Electronic_Load_Controller,5265706f-7765-4726-9564-5f456c656374,rev?*
G04 #@! TF.SameCoordinates,Original*
G04 #@! TF.FileFunction,Legend,Top*
G04 #@! TF.FilePolarity,Positive*
%FSLAX46Y46*%
G04 Gerber Fmt 4.6, Leading zero omitted, Abs format (unit mm)*
G04 Created by KiCad (PCBNEW (5.1.2)-2) date 2021-03-22 02:37:46*
%MOMM*%
%LPD*%
G04 APERTURE LIST*
%ADD10C,0.150000*%
%ADD11C,0.180000*%
%ADD12C,0.250000*%
%ADD13C,0.120000*%
G04 APERTURE END LIST*
D10*
X120092857Y-84427380D02*
X120092857Y-83427380D01*
X120409523Y-84141666D01*
X120726190Y-83427380D01*
X120726190Y-84427380D01*
X121585714Y-83760714D02*
X121585714Y-84427380D01*
X121178571Y-83760714D02*
X121178571Y-84284523D01*
X121223809Y-84379761D01*
X121314285Y-84427380D01*
X121449999Y-84427380D01*
X121540476Y-84379761D01*
X121585714Y-84332142D01*
X122173809Y-84427380D02*
X122083333Y-84379761D01*
X122038095Y-84284523D01*
X122038095Y-83427380D01*
X122399999Y-83760714D02*
X122761904Y-83760714D01*
X122535714Y-83427380D02*
X122535714Y-84284523D01*
X122580952Y-84379761D01*
X122671428Y-84427380D01*
X122761904Y-84427380D01*
X123078571Y-84427380D02*
X123078571Y-83760714D01*
X123078571Y-83427380D02*
X123033333Y-83475000D01*
X123078571Y-83522619D01*
X123123809Y-83475000D01*
X123078571Y-83427380D01*
X123078571Y-83522619D01*
X123530952Y-84046428D02*
X124254761Y-84046428D01*
X125249999Y-84332142D02*
X125204761Y-84379761D01*
X125069047Y-84427380D01*
X124978571Y-84427380D01*
X124842857Y-84379761D01*
X124752380Y-84284523D01*
X124707142Y-84189285D01*
X124661904Y-83998809D01*
X124661904Y-83855952D01*
X124707142Y-83665476D01*
X124752380Y-83570238D01*
X124842857Y-83475000D01*
X124978571Y-83427380D01*
X125069047Y-83427380D01*
X125204761Y-83475000D01*
X125249999Y-83522619D01*
X125657142Y-84427380D02*
X125657142Y-83427380D01*
X126064285Y-84427380D02*
X126064285Y-83903571D01*
X126019047Y-83808333D01*
X125928571Y-83760714D01*
X125792857Y-83760714D01*
X125702380Y-83808333D01*
X125657142Y-83855952D01*
X126923809Y-84427380D02*
X126923809Y-83903571D01*
X126878571Y-83808333D01*
X126788095Y-83760714D01*
X126607142Y-83760714D01*
X126516666Y-83808333D01*
X126923809Y-84379761D02*
X126833333Y-84427380D01*
X126607142Y-84427380D01*
X126516666Y-84379761D01*
X126471428Y-84284523D01*
X126471428Y-84189285D01*
X126516666Y-84094047D01*
X126607142Y-84046428D01*
X126833333Y-84046428D01*
X126923809Y-83998809D01*
X127376190Y-83760714D02*
X127376190Y-84427380D01*
X127376190Y-83855952D02*
X127421428Y-83808333D01*
X127511904Y-83760714D01*
X127647619Y-83760714D01*
X127738095Y-83808333D01*
X127783333Y-83903571D01*
X127783333Y-84427380D01*
X128235714Y-83760714D02*
X128235714Y-84427380D01*
X128235714Y-83855952D02*
X128280952Y-83808333D01*
X128371428Y-83760714D01*
X128507142Y-83760714D01*
X128597619Y-83808333D01*
X128642857Y-83903571D01*
X128642857Y-84427380D01*
X129457142Y-84379761D02*
X129366666Y-84427380D01*
X129185714Y-84427380D01*
X129095238Y-84379761D01*
X129049999Y-84284523D01*
X129049999Y-83903571D01*
X129095238Y-83808333D01*
X129185714Y-83760714D01*
X129366666Y-83760714D01*
X129457142Y-83808333D01*
X129502380Y-83903571D01*
X129502380Y-83998809D01*
X129049999Y-84094047D01*
X130045238Y-84427380D02*
X129954761Y-84379761D01*
X129909523Y-84284523D01*
X129909523Y-83427380D01*
X131130952Y-83903571D02*
X131447619Y-83903571D01*
X131583333Y-84427380D02*
X131130952Y-84427380D01*
X131130952Y-83427380D01*
X131583333Y-83427380D01*
X132126190Y-84427380D02*
X132035714Y-84379761D01*
X131990476Y-84284523D01*
X131990476Y-83427380D01*
X132849999Y-84379761D02*
X132759523Y-84427380D01*
X132578571Y-84427380D01*
X132488095Y-84379761D01*
X132442857Y-84284523D01*
X132442857Y-83903571D01*
X132488095Y-83808333D01*
X132578571Y-83760714D01*
X132759523Y-83760714D01*
X132849999Y-83808333D01*
X132895238Y-83903571D01*
X132895238Y-83998809D01*
X132442857Y-84094047D01*
X133709523Y-84379761D02*
X133619047Y-84427380D01*
X133438095Y-84427380D01*
X133347619Y-84379761D01*
X133302380Y-84332142D01*
X133257142Y-84236904D01*
X133257142Y-83951190D01*
X133302380Y-83855952D01*
X133347619Y-83808333D01*
X133438095Y-83760714D01*
X133619047Y-83760714D01*
X133709523Y-83808333D01*
X133980952Y-83760714D02*
X134342857Y-83760714D01*
X134116666Y-83427380D02*
X134116666Y-84284523D01*
X134161904Y-84379761D01*
X134252380Y-84427380D01*
X134342857Y-84427380D01*
X134659523Y-84427380D02*
X134659523Y-83760714D01*
X134659523Y-83951190D02*
X134704761Y-83855952D01*
X134750000Y-83808333D01*
X134840476Y-83760714D01*
X134930952Y-83760714D01*
X135383333Y-84427380D02*
X135292857Y-84379761D01*
X135247619Y-84332142D01*
X135202380Y-84236904D01*
X135202380Y-83951190D01*
X135247619Y-83855952D01*
X135292857Y-83808333D01*
X135383333Y-83760714D01*
X135519047Y-83760714D01*
X135609523Y-83808333D01*
X135654761Y-83855952D01*
X135700000Y-83951190D01*
X135700000Y-84236904D01*
X135654761Y-84332142D01*
X135609523Y-84379761D01*
X135519047Y-84427380D01*
X135383333Y-84427380D01*
X136107142Y-83760714D02*
X136107142Y-84427380D01*
X136107142Y-83855952D02*
X136152380Y-83808333D01*
X136242857Y-83760714D01*
X136378571Y-83760714D01*
X136469047Y-83808333D01*
X136514285Y-83903571D01*
X136514285Y-84427380D01*
X136966666Y-84427380D02*
X136966666Y-83760714D01*
X136966666Y-83427380D02*
X136921428Y-83475000D01*
X136966666Y-83522619D01*
X137011904Y-83475000D01*
X136966666Y-83427380D01*
X136966666Y-83522619D01*
X137826190Y-84379761D02*
X137735714Y-84427380D01*
X137554761Y-84427380D01*
X137464285Y-84379761D01*
X137419047Y-84332142D01*
X137373809Y-84236904D01*
X137373809Y-83951190D01*
X137419047Y-83855952D01*
X137464285Y-83808333D01*
X137554761Y-83760714D01*
X137735714Y-83760714D01*
X137826190Y-83808333D01*
X139409523Y-84427380D02*
X138957142Y-84427380D01*
X138957142Y-83427380D01*
X139861904Y-84427380D02*
X139771428Y-84379761D01*
X139726190Y-84332142D01*
X139680952Y-84236904D01*
X139680952Y-83951190D01*
X139726190Y-83855952D01*
X139771428Y-83808333D01*
X139861904Y-83760714D01*
X139997619Y-83760714D01*
X140088095Y-83808333D01*
X140133333Y-83855952D01*
X140178571Y-83951190D01*
X140178571Y-84236904D01*
X140133333Y-84332142D01*
X140088095Y-84379761D01*
X139997619Y-84427380D01*
X139861904Y-84427380D01*
X140992857Y-84427380D02*
X140992857Y-83903571D01*
X140947619Y-83808333D01*
X140857142Y-83760714D01*
X140676190Y-83760714D01*
X140585714Y-83808333D01*
X140992857Y-84379761D02*
X140902380Y-84427380D01*
X140676190Y-84427380D01*
X140585714Y-84379761D01*
X140540476Y-84284523D01*
X140540476Y-84189285D01*
X140585714Y-84094047D01*
X140676190Y-84046428D01*
X140902380Y-84046428D01*
X140992857Y-83998809D01*
X141852380Y-84427380D02*
X141852380Y-83427380D01*
X141852380Y-84379761D02*
X141761904Y-84427380D01*
X141580952Y-84427380D01*
X141490476Y-84379761D01*
X141445238Y-84332142D01*
X141400000Y-84236904D01*
X141400000Y-83951190D01*
X141445238Y-83855952D01*
X141490476Y-83808333D01*
X141580952Y-83760714D01*
X141761904Y-83760714D01*
X141852380Y-83808333D01*
X143571428Y-84332142D02*
X143526190Y-84379761D01*
X143390476Y-84427380D01*
X143300000Y-84427380D01*
X143164285Y-84379761D01*
X143073809Y-84284523D01*
X143028571Y-84189285D01*
X142983333Y-83998809D01*
X142983333Y-83855952D01*
X143028571Y-83665476D01*
X143073809Y-83570238D01*
X143164285Y-83475000D01*
X143300000Y-83427380D01*
X143390476Y-83427380D01*
X143526190Y-83475000D01*
X143571428Y-83522619D01*
X144114285Y-84427380D02*
X144023809Y-84379761D01*
X143978571Y-84332142D01*
X143933333Y-84236904D01*
X143933333Y-83951190D01*
X143978571Y-83855952D01*
X144023809Y-83808333D01*
X144114285Y-83760714D01*
X144250000Y-83760714D01*
X144340476Y-83808333D01*
X144385714Y-83855952D01*
X144430952Y-83951190D01*
X144430952Y-84236904D01*
X144385714Y-84332142D01*
X144340476Y-84379761D01*
X144250000Y-84427380D01*
X144114285Y-84427380D01*
X144838095Y-83760714D02*
X144838095Y-84427380D01*
X144838095Y-83855952D02*
X144883333Y-83808333D01*
X144973809Y-83760714D01*
X145109523Y-83760714D01*
X145200000Y-83808333D01*
X145245238Y-83903571D01*
X145245238Y-84427380D01*
X145561904Y-83760714D02*
X145923809Y-83760714D01*
X145697619Y-83427380D02*
X145697619Y-84284523D01*
X145742857Y-84379761D01*
X145833333Y-84427380D01*
X145923809Y-84427380D01*
X146240476Y-84427380D02*
X146240476Y-83760714D01*
X146240476Y-83951190D02*
X146285714Y-83855952D01*
X146330952Y-83808333D01*
X146421428Y-83760714D01*
X146511904Y-83760714D01*
X146964285Y-84427380D02*
X146873809Y-84379761D01*
X146828571Y-84332142D01*
X146783333Y-84236904D01*
X146783333Y-83951190D01*
X146828571Y-83855952D01*
X146873809Y-83808333D01*
X146964285Y-83760714D01*
X147100000Y-83760714D01*
X147190476Y-83808333D01*
X147235714Y-83855952D01*
X147280952Y-83951190D01*
X147280952Y-84236904D01*
X147235714Y-84332142D01*
X147190476Y-84379761D01*
X147100000Y-84427380D01*
X146964285Y-84427380D01*
X147823809Y-84427380D02*
X147733333Y-84379761D01*
X147688095Y-84284523D01*
X147688095Y-83427380D01*
X148321428Y-84427380D02*
X148230952Y-84379761D01*
X148185714Y-84284523D01*
X148185714Y-83427380D01*
X149045238Y-84379761D02*
X148954761Y-84427380D01*
X148773809Y-84427380D01*
X148683333Y-84379761D01*
X148638095Y-84284523D01*
X148638095Y-83903571D01*
X148683333Y-83808333D01*
X148773809Y-83760714D01*
X148954761Y-83760714D01*
X149045238Y-83808333D01*
X149090476Y-83903571D01*
X149090476Y-83998809D01*
X148638095Y-84094047D01*
X149497619Y-84427380D02*
X149497619Y-83760714D01*
X149497619Y-83951190D02*
X149542857Y-83855952D01*
X149588095Y-83808333D01*
X149678571Y-83760714D01*
X149769047Y-83760714D01*
X133257142Y-86077380D02*
X132940476Y-85601190D01*
X132714285Y-86077380D02*
X132714285Y-85077380D01*
X133076190Y-85077380D01*
X133166666Y-85125000D01*
X133211904Y-85172619D01*
X133257142Y-85267857D01*
X133257142Y-85410714D01*
X133211904Y-85505952D01*
X133166666Y-85553571D01*
X133076190Y-85601190D01*
X132714285Y-85601190D01*
X134026190Y-86029761D02*
X133935714Y-86077380D01*
X133754761Y-86077380D01*
X133664285Y-86029761D01*
X133619047Y-85934523D01*
X133619047Y-85553571D01*
X133664285Y-85458333D01*
X133754761Y-85410714D01*
X133935714Y-85410714D01*
X134026190Y-85458333D01*
X134071428Y-85553571D01*
X134071428Y-85648809D01*
X133619047Y-85744047D01*
X134388095Y-85410714D02*
X134614285Y-86077380D01*
X134840476Y-85410714D01*
X136423809Y-86077380D02*
X135880952Y-86077380D01*
X136152380Y-86077380D02*
X136152380Y-85077380D01*
X136061904Y-85220238D01*
X135971428Y-85315476D01*
X135880952Y-85363095D01*
X136830952Y-85982142D02*
X136876190Y-86029761D01*
X136830952Y-86077380D01*
X136785714Y-86029761D01*
X136830952Y-85982142D01*
X136830952Y-86077380D01*
X137464285Y-85077380D02*
X137554761Y-85077380D01*
X137645238Y-85125000D01*
X137690476Y-85172619D01*
X137735714Y-85267857D01*
X137780952Y-85458333D01*
X137780952Y-85696428D01*
X137735714Y-85886904D01*
X137690476Y-85982142D01*
X137645238Y-86029761D01*
X137554761Y-86077380D01*
X137464285Y-86077380D01*
X137373809Y-86029761D01*
X137328571Y-85982142D01*
X137283333Y-85886904D01*
X137238095Y-85696428D01*
X137238095Y-85458333D01*
X137283333Y-85267857D01*
X137328571Y-85172619D01*
X137373809Y-85125000D01*
X137464285Y-85077380D01*
X127240476Y-87441666D02*
X127692857Y-87441666D01*
X127150000Y-87727380D02*
X127466666Y-86727380D01*
X127783333Y-87727380D01*
X128507142Y-87727380D02*
X128507142Y-86727380D01*
X128507142Y-87679761D02*
X128416666Y-87727380D01*
X128235714Y-87727380D01*
X128145238Y-87679761D01*
X128100000Y-87632142D01*
X128054761Y-87536904D01*
X128054761Y-87251190D01*
X128100000Y-87155952D01*
X128145238Y-87108333D01*
X128235714Y-87060714D01*
X128416666Y-87060714D01*
X128507142Y-87108333D01*
X129366666Y-87727380D02*
X129366666Y-87203571D01*
X129321428Y-87108333D01*
X129230952Y-87060714D01*
X129050000Y-87060714D01*
X128959523Y-87108333D01*
X129366666Y-87679761D02*
X129276190Y-87727380D01*
X129050000Y-87727380D01*
X128959523Y-87679761D01*
X128914285Y-87584523D01*
X128914285Y-87489285D01*
X128959523Y-87394047D01*
X129050000Y-87346428D01*
X129276190Y-87346428D01*
X129366666Y-87298809D01*
X129819047Y-87727380D02*
X129819047Y-87060714D01*
X129819047Y-87155952D02*
X129864285Y-87108333D01*
X129954761Y-87060714D01*
X130090476Y-87060714D01*
X130180952Y-87108333D01*
X130226190Y-87203571D01*
X130226190Y-87727380D01*
X130226190Y-87203571D02*
X130271428Y-87108333D01*
X130361904Y-87060714D01*
X130497619Y-87060714D01*
X130588095Y-87108333D01*
X130633333Y-87203571D01*
X130633333Y-87727380D01*
X132352380Y-87632142D02*
X132307142Y-87679761D01*
X132171428Y-87727380D01*
X132080952Y-87727380D01*
X131945238Y-87679761D01*
X131854761Y-87584523D01*
X131809523Y-87489285D01*
X131764285Y-87298809D01*
X131764285Y-87155952D01*
X131809523Y-86965476D01*
X131854761Y-86870238D01*
X131945238Y-86775000D01*
X132080952Y-86727380D01*
X132171428Y-86727380D01*
X132307142Y-86775000D01*
X132352380Y-86822619D01*
X132895238Y-87727380D02*
X132804761Y-87679761D01*
X132759523Y-87632142D01*
X132714285Y-87536904D01*
X132714285Y-87251190D01*
X132759523Y-87155952D01*
X132804761Y-87108333D01*
X132895238Y-87060714D01*
X133030952Y-87060714D01*
X133121428Y-87108333D01*
X133166666Y-87155952D01*
X133211904Y-87251190D01*
X133211904Y-87536904D01*
X133166666Y-87632142D01*
X133121428Y-87679761D01*
X133030952Y-87727380D01*
X132895238Y-87727380D01*
X133619047Y-87727380D02*
X133619047Y-87060714D01*
X133619047Y-87251190D02*
X133664285Y-87155952D01*
X133709523Y-87108333D01*
X133800000Y-87060714D01*
X133890476Y-87060714D01*
X134614285Y-87727380D02*
X134614285Y-86727380D01*
X134614285Y-87679761D02*
X134523809Y-87727380D01*
X134342857Y-87727380D01*
X134252380Y-87679761D01*
X134207142Y-87632142D01*
X134161904Y-87536904D01*
X134161904Y-87251190D01*
X134207142Y-87155952D01*
X134252380Y-87108333D01*
X134342857Y-87060714D01*
X134523809Y-87060714D01*
X134614285Y-87108333D01*
X135066666Y-87727380D02*
X135066666Y-87060714D01*
X135066666Y-86727380D02*
X135021428Y-86775000D01*
X135066666Y-86822619D01*
X135111904Y-86775000D01*
X135066666Y-86727380D01*
X135066666Y-86822619D01*
X135519047Y-87060714D02*
X135519047Y-87727380D01*
X135519047Y-87155952D02*
X135564285Y-87108333D01*
X135654761Y-87060714D01*
X135790476Y-87060714D01*
X135880952Y-87108333D01*
X135926190Y-87203571D01*
X135926190Y-87727380D01*
X136785714Y-87060714D02*
X136785714Y-87870238D01*
X136740476Y-87965476D01*
X136695238Y-88013095D01*
X136604761Y-88060714D01*
X136469047Y-88060714D01*
X136378571Y-88013095D01*
X136785714Y-87679761D02*
X136695238Y-87727380D01*
X136514285Y-87727380D01*
X136423809Y-87679761D01*
X136378571Y-87632142D01*
X136333333Y-87536904D01*
X136333333Y-87251190D01*
X136378571Y-87155952D01*
X136423809Y-87108333D01*
X136514285Y-87060714D01*
X136695238Y-87060714D01*
X136785714Y-87108333D01*
X137373809Y-87727380D02*
X137283333Y-87679761D01*
X137238095Y-87584523D01*
X137238095Y-86727380D01*
X138097619Y-87679761D02*
X138007142Y-87727380D01*
X137826190Y-87727380D01*
X137735714Y-87679761D01*
X137690476Y-87584523D01*
X137690476Y-87203571D01*
X137735714Y-87108333D01*
X137826190Y-87060714D01*
X138007142Y-87060714D01*
X138097619Y-87108333D01*
X138142857Y-87203571D01*
X138142857Y-87298809D01*
X137690476Y-87394047D01*
X138459523Y-87060714D02*
X138685714Y-87727380D01*
X138911904Y-87060714D02*
X138685714Y-87727380D01*
X138595238Y-87965476D01*
X138550000Y-88013095D01*
X138459523Y-88060714D01*
X139952380Y-86822619D02*
X139997619Y-86775000D01*
X140088095Y-86727380D01*
X140314285Y-86727380D01*
X140404761Y-86775000D01*
X140450000Y-86822619D01*
X140495238Y-86917857D01*
X140495238Y-87013095D01*
X140450000Y-87155952D01*
X139907142Y-87727380D01*
X140495238Y-87727380D01*
X141083333Y-86727380D02*
X141173809Y-86727380D01*
X141264285Y-86775000D01*
X141309523Y-86822619D01*
X141354761Y-86917857D01*
X141400000Y-87108333D01*
X141400000Y-87346428D01*
X141354761Y-87536904D01*
X141309523Y-87632142D01*
X141264285Y-87679761D01*
X141173809Y-87727380D01*
X141083333Y-87727380D01*
X140992857Y-87679761D01*
X140947619Y-87632142D01*
X140902380Y-87536904D01*
X140857142Y-87346428D01*
X140857142Y-87108333D01*
X140902380Y-86917857D01*
X140947619Y-86822619D01*
X140992857Y-86775000D01*
X141083333Y-86727380D01*
X141761904Y-86822619D02*
X141807142Y-86775000D01*
X141897619Y-86727380D01*
X142123809Y-86727380D01*
X142214285Y-86775000D01*
X142259523Y-86822619D01*
X142304761Y-86917857D01*
X142304761Y-87013095D01*
X142259523Y-87155952D01*
X141716666Y-87727380D01*
X142304761Y-87727380D01*
X143209523Y-87727380D02*
X142666666Y-87727380D01*
X142938095Y-87727380D02*
X142938095Y-86727380D01*
X142847619Y-86870238D01*
X142757142Y-86965476D01*
X142666666Y-87013095D01*
X130723809Y-89377380D02*
X130723809Y-88853571D01*
X130678571Y-88758333D01*
X130588095Y-88710714D01*
X130407142Y-88710714D01*
X130316666Y-88758333D01*
X130723809Y-89329761D02*
X130633333Y-89377380D01*
X130407142Y-89377380D01*
X130316666Y-89329761D01*
X130271428Y-89234523D01*
X130271428Y-89139285D01*
X130316666Y-89044047D01*
X130407142Y-88996428D01*
X130633333Y-88996428D01*
X130723809Y-88948809D01*
X131583333Y-89329761D02*
X131492857Y-89377380D01*
X131311904Y-89377380D01*
X131221428Y-89329761D01*
X131176190Y-89282142D01*
X131130952Y-89186904D01*
X131130952Y-88901190D01*
X131176190Y-88805952D01*
X131221428Y-88758333D01*
X131311904Y-88710714D01*
X131492857Y-88710714D01*
X131583333Y-88758333D01*
X132126190Y-89377380D02*
X132035714Y-89329761D01*
X131990476Y-89282142D01*
X131945238Y-89186904D01*
X131945238Y-88901190D01*
X131990476Y-88805952D01*
X132035714Y-88758333D01*
X132126190Y-88710714D01*
X132261904Y-88710714D01*
X132352380Y-88758333D01*
X132397619Y-88805952D01*
X132442857Y-88901190D01*
X132442857Y-89186904D01*
X132397619Y-89282142D01*
X132352380Y-89329761D01*
X132261904Y-89377380D01*
X132126190Y-89377380D01*
X132850000Y-89377380D02*
X132850000Y-88710714D01*
X132850000Y-88901190D02*
X132895238Y-88805952D01*
X132940476Y-88758333D01*
X133030952Y-88710714D01*
X133121428Y-88710714D01*
X133845238Y-89377380D02*
X133845238Y-88377380D01*
X133845238Y-89329761D02*
X133754761Y-89377380D01*
X133573809Y-89377380D01*
X133483333Y-89329761D01*
X133438095Y-89282142D01*
X133392857Y-89186904D01*
X133392857Y-88901190D01*
X133438095Y-88805952D01*
X133483333Y-88758333D01*
X133573809Y-88710714D01*
X133754761Y-88710714D01*
X133845238Y-88758333D01*
X134297619Y-89377380D02*
X134297619Y-88710714D01*
X134297619Y-88377380D02*
X134252380Y-88425000D01*
X134297619Y-88472619D01*
X134342857Y-88425000D01*
X134297619Y-88377380D01*
X134297619Y-88472619D01*
X134750000Y-88710714D02*
X134750000Y-89377380D01*
X134750000Y-88805952D02*
X134795238Y-88758333D01*
X134885714Y-88710714D01*
X135021428Y-88710714D01*
X135111904Y-88758333D01*
X135157142Y-88853571D01*
X135157142Y-89377380D01*
X136016666Y-88710714D02*
X136016666Y-89520238D01*
X135971428Y-89615476D01*
X135926190Y-89663095D01*
X135835714Y-89710714D01*
X135700000Y-89710714D01*
X135609523Y-89663095D01*
X136016666Y-89329761D02*
X135926190Y-89377380D01*
X135745238Y-89377380D01*
X135654761Y-89329761D01*
X135609523Y-89282142D01*
X135564285Y-89186904D01*
X135564285Y-88901190D01*
X135609523Y-88805952D01*
X135654761Y-88758333D01*
X135745238Y-88710714D01*
X135926190Y-88710714D01*
X136016666Y-88758333D01*
X136604761Y-89377380D02*
X136514285Y-89329761D01*
X136469047Y-89234523D01*
X136469047Y-88377380D01*
X137328571Y-89329761D02*
X137238095Y-89377380D01*
X137057142Y-89377380D01*
X136966666Y-89329761D01*
X136921428Y-89234523D01*
X136921428Y-88853571D01*
X136966666Y-88758333D01*
X137057142Y-88710714D01*
X137238095Y-88710714D01*
X137328571Y-88758333D01*
X137373809Y-88853571D01*
X137373809Y-88948809D01*
X136921428Y-89044047D01*
X137690476Y-88710714D02*
X137916666Y-89377380D01*
X138142857Y-88710714D02*
X137916666Y-89377380D01*
X137826190Y-89615476D01*
X137780952Y-89663095D01*
X137690476Y-89710714D01*
X138504761Y-89282142D02*
X138550000Y-89329761D01*
X138504761Y-89377380D01*
X138459523Y-89329761D01*
X138504761Y-89282142D01*
X138504761Y-89377380D01*
X139364285Y-88710714D02*
X139364285Y-89377380D01*
X138957142Y-88710714D02*
X138957142Y-89234523D01*
X139002380Y-89329761D01*
X139092857Y-89377380D01*
X139228571Y-89377380D01*
X139319047Y-89329761D01*
X139364285Y-89282142D01*
X139771428Y-89329761D02*
X139861904Y-89377380D01*
X140042857Y-89377380D01*
X140133333Y-89329761D01*
X140178571Y-89234523D01*
X140178571Y-89186904D01*
X140133333Y-89091666D01*
X140042857Y-89044047D01*
X139907142Y-89044047D01*
X139816666Y-88996428D01*
X139771428Y-88901190D01*
X139771428Y-88853571D01*
X139816666Y-88758333D01*
X139907142Y-88710714D01*
X140042857Y-88710714D01*
X140133333Y-88758333D01*
D11*
X121375000Y-96327380D02*
X121315476Y-96446428D01*
X121315476Y-96625000D01*
X121375000Y-96803571D01*
X121494047Y-96922619D01*
X121613095Y-96982142D01*
X121851190Y-97041666D01*
X122029761Y-97041666D01*
X122267857Y-96982142D01*
X122386904Y-96922619D01*
X122505952Y-96803571D01*
X122565476Y-96625000D01*
X122565476Y-96505952D01*
X122505952Y-96327380D01*
X122446428Y-96267857D01*
X122029761Y-96267857D01*
X122029761Y-96505952D01*
X122565476Y-95732142D02*
X121315476Y-95732142D01*
X122565476Y-95017857D01*
X121315476Y-95017857D01*
X122565476Y-94422619D02*
X121315476Y-94422619D01*
X121315476Y-94125000D01*
X121375000Y-93946428D01*
X121494047Y-93827380D01*
X121613095Y-93767857D01*
X121851190Y-93708333D01*
X122029761Y-93708333D01*
X122267857Y-93767857D01*
X122386904Y-93827380D01*
X122505952Y-93946428D01*
X122565476Y-94125000D01*
X122565476Y-94422619D01*
X120140476Y-95908333D02*
X119545238Y-96325000D01*
X120140476Y-96622619D02*
X118890476Y-96622619D01*
X118890476Y-96146428D01*
X118950000Y-96027380D01*
X119009523Y-95967857D01*
X119128571Y-95908333D01*
X119307142Y-95908333D01*
X119426190Y-95967857D01*
X119485714Y-96027380D01*
X119545238Y-96146428D01*
X119545238Y-96622619D01*
X118890476Y-95491666D02*
X120140476Y-94658333D01*
X118890476Y-94658333D02*
X120140476Y-95491666D01*
X116340476Y-96677380D02*
X116340476Y-95963095D01*
X117590476Y-96320238D02*
X116340476Y-96320238D01*
X116340476Y-95665476D02*
X117590476Y-94832142D01*
X116340476Y-94832142D02*
X117590476Y-95665476D01*
X107146428Y-96119047D02*
X107205952Y-96178571D01*
X107265476Y-96357142D01*
X107265476Y-96476190D01*
X107205952Y-96654761D01*
X107086904Y-96773809D01*
X106967857Y-96833333D01*
X106729761Y-96892857D01*
X106551190Y-96892857D01*
X106313095Y-96833333D01*
X106194047Y-96773809D01*
X106075000Y-96654761D01*
X106015476Y-96476190D01*
X106015476Y-96357142D01*
X106075000Y-96178571D01*
X106134523Y-96119047D01*
X107265476Y-94988095D02*
X107265476Y-95583333D01*
X106015476Y-95583333D01*
X107265476Y-94571428D02*
X106015476Y-94571428D01*
X107265476Y-93857142D02*
X106551190Y-94392857D01*
X106015476Y-93857142D02*
X106729761Y-94571428D01*
X108575000Y-96152380D02*
X108515476Y-96271428D01*
X108515476Y-96450000D01*
X108575000Y-96628571D01*
X108694047Y-96747619D01*
X108813095Y-96807142D01*
X109051190Y-96866666D01*
X109229761Y-96866666D01*
X109467857Y-96807142D01*
X109586904Y-96747619D01*
X109705952Y-96628571D01*
X109765476Y-96450000D01*
X109765476Y-96330952D01*
X109705952Y-96152380D01*
X109646428Y-96092857D01*
X109229761Y-96092857D01*
X109229761Y-96330952D01*
X109765476Y-95557142D02*
X108515476Y-95557142D01*
X109765476Y-94842857D01*
X108515476Y-94842857D01*
X109765476Y-94247619D02*
X108515476Y-94247619D01*
X108515476Y-93950000D01*
X108575000Y-93771428D01*
X108694047Y-93652380D01*
X108813095Y-93592857D01*
X109051190Y-93533333D01*
X109229761Y-93533333D01*
X109467857Y-93592857D01*
X109586904Y-93652380D01*
X109705952Y-93771428D01*
X109765476Y-93950000D01*
X109765476Y-94247619D01*
X113765476Y-96872619D02*
X113765476Y-96098809D01*
X114241666Y-96515476D01*
X114241666Y-96336904D01*
X114301190Y-96217857D01*
X114360714Y-96158333D01*
X114479761Y-96098809D01*
X114777380Y-96098809D01*
X114896428Y-96158333D01*
X114955952Y-96217857D01*
X115015476Y-96336904D01*
X115015476Y-96694047D01*
X114955952Y-96813095D01*
X114896428Y-96872619D01*
X113765476Y-95741666D02*
X115015476Y-95325000D01*
X113765476Y-94908333D01*
X113765476Y-94610714D02*
X113765476Y-93836904D01*
X114241666Y-94253571D01*
X114241666Y-94075000D01*
X114301190Y-93955952D01*
X114360714Y-93896428D01*
X114479761Y-93836904D01*
X114777380Y-93836904D01*
X114896428Y-93896428D01*
X114955952Y-93955952D01*
X115015476Y-94075000D01*
X115015476Y-94432142D01*
X114955952Y-94551190D01*
X114896428Y-94610714D01*
X104615476Y-96579761D02*
X103365476Y-96579761D01*
X103365476Y-95746428D02*
X103365476Y-95508333D01*
X103425000Y-95389285D01*
X103544047Y-95270238D01*
X103782142Y-95210714D01*
X104198809Y-95210714D01*
X104436904Y-95270238D01*
X104555952Y-95389285D01*
X104615476Y-95508333D01*
X104615476Y-95746428D01*
X104555952Y-95865476D01*
X104436904Y-95984523D01*
X104198809Y-96044047D01*
X103782142Y-96044047D01*
X103544047Y-95984523D01*
X103425000Y-95865476D01*
X103365476Y-95746428D01*
X100915476Y-96897619D02*
X100915476Y-96123809D01*
X101391666Y-96540476D01*
X101391666Y-96361904D01*
X101451190Y-96242857D01*
X101510714Y-96183333D01*
X101629761Y-96123809D01*
X101927380Y-96123809D01*
X102046428Y-96183333D01*
X102105952Y-96242857D01*
X102165476Y-96361904D01*
X102165476Y-96719047D01*
X102105952Y-96838095D01*
X102046428Y-96897619D01*
X100915476Y-95766666D02*
X102165476Y-95350000D01*
X100915476Y-94933333D01*
X100915476Y-94635714D02*
X100915476Y-93861904D01*
X101391666Y-94278571D01*
X101391666Y-94100000D01*
X101451190Y-93980952D01*
X101510714Y-93921428D01*
X101629761Y-93861904D01*
X101927380Y-93861904D01*
X102046428Y-93921428D01*
X102105952Y-93980952D01*
X102165476Y-94100000D01*
X102165476Y-94457142D01*
X102105952Y-94576190D01*
X102046428Y-94635714D01*
D12*
X208561904Y-82040476D02*
X208466666Y-82230952D01*
X208371428Y-82326190D01*
X208180952Y-82421428D01*
X208085714Y-82421428D01*
X207895238Y-82326190D01*
X207800000Y-82230952D01*
X207704761Y-82040476D01*
X207704761Y-81659523D01*
X207800000Y-81469047D01*
X207895238Y-81373809D01*
X208085714Y-81278571D01*
X208180952Y-81278571D01*
X208371428Y-81373809D01*
X208466666Y-81469047D01*
X208561904Y-81659523D01*
X208561904Y-82040476D01*
X208657142Y-82230952D01*
X208752380Y-82326190D01*
X208942857Y-82421428D01*
X209323809Y-82421428D01*
X209514285Y-82326190D01*
X209609523Y-82230952D01*
X209704761Y-82040476D01*
X209704761Y-81659523D01*
X209609523Y-81469047D01*
X209514285Y-81373809D01*
X209323809Y-81278571D01*
X208942857Y-81278571D01*
X208752380Y-81373809D01*
X208657142Y-81469047D01*
X208561904Y-81659523D01*
X187404761Y-82516666D02*
X187404761Y-81183333D01*
X189404761Y-82040476D01*
X166954761Y-81469047D02*
X166954761Y-81850000D01*
X167050000Y-82040476D01*
X167145238Y-82135714D01*
X167430952Y-82326190D01*
X167811904Y-82421428D01*
X168573809Y-82421428D01*
X168764285Y-82326190D01*
X168859523Y-82230952D01*
X168954761Y-82040476D01*
X168954761Y-81659523D01*
X168859523Y-81469047D01*
X168764285Y-81373809D01*
X168573809Y-81278571D01*
X168097619Y-81278571D01*
X167907142Y-81373809D01*
X167811904Y-81469047D01*
X167716666Y-81659523D01*
X167716666Y-82040476D01*
X167811904Y-82230952D01*
X167907142Y-82326190D01*
X168097619Y-82421428D01*
X146654761Y-81373809D02*
X146654761Y-82326190D01*
X147607142Y-82421428D01*
X147511904Y-82326190D01*
X147416666Y-82135714D01*
X147416666Y-81659523D01*
X147511904Y-81469047D01*
X147607142Y-81373809D01*
X147797619Y-81278571D01*
X148273809Y-81278571D01*
X148464285Y-81373809D01*
X148559523Y-81469047D01*
X148654761Y-81659523D01*
X148654761Y-82135714D01*
X148559523Y-82326190D01*
X148464285Y-82421428D01*
X127021428Y-81369047D02*
X128354761Y-81369047D01*
X126259523Y-81845238D02*
X127688095Y-82321428D01*
X127688095Y-81083333D01*
X105954761Y-82616666D02*
X105954761Y-81378571D01*
X106716666Y-82045238D01*
X106716666Y-81759523D01*
X106811904Y-81569047D01*
X106907142Y-81473809D01*
X107097619Y-81378571D01*
X107573809Y-81378571D01*
X107764285Y-81473809D01*
X107859523Y-81569047D01*
X107954761Y-81759523D01*
X107954761Y-82330952D01*
X107859523Y-82521428D01*
X107764285Y-82616666D01*
X85745238Y-82371428D02*
X85650000Y-82276190D01*
X85554761Y-82085714D01*
X85554761Y-81609523D01*
X85650000Y-81419047D01*
X85745238Y-81323809D01*
X85935714Y-81228571D01*
X86126190Y-81228571D01*
X86411904Y-81323809D01*
X87554761Y-82466666D01*
X87554761Y-81228571D01*
D11*
X70246428Y-81908333D02*
X70305952Y-81967857D01*
X70365476Y-82146428D01*
X70365476Y-82265476D01*
X70305952Y-82444047D01*
X70186904Y-82563095D01*
X70067857Y-82622619D01*
X69829761Y-82682142D01*
X69651190Y-82682142D01*
X69413095Y-82622619D01*
X69294047Y-82563095D01*
X69175000Y-82444047D01*
X69115476Y-82265476D01*
X69115476Y-82146428D01*
X69175000Y-81967857D01*
X69234523Y-81908333D01*
X70305952Y-81432142D02*
X70365476Y-81253571D01*
X70365476Y-80955952D01*
X70305952Y-80836904D01*
X70246428Y-80777380D01*
X70127380Y-80717857D01*
X70008333Y-80717857D01*
X69889285Y-80777380D01*
X69829761Y-80836904D01*
X69770238Y-80955952D01*
X69710714Y-81194047D01*
X69651190Y-81313095D01*
X69591666Y-81372619D01*
X69472619Y-81432142D01*
X69353571Y-81432142D01*
X69234523Y-81372619D01*
X69175000Y-81313095D01*
X69115476Y-81194047D01*
X69115476Y-80896428D01*
X69175000Y-80717857D01*
X66805952Y-82939285D02*
X66865476Y-82796428D01*
X66865476Y-82558333D01*
X66805952Y-82463095D01*
X66746428Y-82415476D01*
X66627380Y-82367857D01*
X66508333Y-82367857D01*
X66389285Y-82415476D01*
X66329761Y-82463095D01*
X66270238Y-82558333D01*
X66210714Y-82748809D01*
X66151190Y-82844047D01*
X66091666Y-82891666D01*
X65972619Y-82939285D01*
X65853571Y-82939285D01*
X65734523Y-82891666D01*
X65675000Y-82844047D01*
X65615476Y-82748809D01*
X65615476Y-82510714D01*
X65675000Y-82367857D01*
X66865476Y-81939285D02*
X65615476Y-81939285D01*
X65615476Y-81701190D01*
X65675000Y-81558333D01*
X65794047Y-81463095D01*
X65913095Y-81415476D01*
X66151190Y-81367857D01*
X66329761Y-81367857D01*
X66567857Y-81415476D01*
X66686904Y-81463095D01*
X66805952Y-81558333D01*
X66865476Y-81701190D01*
X66865476Y-81939285D01*
X66508333Y-80986904D02*
X66508333Y-80510714D01*
X66865476Y-81082142D02*
X65615476Y-80748809D01*
X66865476Y-80415476D01*
X63330952Y-82815476D02*
X63390476Y-82672619D01*
X63390476Y-82434523D01*
X63330952Y-82339285D01*
X63271428Y-82291666D01*
X63152380Y-82244047D01*
X63033333Y-82244047D01*
X62914285Y-82291666D01*
X62854761Y-82339285D01*
X62795238Y-82434523D01*
X62735714Y-82625000D01*
X62676190Y-82720238D01*
X62616666Y-82767857D01*
X62497619Y-82815476D01*
X62378571Y-82815476D01*
X62259523Y-82767857D01*
X62200000Y-82720238D01*
X62140476Y-82625000D01*
X62140476Y-82386904D01*
X62200000Y-82244047D01*
X63271428Y-81244047D02*
X63330952Y-81291666D01*
X63390476Y-81434523D01*
X63390476Y-81529761D01*
X63330952Y-81672619D01*
X63211904Y-81767857D01*
X63092857Y-81815476D01*
X62854761Y-81863095D01*
X62676190Y-81863095D01*
X62438095Y-81815476D01*
X62319047Y-81767857D01*
X62200000Y-81672619D01*
X62140476Y-81529761D01*
X62140476Y-81434523D01*
X62200000Y-81291666D01*
X62259523Y-81244047D01*
X63390476Y-80339285D02*
X63390476Y-80815476D01*
X62140476Y-80815476D01*
X72725000Y-83702380D02*
X72665476Y-83821428D01*
X72665476Y-84000000D01*
X72725000Y-84178571D01*
X72844047Y-84297619D01*
X72963095Y-84357142D01*
X73201190Y-84416666D01*
X73379761Y-84416666D01*
X73617857Y-84357142D01*
X73736904Y-84297619D01*
X73855952Y-84178571D01*
X73915476Y-84000000D01*
X73915476Y-83880952D01*
X73855952Y-83702380D01*
X73796428Y-83642857D01*
X73379761Y-83642857D01*
X73379761Y-83880952D01*
X73915476Y-83107142D02*
X72665476Y-83107142D01*
X73915476Y-82392857D01*
X72665476Y-82392857D01*
X73915476Y-81797619D02*
X72665476Y-81797619D01*
X72665476Y-81500000D01*
X72725000Y-81321428D01*
X72844047Y-81202380D01*
X72963095Y-81142857D01*
X73201190Y-81083333D01*
X73379761Y-81083333D01*
X73617857Y-81142857D01*
X73736904Y-81202380D01*
X73855952Y-81321428D01*
X73915476Y-81500000D01*
X73915476Y-81797619D01*
X59840476Y-82394047D02*
X59840476Y-82965476D01*
X59840476Y-82679761D02*
X58590476Y-82679761D01*
X58769047Y-82775000D01*
X58888095Y-82870238D01*
X58947619Y-82965476D01*
X58709523Y-82013095D02*
X58650000Y-81965476D01*
X58590476Y-81870238D01*
X58590476Y-81632142D01*
X58650000Y-81536904D01*
X58709523Y-81489285D01*
X58828571Y-81441666D01*
X58947619Y-81441666D01*
X59126190Y-81489285D01*
X59840476Y-82060714D01*
X59840476Y-81441666D01*
X58590476Y-81155952D02*
X59840476Y-80822619D01*
X58590476Y-80489285D01*
X73030952Y-92065476D02*
X73447619Y-93315476D01*
X73864285Y-92065476D01*
X74280952Y-93315476D02*
X74280952Y-92065476D01*
X74876190Y-93315476D02*
X74876190Y-92065476D01*
X75590476Y-93315476D01*
X75590476Y-92065476D01*
X78047619Y-92075000D02*
X77928571Y-92015476D01*
X77750000Y-92015476D01*
X77571428Y-92075000D01*
X77452380Y-92194047D01*
X77392857Y-92313095D01*
X77333333Y-92551190D01*
X77333333Y-92729761D01*
X77392857Y-92967857D01*
X77452380Y-93086904D01*
X77571428Y-93205952D01*
X77750000Y-93265476D01*
X77869047Y-93265476D01*
X78047619Y-93205952D01*
X78107142Y-93146428D01*
X78107142Y-92729761D01*
X77869047Y-92729761D01*
X78642857Y-93265476D02*
X78642857Y-92015476D01*
X79357142Y-93265476D01*
X79357142Y-92015476D01*
X79952380Y-93265476D02*
X79952380Y-92015476D01*
X80250000Y-92015476D01*
X80428571Y-92075000D01*
X80547619Y-92194047D01*
X80607142Y-92313095D01*
X80666666Y-92551190D01*
X80666666Y-92729761D01*
X80607142Y-92967857D01*
X80547619Y-93086904D01*
X80428571Y-93205952D01*
X80250000Y-93265476D01*
X79952380Y-93265476D01*
X64297619Y-92575000D02*
X64178571Y-92515476D01*
X64000000Y-92515476D01*
X63821428Y-92575000D01*
X63702380Y-92694047D01*
X63642857Y-92813095D01*
X63583333Y-93051190D01*
X63583333Y-93229761D01*
X63642857Y-93467857D01*
X63702380Y-93586904D01*
X63821428Y-93705952D01*
X64000000Y-93765476D01*
X64119047Y-93765476D01*
X64297619Y-93705952D01*
X64357142Y-93646428D01*
X64357142Y-93229761D01*
X64119047Y-93229761D01*
X64892857Y-93765476D02*
X64892857Y-92515476D01*
X65607142Y-93765476D01*
X65607142Y-92515476D01*
X66202380Y-93765476D02*
X66202380Y-92515476D01*
X66500000Y-92515476D01*
X66678571Y-92575000D01*
X66797619Y-92694047D01*
X66857142Y-92813095D01*
X66916666Y-93051190D01*
X66916666Y-93229761D01*
X66857142Y-93467857D01*
X66797619Y-93586904D01*
X66678571Y-93705952D01*
X66500000Y-93765476D01*
X66202380Y-93765476D01*
X60151190Y-93440476D02*
X59436904Y-93440476D01*
X59794047Y-93440476D02*
X59794047Y-92190476D01*
X59675000Y-92369047D01*
X59555952Y-92488095D01*
X59436904Y-92547619D01*
X60627380Y-92309523D02*
X60686904Y-92250000D01*
X60805952Y-92190476D01*
X61103571Y-92190476D01*
X61222619Y-92250000D01*
X61282142Y-92309523D01*
X61341666Y-92428571D01*
X61341666Y-92547619D01*
X61282142Y-92726190D01*
X60567857Y-93440476D01*
X61341666Y-93440476D01*
X61698809Y-92190476D02*
X62115476Y-93440476D01*
X62532142Y-92190476D01*
D13*
X84900000Y-92125000D02*
X88800000Y-92125000D01*
X84900000Y-94125000D02*
X88800000Y-94125000D01*
X84900000Y-92125000D02*
X84900000Y-94125000D01*
X62750000Y-91425000D02*
X58850000Y-91425000D01*
X62750000Y-89425000D02*
X58850000Y-89425000D01*
X62750000Y-91425000D02*
X62750000Y-89425000D01*
X62990000Y-85950000D02*
X62990000Y-88400000D01*
X66210000Y-87750000D02*
X66210000Y-85950000D01*
X66500279Y-83615000D02*
X66174721Y-83615000D01*
X66500279Y-84635000D02*
X66174721Y-84635000D01*
X102040000Y-87091422D02*
X102040000Y-87608578D01*
X103460000Y-87091422D02*
X103460000Y-87608578D01*
X104040000Y-87091422D02*
X104040000Y-87608578D01*
X105460000Y-87091422D02*
X105460000Y-87608578D01*
X216050000Y-80715000D02*
X215450000Y-80715000D01*
X215750000Y-80115000D02*
X216050000Y-80715000D01*
X215450000Y-80715000D02*
X215750000Y-80115000D01*
X218310000Y-73315000D02*
X199190000Y-73315000D01*
X204200000Y-79425000D02*
X202800000Y-79425000D01*
X207700000Y-79425000D02*
X206300000Y-79425000D01*
X211200000Y-79425000D02*
X209800000Y-79425000D01*
X214700000Y-79425000D02*
X213300000Y-79425000D01*
X199190000Y-79425000D02*
X200700000Y-79425000D01*
X218310000Y-79425000D02*
X216800000Y-79425000D01*
X199190000Y-70005000D02*
X199190000Y-79425000D01*
X218310000Y-70005000D02*
X199190000Y-70005000D01*
X218310000Y-79425000D02*
X218310000Y-70005000D01*
X195692852Y-80715000D02*
X195092852Y-80715000D01*
X195392852Y-80115000D02*
X195692852Y-80715000D01*
X195092852Y-80715000D02*
X195392852Y-80115000D01*
X197952852Y-73315000D02*
X178832852Y-73315000D01*
X183842852Y-79425000D02*
X182442852Y-79425000D01*
X187342852Y-79425000D02*
X185942852Y-79425000D01*
X190842852Y-79425000D02*
X189442852Y-79425000D01*
X194342852Y-79425000D02*
X192942852Y-79425000D01*
X178832852Y-79425000D02*
X180342852Y-79425000D01*
X197952852Y-79425000D02*
X196442852Y-79425000D01*
X178832852Y-70005000D02*
X178832852Y-79425000D01*
X197952852Y-70005000D02*
X178832852Y-70005000D01*
X197952852Y-79425000D02*
X197952852Y-70005000D01*
X175335710Y-80715000D02*
X174735710Y-80715000D01*
X175035710Y-80115000D02*
X175335710Y-80715000D01*
X174735710Y-80715000D02*
X175035710Y-80115000D01*
X177595710Y-73315000D02*
X158475710Y-73315000D01*
X163485710Y-79425000D02*
X162085710Y-79425000D01*
X166985710Y-79425000D02*
X165585710Y-79425000D01*
X170485710Y-79425000D02*
X169085710Y-79425000D01*
X173985710Y-79425000D02*
X172585710Y-79425000D01*
X158475710Y-79425000D02*
X159985710Y-79425000D01*
X177595710Y-79425000D02*
X176085710Y-79425000D01*
X158475710Y-70005000D02*
X158475710Y-79425000D01*
X177595710Y-70005000D02*
X158475710Y-70005000D01*
X177595710Y-79425000D02*
X177595710Y-70005000D01*
X154978568Y-80715000D02*
X154378568Y-80715000D01*
X154678568Y-80115000D02*
X154978568Y-80715000D01*
X154378568Y-80715000D02*
X154678568Y-80115000D01*
X157238568Y-73315000D02*
X138118568Y-73315000D01*
X143128568Y-79425000D02*
X141728568Y-79425000D01*
X146628568Y-79425000D02*
X145228568Y-79425000D01*
X150128568Y-79425000D02*
X148728568Y-79425000D01*
X153628568Y-79425000D02*
X152228568Y-79425000D01*
X138118568Y-79425000D02*
X139628568Y-79425000D01*
X157238568Y-79425000D02*
X155728568Y-79425000D01*
X138118568Y-70005000D02*
X138118568Y-79425000D01*
X157238568Y-70005000D02*
X138118568Y-70005000D01*
X157238568Y-79425000D02*
X157238568Y-70005000D01*
X134621426Y-80715000D02*
X134021426Y-80715000D01*
X134321426Y-80115000D02*
X134621426Y-80715000D01*
X134021426Y-80715000D02*
X134321426Y-80115000D01*
X136881426Y-73315000D02*
X117761426Y-73315000D01*
X122771426Y-79425000D02*
X121371426Y-79425000D01*
X126271426Y-79425000D02*
X124871426Y-79425000D01*
X129771426Y-79425000D02*
X128371426Y-79425000D01*
X133271426Y-79425000D02*
X131871426Y-79425000D01*
X117761426Y-79425000D02*
X119271426Y-79425000D01*
X136881426Y-79425000D02*
X135371426Y-79425000D01*
X117761426Y-70005000D02*
X117761426Y-79425000D01*
X136881426Y-70005000D02*
X117761426Y-70005000D01*
X136881426Y-79425000D02*
X136881426Y-70005000D01*
X114264284Y-80715000D02*
X113664284Y-80715000D01*
X113964284Y-80115000D02*
X114264284Y-80715000D01*
X113664284Y-80715000D02*
X113964284Y-80115000D01*
X116524284Y-73315000D02*
X97404284Y-73315000D01*
X102414284Y-79425000D02*
X101014284Y-79425000D01*
X105914284Y-79425000D02*
X104514284Y-79425000D01*
X109414284Y-79425000D02*
X108014284Y-79425000D01*
X112914284Y-79425000D02*
X111514284Y-79425000D01*
X97404284Y-79425000D02*
X98914284Y-79425000D01*
X116524284Y-79425000D02*
X115014284Y-79425000D01*
X97404284Y-70005000D02*
X97404284Y-79425000D01*
X116524284Y-70005000D02*
X97404284Y-70005000D01*
X116524284Y-79425000D02*
X116524284Y-70005000D01*
X93907142Y-80715000D02*
X93307142Y-80715000D01*
X93607142Y-80115000D02*
X93907142Y-80715000D01*
X93307142Y-80715000D02*
X93607142Y-80115000D01*
X96167142Y-73315000D02*
X77047142Y-73315000D01*
X82057142Y-79425000D02*
X80657142Y-79425000D01*
X85557142Y-79425000D02*
X84157142Y-79425000D01*
X89057142Y-79425000D02*
X87657142Y-79425000D01*
X92557142Y-79425000D02*
X91157142Y-79425000D01*
X77047142Y-79425000D02*
X78557142Y-79425000D01*
X96167142Y-79425000D02*
X94657142Y-79425000D01*
X77047142Y-70005000D02*
X77047142Y-79425000D01*
X96167142Y-70005000D02*
X77047142Y-70005000D01*
X96167142Y-79425000D02*
X96167142Y-70005000D01*
X73550000Y-80715000D02*
X72950000Y-80715000D01*
X73250000Y-80115000D02*
X73550000Y-80715000D01*
X72950000Y-80715000D02*
X73250000Y-80115000D01*
X75810000Y-73315000D02*
X56690000Y-73315000D01*
X61700000Y-79425000D02*
X60300000Y-79425000D01*
X65200000Y-79425000D02*
X63800000Y-79425000D01*
X68700000Y-79425000D02*
X67300000Y-79425000D01*
X72200000Y-79425000D02*
X70800000Y-79425000D01*
X56690000Y-79425000D02*
X58200000Y-79425000D01*
X75810000Y-79425000D02*
X74300000Y-79425000D01*
X56690000Y-70005000D02*
X56690000Y-79425000D01*
X75810000Y-70005000D02*
X56690000Y-70005000D01*
X75810000Y-79425000D02*
X75810000Y-70005000D01*
X150940000Y-90750000D02*
X150940000Y-94200000D01*
X150940000Y-90750000D02*
X150940000Y-88800000D01*
X161060000Y-90750000D02*
X161060000Y-92700000D01*
X161060000Y-90750000D02*
X161060000Y-88800000D01*
X195790000Y-90650000D02*
X195790000Y-94100000D01*
X195790000Y-90650000D02*
X195790000Y-88700000D01*
X205910000Y-90650000D02*
X205910000Y-92600000D01*
X205910000Y-90650000D02*
X205910000Y-88700000D01*
X113935000Y-92060000D02*
X114410000Y-92060000D01*
X109190000Y-86840000D02*
X109190000Y-87315000D01*
X109665000Y-86840000D02*
X109190000Y-86840000D01*
X114410000Y-86840000D02*
X114410000Y-87315000D01*
X113935000Y-86840000D02*
X114410000Y-86840000D01*
X109190000Y-92060000D02*
X109190000Y-91585000D01*
X109665000Y-92060000D02*
X109190000Y-92060000D01*
X173365000Y-90650000D02*
X173365000Y-94100000D01*
X173365000Y-90650000D02*
X173365000Y-88700000D01*
X183485000Y-90650000D02*
X183485000Y-92600000D01*
X183485000Y-90650000D02*
X183485000Y-88700000D01*
X118841422Y-88160000D02*
X119358578Y-88160000D01*
X118841422Y-86740000D02*
X119358578Y-86740000D01*
X77890000Y-88841422D02*
X77890000Y-89358578D01*
X79310000Y-88841422D02*
X79310000Y-89358578D01*
X75591422Y-90710000D02*
X76108578Y-90710000D01*
X75591422Y-89290000D02*
X76108578Y-89290000D01*
X92958578Y-92740000D02*
X92441422Y-92740000D01*
X92958578Y-94160000D02*
X92441422Y-94160000D01*
X118760000Y-91958578D02*
X118760000Y-91441422D01*
X117340000Y-91958578D02*
X117340000Y-91441422D01*
X74600000Y-93700000D02*
X75200000Y-93700000D01*
X74900000Y-94300000D02*
X74600000Y-93700000D01*
X75200000Y-93700000D02*
X74900000Y-94300000D01*
X72340000Y-101100000D02*
X80960000Y-101100000D01*
X75950000Y-94990000D02*
X77350000Y-94990000D01*
X80960000Y-94990000D02*
X79450000Y-94990000D01*
X72340000Y-94990000D02*
X73850000Y-94990000D01*
X80960000Y-104410000D02*
X80960000Y-94990000D01*
X72340000Y-104410000D02*
X80960000Y-104410000D01*
X72340000Y-94990000D02*
X72340000Y-104410000D01*
X89600000Y-95037500D02*
X89600000Y-95487500D01*
X89600000Y-95037500D02*
X90050000Y-95037500D01*
X95200000Y-95587500D02*
X94750000Y-95587500D01*
X95200000Y-97437500D02*
X95200000Y-95587500D01*
X87400000Y-99987500D02*
X87400000Y-99737500D01*
X95200000Y-99987500D02*
X95200000Y-99737500D01*
X87400000Y-97437500D02*
X87400000Y-95587500D01*
X87400000Y-95587500D02*
X87850000Y-95587500D01*
X113020000Y-99830000D02*
X113020000Y-98500000D01*
X114350000Y-99830000D02*
X113020000Y-99830000D01*
X115620000Y-99830000D02*
X115620000Y-97170000D01*
X115620000Y-97170000D02*
X123300000Y-97170000D01*
X115620000Y-99830000D02*
X123300000Y-99830000D01*
X123300000Y-99830000D02*
X123300000Y-97170000D01*
X100170000Y-99830000D02*
X100170000Y-98500000D01*
X101500000Y-99830000D02*
X100170000Y-99830000D01*
X102770000Y-99830000D02*
X102770000Y-97170000D01*
X102770000Y-97170000D02*
X110450000Y-97170000D01*
X102770000Y-99830000D02*
X110450000Y-99830000D01*
X110450000Y-99830000D02*
X110450000Y-97170000D01*
X61100000Y-93700000D02*
X61700000Y-93700000D01*
X61400000Y-94300000D02*
X61100000Y-93700000D01*
X61700000Y-93700000D02*
X61400000Y-94300000D01*
X58840000Y-101100000D02*
X67460000Y-101100000D01*
X62450000Y-94990000D02*
X63850000Y-94990000D01*
X67460000Y-94990000D02*
X65950000Y-94990000D01*
X58840000Y-94990000D02*
X60350000Y-94990000D01*
X67460000Y-104410000D02*
X67460000Y-94990000D01*
X58840000Y-104410000D02*
X67460000Y-104410000D01*
X58840000Y-94990000D02*
X58840000Y-104410000D01*
X119112779Y-85290000D02*
X118787221Y-85290000D01*
X119112779Y-86310000D02*
X118787221Y-86310000D01*
X150510000Y-89212779D02*
X150510000Y-88887221D01*
X149490000Y-89212779D02*
X149490000Y-88887221D01*
X80940000Y-89049721D02*
X80940000Y-89375279D01*
X81960000Y-89049721D02*
X81960000Y-89375279D01*
X195310000Y-89112779D02*
X195310000Y-88787221D01*
X194290000Y-89112779D02*
X194290000Y-88787221D01*
X172910000Y-89112779D02*
X172910000Y-88787221D01*
X171890000Y-89112779D02*
X171890000Y-88787221D01*
X61383578Y-84865000D02*
X60866422Y-84865000D01*
X61383578Y-86285000D02*
X60866422Y-86285000D01*
X61383578Y-87465000D02*
X60866422Y-87465000D01*
X61383578Y-88885000D02*
X60866422Y-88885000D01*
X117637221Y-89710000D02*
X117962779Y-89710000D01*
X117637221Y-88690000D02*
X117962779Y-88690000D01*
X108360000Y-87062779D02*
X108360000Y-86737221D01*
X107340000Y-87062779D02*
X107340000Y-86737221D01*
X115190000Y-91837221D02*
X115190000Y-92162779D01*
X116210000Y-91837221D02*
X116210000Y-92162779D01*
D10*
X86522619Y-91734523D02*
X86522619Y-90884523D01*
X86725000Y-90884523D01*
X86846428Y-90925000D01*
X86927380Y-91005952D01*
X86967857Y-91086904D01*
X87008333Y-91248809D01*
X87008333Y-91370238D01*
X86967857Y-91532142D01*
X86927380Y-91613095D01*
X86846428Y-91694047D01*
X86725000Y-91734523D01*
X86522619Y-91734523D01*
X87332142Y-90965476D02*
X87372619Y-90925000D01*
X87453571Y-90884523D01*
X87655952Y-90884523D01*
X87736904Y-90925000D01*
X87777380Y-90965476D01*
X87817857Y-91046428D01*
X87817857Y-91127380D01*
X87777380Y-91248809D01*
X87291666Y-91734523D01*
X87817857Y-91734523D01*
X63072619Y-90834523D02*
X63072619Y-89984523D01*
X63275000Y-89984523D01*
X63396428Y-90025000D01*
X63477380Y-90105952D01*
X63517857Y-90186904D01*
X63558333Y-90348809D01*
X63558333Y-90470238D01*
X63517857Y-90632142D01*
X63477380Y-90713095D01*
X63396428Y-90794047D01*
X63275000Y-90834523D01*
X63072619Y-90834523D01*
X64367857Y-90834523D02*
X63882142Y-90834523D01*
X64125000Y-90834523D02*
X64125000Y-89984523D01*
X64044047Y-90105952D01*
X63963095Y-90186904D01*
X63882142Y-90227380D01*
X66509523Y-86547619D02*
X67197619Y-86547619D01*
X67278571Y-86507142D01*
X67319047Y-86466666D01*
X67359523Y-86385714D01*
X67359523Y-86223809D01*
X67319047Y-86142857D01*
X67278571Y-86102380D01*
X67197619Y-86061904D01*
X66509523Y-86061904D01*
X67359523Y-85211904D02*
X67359523Y-85697619D01*
X67359523Y-85454761D02*
X66509523Y-85454761D01*
X66630952Y-85535714D01*
X66711904Y-85616666D01*
X66752380Y-85697619D01*
X68753571Y-84428571D02*
X68713095Y-84469047D01*
X68591666Y-84509523D01*
X68510714Y-84509523D01*
X68389285Y-84469047D01*
X68308333Y-84388095D01*
X68267857Y-84307142D01*
X68227380Y-84145238D01*
X68227380Y-84023809D01*
X68267857Y-83861904D01*
X68308333Y-83780952D01*
X68389285Y-83700000D01*
X68510714Y-83659523D01*
X68591666Y-83659523D01*
X68713095Y-83700000D01*
X68753571Y-83740476D01*
X69563095Y-84509523D02*
X69077380Y-84509523D01*
X69320238Y-84509523D02*
X69320238Y-83659523D01*
X69239285Y-83780952D01*
X69158333Y-83861904D01*
X69077380Y-83902380D01*
X70372619Y-84509523D02*
X69886904Y-84509523D01*
X70129761Y-84509523D02*
X70129761Y-83659523D01*
X70048809Y-83780952D01*
X69967857Y-83861904D01*
X69886904Y-83902380D01*
X101734523Y-87441666D02*
X101329761Y-87725000D01*
X101734523Y-87927380D02*
X100884523Y-87927380D01*
X100884523Y-87603571D01*
X100925000Y-87522619D01*
X100965476Y-87482142D01*
X101046428Y-87441666D01*
X101167857Y-87441666D01*
X101248809Y-87482142D01*
X101289285Y-87522619D01*
X101329761Y-87603571D01*
X101329761Y-87927380D01*
X100884523Y-87158333D02*
X100884523Y-86591666D01*
X101734523Y-86955952D01*
X105084523Y-89791666D02*
X104679761Y-90075000D01*
X105084523Y-90277380D02*
X104234523Y-90277380D01*
X104234523Y-89953571D01*
X104275000Y-89872619D01*
X104315476Y-89832142D01*
X104396428Y-89791666D01*
X104517857Y-89791666D01*
X104598809Y-89832142D01*
X104639285Y-89872619D01*
X104679761Y-89953571D01*
X104679761Y-90277380D01*
X104234523Y-89063095D02*
X104234523Y-89225000D01*
X104275000Y-89305952D01*
X104315476Y-89346428D01*
X104436904Y-89427380D01*
X104598809Y-89467857D01*
X104922619Y-89467857D01*
X105003571Y-89427380D01*
X105044047Y-89386904D01*
X105084523Y-89305952D01*
X105084523Y-89144047D01*
X105044047Y-89063095D01*
X105003571Y-89022619D01*
X104922619Y-88982142D01*
X104720238Y-88982142D01*
X104639285Y-89022619D01*
X104598809Y-89063095D01*
X104558333Y-89144047D01*
X104558333Y-89305952D01*
X104598809Y-89386904D01*
X104639285Y-89427380D01*
X104720238Y-89467857D01*
X199384523Y-81488095D02*
X199991666Y-81488095D01*
X200113095Y-81528571D01*
X200194047Y-81609523D01*
X200234523Y-81730952D01*
X200234523Y-81811904D01*
X200234523Y-80638095D02*
X200234523Y-81123809D01*
X200234523Y-80880952D02*
X199384523Y-80880952D01*
X199505952Y-80961904D01*
X199586904Y-81042857D01*
X199627380Y-81123809D01*
X199384523Y-80354761D02*
X199384523Y-79828571D01*
X199708333Y-80111904D01*
X199708333Y-79990476D01*
X199748809Y-79909523D01*
X199789285Y-79869047D01*
X199870238Y-79828571D01*
X200072619Y-79828571D01*
X200153571Y-79869047D01*
X200194047Y-79909523D01*
X200234523Y-79990476D01*
X200234523Y-80233333D01*
X200194047Y-80314285D01*
X200153571Y-80354761D01*
X179084523Y-81538095D02*
X179691666Y-81538095D01*
X179813095Y-81578571D01*
X179894047Y-81659523D01*
X179934523Y-81780952D01*
X179934523Y-81861904D01*
X179934523Y-80688095D02*
X179934523Y-81173809D01*
X179934523Y-80930952D02*
X179084523Y-80930952D01*
X179205952Y-81011904D01*
X179286904Y-81092857D01*
X179327380Y-81173809D01*
X179165476Y-80364285D02*
X179125000Y-80323809D01*
X179084523Y-80242857D01*
X179084523Y-80040476D01*
X179125000Y-79959523D01*
X179165476Y-79919047D01*
X179246428Y-79878571D01*
X179327380Y-79878571D01*
X179448809Y-79919047D01*
X179934523Y-80404761D01*
X179934523Y-79878571D01*
X158584523Y-81388095D02*
X159191666Y-81388095D01*
X159313095Y-81428571D01*
X159394047Y-81509523D01*
X159434523Y-81630952D01*
X159434523Y-81711904D01*
X159434523Y-80538095D02*
X159434523Y-81023809D01*
X159434523Y-80780952D02*
X158584523Y-80780952D01*
X158705952Y-80861904D01*
X158786904Y-80942857D01*
X158827380Y-81023809D01*
X159434523Y-79728571D02*
X159434523Y-80214285D01*
X159434523Y-79971428D02*
X158584523Y-79971428D01*
X158705952Y-80052380D01*
X158786904Y-80133333D01*
X158827380Y-80214285D01*
X138284523Y-81388095D02*
X138891666Y-81388095D01*
X139013095Y-81428571D01*
X139094047Y-81509523D01*
X139134523Y-81630952D01*
X139134523Y-81711904D01*
X139134523Y-80538095D02*
X139134523Y-81023809D01*
X139134523Y-80780952D02*
X138284523Y-80780952D01*
X138405952Y-80861904D01*
X138486904Y-80942857D01*
X138527380Y-81023809D01*
X138284523Y-80011904D02*
X138284523Y-79930952D01*
X138325000Y-79850000D01*
X138365476Y-79809523D01*
X138446428Y-79769047D01*
X138608333Y-79728571D01*
X138810714Y-79728571D01*
X138972619Y-79769047D01*
X139053571Y-79809523D01*
X139094047Y-79850000D01*
X139134523Y-79930952D01*
X139134523Y-80011904D01*
X139094047Y-80092857D01*
X139053571Y-80133333D01*
X138972619Y-80173809D01*
X138810714Y-80214285D01*
X138608333Y-80214285D01*
X138446428Y-80173809D01*
X138365476Y-80133333D01*
X138325000Y-80092857D01*
X138284523Y-80011904D01*
X117884523Y-80883333D02*
X118491666Y-80883333D01*
X118613095Y-80923809D01*
X118694047Y-81004761D01*
X118734523Y-81126190D01*
X118734523Y-81207142D01*
X118734523Y-80438095D02*
X118734523Y-80276190D01*
X118694047Y-80195238D01*
X118653571Y-80154761D01*
X118532142Y-80073809D01*
X118370238Y-80033333D01*
X118046428Y-80033333D01*
X117965476Y-80073809D01*
X117925000Y-80114285D01*
X117884523Y-80195238D01*
X117884523Y-80357142D01*
X117925000Y-80438095D01*
X117965476Y-80478571D01*
X118046428Y-80519047D01*
X118248809Y-80519047D01*
X118329761Y-80478571D01*
X118370238Y-80438095D01*
X118410714Y-80357142D01*
X118410714Y-80195238D01*
X118370238Y-80114285D01*
X118329761Y-80073809D01*
X118248809Y-80033333D01*
X97534523Y-80733333D02*
X98141666Y-80733333D01*
X98263095Y-80773809D01*
X98344047Y-80854761D01*
X98384523Y-80976190D01*
X98384523Y-81057142D01*
X97898809Y-80207142D02*
X97858333Y-80288095D01*
X97817857Y-80328571D01*
X97736904Y-80369047D01*
X97696428Y-80369047D01*
X97615476Y-80328571D01*
X97575000Y-80288095D01*
X97534523Y-80207142D01*
X97534523Y-80045238D01*
X97575000Y-79964285D01*
X97615476Y-79923809D01*
X97696428Y-79883333D01*
X97736904Y-79883333D01*
X97817857Y-79923809D01*
X97858333Y-79964285D01*
X97898809Y-80045238D01*
X97898809Y-80207142D01*
X97939285Y-80288095D01*
X97979761Y-80328571D01*
X98060714Y-80369047D01*
X98222619Y-80369047D01*
X98303571Y-80328571D01*
X98344047Y-80288095D01*
X98384523Y-80207142D01*
X98384523Y-80045238D01*
X98344047Y-79964285D01*
X98303571Y-79923809D01*
X98222619Y-79883333D01*
X98060714Y-79883333D01*
X97979761Y-79923809D01*
X97939285Y-79964285D01*
X97898809Y-80045238D01*
X77084523Y-80633333D02*
X77691666Y-80633333D01*
X77813095Y-80673809D01*
X77894047Y-80754761D01*
X77934523Y-80876190D01*
X77934523Y-80957142D01*
X77084523Y-79823809D02*
X77084523Y-80228571D01*
X77489285Y-80269047D01*
X77448809Y-80228571D01*
X77408333Y-80147619D01*
X77408333Y-79945238D01*
X77448809Y-79864285D01*
X77489285Y-79823809D01*
X77570238Y-79783333D01*
X77772619Y-79783333D01*
X77853571Y-79823809D01*
X77894047Y-79864285D01*
X77934523Y-79945238D01*
X77934523Y-80147619D01*
X77894047Y-80228571D01*
X77853571Y-80269047D01*
X56834523Y-80733333D02*
X57441666Y-80733333D01*
X57563095Y-80773809D01*
X57644047Y-80854761D01*
X57684523Y-80976190D01*
X57684523Y-81057142D01*
X56915476Y-80369047D02*
X56875000Y-80328571D01*
X56834523Y-80247619D01*
X56834523Y-80045238D01*
X56875000Y-79964285D01*
X56915476Y-79923809D01*
X56996428Y-79883333D01*
X57077380Y-79883333D01*
X57198809Y-79923809D01*
X57684523Y-80409523D01*
X57684523Y-79883333D01*
X149684523Y-94047619D02*
X150372619Y-94047619D01*
X150453571Y-94007142D01*
X150494047Y-93966666D01*
X150534523Y-93885714D01*
X150534523Y-93723809D01*
X150494047Y-93642857D01*
X150453571Y-93602380D01*
X150372619Y-93561904D01*
X149684523Y-93561904D01*
X149684523Y-92752380D02*
X149684523Y-93157142D01*
X150089285Y-93197619D01*
X150048809Y-93157142D01*
X150008333Y-93076190D01*
X150008333Y-92873809D01*
X150048809Y-92792857D01*
X150089285Y-92752380D01*
X150170238Y-92711904D01*
X150372619Y-92711904D01*
X150453571Y-92752380D01*
X150494047Y-92792857D01*
X150534523Y-92873809D01*
X150534523Y-93076190D01*
X150494047Y-93157142D01*
X150453571Y-93197619D01*
X194634523Y-93997619D02*
X195322619Y-93997619D01*
X195403571Y-93957142D01*
X195444047Y-93916666D01*
X195484523Y-93835714D01*
X195484523Y-93673809D01*
X195444047Y-93592857D01*
X195403571Y-93552380D01*
X195322619Y-93511904D01*
X194634523Y-93511904D01*
X194917857Y-92742857D02*
X195484523Y-92742857D01*
X194594047Y-92945238D02*
X195201190Y-93147619D01*
X195201190Y-92621428D01*
X111152380Y-92804523D02*
X111152380Y-93492619D01*
X111192857Y-93573571D01*
X111233333Y-93614047D01*
X111314285Y-93654523D01*
X111476190Y-93654523D01*
X111557142Y-93614047D01*
X111597619Y-93573571D01*
X111638095Y-93492619D01*
X111638095Y-92804523D01*
X111961904Y-92804523D02*
X112488095Y-92804523D01*
X112204761Y-93128333D01*
X112326190Y-93128333D01*
X112407142Y-93168809D01*
X112447619Y-93209285D01*
X112488095Y-93290238D01*
X112488095Y-93492619D01*
X112447619Y-93573571D01*
X112407142Y-93614047D01*
X112326190Y-93654523D01*
X112083333Y-93654523D01*
X112002380Y-93614047D01*
X111961904Y-93573571D01*
X172184523Y-93797619D02*
X172872619Y-93797619D01*
X172953571Y-93757142D01*
X172994047Y-93716666D01*
X173034523Y-93635714D01*
X173034523Y-93473809D01*
X172994047Y-93392857D01*
X172953571Y-93352380D01*
X172872619Y-93311904D01*
X172184523Y-93311904D01*
X172265476Y-92947619D02*
X172225000Y-92907142D01*
X172184523Y-92826190D01*
X172184523Y-92623809D01*
X172225000Y-92542857D01*
X172265476Y-92502380D01*
X172346428Y-92461904D01*
X172427380Y-92461904D01*
X172548809Y-92502380D01*
X173034523Y-92988095D01*
X173034523Y-92461904D01*
X121308333Y-87884523D02*
X121025000Y-87479761D01*
X120822619Y-87884523D02*
X120822619Y-87034523D01*
X121146428Y-87034523D01*
X121227380Y-87075000D01*
X121267857Y-87115476D01*
X121308333Y-87196428D01*
X121308333Y-87317857D01*
X121267857Y-87398809D01*
X121227380Y-87439285D01*
X121146428Y-87479761D01*
X120822619Y-87479761D01*
X122077380Y-87034523D02*
X121672619Y-87034523D01*
X121632142Y-87439285D01*
X121672619Y-87398809D01*
X121753571Y-87358333D01*
X121955952Y-87358333D01*
X122036904Y-87398809D01*
X122077380Y-87439285D01*
X122117857Y-87520238D01*
X122117857Y-87722619D01*
X122077380Y-87803571D01*
X122036904Y-87844047D01*
X121955952Y-87884523D01*
X121753571Y-87884523D01*
X121672619Y-87844047D01*
X121632142Y-87803571D01*
X80484523Y-89241666D02*
X80079761Y-89525000D01*
X80484523Y-89727380D02*
X79634523Y-89727380D01*
X79634523Y-89403571D01*
X79675000Y-89322619D01*
X79715476Y-89282142D01*
X79796428Y-89241666D01*
X79917857Y-89241666D01*
X79998809Y-89282142D01*
X80039285Y-89322619D01*
X80079761Y-89403571D01*
X80079761Y-89727380D01*
X79917857Y-88513095D02*
X80484523Y-88513095D01*
X79594047Y-88715476D02*
X80201190Y-88917857D01*
X80201190Y-88391666D01*
X75708333Y-88734523D02*
X75425000Y-88329761D01*
X75222619Y-88734523D02*
X75222619Y-87884523D01*
X75546428Y-87884523D01*
X75627380Y-87925000D01*
X75667857Y-87965476D01*
X75708333Y-88046428D01*
X75708333Y-88167857D01*
X75667857Y-88248809D01*
X75627380Y-88289285D01*
X75546428Y-88329761D01*
X75222619Y-88329761D01*
X75991666Y-87884523D02*
X76517857Y-87884523D01*
X76234523Y-88208333D01*
X76355952Y-88208333D01*
X76436904Y-88248809D01*
X76477380Y-88289285D01*
X76517857Y-88370238D01*
X76517857Y-88572619D01*
X76477380Y-88653571D01*
X76436904Y-88694047D01*
X76355952Y-88734523D01*
X76113095Y-88734523D01*
X76032142Y-88694047D01*
X75991666Y-88653571D01*
X92608333Y-92284523D02*
X92325000Y-91879761D01*
X92122619Y-92284523D02*
X92122619Y-91434523D01*
X92446428Y-91434523D01*
X92527380Y-91475000D01*
X92567857Y-91515476D01*
X92608333Y-91596428D01*
X92608333Y-91717857D01*
X92567857Y-91798809D01*
X92527380Y-91839285D01*
X92446428Y-91879761D01*
X92122619Y-91879761D01*
X92932142Y-91515476D02*
X92972619Y-91475000D01*
X93053571Y-91434523D01*
X93255952Y-91434523D01*
X93336904Y-91475000D01*
X93377380Y-91515476D01*
X93417857Y-91596428D01*
X93417857Y-91677380D01*
X93377380Y-91798809D01*
X92891666Y-92284523D01*
X93417857Y-92284523D01*
X119984523Y-91991666D02*
X119579761Y-92275000D01*
X119984523Y-92477380D02*
X119134523Y-92477380D01*
X119134523Y-92153571D01*
X119175000Y-92072619D01*
X119215476Y-92032142D01*
X119296428Y-91991666D01*
X119417857Y-91991666D01*
X119498809Y-92032142D01*
X119539285Y-92072619D01*
X119579761Y-92153571D01*
X119579761Y-92477380D01*
X119984523Y-91182142D02*
X119984523Y-91667857D01*
X119984523Y-91425000D02*
X119134523Y-91425000D01*
X119255952Y-91505952D01*
X119336904Y-91586904D01*
X119377380Y-91667857D01*
X70916666Y-95234523D02*
X70916666Y-95841666D01*
X70876190Y-95963095D01*
X70795238Y-96044047D01*
X70673809Y-96084523D01*
X70592857Y-96084523D01*
X71240476Y-95234523D02*
X71807142Y-95234523D01*
X71442857Y-96084523D01*
X86166666Y-95784523D02*
X86166666Y-96391666D01*
X86126190Y-96513095D01*
X86045238Y-96594047D01*
X85923809Y-96634523D01*
X85842857Y-96634523D01*
X86935714Y-95784523D02*
X86773809Y-95784523D01*
X86692857Y-95825000D01*
X86652380Y-95865476D01*
X86571428Y-95986904D01*
X86530952Y-96148809D01*
X86530952Y-96472619D01*
X86571428Y-96553571D01*
X86611904Y-96594047D01*
X86692857Y-96634523D01*
X86854761Y-96634523D01*
X86935714Y-96594047D01*
X86976190Y-96553571D01*
X87016666Y-96472619D01*
X87016666Y-96270238D01*
X86976190Y-96189285D01*
X86935714Y-96148809D01*
X86854761Y-96108333D01*
X86692857Y-96108333D01*
X86611904Y-96148809D01*
X86571428Y-96189285D01*
X86530952Y-96270238D01*
X111916666Y-98184523D02*
X111916666Y-98791666D01*
X111876190Y-98913095D01*
X111795238Y-98994047D01*
X111673809Y-99034523D01*
X111592857Y-99034523D01*
X112685714Y-98467857D02*
X112685714Y-99034523D01*
X112483333Y-98144047D02*
X112280952Y-98751190D01*
X112807142Y-98751190D01*
X98966666Y-98134523D02*
X98966666Y-98741666D01*
X98926190Y-98863095D01*
X98845238Y-98944047D01*
X98723809Y-98984523D01*
X98642857Y-98984523D01*
X99290476Y-98134523D02*
X99816666Y-98134523D01*
X99533333Y-98458333D01*
X99654761Y-98458333D01*
X99735714Y-98498809D01*
X99776190Y-98539285D01*
X99816666Y-98620238D01*
X99816666Y-98822619D01*
X99776190Y-98903571D01*
X99735714Y-98944047D01*
X99654761Y-98984523D01*
X99411904Y-98984523D01*
X99330952Y-98944047D01*
X99290476Y-98903571D01*
X57616666Y-95234523D02*
X57616666Y-95841666D01*
X57576190Y-95963095D01*
X57495238Y-96044047D01*
X57373809Y-96084523D01*
X57292857Y-96084523D01*
X58466666Y-96084523D02*
X57980952Y-96084523D01*
X58223809Y-96084523D02*
X58223809Y-95234523D01*
X58142857Y-95355952D01*
X58061904Y-95436904D01*
X57980952Y-95477380D01*
X115803571Y-86153571D02*
X115763095Y-86194047D01*
X115641666Y-86234523D01*
X115560714Y-86234523D01*
X115439285Y-86194047D01*
X115358333Y-86113095D01*
X115317857Y-86032142D01*
X115277380Y-85870238D01*
X115277380Y-85748809D01*
X115317857Y-85586904D01*
X115358333Y-85505952D01*
X115439285Y-85425000D01*
X115560714Y-85384523D01*
X115641666Y-85384523D01*
X115763095Y-85425000D01*
X115803571Y-85465476D01*
X116613095Y-86234523D02*
X116127380Y-86234523D01*
X116370238Y-86234523D02*
X116370238Y-85384523D01*
X116289285Y-85505952D01*
X116208333Y-85586904D01*
X116127380Y-85627380D01*
X117139285Y-85384523D02*
X117220238Y-85384523D01*
X117301190Y-85425000D01*
X117341666Y-85465476D01*
X117382142Y-85546428D01*
X117422619Y-85708333D01*
X117422619Y-85910714D01*
X117382142Y-86072619D01*
X117341666Y-86153571D01*
X117301190Y-86194047D01*
X117220238Y-86234523D01*
X117139285Y-86234523D01*
X117058333Y-86194047D01*
X117017857Y-86153571D01*
X116977380Y-86072619D01*
X116936904Y-85910714D01*
X116936904Y-85708333D01*
X116977380Y-85546428D01*
X117017857Y-85465476D01*
X117058333Y-85425000D01*
X117139285Y-85384523D01*
X149103571Y-89791666D02*
X149144047Y-89832142D01*
X149184523Y-89953571D01*
X149184523Y-90034523D01*
X149144047Y-90155952D01*
X149063095Y-90236904D01*
X148982142Y-90277380D01*
X148820238Y-90317857D01*
X148698809Y-90317857D01*
X148536904Y-90277380D01*
X148455952Y-90236904D01*
X148375000Y-90155952D01*
X148334523Y-90034523D01*
X148334523Y-89953571D01*
X148375000Y-89832142D01*
X148415476Y-89791666D01*
X149184523Y-89386904D02*
X149184523Y-89225000D01*
X149144047Y-89144047D01*
X149103571Y-89103571D01*
X148982142Y-89022619D01*
X148820238Y-88982142D01*
X148496428Y-88982142D01*
X148415476Y-89022619D01*
X148375000Y-89063095D01*
X148334523Y-89144047D01*
X148334523Y-89305952D01*
X148375000Y-89386904D01*
X148415476Y-89427380D01*
X148496428Y-89467857D01*
X148698809Y-89467857D01*
X148779761Y-89427380D01*
X148820238Y-89386904D01*
X148860714Y-89305952D01*
X148860714Y-89144047D01*
X148820238Y-89063095D01*
X148779761Y-89022619D01*
X148698809Y-88982142D01*
X83183571Y-89354166D02*
X83224047Y-89394642D01*
X83264523Y-89516071D01*
X83264523Y-89597023D01*
X83224047Y-89718452D01*
X83143095Y-89799404D01*
X83062142Y-89839880D01*
X82900238Y-89880357D01*
X82778809Y-89880357D01*
X82616904Y-89839880D01*
X82535952Y-89799404D01*
X82455000Y-89718452D01*
X82414523Y-89597023D01*
X82414523Y-89516071D01*
X82455000Y-89394642D01*
X82495476Y-89354166D01*
X82778809Y-88868452D02*
X82738333Y-88949404D01*
X82697857Y-88989880D01*
X82616904Y-89030357D01*
X82576428Y-89030357D01*
X82495476Y-88989880D01*
X82455000Y-88949404D01*
X82414523Y-88868452D01*
X82414523Y-88706547D01*
X82455000Y-88625595D01*
X82495476Y-88585119D01*
X82576428Y-88544642D01*
X82616904Y-88544642D01*
X82697857Y-88585119D01*
X82738333Y-88625595D01*
X82778809Y-88706547D01*
X82778809Y-88868452D01*
X82819285Y-88949404D01*
X82859761Y-88989880D01*
X82940714Y-89030357D01*
X83102619Y-89030357D01*
X83183571Y-88989880D01*
X83224047Y-88949404D01*
X83264523Y-88868452D01*
X83264523Y-88706547D01*
X83224047Y-88625595D01*
X83183571Y-88585119D01*
X83102619Y-88544642D01*
X82940714Y-88544642D01*
X82859761Y-88585119D01*
X82819285Y-88625595D01*
X82778809Y-88706547D01*
X193903571Y-89741666D02*
X193944047Y-89782142D01*
X193984523Y-89903571D01*
X193984523Y-89984523D01*
X193944047Y-90105952D01*
X193863095Y-90186904D01*
X193782142Y-90227380D01*
X193620238Y-90267857D01*
X193498809Y-90267857D01*
X193336904Y-90227380D01*
X193255952Y-90186904D01*
X193175000Y-90105952D01*
X193134523Y-89984523D01*
X193134523Y-89903571D01*
X193175000Y-89782142D01*
X193215476Y-89741666D01*
X193134523Y-89458333D02*
X193134523Y-88891666D01*
X193984523Y-89255952D01*
X171503571Y-89691666D02*
X171544047Y-89732142D01*
X171584523Y-89853571D01*
X171584523Y-89934523D01*
X171544047Y-90055952D01*
X171463095Y-90136904D01*
X171382142Y-90177380D01*
X171220238Y-90217857D01*
X171098809Y-90217857D01*
X170936904Y-90177380D01*
X170855952Y-90136904D01*
X170775000Y-90055952D01*
X170734523Y-89934523D01*
X170734523Y-89853571D01*
X170775000Y-89732142D01*
X170815476Y-89691666D01*
X170734523Y-88963095D02*
X170734523Y-89125000D01*
X170775000Y-89205952D01*
X170815476Y-89246428D01*
X170936904Y-89327380D01*
X171098809Y-89367857D01*
X171422619Y-89367857D01*
X171503571Y-89327380D01*
X171544047Y-89286904D01*
X171584523Y-89205952D01*
X171584523Y-89044047D01*
X171544047Y-88963095D01*
X171503571Y-88922619D01*
X171422619Y-88882142D01*
X171220238Y-88882142D01*
X171139285Y-88922619D01*
X171098809Y-88963095D01*
X171058333Y-89044047D01*
X171058333Y-89205952D01*
X171098809Y-89286904D01*
X171139285Y-89327380D01*
X171220238Y-89367857D01*
X60283333Y-84428571D02*
X60242857Y-84469047D01*
X60121428Y-84509523D01*
X60040476Y-84509523D01*
X59919047Y-84469047D01*
X59838095Y-84388095D01*
X59797619Y-84307142D01*
X59757142Y-84145238D01*
X59757142Y-84023809D01*
X59797619Y-83861904D01*
X59838095Y-83780952D01*
X59919047Y-83700000D01*
X60040476Y-83659523D01*
X60121428Y-83659523D01*
X60242857Y-83700000D01*
X60283333Y-83740476D01*
X61052380Y-83659523D02*
X60647619Y-83659523D01*
X60607142Y-84064285D01*
X60647619Y-84023809D01*
X60728571Y-83983333D01*
X60930952Y-83983333D01*
X61011904Y-84023809D01*
X61052380Y-84064285D01*
X61092857Y-84145238D01*
X61092857Y-84347619D01*
X61052380Y-84428571D01*
X61011904Y-84469047D01*
X60930952Y-84509523D01*
X60728571Y-84509523D01*
X60647619Y-84469047D01*
X60607142Y-84428571D01*
X58008333Y-88478571D02*
X57967857Y-88519047D01*
X57846428Y-88559523D01*
X57765476Y-88559523D01*
X57644047Y-88519047D01*
X57563095Y-88438095D01*
X57522619Y-88357142D01*
X57482142Y-88195238D01*
X57482142Y-88073809D01*
X57522619Y-87911904D01*
X57563095Y-87830952D01*
X57644047Y-87750000D01*
X57765476Y-87709523D01*
X57846428Y-87709523D01*
X57967857Y-87750000D01*
X58008333Y-87790476D01*
X58736904Y-87992857D02*
X58736904Y-88559523D01*
X58534523Y-87669047D02*
X58332142Y-88276190D01*
X58858333Y-88276190D01*
X120258333Y-89553571D02*
X120217857Y-89594047D01*
X120096428Y-89634523D01*
X120015476Y-89634523D01*
X119894047Y-89594047D01*
X119813095Y-89513095D01*
X119772619Y-89432142D01*
X119732142Y-89270238D01*
X119732142Y-89148809D01*
X119772619Y-88986904D01*
X119813095Y-88905952D01*
X119894047Y-88825000D01*
X120015476Y-88784523D01*
X120096428Y-88784523D01*
X120217857Y-88825000D01*
X120258333Y-88865476D01*
X120541666Y-88784523D02*
X121067857Y-88784523D01*
X120784523Y-89108333D01*
X120905952Y-89108333D01*
X120986904Y-89148809D01*
X121027380Y-89189285D01*
X121067857Y-89270238D01*
X121067857Y-89472619D01*
X121027380Y-89553571D01*
X120986904Y-89594047D01*
X120905952Y-89634523D01*
X120663095Y-89634523D01*
X120582142Y-89594047D01*
X120541666Y-89553571D01*
X108153571Y-84941666D02*
X108194047Y-84982142D01*
X108234523Y-85103571D01*
X108234523Y-85184523D01*
X108194047Y-85305952D01*
X108113095Y-85386904D01*
X108032142Y-85427380D01*
X107870238Y-85467857D01*
X107748809Y-85467857D01*
X107586904Y-85427380D01*
X107505952Y-85386904D01*
X107425000Y-85305952D01*
X107384523Y-85184523D01*
X107384523Y-85103571D01*
X107425000Y-84982142D01*
X107465476Y-84941666D01*
X107465476Y-84617857D02*
X107425000Y-84577380D01*
X107384523Y-84496428D01*
X107384523Y-84294047D01*
X107425000Y-84213095D01*
X107465476Y-84172619D01*
X107546428Y-84132142D01*
X107627380Y-84132142D01*
X107748809Y-84172619D01*
X108234523Y-84658333D01*
X108234523Y-84132142D01*
X115953571Y-89991666D02*
X115994047Y-90032142D01*
X116034523Y-90153571D01*
X116034523Y-90234523D01*
X115994047Y-90355952D01*
X115913095Y-90436904D01*
X115832142Y-90477380D01*
X115670238Y-90517857D01*
X115548809Y-90517857D01*
X115386904Y-90477380D01*
X115305952Y-90436904D01*
X115225000Y-90355952D01*
X115184523Y-90234523D01*
X115184523Y-90153571D01*
X115225000Y-90032142D01*
X115265476Y-89991666D01*
X116034523Y-89182142D02*
X116034523Y-89667857D01*
X116034523Y-89425000D02*
X115184523Y-89425000D01*
X115305952Y-89505952D01*
X115386904Y-89586904D01*
X115427380Y-89667857D01*
M02*
