G04 #@! TF.GenerationSoftware,KiCad,Pcbnew,(5.1.2)-2*
G04 #@! TF.CreationDate,2021-03-22T02:37:46-04:00*
G04 #@! TF.ProjectId,Repowered_Electronic_Load_Controller,5265706f-7765-4726-9564-5f456c656374,rev?*
G04 #@! TF.SameCoordinates,Original*
G04 #@! TF.FileFunction,Soldermask,Bot*
G04 #@! TF.FilePolarity,Negative*
%FSLAX46Y46*%
G04 Gerber Fmt 4.6, Leading zero omitted, Abs format (unit mm)*
G04 Created by KiCad (PCBNEW (5.1.2)-2) date 2021-03-22 02:37:46*
%MOMM*%
%LPD*%
G04 APERTURE LIST*
%ADD10C,0.100000*%
G04 APERTURE END LIST*
D10*
G36*
X87927618Y-97595920D02*
G01*
X87980748Y-97612037D01*
X88050336Y-97633146D01*
X88163425Y-97693594D01*
X88262554Y-97774946D01*
X88343906Y-97874075D01*
X88404354Y-97987164D01*
X88404585Y-97987926D01*
X88441580Y-98109882D01*
X88451000Y-98205527D01*
X88451000Y-98969473D01*
X88441580Y-99065118D01*
X88418808Y-99140186D01*
X88404354Y-99187836D01*
X88343906Y-99300925D01*
X88262554Y-99400053D01*
X88163424Y-99481406D01*
X88050335Y-99541854D01*
X88020184Y-99551000D01*
X87927617Y-99579080D01*
X87800000Y-99591649D01*
X87672382Y-99579080D01*
X87579815Y-99551000D01*
X87549664Y-99541854D01*
X87436575Y-99481406D01*
X87337447Y-99400054D01*
X87256094Y-99300924D01*
X87195646Y-99187835D01*
X87181192Y-99140185D01*
X87158420Y-99065117D01*
X87149000Y-98969472D01*
X87149000Y-98205527D01*
X87158420Y-98109882D01*
X87195645Y-97987168D01*
X87220608Y-97940466D01*
X87256095Y-97874075D01*
X87337447Y-97774946D01*
X87436576Y-97693594D01*
X87549665Y-97633146D01*
X87619253Y-97612037D01*
X87672383Y-97595920D01*
X87800000Y-97583351D01*
X87927618Y-97595920D01*
X87927618Y-97595920D01*
G37*
G36*
X94927617Y-97595920D02*
G01*
X94980747Y-97612037D01*
X95050335Y-97633146D01*
X95163424Y-97693594D01*
X95262554Y-97774947D01*
X95343906Y-97874075D01*
X95404354Y-97987164D01*
X95404585Y-97987926D01*
X95441580Y-98109882D01*
X95451000Y-98205527D01*
X95451000Y-98969473D01*
X95441580Y-99065118D01*
X95418808Y-99140186D01*
X95404354Y-99187836D01*
X95343906Y-99300925D01*
X95262554Y-99400054D01*
X95163425Y-99481406D01*
X95050336Y-99541854D01*
X95020185Y-99551000D01*
X94927618Y-99579080D01*
X94800000Y-99591649D01*
X94672383Y-99579080D01*
X94579816Y-99551000D01*
X94549665Y-99541854D01*
X94436576Y-99481406D01*
X94337447Y-99400054D01*
X94256095Y-99300925D01*
X94195648Y-99187837D01*
X94195645Y-99187832D01*
X94158420Y-99065118D01*
X94149000Y-98969473D01*
X94149000Y-98205528D01*
X94158420Y-98109883D01*
X94195645Y-97987169D01*
X94195646Y-97987165D01*
X94256094Y-97874076D01*
X94337447Y-97774946D01*
X94436575Y-97693594D01*
X94549664Y-97633146D01*
X94619252Y-97612037D01*
X94672382Y-97595920D01*
X94800000Y-97583351D01*
X94927617Y-97595920D01*
X94927617Y-97595920D01*
G37*
G36*
X138244098Y-94547033D02*
G01*
X138672030Y-94724288D01*
X138708352Y-94739333D01*
X139126168Y-95018509D01*
X139481491Y-95373832D01*
X139673470Y-95661149D01*
X139760668Y-95791650D01*
X139952967Y-96255902D01*
X140051000Y-96748747D01*
X140051000Y-97251253D01*
X139952967Y-97744098D01*
X139784423Y-98151000D01*
X139760667Y-98208352D01*
X139481491Y-98626168D01*
X139126168Y-98981491D01*
X138708352Y-99260667D01*
X138708351Y-99260668D01*
X138708350Y-99260668D01*
X138244098Y-99452967D01*
X137751253Y-99551000D01*
X137248747Y-99551000D01*
X136755902Y-99452967D01*
X136291650Y-99260668D01*
X136291649Y-99260668D01*
X136291648Y-99260667D01*
X135873832Y-98981491D01*
X135518509Y-98626168D01*
X135239333Y-98208352D01*
X135215577Y-98151000D01*
X135047033Y-97744098D01*
X134949000Y-97251253D01*
X134949000Y-96748747D01*
X135047033Y-96255902D01*
X135239332Y-95791650D01*
X135326530Y-95661149D01*
X135518509Y-95373832D01*
X135873832Y-95018509D01*
X136291648Y-94739333D01*
X136327970Y-94724288D01*
X136755902Y-94547033D01*
X137248747Y-94449000D01*
X137751253Y-94449000D01*
X138244098Y-94547033D01*
X138244098Y-94547033D01*
G37*
G36*
X53744098Y-94547033D02*
G01*
X54172030Y-94724288D01*
X54208352Y-94739333D01*
X54626168Y-95018509D01*
X54981491Y-95373832D01*
X55173470Y-95661149D01*
X55260668Y-95791650D01*
X55452967Y-96255902D01*
X55551000Y-96748747D01*
X55551000Y-97251253D01*
X55452967Y-97744098D01*
X55284423Y-98151000D01*
X55260667Y-98208352D01*
X54981491Y-98626168D01*
X54626168Y-98981491D01*
X54208352Y-99260667D01*
X54208351Y-99260668D01*
X54208350Y-99260668D01*
X53744098Y-99452967D01*
X53251253Y-99551000D01*
X52748747Y-99551000D01*
X52255902Y-99452967D01*
X51791650Y-99260668D01*
X51791649Y-99260668D01*
X51791648Y-99260667D01*
X51373832Y-98981491D01*
X51018509Y-98626168D01*
X50739333Y-98208352D01*
X50715577Y-98151000D01*
X50547033Y-97744098D01*
X50449000Y-97251253D01*
X50449000Y-96748747D01*
X50547033Y-96255902D01*
X50739332Y-95791650D01*
X50826530Y-95661149D01*
X51018509Y-95373832D01*
X51373832Y-95018509D01*
X51791648Y-94739333D01*
X51827970Y-94724288D01*
X52255902Y-94547033D01*
X52748747Y-94449000D01*
X53251253Y-94449000D01*
X53744098Y-94547033D01*
X53744098Y-94547033D01*
G37*
G36*
X222744098Y-94547033D02*
G01*
X223172030Y-94724288D01*
X223208352Y-94739333D01*
X223626168Y-95018509D01*
X223981491Y-95373832D01*
X224173470Y-95661149D01*
X224260668Y-95791650D01*
X224452967Y-96255902D01*
X224551000Y-96748747D01*
X224551000Y-97251253D01*
X224452967Y-97744098D01*
X224284423Y-98151000D01*
X224260667Y-98208352D01*
X223981491Y-98626168D01*
X223626168Y-98981491D01*
X223208352Y-99260667D01*
X223208351Y-99260668D01*
X223208350Y-99260668D01*
X222744098Y-99452967D01*
X222251253Y-99551000D01*
X221748747Y-99551000D01*
X221255902Y-99452967D01*
X220791650Y-99260668D01*
X220791649Y-99260668D01*
X220791648Y-99260667D01*
X220373832Y-98981491D01*
X220018509Y-98626168D01*
X219739333Y-98208352D01*
X219715577Y-98151000D01*
X219547033Y-97744098D01*
X219449000Y-97251253D01*
X219449000Y-96748747D01*
X219547033Y-96255902D01*
X219739332Y-95791650D01*
X219826530Y-95661149D01*
X220018509Y-95373832D01*
X220373832Y-95018509D01*
X220791648Y-94739333D01*
X220827970Y-94724288D01*
X221255902Y-94547033D01*
X221748747Y-94449000D01*
X222251253Y-94449000D01*
X222744098Y-94547033D01*
X222744098Y-94547033D01*
G37*
G36*
X106690443Y-97605519D02*
G01*
X106756627Y-97612037D01*
X106926466Y-97663557D01*
X107082991Y-97747222D01*
X107116773Y-97774946D01*
X107220186Y-97859814D01*
X107284654Y-97938370D01*
X107332778Y-97997009D01*
X107373601Y-98073382D01*
X107393113Y-98109886D01*
X107416443Y-98153534D01*
X107467963Y-98323373D01*
X107485359Y-98500000D01*
X107467963Y-98676627D01*
X107416443Y-98846466D01*
X107332778Y-99002991D01*
X107303448Y-99038729D01*
X107220186Y-99140186D01*
X107118729Y-99223448D01*
X107082991Y-99252778D01*
X106926466Y-99336443D01*
X106756627Y-99387963D01*
X106690442Y-99394482D01*
X106624260Y-99401000D01*
X106535740Y-99401000D01*
X106469558Y-99394482D01*
X106403373Y-99387963D01*
X106233534Y-99336443D01*
X106077009Y-99252778D01*
X106041271Y-99223448D01*
X105939814Y-99140186D01*
X105856552Y-99038729D01*
X105827222Y-99002991D01*
X105743557Y-98846466D01*
X105692037Y-98676627D01*
X105674641Y-98500000D01*
X105692037Y-98323373D01*
X105743557Y-98153534D01*
X105766888Y-98109886D01*
X105786399Y-98073382D01*
X105827222Y-97997009D01*
X105875346Y-97938370D01*
X105939814Y-97859814D01*
X106043227Y-97774946D01*
X106077009Y-97747222D01*
X106233534Y-97663557D01*
X106403373Y-97612037D01*
X106469557Y-97605519D01*
X106535740Y-97599000D01*
X106624260Y-97599000D01*
X106690443Y-97605519D01*
X106690443Y-97605519D01*
G37*
G36*
X119540443Y-97605519D02*
G01*
X119606627Y-97612037D01*
X119776466Y-97663557D01*
X119932991Y-97747222D01*
X119966773Y-97774946D01*
X120070186Y-97859814D01*
X120134654Y-97938370D01*
X120182778Y-97997009D01*
X120223601Y-98073382D01*
X120243113Y-98109886D01*
X120266443Y-98153534D01*
X120317963Y-98323373D01*
X120335359Y-98500000D01*
X120317963Y-98676627D01*
X120266443Y-98846466D01*
X120182778Y-99002991D01*
X120153448Y-99038729D01*
X120070186Y-99140186D01*
X119968729Y-99223448D01*
X119932991Y-99252778D01*
X119776466Y-99336443D01*
X119606627Y-99387963D01*
X119540442Y-99394482D01*
X119474260Y-99401000D01*
X119385740Y-99401000D01*
X119319558Y-99394482D01*
X119253373Y-99387963D01*
X119083534Y-99336443D01*
X118927009Y-99252778D01*
X118891271Y-99223448D01*
X118789814Y-99140186D01*
X118706552Y-99038729D01*
X118677222Y-99002991D01*
X118593557Y-98846466D01*
X118542037Y-98676627D01*
X118524641Y-98500000D01*
X118542037Y-98323373D01*
X118593557Y-98153534D01*
X118616888Y-98109886D01*
X118636399Y-98073382D01*
X118677222Y-97997009D01*
X118725346Y-97938370D01*
X118789814Y-97859814D01*
X118893227Y-97774946D01*
X118927009Y-97747222D01*
X119083534Y-97663557D01*
X119253373Y-97612037D01*
X119319557Y-97605519D01*
X119385740Y-97599000D01*
X119474260Y-97599000D01*
X119540443Y-97605519D01*
X119540443Y-97605519D01*
G37*
G36*
X122080443Y-97605519D02*
G01*
X122146627Y-97612037D01*
X122316466Y-97663557D01*
X122472991Y-97747222D01*
X122506773Y-97774946D01*
X122610186Y-97859814D01*
X122674654Y-97938370D01*
X122722778Y-97997009D01*
X122763601Y-98073382D01*
X122783113Y-98109886D01*
X122806443Y-98153534D01*
X122857963Y-98323373D01*
X122875359Y-98500000D01*
X122857963Y-98676627D01*
X122806443Y-98846466D01*
X122722778Y-99002991D01*
X122693448Y-99038729D01*
X122610186Y-99140186D01*
X122508729Y-99223448D01*
X122472991Y-99252778D01*
X122316466Y-99336443D01*
X122146627Y-99387963D01*
X122080442Y-99394482D01*
X122014260Y-99401000D01*
X121925740Y-99401000D01*
X121859558Y-99394482D01*
X121793373Y-99387963D01*
X121623534Y-99336443D01*
X121467009Y-99252778D01*
X121431271Y-99223448D01*
X121329814Y-99140186D01*
X121246552Y-99038729D01*
X121217222Y-99002991D01*
X121133557Y-98846466D01*
X121082037Y-98676627D01*
X121064641Y-98500000D01*
X121082037Y-98323373D01*
X121133557Y-98153534D01*
X121156888Y-98109886D01*
X121176399Y-98073382D01*
X121217222Y-97997009D01*
X121265346Y-97938370D01*
X121329814Y-97859814D01*
X121433227Y-97774946D01*
X121467009Y-97747222D01*
X121623534Y-97663557D01*
X121793373Y-97612037D01*
X121859557Y-97605519D01*
X121925740Y-97599000D01*
X122014260Y-97599000D01*
X122080443Y-97605519D01*
X122080443Y-97605519D01*
G37*
G36*
X117000443Y-97605519D02*
G01*
X117066627Y-97612037D01*
X117236466Y-97663557D01*
X117392991Y-97747222D01*
X117426773Y-97774946D01*
X117530186Y-97859814D01*
X117594654Y-97938370D01*
X117642778Y-97997009D01*
X117683601Y-98073382D01*
X117703113Y-98109886D01*
X117726443Y-98153534D01*
X117777963Y-98323373D01*
X117795359Y-98500000D01*
X117777963Y-98676627D01*
X117726443Y-98846466D01*
X117642778Y-99002991D01*
X117613448Y-99038729D01*
X117530186Y-99140186D01*
X117428729Y-99223448D01*
X117392991Y-99252778D01*
X117236466Y-99336443D01*
X117066627Y-99387963D01*
X117000442Y-99394482D01*
X116934260Y-99401000D01*
X116845740Y-99401000D01*
X116779558Y-99394482D01*
X116713373Y-99387963D01*
X116543534Y-99336443D01*
X116387009Y-99252778D01*
X116351271Y-99223448D01*
X116249814Y-99140186D01*
X116166552Y-99038729D01*
X116137222Y-99002991D01*
X116053557Y-98846466D01*
X116002037Y-98676627D01*
X115984641Y-98500000D01*
X116002037Y-98323373D01*
X116053557Y-98153534D01*
X116076888Y-98109886D01*
X116096399Y-98073382D01*
X116137222Y-97997009D01*
X116185346Y-97938370D01*
X116249814Y-97859814D01*
X116353227Y-97774946D01*
X116387009Y-97747222D01*
X116543534Y-97663557D01*
X116713373Y-97612037D01*
X116779557Y-97605519D01*
X116845740Y-97599000D01*
X116934260Y-97599000D01*
X117000443Y-97605519D01*
X117000443Y-97605519D01*
G37*
G36*
X115251000Y-99401000D02*
G01*
X113449000Y-99401000D01*
X113449000Y-97599000D01*
X115251000Y-97599000D01*
X115251000Y-99401000D01*
X115251000Y-99401000D01*
G37*
G36*
X109230443Y-97605519D02*
G01*
X109296627Y-97612037D01*
X109466466Y-97663557D01*
X109622991Y-97747222D01*
X109656773Y-97774946D01*
X109760186Y-97859814D01*
X109824654Y-97938370D01*
X109872778Y-97997009D01*
X109913601Y-98073382D01*
X109933113Y-98109886D01*
X109956443Y-98153534D01*
X110007963Y-98323373D01*
X110025359Y-98500000D01*
X110007963Y-98676627D01*
X109956443Y-98846466D01*
X109872778Y-99002991D01*
X109843448Y-99038729D01*
X109760186Y-99140186D01*
X109658729Y-99223448D01*
X109622991Y-99252778D01*
X109466466Y-99336443D01*
X109296627Y-99387963D01*
X109230442Y-99394482D01*
X109164260Y-99401000D01*
X109075740Y-99401000D01*
X109009558Y-99394482D01*
X108943373Y-99387963D01*
X108773534Y-99336443D01*
X108617009Y-99252778D01*
X108581271Y-99223448D01*
X108479814Y-99140186D01*
X108396552Y-99038729D01*
X108367222Y-99002991D01*
X108283557Y-98846466D01*
X108232037Y-98676627D01*
X108214641Y-98500000D01*
X108232037Y-98323373D01*
X108283557Y-98153534D01*
X108306888Y-98109886D01*
X108326399Y-98073382D01*
X108367222Y-97997009D01*
X108415346Y-97938370D01*
X108479814Y-97859814D01*
X108583227Y-97774946D01*
X108617009Y-97747222D01*
X108773534Y-97663557D01*
X108943373Y-97612037D01*
X109009557Y-97605519D01*
X109075740Y-97599000D01*
X109164260Y-97599000D01*
X109230443Y-97605519D01*
X109230443Y-97605519D01*
G37*
G36*
X104150443Y-97605519D02*
G01*
X104216627Y-97612037D01*
X104386466Y-97663557D01*
X104542991Y-97747222D01*
X104576773Y-97774946D01*
X104680186Y-97859814D01*
X104744654Y-97938370D01*
X104792778Y-97997009D01*
X104833601Y-98073382D01*
X104853113Y-98109886D01*
X104876443Y-98153534D01*
X104927963Y-98323373D01*
X104945359Y-98500000D01*
X104927963Y-98676627D01*
X104876443Y-98846466D01*
X104792778Y-99002991D01*
X104763448Y-99038729D01*
X104680186Y-99140186D01*
X104578729Y-99223448D01*
X104542991Y-99252778D01*
X104386466Y-99336443D01*
X104216627Y-99387963D01*
X104150442Y-99394482D01*
X104084260Y-99401000D01*
X103995740Y-99401000D01*
X103929558Y-99394482D01*
X103863373Y-99387963D01*
X103693534Y-99336443D01*
X103537009Y-99252778D01*
X103501271Y-99223448D01*
X103399814Y-99140186D01*
X103316552Y-99038729D01*
X103287222Y-99002991D01*
X103203557Y-98846466D01*
X103152037Y-98676627D01*
X103134641Y-98500000D01*
X103152037Y-98323373D01*
X103203557Y-98153534D01*
X103226888Y-98109886D01*
X103246399Y-98073382D01*
X103287222Y-97997009D01*
X103335346Y-97938370D01*
X103399814Y-97859814D01*
X103503227Y-97774946D01*
X103537009Y-97747222D01*
X103693534Y-97663557D01*
X103863373Y-97612037D01*
X103929557Y-97605519D01*
X103995740Y-97599000D01*
X104084260Y-97599000D01*
X104150443Y-97605519D01*
X104150443Y-97605519D01*
G37*
G36*
X102401000Y-99401000D02*
G01*
X100599000Y-99401000D01*
X100599000Y-97599000D01*
X102401000Y-97599000D01*
X102401000Y-99401000D01*
X102401000Y-99401000D01*
G37*
G36*
X65086424Y-94462760D02*
G01*
X65086427Y-94462761D01*
X65086428Y-94462761D01*
X65265692Y-94517140D01*
X65265695Y-94517142D01*
X65265696Y-94517142D01*
X65430903Y-94605446D01*
X65575712Y-94724288D01*
X65694554Y-94869097D01*
X65774416Y-95018509D01*
X65782860Y-95034307D01*
X65782860Y-95034308D01*
X65837240Y-95213575D01*
X65851000Y-95353282D01*
X65851000Y-97246718D01*
X65837240Y-97386425D01*
X65837239Y-97386428D01*
X65837239Y-97386429D01*
X65782860Y-97565693D01*
X65782858Y-97565696D01*
X65782858Y-97565697D01*
X65694554Y-97730903D01*
X65575712Y-97875712D01*
X65430903Y-97994554D01*
X65283425Y-98073382D01*
X65265693Y-98082860D01*
X65086429Y-98137239D01*
X65086428Y-98137239D01*
X65086425Y-98137240D01*
X64900000Y-98155601D01*
X64713576Y-98137240D01*
X64713573Y-98137239D01*
X64713572Y-98137239D01*
X64534308Y-98082860D01*
X64516576Y-98073382D01*
X64369098Y-97994554D01*
X64224289Y-97875712D01*
X64105447Y-97730903D01*
X64017143Y-97565697D01*
X64017143Y-97565696D01*
X64017141Y-97565693D01*
X63962762Y-97386429D01*
X63962762Y-97386428D01*
X63962761Y-97386425D01*
X63949000Y-97246717D01*
X63949000Y-95353283D01*
X63962760Y-95213576D01*
X63962761Y-95213572D01*
X64017140Y-95034308D01*
X64025585Y-95018509D01*
X64105446Y-94869097D01*
X64224288Y-94724288D01*
X64369097Y-94605446D01*
X64534303Y-94517142D01*
X64534304Y-94517142D01*
X64534307Y-94517140D01*
X64713571Y-94462761D01*
X64713572Y-94462761D01*
X64713575Y-94462760D01*
X64900000Y-94444399D01*
X65086424Y-94462760D01*
X65086424Y-94462760D01*
G37*
G36*
X78586424Y-94462760D02*
G01*
X78586427Y-94462761D01*
X78586428Y-94462761D01*
X78765692Y-94517140D01*
X78765695Y-94517142D01*
X78765696Y-94517142D01*
X78930903Y-94605446D01*
X79075712Y-94724288D01*
X79194554Y-94869097D01*
X79274416Y-95018509D01*
X79282860Y-95034307D01*
X79282860Y-95034308D01*
X79337240Y-95213575D01*
X79351000Y-95353282D01*
X79351000Y-97246718D01*
X79337240Y-97386425D01*
X79337239Y-97386428D01*
X79337239Y-97386429D01*
X79282860Y-97565693D01*
X79282858Y-97565696D01*
X79282858Y-97565697D01*
X79194554Y-97730903D01*
X79075712Y-97875712D01*
X78930903Y-97994554D01*
X78783425Y-98073382D01*
X78765693Y-98082860D01*
X78586429Y-98137239D01*
X78586428Y-98137239D01*
X78586425Y-98137240D01*
X78400000Y-98155601D01*
X78213576Y-98137240D01*
X78213573Y-98137239D01*
X78213572Y-98137239D01*
X78034308Y-98082860D01*
X78016576Y-98073382D01*
X77869098Y-97994554D01*
X77724289Y-97875712D01*
X77605447Y-97730903D01*
X77517143Y-97565697D01*
X77517143Y-97565696D01*
X77517141Y-97565693D01*
X77462762Y-97386429D01*
X77462762Y-97386428D01*
X77462761Y-97386425D01*
X77449000Y-97246717D01*
X77449000Y-95353283D01*
X77462760Y-95213576D01*
X77462761Y-95213572D01*
X77517140Y-95034308D01*
X77525585Y-95018509D01*
X77605446Y-94869097D01*
X77724288Y-94724288D01*
X77869097Y-94605446D01*
X78034303Y-94517142D01*
X78034304Y-94517142D01*
X78034307Y-94517140D01*
X78213571Y-94462761D01*
X78213572Y-94462761D01*
X78213575Y-94462760D01*
X78400000Y-94444399D01*
X78586424Y-94462760D01*
X78586424Y-94462760D01*
G37*
G36*
X62210915Y-94452934D02*
G01*
X62243424Y-94462795D01*
X62273382Y-94478809D01*
X62299641Y-94500359D01*
X62321191Y-94526618D01*
X62337205Y-94556576D01*
X62347066Y-94589085D01*
X62351000Y-94629029D01*
X62351000Y-97970971D01*
X62347066Y-98010915D01*
X62337205Y-98043424D01*
X62321191Y-98073382D01*
X62299641Y-98099641D01*
X62273382Y-98121191D01*
X62243424Y-98137205D01*
X62210915Y-98147066D01*
X62170971Y-98151000D01*
X60629029Y-98151000D01*
X60589085Y-98147066D01*
X60556576Y-98137205D01*
X60526618Y-98121191D01*
X60500359Y-98099641D01*
X60478809Y-98073382D01*
X60462795Y-98043424D01*
X60452934Y-98010915D01*
X60449000Y-97970971D01*
X60449000Y-94629029D01*
X60452934Y-94589085D01*
X60462795Y-94556576D01*
X60478809Y-94526618D01*
X60500359Y-94500359D01*
X60526618Y-94478809D01*
X60556576Y-94462795D01*
X60589085Y-94452934D01*
X60629029Y-94449000D01*
X62170971Y-94449000D01*
X62210915Y-94452934D01*
X62210915Y-94452934D01*
G37*
G36*
X75710915Y-94452934D02*
G01*
X75743424Y-94462795D01*
X75773382Y-94478809D01*
X75799641Y-94500359D01*
X75821191Y-94526618D01*
X75837205Y-94556576D01*
X75847066Y-94589085D01*
X75851000Y-94629029D01*
X75851000Y-97970971D01*
X75847066Y-98010915D01*
X75837205Y-98043424D01*
X75821191Y-98073382D01*
X75799641Y-98099641D01*
X75773382Y-98121191D01*
X75743424Y-98137205D01*
X75710915Y-98147066D01*
X75670971Y-98151000D01*
X74129029Y-98151000D01*
X74089085Y-98147066D01*
X74056576Y-98137205D01*
X74026618Y-98121191D01*
X74000359Y-98099641D01*
X73978809Y-98073382D01*
X73962795Y-98043424D01*
X73952934Y-98010915D01*
X73949000Y-97970971D01*
X73949000Y-94629029D01*
X73952934Y-94589085D01*
X73962795Y-94556576D01*
X73978809Y-94526618D01*
X74000359Y-94500359D01*
X74026618Y-94478809D01*
X74056576Y-94462795D01*
X74089085Y-94452934D01*
X74129029Y-94449000D01*
X75670971Y-94449000D01*
X75710915Y-94452934D01*
X75710915Y-94452934D01*
G37*
G36*
X89026348Y-95141320D02*
G01*
X89026350Y-95141321D01*
X89026351Y-95141321D01*
X89167574Y-95199817D01*
X89167577Y-95199819D01*
X89294669Y-95284739D01*
X89402761Y-95392831D01*
X89487681Y-95519923D01*
X89487683Y-95519926D01*
X89546179Y-95661149D01*
X89576000Y-95811071D01*
X89576000Y-95963929D01*
X89546179Y-96113851D01*
X89487683Y-96255074D01*
X89487681Y-96255077D01*
X89402761Y-96382169D01*
X89294669Y-96490261D01*
X89167577Y-96575181D01*
X89167574Y-96575183D01*
X89026351Y-96633679D01*
X89026350Y-96633679D01*
X89026348Y-96633680D01*
X88876431Y-96663500D01*
X88723569Y-96663500D01*
X88573652Y-96633680D01*
X88573650Y-96633679D01*
X88573649Y-96633679D01*
X88432426Y-96575183D01*
X88432423Y-96575181D01*
X88305331Y-96490261D01*
X88197239Y-96382169D01*
X88112319Y-96255077D01*
X88112317Y-96255074D01*
X88053821Y-96113851D01*
X88024000Y-95963929D01*
X88024000Y-95811071D01*
X88053821Y-95661149D01*
X88112317Y-95519926D01*
X88112319Y-95519923D01*
X88197239Y-95392831D01*
X88305331Y-95284739D01*
X88432423Y-95199819D01*
X88432426Y-95199817D01*
X88573649Y-95141321D01*
X88573650Y-95141321D01*
X88573652Y-95141320D01*
X88723569Y-95111500D01*
X88876431Y-95111500D01*
X89026348Y-95141320D01*
X89026348Y-95141320D01*
G37*
G36*
X94026348Y-95141320D02*
G01*
X94026350Y-95141321D01*
X94026351Y-95141321D01*
X94167574Y-95199817D01*
X94167577Y-95199819D01*
X94294669Y-95284739D01*
X94402761Y-95392831D01*
X94487681Y-95519923D01*
X94487683Y-95519926D01*
X94546179Y-95661149D01*
X94576000Y-95811071D01*
X94576000Y-95963929D01*
X94546179Y-96113851D01*
X94487683Y-96255074D01*
X94487681Y-96255077D01*
X94402761Y-96382169D01*
X94294669Y-96490261D01*
X94167577Y-96575181D01*
X94167574Y-96575183D01*
X94026351Y-96633679D01*
X94026350Y-96633679D01*
X94026348Y-96633680D01*
X93876431Y-96663500D01*
X93723569Y-96663500D01*
X93573652Y-96633680D01*
X93573650Y-96633679D01*
X93573649Y-96633679D01*
X93432426Y-96575183D01*
X93432423Y-96575181D01*
X93305331Y-96490261D01*
X93197239Y-96382169D01*
X93112319Y-96255077D01*
X93112317Y-96255074D01*
X93053821Y-96113851D01*
X93024000Y-95963929D01*
X93024000Y-95811071D01*
X93053821Y-95661149D01*
X93112317Y-95519926D01*
X93112319Y-95519923D01*
X93197239Y-95392831D01*
X93305331Y-95284739D01*
X93432423Y-95199819D01*
X93432426Y-95199817D01*
X93573649Y-95141321D01*
X93573650Y-95141321D01*
X93573652Y-95141320D01*
X93723569Y-95111500D01*
X93876431Y-95111500D01*
X94026348Y-95141320D01*
X94026348Y-95141320D01*
G37*
G36*
X222744098Y-75547033D02*
G01*
X223208350Y-75739332D01*
X223208352Y-75739333D01*
X223626168Y-76018509D01*
X223981491Y-76373832D01*
X224260667Y-76791648D01*
X224260668Y-76791650D01*
X224452967Y-77255902D01*
X224551000Y-77748747D01*
X224551000Y-78251253D01*
X224452967Y-78744098D01*
X224321407Y-79061713D01*
X224260667Y-79208352D01*
X223981491Y-79626168D01*
X223626168Y-79981491D01*
X223208352Y-80260667D01*
X223208351Y-80260668D01*
X223208350Y-80260668D01*
X222744098Y-80452967D01*
X222251253Y-80551000D01*
X221748747Y-80551000D01*
X221255902Y-80452967D01*
X220791650Y-80260668D01*
X220791649Y-80260668D01*
X220791648Y-80260667D01*
X220373832Y-79981491D01*
X220018509Y-79626168D01*
X219739333Y-79208352D01*
X219678593Y-79061713D01*
X219547033Y-78744098D01*
X219449000Y-78251253D01*
X219449000Y-77748747D01*
X219547033Y-77255902D01*
X219739332Y-76791650D01*
X219739333Y-76791648D01*
X220018509Y-76373832D01*
X220373832Y-76018509D01*
X220791648Y-75739333D01*
X220791650Y-75739332D01*
X221255902Y-75547033D01*
X221748747Y-75449000D01*
X222251253Y-75449000D01*
X222744098Y-75547033D01*
X222744098Y-75547033D01*
G37*
G36*
X53744098Y-75547033D02*
G01*
X54208350Y-75739332D01*
X54208352Y-75739333D01*
X54626168Y-76018509D01*
X54981491Y-76373832D01*
X55260667Y-76791648D01*
X55260668Y-76791650D01*
X55452967Y-77255902D01*
X55551000Y-77748747D01*
X55551000Y-78251253D01*
X55452967Y-78744098D01*
X55321407Y-79061713D01*
X55260667Y-79208352D01*
X54981491Y-79626168D01*
X54626168Y-79981491D01*
X54208352Y-80260667D01*
X54208351Y-80260668D01*
X54208350Y-80260668D01*
X53744098Y-80452967D01*
X53251253Y-80551000D01*
X52748747Y-80551000D01*
X52255902Y-80452967D01*
X51791650Y-80260668D01*
X51791649Y-80260668D01*
X51791648Y-80260667D01*
X51373832Y-79981491D01*
X51018509Y-79626168D01*
X50739333Y-79208352D01*
X50678593Y-79061713D01*
X50547033Y-78744098D01*
X50449000Y-78251253D01*
X50449000Y-77748747D01*
X50547033Y-77255902D01*
X50739332Y-76791650D01*
X50739333Y-76791648D01*
X51018509Y-76373832D01*
X51373832Y-76018509D01*
X51791648Y-75739333D01*
X51791650Y-75739332D01*
X52255902Y-75547033D01*
X52748747Y-75449000D01*
X53251253Y-75449000D01*
X53744098Y-75547033D01*
X53744098Y-75547033D01*
G37*
G36*
X208936425Y-76277760D02*
G01*
X208936428Y-76277761D01*
X208936429Y-76277761D01*
X209115693Y-76332140D01*
X209115696Y-76332142D01*
X209115697Y-76332142D01*
X209280903Y-76420446D01*
X209425712Y-76539288D01*
X209544554Y-76684097D01*
X209602042Y-76791650D01*
X209632860Y-76849307D01*
X209687239Y-77028571D01*
X209687240Y-77028575D01*
X209701000Y-77168282D01*
X209701000Y-79061718D01*
X209687240Y-79201425D01*
X209687239Y-79201428D01*
X209687239Y-79201429D01*
X209632860Y-79380693D01*
X209632858Y-79380696D01*
X209632858Y-79380697D01*
X209544554Y-79545903D01*
X209425712Y-79690712D01*
X209280903Y-79809554D01*
X209132964Y-79888628D01*
X209115692Y-79897860D01*
X208936428Y-79952239D01*
X208936427Y-79952239D01*
X208936424Y-79952240D01*
X208750000Y-79970601D01*
X208563575Y-79952240D01*
X208563572Y-79952239D01*
X208563571Y-79952239D01*
X208384307Y-79897860D01*
X208366575Y-79888382D01*
X208219097Y-79809554D01*
X208074288Y-79690712D01*
X207955446Y-79545903D01*
X207867142Y-79380696D01*
X207867141Y-79380693D01*
X207867140Y-79380692D01*
X207812761Y-79201428D01*
X207812761Y-79201427D01*
X207812760Y-79201424D01*
X207799000Y-79061717D01*
X207799000Y-77168283D01*
X207812761Y-77028575D01*
X207812762Y-77028571D01*
X207867141Y-76849307D01*
X207897959Y-76791650D01*
X207955447Y-76684097D01*
X208074289Y-76539288D01*
X208219098Y-76420446D01*
X208384304Y-76332142D01*
X208384305Y-76332142D01*
X208384308Y-76332140D01*
X208563572Y-76277761D01*
X208563573Y-76277761D01*
X208563576Y-76277760D01*
X208750000Y-76259399D01*
X208936425Y-76277760D01*
X208936425Y-76277760D01*
G37*
G36*
X147864993Y-76277760D02*
G01*
X147864996Y-76277761D01*
X147864997Y-76277761D01*
X148044261Y-76332140D01*
X148044264Y-76332142D01*
X148044265Y-76332142D01*
X148209471Y-76420446D01*
X148354280Y-76539288D01*
X148473122Y-76684097D01*
X148530610Y-76791650D01*
X148561428Y-76849307D01*
X148615807Y-77028571D01*
X148615808Y-77028575D01*
X148629568Y-77168282D01*
X148629568Y-79061718D01*
X148615808Y-79201425D01*
X148615807Y-79201428D01*
X148615807Y-79201429D01*
X148561428Y-79380693D01*
X148561426Y-79380696D01*
X148561426Y-79380697D01*
X148473122Y-79545903D01*
X148354280Y-79690712D01*
X148209471Y-79809554D01*
X148061532Y-79888628D01*
X148044260Y-79897860D01*
X147864996Y-79952239D01*
X147864995Y-79952239D01*
X147864992Y-79952240D01*
X147678568Y-79970601D01*
X147492143Y-79952240D01*
X147492140Y-79952239D01*
X147492139Y-79952239D01*
X147312875Y-79897860D01*
X147295143Y-79888382D01*
X147147665Y-79809554D01*
X147002856Y-79690712D01*
X146884014Y-79545903D01*
X146795710Y-79380696D01*
X146795709Y-79380693D01*
X146795708Y-79380692D01*
X146741329Y-79201428D01*
X146741329Y-79201427D01*
X146741328Y-79201424D01*
X146727568Y-79061717D01*
X146727568Y-77168283D01*
X146741329Y-77028575D01*
X146741330Y-77028571D01*
X146795709Y-76849307D01*
X146826527Y-76791650D01*
X146884015Y-76684097D01*
X147002857Y-76539288D01*
X147147666Y-76420446D01*
X147312872Y-76332142D01*
X147312873Y-76332142D01*
X147312876Y-76332140D01*
X147492140Y-76277761D01*
X147492141Y-76277761D01*
X147492144Y-76277760D01*
X147678568Y-76259399D01*
X147864993Y-76277760D01*
X147864993Y-76277760D01*
G37*
G36*
X205436425Y-76277760D02*
G01*
X205436428Y-76277761D01*
X205436429Y-76277761D01*
X205615693Y-76332140D01*
X205615696Y-76332142D01*
X205615697Y-76332142D01*
X205780903Y-76420446D01*
X205925712Y-76539288D01*
X206044554Y-76684097D01*
X206102042Y-76791650D01*
X206132860Y-76849307D01*
X206187239Y-77028571D01*
X206187240Y-77028575D01*
X206201000Y-77168282D01*
X206201000Y-79061718D01*
X206187240Y-79201425D01*
X206187239Y-79201428D01*
X206187239Y-79201429D01*
X206132860Y-79380693D01*
X206132858Y-79380696D01*
X206132858Y-79380697D01*
X206044554Y-79545903D01*
X205925712Y-79690712D01*
X205780903Y-79809554D01*
X205632964Y-79888628D01*
X205615692Y-79897860D01*
X205436428Y-79952239D01*
X205436427Y-79952239D01*
X205436424Y-79952240D01*
X205250000Y-79970601D01*
X205063575Y-79952240D01*
X205063572Y-79952239D01*
X205063571Y-79952239D01*
X204884307Y-79897860D01*
X204866575Y-79888382D01*
X204719097Y-79809554D01*
X204574288Y-79690712D01*
X204455446Y-79545903D01*
X204367142Y-79380696D01*
X204367141Y-79380693D01*
X204367140Y-79380692D01*
X204312761Y-79201428D01*
X204312761Y-79201427D01*
X204312760Y-79201424D01*
X204299000Y-79061717D01*
X204299000Y-77168283D01*
X204312761Y-77028575D01*
X204312762Y-77028571D01*
X204367141Y-76849307D01*
X204397959Y-76791650D01*
X204455447Y-76684097D01*
X204574289Y-76539288D01*
X204719098Y-76420446D01*
X204884304Y-76332142D01*
X204884305Y-76332142D01*
X204884308Y-76332140D01*
X205063572Y-76277761D01*
X205063573Y-76277761D01*
X205063576Y-76277760D01*
X205250000Y-76259399D01*
X205436425Y-76277760D01*
X205436425Y-76277760D01*
G37*
G36*
X201936425Y-76277760D02*
G01*
X201936428Y-76277761D01*
X201936429Y-76277761D01*
X202115693Y-76332140D01*
X202115696Y-76332142D01*
X202115697Y-76332142D01*
X202280903Y-76420446D01*
X202425712Y-76539288D01*
X202544554Y-76684097D01*
X202602042Y-76791650D01*
X202632860Y-76849307D01*
X202687239Y-77028571D01*
X202687240Y-77028575D01*
X202701000Y-77168282D01*
X202701000Y-79061718D01*
X202687240Y-79201425D01*
X202687239Y-79201428D01*
X202687239Y-79201429D01*
X202632860Y-79380693D01*
X202632858Y-79380696D01*
X202632858Y-79380697D01*
X202544554Y-79545903D01*
X202425712Y-79690712D01*
X202280903Y-79809554D01*
X202132964Y-79888628D01*
X202115692Y-79897860D01*
X201936428Y-79952239D01*
X201936427Y-79952239D01*
X201936424Y-79952240D01*
X201750000Y-79970601D01*
X201563575Y-79952240D01*
X201563572Y-79952239D01*
X201563571Y-79952239D01*
X201384307Y-79897860D01*
X201366575Y-79888382D01*
X201219097Y-79809554D01*
X201074288Y-79690712D01*
X200955446Y-79545903D01*
X200867142Y-79380696D01*
X200867141Y-79380693D01*
X200867140Y-79380692D01*
X200812761Y-79201428D01*
X200812761Y-79201427D01*
X200812760Y-79201424D01*
X200799000Y-79061717D01*
X200799000Y-77168283D01*
X200812761Y-77028575D01*
X200812762Y-77028571D01*
X200867141Y-76849307D01*
X200897959Y-76791650D01*
X200955447Y-76684097D01*
X201074289Y-76539288D01*
X201219098Y-76420446D01*
X201384304Y-76332142D01*
X201384305Y-76332142D01*
X201384308Y-76332140D01*
X201563572Y-76277761D01*
X201563573Y-76277761D01*
X201563576Y-76277760D01*
X201750000Y-76259399D01*
X201936425Y-76277760D01*
X201936425Y-76277760D01*
G37*
G36*
X192079277Y-76277760D02*
G01*
X192079280Y-76277761D01*
X192079281Y-76277761D01*
X192258545Y-76332140D01*
X192258548Y-76332142D01*
X192258549Y-76332142D01*
X192423755Y-76420446D01*
X192568564Y-76539288D01*
X192687406Y-76684097D01*
X192744894Y-76791650D01*
X192775712Y-76849307D01*
X192830091Y-77028571D01*
X192830092Y-77028575D01*
X192843852Y-77168282D01*
X192843852Y-79061718D01*
X192830092Y-79201425D01*
X192830091Y-79201428D01*
X192830091Y-79201429D01*
X192775712Y-79380693D01*
X192775710Y-79380696D01*
X192775710Y-79380697D01*
X192687406Y-79545903D01*
X192568564Y-79690712D01*
X192423755Y-79809554D01*
X192275816Y-79888628D01*
X192258544Y-79897860D01*
X192079280Y-79952239D01*
X192079279Y-79952239D01*
X192079276Y-79952240D01*
X191892852Y-79970601D01*
X191706427Y-79952240D01*
X191706424Y-79952239D01*
X191706423Y-79952239D01*
X191527159Y-79897860D01*
X191509427Y-79888382D01*
X191361949Y-79809554D01*
X191217140Y-79690712D01*
X191098298Y-79545903D01*
X191009994Y-79380696D01*
X191009993Y-79380693D01*
X191009992Y-79380692D01*
X190955613Y-79201428D01*
X190955613Y-79201427D01*
X190955612Y-79201424D01*
X190941852Y-79061717D01*
X190941852Y-77168283D01*
X190955613Y-77028575D01*
X190955614Y-77028571D01*
X191009993Y-76849307D01*
X191040811Y-76791650D01*
X191098299Y-76684097D01*
X191217141Y-76539288D01*
X191361950Y-76420446D01*
X191527156Y-76332142D01*
X191527157Y-76332142D01*
X191527160Y-76332140D01*
X191706424Y-76277761D01*
X191706425Y-76277761D01*
X191706428Y-76277760D01*
X191892852Y-76259399D01*
X192079277Y-76277760D01*
X192079277Y-76277760D01*
G37*
G36*
X188579277Y-76277760D02*
G01*
X188579280Y-76277761D01*
X188579281Y-76277761D01*
X188758545Y-76332140D01*
X188758548Y-76332142D01*
X188758549Y-76332142D01*
X188923755Y-76420446D01*
X189068564Y-76539288D01*
X189187406Y-76684097D01*
X189244894Y-76791650D01*
X189275712Y-76849307D01*
X189330091Y-77028571D01*
X189330092Y-77028575D01*
X189343852Y-77168282D01*
X189343852Y-79061718D01*
X189330092Y-79201425D01*
X189330091Y-79201428D01*
X189330091Y-79201429D01*
X189275712Y-79380693D01*
X189275710Y-79380696D01*
X189275710Y-79380697D01*
X189187406Y-79545903D01*
X189068564Y-79690712D01*
X188923755Y-79809554D01*
X188775816Y-79888628D01*
X188758544Y-79897860D01*
X188579280Y-79952239D01*
X188579279Y-79952239D01*
X188579276Y-79952240D01*
X188392852Y-79970601D01*
X188206427Y-79952240D01*
X188206424Y-79952239D01*
X188206423Y-79952239D01*
X188027159Y-79897860D01*
X188009427Y-79888382D01*
X187861949Y-79809554D01*
X187717140Y-79690712D01*
X187598298Y-79545903D01*
X187509994Y-79380696D01*
X187509993Y-79380693D01*
X187509992Y-79380692D01*
X187455613Y-79201428D01*
X187455613Y-79201427D01*
X187455612Y-79201424D01*
X187441852Y-79061717D01*
X187441852Y-77168283D01*
X187455613Y-77028575D01*
X187455614Y-77028571D01*
X187509993Y-76849307D01*
X187540811Y-76791650D01*
X187598299Y-76684097D01*
X187717141Y-76539288D01*
X187861950Y-76420446D01*
X188027156Y-76332142D01*
X188027157Y-76332142D01*
X188027160Y-76332140D01*
X188206424Y-76277761D01*
X188206425Y-76277761D01*
X188206428Y-76277760D01*
X188392852Y-76259399D01*
X188579277Y-76277760D01*
X188579277Y-76277760D01*
G37*
G36*
X185079277Y-76277760D02*
G01*
X185079280Y-76277761D01*
X185079281Y-76277761D01*
X185258545Y-76332140D01*
X185258548Y-76332142D01*
X185258549Y-76332142D01*
X185423755Y-76420446D01*
X185568564Y-76539288D01*
X185687406Y-76684097D01*
X185744894Y-76791650D01*
X185775712Y-76849307D01*
X185830091Y-77028571D01*
X185830092Y-77028575D01*
X185843852Y-77168282D01*
X185843852Y-79061718D01*
X185830092Y-79201425D01*
X185830091Y-79201428D01*
X185830091Y-79201429D01*
X185775712Y-79380693D01*
X185775710Y-79380696D01*
X185775710Y-79380697D01*
X185687406Y-79545903D01*
X185568564Y-79690712D01*
X185423755Y-79809554D01*
X185275816Y-79888628D01*
X185258544Y-79897860D01*
X185079280Y-79952239D01*
X185079279Y-79952239D01*
X185079276Y-79952240D01*
X184892852Y-79970601D01*
X184706427Y-79952240D01*
X184706424Y-79952239D01*
X184706423Y-79952239D01*
X184527159Y-79897860D01*
X184509427Y-79888382D01*
X184361949Y-79809554D01*
X184217140Y-79690712D01*
X184098298Y-79545903D01*
X184009994Y-79380696D01*
X184009993Y-79380693D01*
X184009992Y-79380692D01*
X183955613Y-79201428D01*
X183955613Y-79201427D01*
X183955612Y-79201424D01*
X183941852Y-79061717D01*
X183941852Y-77168283D01*
X183955613Y-77028575D01*
X183955614Y-77028571D01*
X184009993Y-76849307D01*
X184040811Y-76791650D01*
X184098299Y-76684097D01*
X184217141Y-76539288D01*
X184361950Y-76420446D01*
X184527156Y-76332142D01*
X184527157Y-76332142D01*
X184527160Y-76332140D01*
X184706424Y-76277761D01*
X184706425Y-76277761D01*
X184706428Y-76277760D01*
X184892852Y-76259399D01*
X185079277Y-76277760D01*
X185079277Y-76277760D01*
G37*
G36*
X110650709Y-76277760D02*
G01*
X110650712Y-76277761D01*
X110650713Y-76277761D01*
X110829977Y-76332140D01*
X110829980Y-76332142D01*
X110829981Y-76332142D01*
X110995187Y-76420446D01*
X111139996Y-76539288D01*
X111258838Y-76684097D01*
X111316326Y-76791650D01*
X111347144Y-76849307D01*
X111401523Y-77028571D01*
X111401524Y-77028575D01*
X111415284Y-77168282D01*
X111415284Y-79061718D01*
X111401524Y-79201425D01*
X111401523Y-79201428D01*
X111401523Y-79201429D01*
X111347144Y-79380693D01*
X111347142Y-79380696D01*
X111347142Y-79380697D01*
X111258838Y-79545903D01*
X111139996Y-79690712D01*
X110995187Y-79809554D01*
X110847248Y-79888628D01*
X110829976Y-79897860D01*
X110650712Y-79952239D01*
X110650711Y-79952239D01*
X110650708Y-79952240D01*
X110464284Y-79970601D01*
X110277859Y-79952240D01*
X110277856Y-79952239D01*
X110277855Y-79952239D01*
X110098591Y-79897860D01*
X110080859Y-79888382D01*
X109933381Y-79809554D01*
X109788572Y-79690712D01*
X109669730Y-79545903D01*
X109581426Y-79380696D01*
X109581425Y-79380693D01*
X109581424Y-79380692D01*
X109527045Y-79201428D01*
X109527045Y-79201427D01*
X109527044Y-79201424D01*
X109513284Y-79061717D01*
X109513284Y-77168283D01*
X109527045Y-77028575D01*
X109527046Y-77028571D01*
X109581425Y-76849307D01*
X109612243Y-76791650D01*
X109669731Y-76684097D01*
X109788573Y-76539288D01*
X109933382Y-76420446D01*
X110098588Y-76332142D01*
X110098589Y-76332142D01*
X110098592Y-76332140D01*
X110277856Y-76277761D01*
X110277857Y-76277761D01*
X110277860Y-76277760D01*
X110464284Y-76259399D01*
X110650709Y-76277760D01*
X110650709Y-76277760D01*
G37*
G36*
X66436425Y-76277760D02*
G01*
X66436428Y-76277761D01*
X66436429Y-76277761D01*
X66615693Y-76332140D01*
X66615696Y-76332142D01*
X66615697Y-76332142D01*
X66780903Y-76420446D01*
X66925712Y-76539288D01*
X67044554Y-76684097D01*
X67102042Y-76791650D01*
X67132860Y-76849307D01*
X67187239Y-77028571D01*
X67187240Y-77028575D01*
X67201000Y-77168282D01*
X67201000Y-79061718D01*
X67187240Y-79201425D01*
X67187239Y-79201428D01*
X67187239Y-79201429D01*
X67132860Y-79380693D01*
X67132858Y-79380696D01*
X67132858Y-79380697D01*
X67044554Y-79545903D01*
X66925712Y-79690712D01*
X66780903Y-79809554D01*
X66632964Y-79888628D01*
X66615692Y-79897860D01*
X66436428Y-79952239D01*
X66436427Y-79952239D01*
X66436424Y-79952240D01*
X66250000Y-79970601D01*
X66063575Y-79952240D01*
X66063572Y-79952239D01*
X66063571Y-79952239D01*
X65884307Y-79897860D01*
X65866575Y-79888382D01*
X65719097Y-79809554D01*
X65574288Y-79690712D01*
X65455446Y-79545903D01*
X65367142Y-79380696D01*
X65367141Y-79380693D01*
X65367140Y-79380692D01*
X65312761Y-79201428D01*
X65312761Y-79201427D01*
X65312760Y-79201424D01*
X65299000Y-79061717D01*
X65299000Y-77168283D01*
X65312761Y-77028575D01*
X65312762Y-77028571D01*
X65367141Y-76849307D01*
X65397959Y-76791650D01*
X65455447Y-76684097D01*
X65574289Y-76539288D01*
X65719098Y-76420446D01*
X65884304Y-76332142D01*
X65884305Y-76332142D01*
X65884308Y-76332140D01*
X66063572Y-76277761D01*
X66063573Y-76277761D01*
X66063576Y-76277760D01*
X66250000Y-76259399D01*
X66436425Y-76277760D01*
X66436425Y-76277760D01*
G37*
G36*
X62936425Y-76277760D02*
G01*
X62936428Y-76277761D01*
X62936429Y-76277761D01*
X63115693Y-76332140D01*
X63115696Y-76332142D01*
X63115697Y-76332142D01*
X63280903Y-76420446D01*
X63425712Y-76539288D01*
X63544554Y-76684097D01*
X63602042Y-76791650D01*
X63632860Y-76849307D01*
X63687239Y-77028571D01*
X63687240Y-77028575D01*
X63701000Y-77168282D01*
X63701000Y-79061718D01*
X63687240Y-79201425D01*
X63687239Y-79201428D01*
X63687239Y-79201429D01*
X63632860Y-79380693D01*
X63632858Y-79380696D01*
X63632858Y-79380697D01*
X63544554Y-79545903D01*
X63425712Y-79690712D01*
X63280903Y-79809554D01*
X63132964Y-79888628D01*
X63115692Y-79897860D01*
X62936428Y-79952239D01*
X62936427Y-79952239D01*
X62936424Y-79952240D01*
X62750000Y-79970601D01*
X62563575Y-79952240D01*
X62563572Y-79952239D01*
X62563571Y-79952239D01*
X62384307Y-79897860D01*
X62366575Y-79888382D01*
X62219097Y-79809554D01*
X62074288Y-79690712D01*
X61955446Y-79545903D01*
X61867142Y-79380696D01*
X61867141Y-79380693D01*
X61867140Y-79380692D01*
X61812761Y-79201428D01*
X61812761Y-79201427D01*
X61812760Y-79201424D01*
X61799000Y-79061717D01*
X61799000Y-77168283D01*
X61812761Y-77028575D01*
X61812762Y-77028571D01*
X61867141Y-76849307D01*
X61897959Y-76791650D01*
X61955447Y-76684097D01*
X62074289Y-76539288D01*
X62219098Y-76420446D01*
X62384304Y-76332142D01*
X62384305Y-76332142D01*
X62384308Y-76332140D01*
X62563572Y-76277761D01*
X62563573Y-76277761D01*
X62563576Y-76277760D01*
X62750000Y-76259399D01*
X62936425Y-76277760D01*
X62936425Y-76277760D01*
G37*
G36*
X59436425Y-76277760D02*
G01*
X59436428Y-76277761D01*
X59436429Y-76277761D01*
X59615693Y-76332140D01*
X59615696Y-76332142D01*
X59615697Y-76332142D01*
X59780903Y-76420446D01*
X59925712Y-76539288D01*
X60044554Y-76684097D01*
X60102042Y-76791650D01*
X60132860Y-76849307D01*
X60187239Y-77028571D01*
X60187240Y-77028575D01*
X60201000Y-77168282D01*
X60201000Y-79061718D01*
X60187240Y-79201425D01*
X60187239Y-79201428D01*
X60187239Y-79201429D01*
X60132860Y-79380693D01*
X60132858Y-79380696D01*
X60132858Y-79380697D01*
X60044554Y-79545903D01*
X59925712Y-79690712D01*
X59780903Y-79809554D01*
X59632964Y-79888628D01*
X59615692Y-79897860D01*
X59436428Y-79952239D01*
X59436427Y-79952239D01*
X59436424Y-79952240D01*
X59250000Y-79970601D01*
X59063575Y-79952240D01*
X59063572Y-79952239D01*
X59063571Y-79952239D01*
X58884307Y-79897860D01*
X58866575Y-79888382D01*
X58719097Y-79809554D01*
X58574288Y-79690712D01*
X58455446Y-79545903D01*
X58367142Y-79380696D01*
X58367141Y-79380693D01*
X58367140Y-79380692D01*
X58312761Y-79201428D01*
X58312761Y-79201427D01*
X58312760Y-79201424D01*
X58299000Y-79061717D01*
X58299000Y-77168283D01*
X58312761Y-77028575D01*
X58312762Y-77028571D01*
X58367141Y-76849307D01*
X58397959Y-76791650D01*
X58455447Y-76684097D01*
X58574289Y-76539288D01*
X58719098Y-76420446D01*
X58884304Y-76332142D01*
X58884305Y-76332142D01*
X58884308Y-76332140D01*
X59063572Y-76277761D01*
X59063573Y-76277761D01*
X59063576Y-76277760D01*
X59250000Y-76259399D01*
X59436425Y-76277760D01*
X59436425Y-76277760D01*
G37*
G36*
X90293567Y-76277760D02*
G01*
X90293570Y-76277761D01*
X90293571Y-76277761D01*
X90472835Y-76332140D01*
X90472838Y-76332142D01*
X90472839Y-76332142D01*
X90638045Y-76420446D01*
X90782854Y-76539288D01*
X90901696Y-76684097D01*
X90959184Y-76791650D01*
X90990002Y-76849307D01*
X91044381Y-77028571D01*
X91044382Y-77028575D01*
X91058142Y-77168282D01*
X91058142Y-79061718D01*
X91044382Y-79201425D01*
X91044381Y-79201428D01*
X91044381Y-79201429D01*
X90990002Y-79380693D01*
X90990000Y-79380696D01*
X90990000Y-79380697D01*
X90901696Y-79545903D01*
X90782854Y-79690712D01*
X90638045Y-79809554D01*
X90490106Y-79888628D01*
X90472834Y-79897860D01*
X90293570Y-79952239D01*
X90293569Y-79952239D01*
X90293566Y-79952240D01*
X90107142Y-79970601D01*
X89920717Y-79952240D01*
X89920714Y-79952239D01*
X89920713Y-79952239D01*
X89741449Y-79897860D01*
X89723717Y-79888382D01*
X89576239Y-79809554D01*
X89431430Y-79690712D01*
X89312588Y-79545903D01*
X89224284Y-79380696D01*
X89224283Y-79380693D01*
X89224282Y-79380692D01*
X89169903Y-79201428D01*
X89169903Y-79201427D01*
X89169902Y-79201424D01*
X89156142Y-79061717D01*
X89156142Y-77168283D01*
X89169903Y-77028575D01*
X89169904Y-77028571D01*
X89224283Y-76849307D01*
X89255101Y-76791650D01*
X89312589Y-76684097D01*
X89431431Y-76539288D01*
X89576240Y-76420446D01*
X89741446Y-76332142D01*
X89741447Y-76332142D01*
X89741450Y-76332140D01*
X89920714Y-76277761D01*
X89920715Y-76277761D01*
X89920718Y-76277760D01*
X90107142Y-76259399D01*
X90293567Y-76277760D01*
X90293567Y-76277760D01*
G37*
G36*
X86793567Y-76277760D02*
G01*
X86793570Y-76277761D01*
X86793571Y-76277761D01*
X86972835Y-76332140D01*
X86972838Y-76332142D01*
X86972839Y-76332142D01*
X87138045Y-76420446D01*
X87282854Y-76539288D01*
X87401696Y-76684097D01*
X87459184Y-76791650D01*
X87490002Y-76849307D01*
X87544381Y-77028571D01*
X87544382Y-77028575D01*
X87558142Y-77168282D01*
X87558142Y-79061718D01*
X87544382Y-79201425D01*
X87544381Y-79201428D01*
X87544381Y-79201429D01*
X87490002Y-79380693D01*
X87490000Y-79380696D01*
X87490000Y-79380697D01*
X87401696Y-79545903D01*
X87282854Y-79690712D01*
X87138045Y-79809554D01*
X86990106Y-79888628D01*
X86972834Y-79897860D01*
X86793570Y-79952239D01*
X86793569Y-79952239D01*
X86793566Y-79952240D01*
X86607142Y-79970601D01*
X86420717Y-79952240D01*
X86420714Y-79952239D01*
X86420713Y-79952239D01*
X86241449Y-79897860D01*
X86223717Y-79888382D01*
X86076239Y-79809554D01*
X85931430Y-79690712D01*
X85812588Y-79545903D01*
X85724284Y-79380696D01*
X85724283Y-79380693D01*
X85724282Y-79380692D01*
X85669903Y-79201428D01*
X85669903Y-79201427D01*
X85669902Y-79201424D01*
X85656142Y-79061717D01*
X85656142Y-77168283D01*
X85669903Y-77028575D01*
X85669904Y-77028571D01*
X85724283Y-76849307D01*
X85755101Y-76791650D01*
X85812589Y-76684097D01*
X85931431Y-76539288D01*
X86076240Y-76420446D01*
X86241446Y-76332142D01*
X86241447Y-76332142D01*
X86241450Y-76332140D01*
X86420714Y-76277761D01*
X86420715Y-76277761D01*
X86420718Y-76277760D01*
X86607142Y-76259399D01*
X86793567Y-76277760D01*
X86793567Y-76277760D01*
G37*
G36*
X83293567Y-76277760D02*
G01*
X83293570Y-76277761D01*
X83293571Y-76277761D01*
X83472835Y-76332140D01*
X83472838Y-76332142D01*
X83472839Y-76332142D01*
X83638045Y-76420446D01*
X83782854Y-76539288D01*
X83901696Y-76684097D01*
X83959184Y-76791650D01*
X83990002Y-76849307D01*
X84044381Y-77028571D01*
X84044382Y-77028575D01*
X84058142Y-77168282D01*
X84058142Y-79061718D01*
X84044382Y-79201425D01*
X84044381Y-79201428D01*
X84044381Y-79201429D01*
X83990002Y-79380693D01*
X83990000Y-79380696D01*
X83990000Y-79380697D01*
X83901696Y-79545903D01*
X83782854Y-79690712D01*
X83638045Y-79809554D01*
X83490106Y-79888628D01*
X83472834Y-79897860D01*
X83293570Y-79952239D01*
X83293569Y-79952239D01*
X83293566Y-79952240D01*
X83107142Y-79970601D01*
X82920717Y-79952240D01*
X82920714Y-79952239D01*
X82920713Y-79952239D01*
X82741449Y-79897860D01*
X82723717Y-79888382D01*
X82576239Y-79809554D01*
X82431430Y-79690712D01*
X82312588Y-79545903D01*
X82224284Y-79380696D01*
X82224283Y-79380693D01*
X82224282Y-79380692D01*
X82169903Y-79201428D01*
X82169903Y-79201427D01*
X82169902Y-79201424D01*
X82156142Y-79061717D01*
X82156142Y-77168283D01*
X82169903Y-77028575D01*
X82169904Y-77028571D01*
X82224283Y-76849307D01*
X82255101Y-76791650D01*
X82312589Y-76684097D01*
X82431431Y-76539288D01*
X82576240Y-76420446D01*
X82741446Y-76332142D01*
X82741447Y-76332142D01*
X82741450Y-76332140D01*
X82920714Y-76277761D01*
X82920715Y-76277761D01*
X82920718Y-76277760D01*
X83107142Y-76259399D01*
X83293567Y-76277760D01*
X83293567Y-76277760D01*
G37*
G36*
X79793567Y-76277760D02*
G01*
X79793570Y-76277761D01*
X79793571Y-76277761D01*
X79972835Y-76332140D01*
X79972838Y-76332142D01*
X79972839Y-76332142D01*
X80138045Y-76420446D01*
X80282854Y-76539288D01*
X80401696Y-76684097D01*
X80459184Y-76791650D01*
X80490002Y-76849307D01*
X80544381Y-77028571D01*
X80544382Y-77028575D01*
X80558142Y-77168282D01*
X80558142Y-79061718D01*
X80544382Y-79201425D01*
X80544381Y-79201428D01*
X80544381Y-79201429D01*
X80490002Y-79380693D01*
X80490000Y-79380696D01*
X80490000Y-79380697D01*
X80401696Y-79545903D01*
X80282854Y-79690712D01*
X80138045Y-79809554D01*
X79990106Y-79888628D01*
X79972834Y-79897860D01*
X79793570Y-79952239D01*
X79793569Y-79952239D01*
X79793566Y-79952240D01*
X79607142Y-79970601D01*
X79420717Y-79952240D01*
X79420714Y-79952239D01*
X79420713Y-79952239D01*
X79241449Y-79897860D01*
X79223717Y-79888382D01*
X79076239Y-79809554D01*
X78931430Y-79690712D01*
X78812588Y-79545903D01*
X78724284Y-79380696D01*
X78724283Y-79380693D01*
X78724282Y-79380692D01*
X78669903Y-79201428D01*
X78669903Y-79201427D01*
X78669902Y-79201424D01*
X78656142Y-79061717D01*
X78656142Y-77168283D01*
X78669903Y-77028575D01*
X78669904Y-77028571D01*
X78724283Y-76849307D01*
X78755101Y-76791650D01*
X78812589Y-76684097D01*
X78931431Y-76539288D01*
X79076240Y-76420446D01*
X79241446Y-76332142D01*
X79241447Y-76332142D01*
X79241450Y-76332140D01*
X79420714Y-76277761D01*
X79420715Y-76277761D01*
X79420718Y-76277760D01*
X79607142Y-76259399D01*
X79793567Y-76277760D01*
X79793567Y-76277760D01*
G37*
G36*
X181579277Y-76277760D02*
G01*
X181579280Y-76277761D01*
X181579281Y-76277761D01*
X181758545Y-76332140D01*
X181758548Y-76332142D01*
X181758549Y-76332142D01*
X181923755Y-76420446D01*
X182068564Y-76539288D01*
X182187406Y-76684097D01*
X182244894Y-76791650D01*
X182275712Y-76849307D01*
X182330091Y-77028571D01*
X182330092Y-77028575D01*
X182343852Y-77168282D01*
X182343852Y-79061718D01*
X182330092Y-79201425D01*
X182330091Y-79201428D01*
X182330091Y-79201429D01*
X182275712Y-79380693D01*
X182275710Y-79380696D01*
X182275710Y-79380697D01*
X182187406Y-79545903D01*
X182068564Y-79690712D01*
X181923755Y-79809554D01*
X181775816Y-79888628D01*
X181758544Y-79897860D01*
X181579280Y-79952239D01*
X181579279Y-79952239D01*
X181579276Y-79952240D01*
X181392852Y-79970601D01*
X181206427Y-79952240D01*
X181206424Y-79952239D01*
X181206423Y-79952239D01*
X181027159Y-79897860D01*
X181009427Y-79888382D01*
X180861949Y-79809554D01*
X180717140Y-79690712D01*
X180598298Y-79545903D01*
X180509994Y-79380696D01*
X180509993Y-79380693D01*
X180509992Y-79380692D01*
X180455613Y-79201428D01*
X180455613Y-79201427D01*
X180455612Y-79201424D01*
X180441852Y-79061717D01*
X180441852Y-77168283D01*
X180455613Y-77028575D01*
X180455614Y-77028571D01*
X180509993Y-76849307D01*
X180540811Y-76791650D01*
X180598299Y-76684097D01*
X180717141Y-76539288D01*
X180861950Y-76420446D01*
X181027156Y-76332142D01*
X181027157Y-76332142D01*
X181027160Y-76332140D01*
X181206424Y-76277761D01*
X181206425Y-76277761D01*
X181206428Y-76277760D01*
X181392852Y-76259399D01*
X181579277Y-76277760D01*
X181579277Y-76277760D01*
G37*
G36*
X69936425Y-76277760D02*
G01*
X69936428Y-76277761D01*
X69936429Y-76277761D01*
X70115693Y-76332140D01*
X70115696Y-76332142D01*
X70115697Y-76332142D01*
X70280903Y-76420446D01*
X70425712Y-76539288D01*
X70544554Y-76684097D01*
X70602042Y-76791650D01*
X70632860Y-76849307D01*
X70687239Y-77028571D01*
X70687240Y-77028575D01*
X70701000Y-77168282D01*
X70701000Y-79061718D01*
X70687240Y-79201425D01*
X70687239Y-79201428D01*
X70687239Y-79201429D01*
X70632860Y-79380693D01*
X70632858Y-79380696D01*
X70632858Y-79380697D01*
X70544554Y-79545903D01*
X70425712Y-79690712D01*
X70280903Y-79809554D01*
X70132964Y-79888628D01*
X70115692Y-79897860D01*
X69936428Y-79952239D01*
X69936427Y-79952239D01*
X69936424Y-79952240D01*
X69750000Y-79970601D01*
X69563575Y-79952240D01*
X69563572Y-79952239D01*
X69563571Y-79952239D01*
X69384307Y-79897860D01*
X69366575Y-79888382D01*
X69219097Y-79809554D01*
X69074288Y-79690712D01*
X68955446Y-79545903D01*
X68867142Y-79380696D01*
X68867141Y-79380693D01*
X68867140Y-79380692D01*
X68812761Y-79201428D01*
X68812761Y-79201427D01*
X68812760Y-79201424D01*
X68799000Y-79061717D01*
X68799000Y-77168283D01*
X68812761Y-77028575D01*
X68812762Y-77028571D01*
X68867141Y-76849307D01*
X68897959Y-76791650D01*
X68955447Y-76684097D01*
X69074289Y-76539288D01*
X69219098Y-76420446D01*
X69384304Y-76332142D01*
X69384305Y-76332142D01*
X69384308Y-76332140D01*
X69563572Y-76277761D01*
X69563573Y-76277761D01*
X69563576Y-76277760D01*
X69750000Y-76259399D01*
X69936425Y-76277760D01*
X69936425Y-76277760D01*
G37*
G36*
X124007851Y-76277760D02*
G01*
X124007854Y-76277761D01*
X124007855Y-76277761D01*
X124187119Y-76332140D01*
X124187122Y-76332142D01*
X124187123Y-76332142D01*
X124352329Y-76420446D01*
X124497138Y-76539288D01*
X124615980Y-76684097D01*
X124673468Y-76791650D01*
X124704286Y-76849307D01*
X124758665Y-77028571D01*
X124758666Y-77028575D01*
X124772426Y-77168282D01*
X124772426Y-79061718D01*
X124758666Y-79201425D01*
X124758665Y-79201428D01*
X124758665Y-79201429D01*
X124704286Y-79380693D01*
X124704284Y-79380696D01*
X124704284Y-79380697D01*
X124615980Y-79545903D01*
X124497138Y-79690712D01*
X124352329Y-79809554D01*
X124204390Y-79888628D01*
X124187118Y-79897860D01*
X124007854Y-79952239D01*
X124007853Y-79952239D01*
X124007850Y-79952240D01*
X123821426Y-79970601D01*
X123635001Y-79952240D01*
X123634998Y-79952239D01*
X123634997Y-79952239D01*
X123455733Y-79897860D01*
X123438001Y-79888382D01*
X123290523Y-79809554D01*
X123145714Y-79690712D01*
X123026872Y-79545903D01*
X122938568Y-79380696D01*
X122938567Y-79380693D01*
X122938566Y-79380692D01*
X122884187Y-79201428D01*
X122884187Y-79201427D01*
X122884186Y-79201424D01*
X122870426Y-79061717D01*
X122870426Y-77168283D01*
X122884187Y-77028575D01*
X122884188Y-77028571D01*
X122938567Y-76849307D01*
X122969385Y-76791650D01*
X123026873Y-76684097D01*
X123145715Y-76539288D01*
X123290524Y-76420446D01*
X123455730Y-76332142D01*
X123455731Y-76332142D01*
X123455734Y-76332140D01*
X123634998Y-76277761D01*
X123634999Y-76277761D01*
X123635002Y-76277760D01*
X123821426Y-76259399D01*
X124007851Y-76277760D01*
X124007851Y-76277760D01*
G37*
G36*
X107150709Y-76277760D02*
G01*
X107150712Y-76277761D01*
X107150713Y-76277761D01*
X107329977Y-76332140D01*
X107329980Y-76332142D01*
X107329981Y-76332142D01*
X107495187Y-76420446D01*
X107639996Y-76539288D01*
X107758838Y-76684097D01*
X107816326Y-76791650D01*
X107847144Y-76849307D01*
X107901523Y-77028571D01*
X107901524Y-77028575D01*
X107915284Y-77168282D01*
X107915284Y-79061718D01*
X107901524Y-79201425D01*
X107901523Y-79201428D01*
X107901523Y-79201429D01*
X107847144Y-79380693D01*
X107847142Y-79380696D01*
X107847142Y-79380697D01*
X107758838Y-79545903D01*
X107639996Y-79690712D01*
X107495187Y-79809554D01*
X107347248Y-79888628D01*
X107329976Y-79897860D01*
X107150712Y-79952239D01*
X107150711Y-79952239D01*
X107150708Y-79952240D01*
X106964284Y-79970601D01*
X106777859Y-79952240D01*
X106777856Y-79952239D01*
X106777855Y-79952239D01*
X106598591Y-79897860D01*
X106580859Y-79888382D01*
X106433381Y-79809554D01*
X106288572Y-79690712D01*
X106169730Y-79545903D01*
X106081426Y-79380696D01*
X106081425Y-79380693D01*
X106081424Y-79380692D01*
X106027045Y-79201428D01*
X106027045Y-79201427D01*
X106027044Y-79201424D01*
X106013284Y-79061717D01*
X106013284Y-77168283D01*
X106027045Y-77028575D01*
X106027046Y-77028571D01*
X106081425Y-76849307D01*
X106112243Y-76791650D01*
X106169731Y-76684097D01*
X106288573Y-76539288D01*
X106433382Y-76420446D01*
X106598588Y-76332142D01*
X106598589Y-76332142D01*
X106598592Y-76332140D01*
X106777856Y-76277761D01*
X106777857Y-76277761D01*
X106777860Y-76277760D01*
X106964284Y-76259399D01*
X107150709Y-76277760D01*
X107150709Y-76277760D01*
G37*
G36*
X127507851Y-76277760D02*
G01*
X127507854Y-76277761D01*
X127507855Y-76277761D01*
X127687119Y-76332140D01*
X127687122Y-76332142D01*
X127687123Y-76332142D01*
X127852329Y-76420446D01*
X127997138Y-76539288D01*
X128115980Y-76684097D01*
X128173468Y-76791650D01*
X128204286Y-76849307D01*
X128258665Y-77028571D01*
X128258666Y-77028575D01*
X128272426Y-77168282D01*
X128272426Y-79061718D01*
X128258666Y-79201425D01*
X128258665Y-79201428D01*
X128258665Y-79201429D01*
X128204286Y-79380693D01*
X128204284Y-79380696D01*
X128204284Y-79380697D01*
X128115980Y-79545903D01*
X127997138Y-79690712D01*
X127852329Y-79809554D01*
X127704390Y-79888628D01*
X127687118Y-79897860D01*
X127507854Y-79952239D01*
X127507853Y-79952239D01*
X127507850Y-79952240D01*
X127321426Y-79970601D01*
X127135001Y-79952240D01*
X127134998Y-79952239D01*
X127134997Y-79952239D01*
X126955733Y-79897860D01*
X126938001Y-79888382D01*
X126790523Y-79809554D01*
X126645714Y-79690712D01*
X126526872Y-79545903D01*
X126438568Y-79380696D01*
X126438567Y-79380693D01*
X126438566Y-79380692D01*
X126384187Y-79201428D01*
X126384187Y-79201427D01*
X126384186Y-79201424D01*
X126370426Y-79061717D01*
X126370426Y-77168283D01*
X126384187Y-77028575D01*
X126384188Y-77028571D01*
X126438567Y-76849307D01*
X126469385Y-76791650D01*
X126526873Y-76684097D01*
X126645715Y-76539288D01*
X126790524Y-76420446D01*
X126955730Y-76332142D01*
X126955731Y-76332142D01*
X126955734Y-76332140D01*
X127134998Y-76277761D01*
X127134999Y-76277761D01*
X127135002Y-76277760D01*
X127321426Y-76259399D01*
X127507851Y-76277760D01*
X127507851Y-76277760D01*
G37*
G36*
X131007851Y-76277760D02*
G01*
X131007854Y-76277761D01*
X131007855Y-76277761D01*
X131187119Y-76332140D01*
X131187122Y-76332142D01*
X131187123Y-76332142D01*
X131352329Y-76420446D01*
X131497138Y-76539288D01*
X131615980Y-76684097D01*
X131673468Y-76791650D01*
X131704286Y-76849307D01*
X131758665Y-77028571D01*
X131758666Y-77028575D01*
X131772426Y-77168282D01*
X131772426Y-79061718D01*
X131758666Y-79201425D01*
X131758665Y-79201428D01*
X131758665Y-79201429D01*
X131704286Y-79380693D01*
X131704284Y-79380696D01*
X131704284Y-79380697D01*
X131615980Y-79545903D01*
X131497138Y-79690712D01*
X131352329Y-79809554D01*
X131204390Y-79888628D01*
X131187118Y-79897860D01*
X131007854Y-79952239D01*
X131007853Y-79952239D01*
X131007850Y-79952240D01*
X130821426Y-79970601D01*
X130635001Y-79952240D01*
X130634998Y-79952239D01*
X130634997Y-79952239D01*
X130455733Y-79897860D01*
X130438001Y-79888382D01*
X130290523Y-79809554D01*
X130145714Y-79690712D01*
X130026872Y-79545903D01*
X129938568Y-79380696D01*
X129938567Y-79380693D01*
X129938566Y-79380692D01*
X129884187Y-79201428D01*
X129884187Y-79201427D01*
X129884186Y-79201424D01*
X129870426Y-79061717D01*
X129870426Y-77168283D01*
X129884187Y-77028575D01*
X129884188Y-77028571D01*
X129938567Y-76849307D01*
X129969385Y-76791650D01*
X130026873Y-76684097D01*
X130145715Y-76539288D01*
X130290524Y-76420446D01*
X130455730Y-76332142D01*
X130455731Y-76332142D01*
X130455734Y-76332140D01*
X130634998Y-76277761D01*
X130634999Y-76277761D01*
X130635002Y-76277760D01*
X130821426Y-76259399D01*
X131007851Y-76277760D01*
X131007851Y-76277760D01*
G37*
G36*
X100150709Y-76277760D02*
G01*
X100150712Y-76277761D01*
X100150713Y-76277761D01*
X100329977Y-76332140D01*
X100329980Y-76332142D01*
X100329981Y-76332142D01*
X100495187Y-76420446D01*
X100639996Y-76539288D01*
X100758838Y-76684097D01*
X100816326Y-76791650D01*
X100847144Y-76849307D01*
X100901523Y-77028571D01*
X100901524Y-77028575D01*
X100915284Y-77168282D01*
X100915284Y-79061718D01*
X100901524Y-79201425D01*
X100901523Y-79201428D01*
X100901523Y-79201429D01*
X100847144Y-79380693D01*
X100847142Y-79380696D01*
X100847142Y-79380697D01*
X100758838Y-79545903D01*
X100639996Y-79690712D01*
X100495187Y-79809554D01*
X100347248Y-79888628D01*
X100329976Y-79897860D01*
X100150712Y-79952239D01*
X100150711Y-79952239D01*
X100150708Y-79952240D01*
X99964284Y-79970601D01*
X99777859Y-79952240D01*
X99777856Y-79952239D01*
X99777855Y-79952239D01*
X99598591Y-79897860D01*
X99580859Y-79888382D01*
X99433381Y-79809554D01*
X99288572Y-79690712D01*
X99169730Y-79545903D01*
X99081426Y-79380696D01*
X99081425Y-79380693D01*
X99081424Y-79380692D01*
X99027045Y-79201428D01*
X99027045Y-79201427D01*
X99027044Y-79201424D01*
X99013284Y-79061717D01*
X99013284Y-77168283D01*
X99027045Y-77028575D01*
X99027046Y-77028571D01*
X99081425Y-76849307D01*
X99112243Y-76791650D01*
X99169731Y-76684097D01*
X99288573Y-76539288D01*
X99433382Y-76420446D01*
X99598588Y-76332142D01*
X99598589Y-76332142D01*
X99598592Y-76332140D01*
X99777856Y-76277761D01*
X99777857Y-76277761D01*
X99777860Y-76277760D01*
X99964284Y-76259399D01*
X100150709Y-76277760D01*
X100150709Y-76277760D01*
G37*
G36*
X103650709Y-76277760D02*
G01*
X103650712Y-76277761D01*
X103650713Y-76277761D01*
X103829977Y-76332140D01*
X103829980Y-76332142D01*
X103829981Y-76332142D01*
X103995187Y-76420446D01*
X104139996Y-76539288D01*
X104258838Y-76684097D01*
X104316326Y-76791650D01*
X104347144Y-76849307D01*
X104401523Y-77028571D01*
X104401524Y-77028575D01*
X104415284Y-77168282D01*
X104415284Y-79061718D01*
X104401524Y-79201425D01*
X104401523Y-79201428D01*
X104401523Y-79201429D01*
X104347144Y-79380693D01*
X104347142Y-79380696D01*
X104347142Y-79380697D01*
X104258838Y-79545903D01*
X104139996Y-79690712D01*
X103995187Y-79809554D01*
X103847248Y-79888628D01*
X103829976Y-79897860D01*
X103650712Y-79952239D01*
X103650711Y-79952239D01*
X103650708Y-79952240D01*
X103464284Y-79970601D01*
X103277859Y-79952240D01*
X103277856Y-79952239D01*
X103277855Y-79952239D01*
X103098591Y-79897860D01*
X103080859Y-79888382D01*
X102933381Y-79809554D01*
X102788572Y-79690712D01*
X102669730Y-79545903D01*
X102581426Y-79380696D01*
X102581425Y-79380693D01*
X102581424Y-79380692D01*
X102527045Y-79201428D01*
X102527045Y-79201427D01*
X102527044Y-79201424D01*
X102513284Y-79061717D01*
X102513284Y-77168283D01*
X102527045Y-77028575D01*
X102527046Y-77028571D01*
X102581425Y-76849307D01*
X102612243Y-76791650D01*
X102669731Y-76684097D01*
X102788573Y-76539288D01*
X102933382Y-76420446D01*
X103098588Y-76332142D01*
X103098589Y-76332142D01*
X103098592Y-76332140D01*
X103277856Y-76277761D01*
X103277857Y-76277761D01*
X103277860Y-76277760D01*
X103464284Y-76259399D01*
X103650709Y-76277760D01*
X103650709Y-76277760D01*
G37*
G36*
X161222135Y-76277760D02*
G01*
X161222138Y-76277761D01*
X161222139Y-76277761D01*
X161401403Y-76332140D01*
X161401406Y-76332142D01*
X161401407Y-76332142D01*
X161566613Y-76420446D01*
X161711422Y-76539288D01*
X161830264Y-76684097D01*
X161887752Y-76791650D01*
X161918570Y-76849307D01*
X161972949Y-77028571D01*
X161972950Y-77028575D01*
X161986710Y-77168282D01*
X161986710Y-79061718D01*
X161972950Y-79201425D01*
X161972949Y-79201428D01*
X161972949Y-79201429D01*
X161918570Y-79380693D01*
X161918568Y-79380696D01*
X161918568Y-79380697D01*
X161830264Y-79545903D01*
X161711422Y-79690712D01*
X161566613Y-79809554D01*
X161418674Y-79888628D01*
X161401402Y-79897860D01*
X161222138Y-79952239D01*
X161222137Y-79952239D01*
X161222134Y-79952240D01*
X161035710Y-79970601D01*
X160849285Y-79952240D01*
X160849282Y-79952239D01*
X160849281Y-79952239D01*
X160670017Y-79897860D01*
X160652285Y-79888382D01*
X160504807Y-79809554D01*
X160359998Y-79690712D01*
X160241156Y-79545903D01*
X160152852Y-79380696D01*
X160152851Y-79380693D01*
X160152850Y-79380692D01*
X160098471Y-79201428D01*
X160098471Y-79201427D01*
X160098470Y-79201424D01*
X160084710Y-79061717D01*
X160084710Y-77168283D01*
X160098471Y-77028575D01*
X160098472Y-77028571D01*
X160152851Y-76849307D01*
X160183669Y-76791650D01*
X160241157Y-76684097D01*
X160359999Y-76539288D01*
X160504808Y-76420446D01*
X160670014Y-76332142D01*
X160670015Y-76332142D01*
X160670018Y-76332140D01*
X160849282Y-76277761D01*
X160849283Y-76277761D01*
X160849286Y-76277760D01*
X161035710Y-76259399D01*
X161222135Y-76277760D01*
X161222135Y-76277760D01*
G37*
G36*
X120507851Y-76277760D02*
G01*
X120507854Y-76277761D01*
X120507855Y-76277761D01*
X120687119Y-76332140D01*
X120687122Y-76332142D01*
X120687123Y-76332142D01*
X120852329Y-76420446D01*
X120997138Y-76539288D01*
X121115980Y-76684097D01*
X121173468Y-76791650D01*
X121204286Y-76849307D01*
X121258665Y-77028571D01*
X121258666Y-77028575D01*
X121272426Y-77168282D01*
X121272426Y-79061718D01*
X121258666Y-79201425D01*
X121258665Y-79201428D01*
X121258665Y-79201429D01*
X121204286Y-79380693D01*
X121204284Y-79380696D01*
X121204284Y-79380697D01*
X121115980Y-79545903D01*
X120997138Y-79690712D01*
X120852329Y-79809554D01*
X120704390Y-79888628D01*
X120687118Y-79897860D01*
X120507854Y-79952239D01*
X120507853Y-79952239D01*
X120507850Y-79952240D01*
X120321426Y-79970601D01*
X120135001Y-79952240D01*
X120134998Y-79952239D01*
X120134997Y-79952239D01*
X119955733Y-79897860D01*
X119938001Y-79888382D01*
X119790523Y-79809554D01*
X119645714Y-79690712D01*
X119526872Y-79545903D01*
X119438568Y-79380696D01*
X119438567Y-79380693D01*
X119438566Y-79380692D01*
X119384187Y-79201428D01*
X119384187Y-79201427D01*
X119384186Y-79201424D01*
X119370426Y-79061717D01*
X119370426Y-77168283D01*
X119384187Y-77028575D01*
X119384188Y-77028571D01*
X119438567Y-76849307D01*
X119469385Y-76791650D01*
X119526873Y-76684097D01*
X119645715Y-76539288D01*
X119790524Y-76420446D01*
X119955730Y-76332142D01*
X119955731Y-76332142D01*
X119955734Y-76332140D01*
X120134998Y-76277761D01*
X120134999Y-76277761D01*
X120135002Y-76277760D01*
X120321426Y-76259399D01*
X120507851Y-76277760D01*
X120507851Y-76277760D01*
G37*
G36*
X151364993Y-76277760D02*
G01*
X151364996Y-76277761D01*
X151364997Y-76277761D01*
X151544261Y-76332140D01*
X151544264Y-76332142D01*
X151544265Y-76332142D01*
X151709471Y-76420446D01*
X151854280Y-76539288D01*
X151973122Y-76684097D01*
X152030610Y-76791650D01*
X152061428Y-76849307D01*
X152115807Y-77028571D01*
X152115808Y-77028575D01*
X152129568Y-77168282D01*
X152129568Y-79061718D01*
X152115808Y-79201425D01*
X152115807Y-79201428D01*
X152115807Y-79201429D01*
X152061428Y-79380693D01*
X152061426Y-79380696D01*
X152061426Y-79380697D01*
X151973122Y-79545903D01*
X151854280Y-79690712D01*
X151709471Y-79809554D01*
X151561532Y-79888628D01*
X151544260Y-79897860D01*
X151364996Y-79952239D01*
X151364995Y-79952239D01*
X151364992Y-79952240D01*
X151178568Y-79970601D01*
X150992143Y-79952240D01*
X150992140Y-79952239D01*
X150992139Y-79952239D01*
X150812875Y-79897860D01*
X150795143Y-79888382D01*
X150647665Y-79809554D01*
X150502856Y-79690712D01*
X150384014Y-79545903D01*
X150295710Y-79380696D01*
X150295709Y-79380693D01*
X150295708Y-79380692D01*
X150241329Y-79201428D01*
X150241329Y-79201427D01*
X150241328Y-79201424D01*
X150227568Y-79061717D01*
X150227568Y-77168283D01*
X150241329Y-77028575D01*
X150241330Y-77028571D01*
X150295709Y-76849307D01*
X150326527Y-76791650D01*
X150384015Y-76684097D01*
X150502857Y-76539288D01*
X150647666Y-76420446D01*
X150812872Y-76332142D01*
X150812873Y-76332142D01*
X150812876Y-76332140D01*
X150992140Y-76277761D01*
X150992141Y-76277761D01*
X150992144Y-76277760D01*
X151178568Y-76259399D01*
X151364993Y-76277760D01*
X151364993Y-76277760D01*
G37*
G36*
X144364993Y-76277760D02*
G01*
X144364996Y-76277761D01*
X144364997Y-76277761D01*
X144544261Y-76332140D01*
X144544264Y-76332142D01*
X144544265Y-76332142D01*
X144709471Y-76420446D01*
X144854280Y-76539288D01*
X144973122Y-76684097D01*
X145030610Y-76791650D01*
X145061428Y-76849307D01*
X145115807Y-77028571D01*
X145115808Y-77028575D01*
X145129568Y-77168282D01*
X145129568Y-79061718D01*
X145115808Y-79201425D01*
X145115807Y-79201428D01*
X145115807Y-79201429D01*
X145061428Y-79380693D01*
X145061426Y-79380696D01*
X145061426Y-79380697D01*
X144973122Y-79545903D01*
X144854280Y-79690712D01*
X144709471Y-79809554D01*
X144561532Y-79888628D01*
X144544260Y-79897860D01*
X144364996Y-79952239D01*
X144364995Y-79952239D01*
X144364992Y-79952240D01*
X144178568Y-79970601D01*
X143992143Y-79952240D01*
X143992140Y-79952239D01*
X143992139Y-79952239D01*
X143812875Y-79897860D01*
X143795143Y-79888382D01*
X143647665Y-79809554D01*
X143502856Y-79690712D01*
X143384014Y-79545903D01*
X143295710Y-79380696D01*
X143295709Y-79380693D01*
X143295708Y-79380692D01*
X143241329Y-79201428D01*
X143241329Y-79201427D01*
X143241328Y-79201424D01*
X143227568Y-79061717D01*
X143227568Y-77168283D01*
X143241329Y-77028575D01*
X143241330Y-77028571D01*
X143295709Y-76849307D01*
X143326527Y-76791650D01*
X143384015Y-76684097D01*
X143502857Y-76539288D01*
X143647666Y-76420446D01*
X143812872Y-76332142D01*
X143812873Y-76332142D01*
X143812876Y-76332140D01*
X143992140Y-76277761D01*
X143992141Y-76277761D01*
X143992144Y-76277760D01*
X144178568Y-76259399D01*
X144364993Y-76277760D01*
X144364993Y-76277760D01*
G37*
G36*
X140864993Y-76277760D02*
G01*
X140864996Y-76277761D01*
X140864997Y-76277761D01*
X141044261Y-76332140D01*
X141044264Y-76332142D01*
X141044265Y-76332142D01*
X141209471Y-76420446D01*
X141354280Y-76539288D01*
X141473122Y-76684097D01*
X141530610Y-76791650D01*
X141561428Y-76849307D01*
X141615807Y-77028571D01*
X141615808Y-77028575D01*
X141629568Y-77168282D01*
X141629568Y-79061718D01*
X141615808Y-79201425D01*
X141615807Y-79201428D01*
X141615807Y-79201429D01*
X141561428Y-79380693D01*
X141561426Y-79380696D01*
X141561426Y-79380697D01*
X141473122Y-79545903D01*
X141354280Y-79690712D01*
X141209471Y-79809554D01*
X141061532Y-79888628D01*
X141044260Y-79897860D01*
X140864996Y-79952239D01*
X140864995Y-79952239D01*
X140864992Y-79952240D01*
X140678568Y-79970601D01*
X140492143Y-79952240D01*
X140492140Y-79952239D01*
X140492139Y-79952239D01*
X140312875Y-79897860D01*
X140295143Y-79888382D01*
X140147665Y-79809554D01*
X140002856Y-79690712D01*
X139884014Y-79545903D01*
X139795710Y-79380696D01*
X139795709Y-79380693D01*
X139795708Y-79380692D01*
X139741329Y-79201428D01*
X139741329Y-79201427D01*
X139741328Y-79201424D01*
X139727568Y-79061717D01*
X139727568Y-77168283D01*
X139741329Y-77028575D01*
X139741330Y-77028571D01*
X139795709Y-76849307D01*
X139826527Y-76791650D01*
X139884015Y-76684097D01*
X140002857Y-76539288D01*
X140147666Y-76420446D01*
X140312872Y-76332142D01*
X140312873Y-76332142D01*
X140312876Y-76332140D01*
X140492140Y-76277761D01*
X140492141Y-76277761D01*
X140492144Y-76277760D01*
X140678568Y-76259399D01*
X140864993Y-76277760D01*
X140864993Y-76277760D01*
G37*
G36*
X171722135Y-76277760D02*
G01*
X171722138Y-76277761D01*
X171722139Y-76277761D01*
X171901403Y-76332140D01*
X171901406Y-76332142D01*
X171901407Y-76332142D01*
X172066613Y-76420446D01*
X172211422Y-76539288D01*
X172330264Y-76684097D01*
X172387752Y-76791650D01*
X172418570Y-76849307D01*
X172472949Y-77028571D01*
X172472950Y-77028575D01*
X172486710Y-77168282D01*
X172486710Y-79061718D01*
X172472950Y-79201425D01*
X172472949Y-79201428D01*
X172472949Y-79201429D01*
X172418570Y-79380693D01*
X172418568Y-79380696D01*
X172418568Y-79380697D01*
X172330264Y-79545903D01*
X172211422Y-79690712D01*
X172066613Y-79809554D01*
X171918674Y-79888628D01*
X171901402Y-79897860D01*
X171722138Y-79952239D01*
X171722137Y-79952239D01*
X171722134Y-79952240D01*
X171535710Y-79970601D01*
X171349285Y-79952240D01*
X171349282Y-79952239D01*
X171349281Y-79952239D01*
X171170017Y-79897860D01*
X171152285Y-79888382D01*
X171004807Y-79809554D01*
X170859998Y-79690712D01*
X170741156Y-79545903D01*
X170652852Y-79380696D01*
X170652851Y-79380693D01*
X170652850Y-79380692D01*
X170598471Y-79201428D01*
X170598471Y-79201427D01*
X170598470Y-79201424D01*
X170584710Y-79061717D01*
X170584710Y-77168283D01*
X170598471Y-77028575D01*
X170598472Y-77028571D01*
X170652851Y-76849307D01*
X170683669Y-76791650D01*
X170741157Y-76684097D01*
X170859999Y-76539288D01*
X171004808Y-76420446D01*
X171170014Y-76332142D01*
X171170015Y-76332142D01*
X171170018Y-76332140D01*
X171349282Y-76277761D01*
X171349283Y-76277761D01*
X171349286Y-76277760D01*
X171535710Y-76259399D01*
X171722135Y-76277760D01*
X171722135Y-76277760D01*
G37*
G36*
X168222135Y-76277760D02*
G01*
X168222138Y-76277761D01*
X168222139Y-76277761D01*
X168401403Y-76332140D01*
X168401406Y-76332142D01*
X168401407Y-76332142D01*
X168566613Y-76420446D01*
X168711422Y-76539288D01*
X168830264Y-76684097D01*
X168887752Y-76791650D01*
X168918570Y-76849307D01*
X168972949Y-77028571D01*
X168972950Y-77028575D01*
X168986710Y-77168282D01*
X168986710Y-79061718D01*
X168972950Y-79201425D01*
X168972949Y-79201428D01*
X168972949Y-79201429D01*
X168918570Y-79380693D01*
X168918568Y-79380696D01*
X168918568Y-79380697D01*
X168830264Y-79545903D01*
X168711422Y-79690712D01*
X168566613Y-79809554D01*
X168418674Y-79888628D01*
X168401402Y-79897860D01*
X168222138Y-79952239D01*
X168222137Y-79952239D01*
X168222134Y-79952240D01*
X168035710Y-79970601D01*
X167849285Y-79952240D01*
X167849282Y-79952239D01*
X167849281Y-79952239D01*
X167670017Y-79897860D01*
X167652285Y-79888382D01*
X167504807Y-79809554D01*
X167359998Y-79690712D01*
X167241156Y-79545903D01*
X167152852Y-79380696D01*
X167152851Y-79380693D01*
X167152850Y-79380692D01*
X167098471Y-79201428D01*
X167098471Y-79201427D01*
X167098470Y-79201424D01*
X167084710Y-79061717D01*
X167084710Y-77168283D01*
X167098471Y-77028575D01*
X167098472Y-77028571D01*
X167152851Y-76849307D01*
X167183669Y-76791650D01*
X167241157Y-76684097D01*
X167359999Y-76539288D01*
X167504808Y-76420446D01*
X167670014Y-76332142D01*
X167670015Y-76332142D01*
X167670018Y-76332140D01*
X167849282Y-76277761D01*
X167849283Y-76277761D01*
X167849286Y-76277760D01*
X168035710Y-76259399D01*
X168222135Y-76277760D01*
X168222135Y-76277760D01*
G37*
G36*
X164722135Y-76277760D02*
G01*
X164722138Y-76277761D01*
X164722139Y-76277761D01*
X164901403Y-76332140D01*
X164901406Y-76332142D01*
X164901407Y-76332142D01*
X165066613Y-76420446D01*
X165211422Y-76539288D01*
X165330264Y-76684097D01*
X165387752Y-76791650D01*
X165418570Y-76849307D01*
X165472949Y-77028571D01*
X165472950Y-77028575D01*
X165486710Y-77168282D01*
X165486710Y-79061718D01*
X165472950Y-79201425D01*
X165472949Y-79201428D01*
X165472949Y-79201429D01*
X165418570Y-79380693D01*
X165418568Y-79380696D01*
X165418568Y-79380697D01*
X165330264Y-79545903D01*
X165211422Y-79690712D01*
X165066613Y-79809554D01*
X164918674Y-79888628D01*
X164901402Y-79897860D01*
X164722138Y-79952239D01*
X164722137Y-79952239D01*
X164722134Y-79952240D01*
X164535710Y-79970601D01*
X164349285Y-79952240D01*
X164349282Y-79952239D01*
X164349281Y-79952239D01*
X164170017Y-79897860D01*
X164152285Y-79888382D01*
X164004807Y-79809554D01*
X163859998Y-79690712D01*
X163741156Y-79545903D01*
X163652852Y-79380696D01*
X163652851Y-79380693D01*
X163652850Y-79380692D01*
X163598471Y-79201428D01*
X163598471Y-79201427D01*
X163598470Y-79201424D01*
X163584710Y-79061717D01*
X163584710Y-77168283D01*
X163598471Y-77028575D01*
X163598472Y-77028571D01*
X163652851Y-76849307D01*
X163683669Y-76791650D01*
X163741157Y-76684097D01*
X163859999Y-76539288D01*
X164004808Y-76420446D01*
X164170014Y-76332142D01*
X164170015Y-76332142D01*
X164170018Y-76332140D01*
X164349282Y-76277761D01*
X164349283Y-76277761D01*
X164349286Y-76277760D01*
X164535710Y-76259399D01*
X164722135Y-76277760D01*
X164722135Y-76277760D01*
G37*
G36*
X212436425Y-76277760D02*
G01*
X212436428Y-76277761D01*
X212436429Y-76277761D01*
X212615693Y-76332140D01*
X212615696Y-76332142D01*
X212615697Y-76332142D01*
X212780903Y-76420446D01*
X212925712Y-76539288D01*
X213044554Y-76684097D01*
X213102042Y-76791650D01*
X213132860Y-76849307D01*
X213187239Y-77028571D01*
X213187240Y-77028575D01*
X213201000Y-77168282D01*
X213201000Y-79061718D01*
X213187240Y-79201425D01*
X213187239Y-79201428D01*
X213187239Y-79201429D01*
X213132860Y-79380693D01*
X213132858Y-79380696D01*
X213132858Y-79380697D01*
X213044554Y-79545903D01*
X212925712Y-79690712D01*
X212780903Y-79809554D01*
X212632964Y-79888628D01*
X212615692Y-79897860D01*
X212436428Y-79952239D01*
X212436427Y-79952239D01*
X212436424Y-79952240D01*
X212250000Y-79970601D01*
X212063575Y-79952240D01*
X212063572Y-79952239D01*
X212063571Y-79952239D01*
X211884307Y-79897860D01*
X211866575Y-79888382D01*
X211719097Y-79809554D01*
X211574288Y-79690712D01*
X211455446Y-79545903D01*
X211367142Y-79380696D01*
X211367141Y-79380693D01*
X211367140Y-79380692D01*
X211312761Y-79201428D01*
X211312761Y-79201427D01*
X211312760Y-79201424D01*
X211299000Y-79061717D01*
X211299000Y-77168283D01*
X211312761Y-77028575D01*
X211312762Y-77028571D01*
X211367141Y-76849307D01*
X211397959Y-76791650D01*
X211455447Y-76684097D01*
X211574289Y-76539288D01*
X211719098Y-76420446D01*
X211884304Y-76332142D01*
X211884305Y-76332142D01*
X211884308Y-76332140D01*
X212063572Y-76277761D01*
X212063573Y-76277761D01*
X212063576Y-76277760D01*
X212250000Y-76259399D01*
X212436425Y-76277760D01*
X212436425Y-76277760D01*
G37*
G36*
X196203767Y-76267934D02*
G01*
X196236276Y-76277795D01*
X196266234Y-76293809D01*
X196292493Y-76315359D01*
X196314043Y-76341618D01*
X196330057Y-76371576D01*
X196339918Y-76404085D01*
X196343852Y-76444029D01*
X196343852Y-79785971D01*
X196339918Y-79825915D01*
X196330057Y-79858424D01*
X196314043Y-79888382D01*
X196292493Y-79914641D01*
X196266234Y-79936191D01*
X196236276Y-79952205D01*
X196203767Y-79962066D01*
X196163823Y-79966000D01*
X194621881Y-79966000D01*
X194581937Y-79962066D01*
X194549428Y-79952205D01*
X194519470Y-79936191D01*
X194493211Y-79914641D01*
X194471661Y-79888382D01*
X194455647Y-79858424D01*
X194445786Y-79825915D01*
X194441852Y-79785971D01*
X194441852Y-76444029D01*
X194445786Y-76404085D01*
X194455647Y-76371576D01*
X194471661Y-76341618D01*
X194493211Y-76315359D01*
X194519470Y-76293809D01*
X194549428Y-76277795D01*
X194581937Y-76267934D01*
X194621881Y-76264000D01*
X196163823Y-76264000D01*
X196203767Y-76267934D01*
X196203767Y-76267934D01*
G37*
G36*
X155489483Y-76267934D02*
G01*
X155521992Y-76277795D01*
X155551950Y-76293809D01*
X155578209Y-76315359D01*
X155599759Y-76341618D01*
X155615773Y-76371576D01*
X155625634Y-76404085D01*
X155629568Y-76444029D01*
X155629568Y-79785971D01*
X155625634Y-79825915D01*
X155615773Y-79858424D01*
X155599759Y-79888382D01*
X155578209Y-79914641D01*
X155551950Y-79936191D01*
X155521992Y-79952205D01*
X155489483Y-79962066D01*
X155449539Y-79966000D01*
X153907597Y-79966000D01*
X153867653Y-79962066D01*
X153835144Y-79952205D01*
X153805186Y-79936191D01*
X153778927Y-79914641D01*
X153757377Y-79888382D01*
X153741363Y-79858424D01*
X153731502Y-79825915D01*
X153727568Y-79785971D01*
X153727568Y-76444029D01*
X153731502Y-76404085D01*
X153741363Y-76371576D01*
X153757377Y-76341618D01*
X153778927Y-76315359D01*
X153805186Y-76293809D01*
X153835144Y-76277795D01*
X153867653Y-76267934D01*
X153907597Y-76264000D01*
X155449539Y-76264000D01*
X155489483Y-76267934D01*
X155489483Y-76267934D01*
G37*
G36*
X175846625Y-76267934D02*
G01*
X175879134Y-76277795D01*
X175909092Y-76293809D01*
X175935351Y-76315359D01*
X175956901Y-76341618D01*
X175972915Y-76371576D01*
X175982776Y-76404085D01*
X175986710Y-76444029D01*
X175986710Y-79785971D01*
X175982776Y-79825915D01*
X175972915Y-79858424D01*
X175956901Y-79888382D01*
X175935351Y-79914641D01*
X175909092Y-79936191D01*
X175879134Y-79952205D01*
X175846625Y-79962066D01*
X175806681Y-79966000D01*
X174264739Y-79966000D01*
X174224795Y-79962066D01*
X174192286Y-79952205D01*
X174162328Y-79936191D01*
X174136069Y-79914641D01*
X174114519Y-79888382D01*
X174098505Y-79858424D01*
X174088644Y-79825915D01*
X174084710Y-79785971D01*
X174084710Y-76444029D01*
X174088644Y-76404085D01*
X174098505Y-76371576D01*
X174114519Y-76341618D01*
X174136069Y-76315359D01*
X174162328Y-76293809D01*
X174192286Y-76277795D01*
X174224795Y-76267934D01*
X174264739Y-76264000D01*
X175806681Y-76264000D01*
X175846625Y-76267934D01*
X175846625Y-76267934D01*
G37*
G36*
X216560915Y-76267934D02*
G01*
X216593424Y-76277795D01*
X216623382Y-76293809D01*
X216649641Y-76315359D01*
X216671191Y-76341618D01*
X216687205Y-76371576D01*
X216697066Y-76404085D01*
X216701000Y-76444029D01*
X216701000Y-79785971D01*
X216697066Y-79825915D01*
X216687205Y-79858424D01*
X216671191Y-79888382D01*
X216649641Y-79914641D01*
X216623382Y-79936191D01*
X216593424Y-79952205D01*
X216560915Y-79962066D01*
X216520971Y-79966000D01*
X214979029Y-79966000D01*
X214939085Y-79962066D01*
X214906576Y-79952205D01*
X214876618Y-79936191D01*
X214850359Y-79914641D01*
X214828809Y-79888382D01*
X214812795Y-79858424D01*
X214802934Y-79825915D01*
X214799000Y-79785971D01*
X214799000Y-76444029D01*
X214802934Y-76404085D01*
X214812795Y-76371576D01*
X214828809Y-76341618D01*
X214850359Y-76315359D01*
X214876618Y-76293809D01*
X214906576Y-76277795D01*
X214939085Y-76267934D01*
X214979029Y-76264000D01*
X216520971Y-76264000D01*
X216560915Y-76267934D01*
X216560915Y-76267934D01*
G37*
G36*
X135132341Y-76267934D02*
G01*
X135164850Y-76277795D01*
X135194808Y-76293809D01*
X135221067Y-76315359D01*
X135242617Y-76341618D01*
X135258631Y-76371576D01*
X135268492Y-76404085D01*
X135272426Y-76444029D01*
X135272426Y-79785971D01*
X135268492Y-79825915D01*
X135258631Y-79858424D01*
X135242617Y-79888382D01*
X135221067Y-79914641D01*
X135194808Y-79936191D01*
X135164850Y-79952205D01*
X135132341Y-79962066D01*
X135092397Y-79966000D01*
X133550455Y-79966000D01*
X133510511Y-79962066D01*
X133478002Y-79952205D01*
X133448044Y-79936191D01*
X133421785Y-79914641D01*
X133400235Y-79888382D01*
X133384221Y-79858424D01*
X133374360Y-79825915D01*
X133370426Y-79785971D01*
X133370426Y-76444029D01*
X133374360Y-76404085D01*
X133384221Y-76371576D01*
X133400235Y-76341618D01*
X133421785Y-76315359D01*
X133448044Y-76293809D01*
X133478002Y-76277795D01*
X133510511Y-76267934D01*
X133550455Y-76264000D01*
X135092397Y-76264000D01*
X135132341Y-76267934D01*
X135132341Y-76267934D01*
G37*
G36*
X74060915Y-76267934D02*
G01*
X74093424Y-76277795D01*
X74123382Y-76293809D01*
X74149641Y-76315359D01*
X74171191Y-76341618D01*
X74187205Y-76371576D01*
X74197066Y-76404085D01*
X74201000Y-76444029D01*
X74201000Y-79785971D01*
X74197066Y-79825915D01*
X74187205Y-79858424D01*
X74171191Y-79888382D01*
X74149641Y-79914641D01*
X74123382Y-79936191D01*
X74093424Y-79952205D01*
X74060915Y-79962066D01*
X74020971Y-79966000D01*
X72479029Y-79966000D01*
X72439085Y-79962066D01*
X72406576Y-79952205D01*
X72376618Y-79936191D01*
X72350359Y-79914641D01*
X72328809Y-79888382D01*
X72312795Y-79858424D01*
X72302934Y-79825915D01*
X72299000Y-79785971D01*
X72299000Y-76444029D01*
X72302934Y-76404085D01*
X72312795Y-76371576D01*
X72328809Y-76341618D01*
X72350359Y-76315359D01*
X72376618Y-76293809D01*
X72406576Y-76277795D01*
X72439085Y-76267934D01*
X72479029Y-76264000D01*
X74020971Y-76264000D01*
X74060915Y-76267934D01*
X74060915Y-76267934D01*
G37*
G36*
X94418057Y-76267934D02*
G01*
X94450566Y-76277795D01*
X94480524Y-76293809D01*
X94506783Y-76315359D01*
X94528333Y-76341618D01*
X94544347Y-76371576D01*
X94554208Y-76404085D01*
X94558142Y-76444029D01*
X94558142Y-79785971D01*
X94554208Y-79825915D01*
X94544347Y-79858424D01*
X94528333Y-79888382D01*
X94506783Y-79914641D01*
X94480524Y-79936191D01*
X94450566Y-79952205D01*
X94418057Y-79962066D01*
X94378113Y-79966000D01*
X92836171Y-79966000D01*
X92796227Y-79962066D01*
X92763718Y-79952205D01*
X92733760Y-79936191D01*
X92707501Y-79914641D01*
X92685951Y-79888382D01*
X92669937Y-79858424D01*
X92660076Y-79825915D01*
X92656142Y-79785971D01*
X92656142Y-76444029D01*
X92660076Y-76404085D01*
X92669937Y-76371576D01*
X92685951Y-76341618D01*
X92707501Y-76315359D01*
X92733760Y-76293809D01*
X92763718Y-76277795D01*
X92796227Y-76267934D01*
X92836171Y-76264000D01*
X94378113Y-76264000D01*
X94418057Y-76267934D01*
X94418057Y-76267934D01*
G37*
G36*
X114775199Y-76267934D02*
G01*
X114807708Y-76277795D01*
X114837666Y-76293809D01*
X114863925Y-76315359D01*
X114885475Y-76341618D01*
X114901489Y-76371576D01*
X114911350Y-76404085D01*
X114915284Y-76444029D01*
X114915284Y-79785971D01*
X114911350Y-79825915D01*
X114901489Y-79858424D01*
X114885475Y-79888382D01*
X114863925Y-79914641D01*
X114837666Y-79936191D01*
X114807708Y-79952205D01*
X114775199Y-79962066D01*
X114735255Y-79966000D01*
X113193313Y-79966000D01*
X113153369Y-79962066D01*
X113120860Y-79952205D01*
X113090902Y-79936191D01*
X113064643Y-79914641D01*
X113043093Y-79888382D01*
X113027079Y-79858424D01*
X113017218Y-79825915D01*
X113013284Y-79785971D01*
X113013284Y-76444029D01*
X113017218Y-76404085D01*
X113027079Y-76371576D01*
X113043093Y-76341618D01*
X113064643Y-76315359D01*
X113090902Y-76293809D01*
X113120860Y-76277795D01*
X113153369Y-76267934D01*
X113193313Y-76264000D01*
X114735255Y-76264000D01*
X114775199Y-76267934D01*
X114775199Y-76267934D01*
G37*
M02*
