G04 #@! TF.GenerationSoftware,KiCad,Pcbnew,(5.1.2)-2*
G04 #@! TF.CreationDate,2021-03-22T02:30:38-04:00*
G04 #@! TF.ProjectId,Repowered_Electronic_Load_Module,5265706f-7765-4726-9564-5f456c656374,rev?*
G04 #@! TF.SameCoordinates,Original*
G04 #@! TF.FileFunction,Soldermask,Top*
G04 #@! TF.FilePolarity,Negative*
%FSLAX46Y46*%
G04 Gerber Fmt 4.6, Leading zero omitted, Abs format (unit mm)*
G04 Created by KiCad (PCBNEW (5.1.2)-2) date 2021-03-22 02:30:38*
%MOMM*%
%LPD*%
G04 APERTURE LIST*
%ADD10C,0.100000*%
G04 APERTURE END LIST*
D10*
G36*
X137500000Y-75000000D02*
G01*
X126825000Y-75000000D01*
X126825000Y-64500000D01*
X137500000Y-64500000D01*
X137500000Y-75000000D01*
G37*
X137500000Y-75000000D02*
X126825000Y-75000000D01*
X126825000Y-64500000D01*
X137500000Y-64500000D01*
X137500000Y-75000000D01*
G36*
X125475000Y-75000000D02*
G01*
X114000000Y-75000000D01*
X114000000Y-64500000D01*
X125475000Y-64500000D01*
X125475000Y-75000000D01*
G37*
X125475000Y-75000000D02*
X114000000Y-75000000D01*
X114000000Y-64500000D01*
X125475000Y-64500000D01*
X125475000Y-75000000D01*
G36*
X132998156Y-65922794D02*
G01*
X133719140Y-66066206D01*
X134510972Y-66394193D01*
X135223601Y-66870357D01*
X135829643Y-67476399D01*
X136305807Y-68189028D01*
X136633794Y-68980860D01*
X136760747Y-69619097D01*
X136793609Y-69784304D01*
X136801000Y-69821464D01*
X136801000Y-70678536D01*
X136633794Y-71519140D01*
X136305807Y-72310972D01*
X135829643Y-73023601D01*
X135223601Y-73629643D01*
X134510972Y-74105807D01*
X133719140Y-74433794D01*
X132998156Y-74577206D01*
X132878537Y-74601000D01*
X132021463Y-74601000D01*
X131901844Y-74577206D01*
X131180860Y-74433794D01*
X130389028Y-74105807D01*
X129676399Y-73629643D01*
X129070357Y-73023601D01*
X128594193Y-72310972D01*
X128266206Y-71519140D01*
X128099000Y-70678536D01*
X128099000Y-69821464D01*
X128106392Y-69784304D01*
X128139253Y-69619097D01*
X128266206Y-68980860D01*
X128594193Y-68189028D01*
X129070357Y-67476399D01*
X129676399Y-66870357D01*
X130389028Y-66394193D01*
X131180860Y-66066206D01*
X131901844Y-65922794D01*
X132021463Y-65899000D01*
X132878537Y-65899000D01*
X132998156Y-65922794D01*
X132998156Y-65922794D01*
G37*
G36*
X120298156Y-65922794D02*
G01*
X121019140Y-66066206D01*
X121810972Y-66394193D01*
X122523601Y-66870357D01*
X123129643Y-67476399D01*
X123605807Y-68189028D01*
X123933794Y-68980860D01*
X124060747Y-69619097D01*
X124093609Y-69784304D01*
X124101000Y-69821464D01*
X124101000Y-70678536D01*
X123933794Y-71519140D01*
X123605807Y-72310972D01*
X123129643Y-73023601D01*
X122523601Y-73629643D01*
X121810972Y-74105807D01*
X121019140Y-74433794D01*
X120298156Y-74577206D01*
X120178537Y-74601000D01*
X119321463Y-74601000D01*
X119201844Y-74577206D01*
X118480860Y-74433794D01*
X117689028Y-74105807D01*
X116976399Y-73629643D01*
X116370357Y-73023601D01*
X115894193Y-72310972D01*
X115566206Y-71519140D01*
X115399000Y-70678536D01*
X115399000Y-69821464D01*
X115406392Y-69784304D01*
X115439253Y-69619097D01*
X115566206Y-68980860D01*
X115894193Y-68189028D01*
X116370357Y-67476399D01*
X116976399Y-66870357D01*
X117689028Y-66394193D01*
X118480860Y-66066206D01*
X119201844Y-65922794D01*
X119321463Y-65899000D01*
X120178537Y-65899000D01*
X120298156Y-65922794D01*
X120298156Y-65922794D01*
G37*
G36*
X108686424Y-69212760D02*
G01*
X108686427Y-69212761D01*
X108686428Y-69212761D01*
X108865692Y-69267140D01*
X108865695Y-69267142D01*
X108865696Y-69267142D01*
X109030903Y-69355446D01*
X109175712Y-69474288D01*
X109294554Y-69619097D01*
X109363988Y-69749000D01*
X109382860Y-69784307D01*
X109437239Y-69963571D01*
X109437240Y-69963575D01*
X109451000Y-70103282D01*
X109451000Y-71996718D01*
X109437240Y-72136425D01*
X109437239Y-72136428D01*
X109437239Y-72136429D01*
X109382860Y-72315693D01*
X109382858Y-72315696D01*
X109382858Y-72315697D01*
X109294554Y-72480903D01*
X109175712Y-72625712D01*
X109030903Y-72744554D01*
X108883425Y-72823382D01*
X108865693Y-72832860D01*
X108686429Y-72887239D01*
X108686428Y-72887239D01*
X108686425Y-72887240D01*
X108500000Y-72905601D01*
X108313576Y-72887240D01*
X108313573Y-72887239D01*
X108313572Y-72887239D01*
X108134308Y-72832860D01*
X108116576Y-72823382D01*
X107969098Y-72744554D01*
X107824289Y-72625712D01*
X107705447Y-72480903D01*
X107617143Y-72315697D01*
X107617143Y-72315696D01*
X107617141Y-72315693D01*
X107562762Y-72136429D01*
X107562762Y-72136428D01*
X107562761Y-72136425D01*
X107549000Y-71996717D01*
X107549000Y-70103283D01*
X107562760Y-69963576D01*
X107562761Y-69963572D01*
X107617140Y-69784308D01*
X107617143Y-69784303D01*
X107705446Y-69619097D01*
X107824288Y-69474288D01*
X107969097Y-69355446D01*
X108134303Y-69267142D01*
X108134304Y-69267142D01*
X108134307Y-69267140D01*
X108313571Y-69212761D01*
X108313572Y-69212761D01*
X108313575Y-69212760D01*
X108500000Y-69194399D01*
X108686424Y-69212760D01*
X108686424Y-69212760D01*
G37*
G36*
X105186424Y-69212760D02*
G01*
X105186427Y-69212761D01*
X105186428Y-69212761D01*
X105365692Y-69267140D01*
X105365695Y-69267142D01*
X105365696Y-69267142D01*
X105530903Y-69355446D01*
X105675712Y-69474288D01*
X105794554Y-69619097D01*
X105863988Y-69749000D01*
X105882860Y-69784307D01*
X105937239Y-69963571D01*
X105937240Y-69963575D01*
X105951000Y-70103282D01*
X105951000Y-71996718D01*
X105937240Y-72136425D01*
X105937239Y-72136428D01*
X105937239Y-72136429D01*
X105882860Y-72315693D01*
X105882858Y-72315696D01*
X105882858Y-72315697D01*
X105794554Y-72480903D01*
X105675712Y-72625712D01*
X105530903Y-72744554D01*
X105383425Y-72823382D01*
X105365693Y-72832860D01*
X105186429Y-72887239D01*
X105186428Y-72887239D01*
X105186425Y-72887240D01*
X105000000Y-72905601D01*
X104813576Y-72887240D01*
X104813573Y-72887239D01*
X104813572Y-72887239D01*
X104634308Y-72832860D01*
X104616576Y-72823382D01*
X104469098Y-72744554D01*
X104324289Y-72625712D01*
X104205447Y-72480903D01*
X104117143Y-72315697D01*
X104117143Y-72315696D01*
X104117141Y-72315693D01*
X104062762Y-72136429D01*
X104062762Y-72136428D01*
X104062761Y-72136425D01*
X104049000Y-71996717D01*
X104049000Y-70103283D01*
X104062760Y-69963576D01*
X104062761Y-69963572D01*
X104117140Y-69784308D01*
X104117143Y-69784303D01*
X104205446Y-69619097D01*
X104324288Y-69474288D01*
X104469097Y-69355446D01*
X104634303Y-69267142D01*
X104634304Y-69267142D01*
X104634307Y-69267140D01*
X104813571Y-69212761D01*
X104813572Y-69212761D01*
X104813575Y-69212760D01*
X105000000Y-69194399D01*
X105186424Y-69212760D01*
X105186424Y-69212760D01*
G37*
G36*
X101686424Y-69212760D02*
G01*
X101686427Y-69212761D01*
X101686428Y-69212761D01*
X101865692Y-69267140D01*
X101865695Y-69267142D01*
X101865696Y-69267142D01*
X102030903Y-69355446D01*
X102175712Y-69474288D01*
X102294554Y-69619097D01*
X102363988Y-69749000D01*
X102382860Y-69784307D01*
X102437239Y-69963571D01*
X102437240Y-69963575D01*
X102451000Y-70103282D01*
X102451000Y-71996718D01*
X102437240Y-72136425D01*
X102437239Y-72136428D01*
X102437239Y-72136429D01*
X102382860Y-72315693D01*
X102382858Y-72315696D01*
X102382858Y-72315697D01*
X102294554Y-72480903D01*
X102175712Y-72625712D01*
X102030903Y-72744554D01*
X101883425Y-72823382D01*
X101865693Y-72832860D01*
X101686429Y-72887239D01*
X101686428Y-72887239D01*
X101686425Y-72887240D01*
X101500000Y-72905601D01*
X101313576Y-72887240D01*
X101313573Y-72887239D01*
X101313572Y-72887239D01*
X101134308Y-72832860D01*
X101116576Y-72823382D01*
X100969098Y-72744554D01*
X100824289Y-72625712D01*
X100705447Y-72480903D01*
X100617143Y-72315697D01*
X100617143Y-72315696D01*
X100617141Y-72315693D01*
X100562762Y-72136429D01*
X100562762Y-72136428D01*
X100562761Y-72136425D01*
X100549000Y-71996717D01*
X100549000Y-70103283D01*
X100562760Y-69963576D01*
X100562761Y-69963572D01*
X100617140Y-69784308D01*
X100617143Y-69784303D01*
X100705446Y-69619097D01*
X100824288Y-69474288D01*
X100969097Y-69355446D01*
X101134303Y-69267142D01*
X101134304Y-69267142D01*
X101134307Y-69267140D01*
X101313571Y-69212761D01*
X101313572Y-69212761D01*
X101313575Y-69212760D01*
X101500000Y-69194399D01*
X101686424Y-69212760D01*
X101686424Y-69212760D01*
G37*
G36*
X98186424Y-69212760D02*
G01*
X98186427Y-69212761D01*
X98186428Y-69212761D01*
X98365692Y-69267140D01*
X98365695Y-69267142D01*
X98365696Y-69267142D01*
X98530903Y-69355446D01*
X98675712Y-69474288D01*
X98794554Y-69619097D01*
X98863988Y-69749000D01*
X98882860Y-69784307D01*
X98937239Y-69963571D01*
X98937240Y-69963575D01*
X98951000Y-70103282D01*
X98951000Y-71996718D01*
X98937240Y-72136425D01*
X98937239Y-72136428D01*
X98937239Y-72136429D01*
X98882860Y-72315693D01*
X98882858Y-72315696D01*
X98882858Y-72315697D01*
X98794554Y-72480903D01*
X98675712Y-72625712D01*
X98530903Y-72744554D01*
X98383425Y-72823382D01*
X98365693Y-72832860D01*
X98186429Y-72887239D01*
X98186428Y-72887239D01*
X98186425Y-72887240D01*
X98000000Y-72905601D01*
X97813576Y-72887240D01*
X97813573Y-72887239D01*
X97813572Y-72887239D01*
X97634308Y-72832860D01*
X97616576Y-72823382D01*
X97469098Y-72744554D01*
X97324289Y-72625712D01*
X97205447Y-72480903D01*
X97117143Y-72315697D01*
X97117143Y-72315696D01*
X97117141Y-72315693D01*
X97062762Y-72136429D01*
X97062762Y-72136428D01*
X97062761Y-72136425D01*
X97049000Y-71996717D01*
X97049000Y-70103283D01*
X97062760Y-69963576D01*
X97062761Y-69963572D01*
X97117140Y-69784308D01*
X97117143Y-69784303D01*
X97205446Y-69619097D01*
X97324288Y-69474288D01*
X97469097Y-69355446D01*
X97634303Y-69267142D01*
X97634304Y-69267142D01*
X97634307Y-69267140D01*
X97813571Y-69212761D01*
X97813572Y-69212761D01*
X97813575Y-69212760D01*
X98000000Y-69194399D01*
X98186424Y-69212760D01*
X98186424Y-69212760D01*
G37*
G36*
X95310915Y-69202934D02*
G01*
X95343424Y-69212795D01*
X95373382Y-69228809D01*
X95399641Y-69250359D01*
X95421191Y-69276618D01*
X95437205Y-69306576D01*
X95447066Y-69339085D01*
X95451000Y-69379029D01*
X95451000Y-72720971D01*
X95447066Y-72760915D01*
X95437205Y-72793424D01*
X95421191Y-72823382D01*
X95399641Y-72849641D01*
X95373382Y-72871191D01*
X95343424Y-72887205D01*
X95310915Y-72897066D01*
X95270971Y-72901000D01*
X93729029Y-72901000D01*
X93689085Y-72897066D01*
X93656576Y-72887205D01*
X93626618Y-72871191D01*
X93600359Y-72849641D01*
X93578809Y-72823382D01*
X93562795Y-72793424D01*
X93552934Y-72760915D01*
X93549000Y-72720971D01*
X93549000Y-69379029D01*
X93552934Y-69339085D01*
X93562795Y-69306576D01*
X93578809Y-69276618D01*
X93600359Y-69250359D01*
X93626618Y-69228809D01*
X93656576Y-69212795D01*
X93689085Y-69202934D01*
X93729029Y-69199000D01*
X95270971Y-69199000D01*
X95310915Y-69202934D01*
X95310915Y-69202934D01*
G37*
G36*
X94804591Y-65228085D02*
G01*
X94838569Y-65238393D01*
X94869890Y-65255134D01*
X94897339Y-65277661D01*
X94919866Y-65305110D01*
X94936607Y-65336431D01*
X94946915Y-65370409D01*
X94951000Y-65411890D01*
X94951000Y-66088110D01*
X94946915Y-66129591D01*
X94936607Y-66163569D01*
X94919866Y-66194890D01*
X94897339Y-66222339D01*
X94869890Y-66244866D01*
X94838569Y-66261607D01*
X94804591Y-66271915D01*
X94763110Y-66276000D01*
X94161890Y-66276000D01*
X94120409Y-66271915D01*
X94086431Y-66261607D01*
X94055110Y-66244866D01*
X94027661Y-66222339D01*
X94005134Y-66194890D01*
X93988393Y-66163569D01*
X93978085Y-66129591D01*
X93974000Y-66088110D01*
X93974000Y-65411890D01*
X93978085Y-65370409D01*
X93988393Y-65336431D01*
X94005134Y-65305110D01*
X94027661Y-65277661D01*
X94055110Y-65255134D01*
X94086431Y-65238393D01*
X94120409Y-65228085D01*
X94161890Y-65224000D01*
X94763110Y-65224000D01*
X94804591Y-65228085D01*
X94804591Y-65228085D01*
G37*
G36*
X96379591Y-65228085D02*
G01*
X96413569Y-65238393D01*
X96444890Y-65255134D01*
X96472339Y-65277661D01*
X96494866Y-65305110D01*
X96511607Y-65336431D01*
X96521915Y-65370409D01*
X96526000Y-65411890D01*
X96526000Y-66088110D01*
X96521915Y-66129591D01*
X96511607Y-66163569D01*
X96494866Y-66194890D01*
X96472339Y-66222339D01*
X96444890Y-66244866D01*
X96413569Y-66261607D01*
X96379591Y-66271915D01*
X96338110Y-66276000D01*
X95736890Y-66276000D01*
X95695409Y-66271915D01*
X95661431Y-66261607D01*
X95630110Y-66244866D01*
X95602661Y-66222339D01*
X95580134Y-66194890D01*
X95563393Y-66163569D01*
X95553085Y-66129591D01*
X95549000Y-66088110D01*
X95549000Y-65411890D01*
X95553085Y-65370409D01*
X95563393Y-65336431D01*
X95580134Y-65305110D01*
X95602661Y-65277661D01*
X95630110Y-65255134D01*
X95661431Y-65238393D01*
X95695409Y-65228085D01*
X95736890Y-65224000D01*
X96338110Y-65224000D01*
X96379591Y-65228085D01*
X96379591Y-65228085D01*
G37*
G36*
X105459468Y-63403565D02*
G01*
X105498138Y-63415296D01*
X105533777Y-63434346D01*
X105565017Y-63459983D01*
X105590654Y-63491223D01*
X105609704Y-63526862D01*
X105621435Y-63565532D01*
X105626000Y-63611888D01*
X105626000Y-64688112D01*
X105621435Y-64734468D01*
X105609704Y-64773138D01*
X105590654Y-64808777D01*
X105565017Y-64840017D01*
X105533777Y-64865654D01*
X105498138Y-64884704D01*
X105459468Y-64896435D01*
X105413112Y-64901000D01*
X104761888Y-64901000D01*
X104715532Y-64896435D01*
X104676862Y-64884704D01*
X104641223Y-64865654D01*
X104609983Y-64840017D01*
X104584346Y-64808777D01*
X104565296Y-64773138D01*
X104553565Y-64734468D01*
X104549000Y-64688112D01*
X104549000Y-63611888D01*
X104553565Y-63565532D01*
X104565296Y-63526862D01*
X104584346Y-63491223D01*
X104609983Y-63459983D01*
X104641223Y-63434346D01*
X104676862Y-63415296D01*
X104715532Y-63403565D01*
X104761888Y-63399000D01*
X105413112Y-63399000D01*
X105459468Y-63403565D01*
X105459468Y-63403565D01*
G37*
G36*
X103584468Y-63403565D02*
G01*
X103623138Y-63415296D01*
X103658777Y-63434346D01*
X103690017Y-63459983D01*
X103715654Y-63491223D01*
X103734704Y-63526862D01*
X103746435Y-63565532D01*
X103751000Y-63611888D01*
X103751000Y-64688112D01*
X103746435Y-64734468D01*
X103734704Y-64773138D01*
X103715654Y-64808777D01*
X103690017Y-64840017D01*
X103658777Y-64865654D01*
X103623138Y-64884704D01*
X103584468Y-64896435D01*
X103538112Y-64901000D01*
X102886888Y-64901000D01*
X102840532Y-64896435D01*
X102801862Y-64884704D01*
X102766223Y-64865654D01*
X102734983Y-64840017D01*
X102709346Y-64808777D01*
X102690296Y-64773138D01*
X102678565Y-64734468D01*
X102674000Y-64688112D01*
X102674000Y-63611888D01*
X102678565Y-63565532D01*
X102690296Y-63526862D01*
X102709346Y-63491223D01*
X102734983Y-63459983D01*
X102766223Y-63434346D01*
X102801862Y-63415296D01*
X102840532Y-63403565D01*
X102886888Y-63399000D01*
X103538112Y-63399000D01*
X103584468Y-63403565D01*
X103584468Y-63403565D01*
G37*
G36*
X96909468Y-63353565D02*
G01*
X96948138Y-63365296D01*
X96983777Y-63384346D01*
X97015017Y-63409983D01*
X97040654Y-63441223D01*
X97059704Y-63476862D01*
X97071435Y-63515532D01*
X97076000Y-63561888D01*
X97076000Y-64213112D01*
X97071435Y-64259468D01*
X97059704Y-64298138D01*
X97040654Y-64333777D01*
X97015017Y-64365017D01*
X96983777Y-64390654D01*
X96948138Y-64409704D01*
X96909468Y-64421435D01*
X96863112Y-64426000D01*
X95786888Y-64426000D01*
X95740532Y-64421435D01*
X95701862Y-64409704D01*
X95666223Y-64390654D01*
X95634983Y-64365017D01*
X95609346Y-64333777D01*
X95590296Y-64298138D01*
X95578565Y-64259468D01*
X95574000Y-64213112D01*
X95574000Y-63561888D01*
X95578565Y-63515532D01*
X95590296Y-63476862D01*
X95609346Y-63441223D01*
X95634983Y-63409983D01*
X95666223Y-63384346D01*
X95701862Y-63365296D01*
X95740532Y-63353565D01*
X95786888Y-63349000D01*
X96863112Y-63349000D01*
X96909468Y-63353565D01*
X96909468Y-63353565D01*
G37*
G36*
X95059468Y-63353565D02*
G01*
X95098138Y-63365296D01*
X95133777Y-63384346D01*
X95165017Y-63409983D01*
X95190654Y-63441223D01*
X95209704Y-63476862D01*
X95221435Y-63515532D01*
X95226000Y-63561888D01*
X95226000Y-64213112D01*
X95221435Y-64259468D01*
X95209704Y-64298138D01*
X95190654Y-64333777D01*
X95165017Y-64365017D01*
X95133777Y-64390654D01*
X95098138Y-64409704D01*
X95059468Y-64421435D01*
X95013112Y-64426000D01*
X93936888Y-64426000D01*
X93890532Y-64421435D01*
X93851862Y-64409704D01*
X93816223Y-64390654D01*
X93784983Y-64365017D01*
X93759346Y-64333777D01*
X93740296Y-64298138D01*
X93728565Y-64259468D01*
X93724000Y-64213112D01*
X93724000Y-63561888D01*
X93728565Y-63515532D01*
X93740296Y-63476862D01*
X93759346Y-63441223D01*
X93784983Y-63409983D01*
X93816223Y-63384346D01*
X93851862Y-63365296D01*
X93890532Y-63353565D01*
X93936888Y-63349000D01*
X95013112Y-63349000D01*
X95059468Y-63353565D01*
X95059468Y-63353565D01*
G37*
G36*
X109584468Y-61653565D02*
G01*
X109623138Y-61665296D01*
X109658777Y-61684346D01*
X109690017Y-61709983D01*
X109715654Y-61741223D01*
X109734704Y-61776862D01*
X109746435Y-61815532D01*
X109751000Y-61861888D01*
X109751000Y-62938112D01*
X109746435Y-62984468D01*
X109734704Y-63023138D01*
X109715654Y-63058777D01*
X109690017Y-63090017D01*
X109658777Y-63115654D01*
X109623138Y-63134704D01*
X109584468Y-63146435D01*
X109538112Y-63151000D01*
X108886888Y-63151000D01*
X108840532Y-63146435D01*
X108801862Y-63134704D01*
X108766223Y-63115654D01*
X108734983Y-63090017D01*
X108709346Y-63058777D01*
X108690296Y-63023138D01*
X108678565Y-62984468D01*
X108674000Y-62938112D01*
X108674000Y-61861888D01*
X108678565Y-61815532D01*
X108690296Y-61776862D01*
X108709346Y-61741223D01*
X108734983Y-61709983D01*
X108766223Y-61684346D01*
X108801862Y-61665296D01*
X108840532Y-61653565D01*
X108886888Y-61649000D01*
X109538112Y-61649000D01*
X109584468Y-61653565D01*
X109584468Y-61653565D01*
G37*
G36*
X111459468Y-61653565D02*
G01*
X111498138Y-61665296D01*
X111533777Y-61684346D01*
X111565017Y-61709983D01*
X111590654Y-61741223D01*
X111609704Y-61776862D01*
X111621435Y-61815532D01*
X111626000Y-61861888D01*
X111626000Y-62938112D01*
X111621435Y-62984468D01*
X111609704Y-63023138D01*
X111590654Y-63058777D01*
X111565017Y-63090017D01*
X111533777Y-63115654D01*
X111498138Y-63134704D01*
X111459468Y-63146435D01*
X111413112Y-63151000D01*
X110761888Y-63151000D01*
X110715532Y-63146435D01*
X110676862Y-63134704D01*
X110641223Y-63115654D01*
X110609983Y-63090017D01*
X110584346Y-63058777D01*
X110565296Y-63023138D01*
X110553565Y-62984468D01*
X110549000Y-62938112D01*
X110549000Y-61861888D01*
X110553565Y-61815532D01*
X110565296Y-61776862D01*
X110584346Y-61741223D01*
X110609983Y-61709983D01*
X110641223Y-61684346D01*
X110676862Y-61665296D01*
X110715532Y-61653565D01*
X110761888Y-61649000D01*
X111413112Y-61649000D01*
X111459468Y-61653565D01*
X111459468Y-61653565D01*
G37*
G36*
X98904591Y-62028085D02*
G01*
X98938569Y-62038393D01*
X98969890Y-62055134D01*
X98997339Y-62077661D01*
X99019866Y-62105110D01*
X99036607Y-62136431D01*
X99046915Y-62170409D01*
X99051000Y-62211890D01*
X99051000Y-62888110D01*
X99046915Y-62929591D01*
X99036607Y-62963569D01*
X99019866Y-62994890D01*
X98997339Y-63022339D01*
X98969890Y-63044866D01*
X98938569Y-63061607D01*
X98904591Y-63071915D01*
X98863110Y-63076000D01*
X98261890Y-63076000D01*
X98220409Y-63071915D01*
X98186431Y-63061607D01*
X98155110Y-63044866D01*
X98127661Y-63022339D01*
X98105134Y-62994890D01*
X98088393Y-62963569D01*
X98078085Y-62929591D01*
X98074000Y-62888110D01*
X98074000Y-62211890D01*
X98078085Y-62170409D01*
X98088393Y-62136431D01*
X98105134Y-62105110D01*
X98127661Y-62077661D01*
X98155110Y-62055134D01*
X98186431Y-62038393D01*
X98220409Y-62028085D01*
X98261890Y-62024000D01*
X98863110Y-62024000D01*
X98904591Y-62028085D01*
X98904591Y-62028085D01*
G37*
G36*
X100479591Y-62028085D02*
G01*
X100513569Y-62038393D01*
X100544890Y-62055134D01*
X100572339Y-62077661D01*
X100594866Y-62105110D01*
X100611607Y-62136431D01*
X100621915Y-62170409D01*
X100626000Y-62211890D01*
X100626000Y-62888110D01*
X100621915Y-62929591D01*
X100611607Y-62963569D01*
X100594866Y-62994890D01*
X100572339Y-63022339D01*
X100544890Y-63044866D01*
X100513569Y-63061607D01*
X100479591Y-63071915D01*
X100438110Y-63076000D01*
X99836890Y-63076000D01*
X99795409Y-63071915D01*
X99761431Y-63061607D01*
X99730110Y-63044866D01*
X99702661Y-63022339D01*
X99680134Y-62994890D01*
X99663393Y-62963569D01*
X99653085Y-62929591D01*
X99649000Y-62888110D01*
X99649000Y-62211890D01*
X99653085Y-62170409D01*
X99663393Y-62136431D01*
X99680134Y-62105110D01*
X99702661Y-62077661D01*
X99730110Y-62055134D01*
X99761431Y-62038393D01*
X99795409Y-62028085D01*
X99836890Y-62024000D01*
X100438110Y-62024000D01*
X100479591Y-62028085D01*
X100479591Y-62028085D01*
G37*
G36*
X107934468Y-61853565D02*
G01*
X107973138Y-61865296D01*
X108008777Y-61884346D01*
X108040017Y-61909983D01*
X108065654Y-61941223D01*
X108084704Y-61976862D01*
X108096435Y-62015532D01*
X108101000Y-62061888D01*
X108101000Y-62713112D01*
X108096435Y-62759468D01*
X108084704Y-62798138D01*
X108065654Y-62833777D01*
X108040017Y-62865017D01*
X108008777Y-62890654D01*
X107973138Y-62909704D01*
X107934468Y-62921435D01*
X107888112Y-62926000D01*
X106811888Y-62926000D01*
X106765532Y-62921435D01*
X106726862Y-62909704D01*
X106691223Y-62890654D01*
X106659983Y-62865017D01*
X106634346Y-62833777D01*
X106615296Y-62798138D01*
X106603565Y-62759468D01*
X106599000Y-62713112D01*
X106599000Y-62061888D01*
X106603565Y-62015532D01*
X106615296Y-61976862D01*
X106634346Y-61941223D01*
X106659983Y-61909983D01*
X106691223Y-61884346D01*
X106726862Y-61865296D01*
X106765532Y-61853565D01*
X106811888Y-61849000D01*
X107888112Y-61849000D01*
X107934468Y-61853565D01*
X107934468Y-61853565D01*
G37*
G36*
X105981000Y-62776000D02*
G01*
X104819000Y-62776000D01*
X104819000Y-62024000D01*
X105981000Y-62024000D01*
X105981000Y-62776000D01*
X105981000Y-62776000D01*
G37*
G36*
X103781000Y-62776000D02*
G01*
X102619000Y-62776000D01*
X102619000Y-60124000D01*
X103781000Y-60124000D01*
X103781000Y-62776000D01*
X103781000Y-62776000D01*
G37*
G36*
X95059468Y-61478565D02*
G01*
X95098138Y-61490296D01*
X95133777Y-61509346D01*
X95165017Y-61534983D01*
X95190654Y-61566223D01*
X95209704Y-61601862D01*
X95221435Y-61640532D01*
X95226000Y-61686888D01*
X95226000Y-62338112D01*
X95221435Y-62384468D01*
X95209704Y-62423138D01*
X95190654Y-62458777D01*
X95165017Y-62490017D01*
X95133777Y-62515654D01*
X95098138Y-62534704D01*
X95059468Y-62546435D01*
X95013112Y-62551000D01*
X93936888Y-62551000D01*
X93890532Y-62546435D01*
X93851862Y-62534704D01*
X93816223Y-62515654D01*
X93784983Y-62490017D01*
X93759346Y-62458777D01*
X93740296Y-62423138D01*
X93728565Y-62384468D01*
X93724000Y-62338112D01*
X93724000Y-61686888D01*
X93728565Y-61640532D01*
X93740296Y-61601862D01*
X93759346Y-61566223D01*
X93784983Y-61534983D01*
X93816223Y-61509346D01*
X93851862Y-61490296D01*
X93890532Y-61478565D01*
X93936888Y-61474000D01*
X95013112Y-61474000D01*
X95059468Y-61478565D01*
X95059468Y-61478565D01*
G37*
G36*
X96909468Y-61478565D02*
G01*
X96948138Y-61490296D01*
X96983777Y-61509346D01*
X97015017Y-61534983D01*
X97040654Y-61566223D01*
X97059704Y-61601862D01*
X97071435Y-61640532D01*
X97076000Y-61686888D01*
X97076000Y-62338112D01*
X97071435Y-62384468D01*
X97059704Y-62423138D01*
X97040654Y-62458777D01*
X97015017Y-62490017D01*
X96983777Y-62515654D01*
X96948138Y-62534704D01*
X96909468Y-62546435D01*
X96863112Y-62551000D01*
X95786888Y-62551000D01*
X95740532Y-62546435D01*
X95701862Y-62534704D01*
X95666223Y-62515654D01*
X95634983Y-62490017D01*
X95609346Y-62458777D01*
X95590296Y-62423138D01*
X95578565Y-62384468D01*
X95574000Y-62338112D01*
X95574000Y-61686888D01*
X95578565Y-61640532D01*
X95590296Y-61601862D01*
X95609346Y-61566223D01*
X95634983Y-61534983D01*
X95666223Y-61509346D01*
X95701862Y-61490296D01*
X95740532Y-61478565D01*
X95786888Y-61474000D01*
X96863112Y-61474000D01*
X96909468Y-61478565D01*
X96909468Y-61478565D01*
G37*
G36*
X100459468Y-60078565D02*
G01*
X100498138Y-60090296D01*
X100533777Y-60109346D01*
X100565017Y-60134983D01*
X100590654Y-60166223D01*
X100609704Y-60201862D01*
X100621435Y-60240532D01*
X100626000Y-60286888D01*
X100626000Y-60938112D01*
X100621435Y-60984468D01*
X100609704Y-61023138D01*
X100590654Y-61058777D01*
X100565017Y-61090017D01*
X100533777Y-61115654D01*
X100498138Y-61134704D01*
X100459468Y-61146435D01*
X100413112Y-61151000D01*
X99336888Y-61151000D01*
X99290532Y-61146435D01*
X99251862Y-61134704D01*
X99216223Y-61115654D01*
X99184983Y-61090017D01*
X99159346Y-61058777D01*
X99140296Y-61023138D01*
X99128565Y-60984468D01*
X99124000Y-60938112D01*
X99124000Y-60286888D01*
X99128565Y-60240532D01*
X99140296Y-60201862D01*
X99159346Y-60166223D01*
X99184983Y-60134983D01*
X99216223Y-60109346D01*
X99251862Y-60090296D01*
X99290532Y-60078565D01*
X99336888Y-60074000D01*
X100413112Y-60074000D01*
X100459468Y-60078565D01*
X100459468Y-60078565D01*
G37*
G36*
X107934468Y-59978565D02*
G01*
X107973138Y-59990296D01*
X108008777Y-60009346D01*
X108040017Y-60034983D01*
X108065654Y-60066223D01*
X108084704Y-60101862D01*
X108096435Y-60140532D01*
X108101000Y-60186888D01*
X108101000Y-60838112D01*
X108096435Y-60884468D01*
X108084704Y-60923138D01*
X108065654Y-60958777D01*
X108040017Y-60990017D01*
X108008777Y-61015654D01*
X107973138Y-61034704D01*
X107934468Y-61046435D01*
X107888112Y-61051000D01*
X106811888Y-61051000D01*
X106765532Y-61046435D01*
X106726862Y-61034704D01*
X106691223Y-61015654D01*
X106659983Y-60990017D01*
X106634346Y-60958777D01*
X106615296Y-60923138D01*
X106603565Y-60884468D01*
X106599000Y-60838112D01*
X106599000Y-60186888D01*
X106603565Y-60140532D01*
X106615296Y-60101862D01*
X106634346Y-60066223D01*
X106659983Y-60034983D01*
X106691223Y-60009346D01*
X106726862Y-59990296D01*
X106765532Y-59978565D01*
X106811888Y-59974000D01*
X107888112Y-59974000D01*
X107934468Y-59978565D01*
X107934468Y-59978565D01*
G37*
G36*
X96456000Y-61026000D02*
G01*
X95294000Y-61026000D01*
X95294000Y-58374000D01*
X96456000Y-58374000D01*
X96456000Y-61026000D01*
X96456000Y-61026000D01*
G37*
G36*
X98656000Y-61026000D02*
G01*
X97494000Y-61026000D01*
X97494000Y-60274000D01*
X98656000Y-60274000D01*
X98656000Y-61026000D01*
X98656000Y-61026000D01*
G37*
G36*
X105981000Y-60876000D02*
G01*
X104819000Y-60876000D01*
X104819000Y-60124000D01*
X105981000Y-60124000D01*
X105981000Y-60876000D01*
X105981000Y-60876000D01*
G37*
G36*
X131872798Y-59178247D02*
G01*
X131908367Y-59189037D01*
X131941139Y-59206554D01*
X131969869Y-59230131D01*
X131993446Y-59258861D01*
X132010963Y-59291633D01*
X132021753Y-59327202D01*
X132026000Y-59370325D01*
X132026000Y-60429675D01*
X132021753Y-60472798D01*
X132010963Y-60508367D01*
X131993446Y-60541139D01*
X131969869Y-60569869D01*
X131941139Y-60593446D01*
X131908367Y-60610963D01*
X131872798Y-60621753D01*
X131829675Y-60626000D01*
X128770325Y-60626000D01*
X128727202Y-60621753D01*
X128691633Y-60610963D01*
X128658861Y-60593446D01*
X128630131Y-60569869D01*
X128606554Y-60541139D01*
X128589037Y-60508367D01*
X128578247Y-60472798D01*
X128574000Y-60429675D01*
X128574000Y-59370325D01*
X128578247Y-59327202D01*
X128589037Y-59291633D01*
X128606554Y-59258861D01*
X128630131Y-59230131D01*
X128658861Y-59206554D01*
X128691633Y-59189037D01*
X128727202Y-59178247D01*
X128770325Y-59174000D01*
X131829675Y-59174000D01*
X131872798Y-59178247D01*
X131872798Y-59178247D01*
G37*
G36*
X135772798Y-59178247D02*
G01*
X135808367Y-59189037D01*
X135841139Y-59206554D01*
X135869869Y-59230131D01*
X135893446Y-59258861D01*
X135910963Y-59291633D01*
X135921753Y-59327202D01*
X135926000Y-59370325D01*
X135926000Y-60429675D01*
X135921753Y-60472798D01*
X135910963Y-60508367D01*
X135893446Y-60541139D01*
X135869869Y-60569869D01*
X135841139Y-60593446D01*
X135808367Y-60610963D01*
X135772798Y-60621753D01*
X135729675Y-60626000D01*
X132670325Y-60626000D01*
X132627202Y-60621753D01*
X132591633Y-60610963D01*
X132558861Y-60593446D01*
X132530131Y-60569869D01*
X132506554Y-60541139D01*
X132489037Y-60508367D01*
X132478247Y-60472798D01*
X132474000Y-60429675D01*
X132474000Y-59370325D01*
X132478247Y-59327202D01*
X132489037Y-59291633D01*
X132506554Y-59258861D01*
X132530131Y-59230131D01*
X132558861Y-59206554D01*
X132591633Y-59189037D01*
X132627202Y-59178247D01*
X132670325Y-59174000D01*
X135729675Y-59174000D01*
X135772798Y-59178247D01*
X135772798Y-59178247D01*
G37*
G36*
X104154591Y-58428085D02*
G01*
X104188569Y-58438393D01*
X104219890Y-58455134D01*
X104247339Y-58477661D01*
X104269866Y-58505110D01*
X104286607Y-58536431D01*
X104296915Y-58570409D01*
X104301000Y-58611890D01*
X104301000Y-59288110D01*
X104296915Y-59329591D01*
X104286607Y-59363569D01*
X104269866Y-59394890D01*
X104247339Y-59422339D01*
X104219890Y-59444866D01*
X104188569Y-59461607D01*
X104154591Y-59471915D01*
X104113110Y-59476000D01*
X103511890Y-59476000D01*
X103470409Y-59471915D01*
X103436431Y-59461607D01*
X103405110Y-59444866D01*
X103377661Y-59422339D01*
X103355134Y-59394890D01*
X103338393Y-59363569D01*
X103328085Y-59329591D01*
X103324000Y-59288110D01*
X103324000Y-58611890D01*
X103328085Y-58570409D01*
X103338393Y-58536431D01*
X103355134Y-58505110D01*
X103377661Y-58477661D01*
X103405110Y-58455134D01*
X103436431Y-58438393D01*
X103470409Y-58428085D01*
X103511890Y-58424000D01*
X104113110Y-58424000D01*
X104154591Y-58428085D01*
X104154591Y-58428085D01*
G37*
G36*
X105729591Y-58428085D02*
G01*
X105763569Y-58438393D01*
X105794890Y-58455134D01*
X105822339Y-58477661D01*
X105844866Y-58505110D01*
X105861607Y-58536431D01*
X105871915Y-58570409D01*
X105876000Y-58611890D01*
X105876000Y-59288110D01*
X105871915Y-59329591D01*
X105861607Y-59363569D01*
X105844866Y-59394890D01*
X105822339Y-59422339D01*
X105794890Y-59444866D01*
X105763569Y-59461607D01*
X105729591Y-59471915D01*
X105688110Y-59476000D01*
X105086890Y-59476000D01*
X105045409Y-59471915D01*
X105011431Y-59461607D01*
X104980110Y-59444866D01*
X104952661Y-59422339D01*
X104930134Y-59394890D01*
X104913393Y-59363569D01*
X104903085Y-59329591D01*
X104899000Y-59288110D01*
X104899000Y-58611890D01*
X104903085Y-58570409D01*
X104913393Y-58536431D01*
X104930134Y-58505110D01*
X104952661Y-58477661D01*
X104980110Y-58455134D01*
X105011431Y-58438393D01*
X105045409Y-58428085D01*
X105086890Y-58424000D01*
X105688110Y-58424000D01*
X105729591Y-58428085D01*
X105729591Y-58428085D01*
G37*
G36*
X100459468Y-58203565D02*
G01*
X100498138Y-58215296D01*
X100533777Y-58234346D01*
X100565017Y-58259983D01*
X100590654Y-58291223D01*
X100609704Y-58326862D01*
X100621435Y-58365532D01*
X100626000Y-58411888D01*
X100626000Y-59063112D01*
X100621435Y-59109468D01*
X100609704Y-59148138D01*
X100590654Y-59183777D01*
X100565017Y-59215017D01*
X100533777Y-59240654D01*
X100498138Y-59259704D01*
X100459468Y-59271435D01*
X100413112Y-59276000D01*
X99336888Y-59276000D01*
X99290532Y-59271435D01*
X99251862Y-59259704D01*
X99216223Y-59240654D01*
X99184983Y-59215017D01*
X99159346Y-59183777D01*
X99140296Y-59148138D01*
X99128565Y-59109468D01*
X99124000Y-59063112D01*
X99124000Y-58411888D01*
X99128565Y-58365532D01*
X99140296Y-58326862D01*
X99159346Y-58291223D01*
X99184983Y-58259983D01*
X99216223Y-58234346D01*
X99251862Y-58215296D01*
X99290532Y-58203565D01*
X99336888Y-58199000D01*
X100413112Y-58199000D01*
X100459468Y-58203565D01*
X100459468Y-58203565D01*
G37*
G36*
X98656000Y-59126000D02*
G01*
X97494000Y-59126000D01*
X97494000Y-58374000D01*
X98656000Y-58374000D01*
X98656000Y-59126000D01*
X98656000Y-59126000D01*
G37*
G36*
X111534468Y-55803565D02*
G01*
X111573138Y-55815296D01*
X111608777Y-55834346D01*
X111640017Y-55859983D01*
X111665654Y-55891223D01*
X111684704Y-55926862D01*
X111696435Y-55965532D01*
X111701000Y-56011888D01*
X111701000Y-57088112D01*
X111696435Y-57134468D01*
X111684704Y-57173138D01*
X111665654Y-57208777D01*
X111640017Y-57240017D01*
X111608777Y-57265654D01*
X111573138Y-57284704D01*
X111534468Y-57296435D01*
X111488112Y-57301000D01*
X110836888Y-57301000D01*
X110790532Y-57296435D01*
X110751862Y-57284704D01*
X110716223Y-57265654D01*
X110684983Y-57240017D01*
X110659346Y-57208777D01*
X110640296Y-57173138D01*
X110628565Y-57134468D01*
X110624000Y-57088112D01*
X110624000Y-56011888D01*
X110628565Y-55965532D01*
X110640296Y-55926862D01*
X110659346Y-55891223D01*
X110684983Y-55859983D01*
X110716223Y-55834346D01*
X110751862Y-55815296D01*
X110790532Y-55803565D01*
X110836888Y-55799000D01*
X111488112Y-55799000D01*
X111534468Y-55803565D01*
X111534468Y-55803565D01*
G37*
G36*
X113409468Y-55803565D02*
G01*
X113448138Y-55815296D01*
X113483777Y-55834346D01*
X113515017Y-55859983D01*
X113540654Y-55891223D01*
X113559704Y-55926862D01*
X113571435Y-55965532D01*
X113576000Y-56011888D01*
X113576000Y-57088112D01*
X113571435Y-57134468D01*
X113559704Y-57173138D01*
X113540654Y-57208777D01*
X113515017Y-57240017D01*
X113483777Y-57265654D01*
X113448138Y-57284704D01*
X113409468Y-57296435D01*
X113363112Y-57301000D01*
X112711888Y-57301000D01*
X112665532Y-57296435D01*
X112626862Y-57284704D01*
X112591223Y-57265654D01*
X112559983Y-57240017D01*
X112534346Y-57208777D01*
X112515296Y-57173138D01*
X112503565Y-57134468D01*
X112499000Y-57088112D01*
X112499000Y-56011888D01*
X112503565Y-55965532D01*
X112515296Y-55926862D01*
X112534346Y-55891223D01*
X112559983Y-55859983D01*
X112591223Y-55834346D01*
X112626862Y-55815296D01*
X112665532Y-55803565D01*
X112711888Y-55799000D01*
X113363112Y-55799000D01*
X113409468Y-55803565D01*
X113409468Y-55803565D01*
G37*
G36*
X107979591Y-55628085D02*
G01*
X108013569Y-55638393D01*
X108044890Y-55655134D01*
X108072339Y-55677661D01*
X108094866Y-55705110D01*
X108111607Y-55736431D01*
X108121915Y-55770409D01*
X108126000Y-55811890D01*
X108126000Y-56488110D01*
X108121915Y-56529591D01*
X108111607Y-56563569D01*
X108094866Y-56594890D01*
X108072339Y-56622339D01*
X108044890Y-56644866D01*
X108013569Y-56661607D01*
X107979591Y-56671915D01*
X107938110Y-56676000D01*
X107336890Y-56676000D01*
X107295409Y-56671915D01*
X107261431Y-56661607D01*
X107230110Y-56644866D01*
X107202661Y-56622339D01*
X107180134Y-56594890D01*
X107163393Y-56563569D01*
X107153085Y-56529591D01*
X107149000Y-56488110D01*
X107149000Y-55811890D01*
X107153085Y-55770409D01*
X107163393Y-55736431D01*
X107180134Y-55705110D01*
X107202661Y-55677661D01*
X107230110Y-55655134D01*
X107261431Y-55638393D01*
X107295409Y-55628085D01*
X107336890Y-55624000D01*
X107938110Y-55624000D01*
X107979591Y-55628085D01*
X107979591Y-55628085D01*
G37*
G36*
X106404591Y-55628085D02*
G01*
X106438569Y-55638393D01*
X106469890Y-55655134D01*
X106497339Y-55677661D01*
X106519866Y-55705110D01*
X106536607Y-55736431D01*
X106546915Y-55770409D01*
X106551000Y-55811890D01*
X106551000Y-56488110D01*
X106546915Y-56529591D01*
X106536607Y-56563569D01*
X106519866Y-56594890D01*
X106497339Y-56622339D01*
X106469890Y-56644866D01*
X106438569Y-56661607D01*
X106404591Y-56671915D01*
X106363110Y-56676000D01*
X105761890Y-56676000D01*
X105720409Y-56671915D01*
X105686431Y-56661607D01*
X105655110Y-56644866D01*
X105627661Y-56622339D01*
X105605134Y-56594890D01*
X105588393Y-56563569D01*
X105578085Y-56529591D01*
X105574000Y-56488110D01*
X105574000Y-55811890D01*
X105578085Y-55770409D01*
X105588393Y-55736431D01*
X105605134Y-55705110D01*
X105627661Y-55677661D01*
X105655110Y-55655134D01*
X105686431Y-55638393D01*
X105720409Y-55628085D01*
X105761890Y-55624000D01*
X106363110Y-55624000D01*
X106404591Y-55628085D01*
X106404591Y-55628085D01*
G37*
G36*
X93854591Y-55453085D02*
G01*
X93888569Y-55463393D01*
X93919890Y-55480134D01*
X93947339Y-55502661D01*
X93969866Y-55530110D01*
X93986607Y-55561431D01*
X93996915Y-55595409D01*
X94001000Y-55636890D01*
X94001000Y-56238110D01*
X93996915Y-56279591D01*
X93986607Y-56313569D01*
X93969866Y-56344890D01*
X93947339Y-56372339D01*
X93919890Y-56394866D01*
X93888569Y-56411607D01*
X93854591Y-56421915D01*
X93813110Y-56426000D01*
X93136890Y-56426000D01*
X93095409Y-56421915D01*
X93061431Y-56411607D01*
X93030110Y-56394866D01*
X93002661Y-56372339D01*
X92980134Y-56344890D01*
X92963393Y-56313569D01*
X92953085Y-56279591D01*
X92949000Y-56238110D01*
X92949000Y-55636890D01*
X92953085Y-55595409D01*
X92963393Y-55561431D01*
X92980134Y-55530110D01*
X93002661Y-55502661D01*
X93030110Y-55480134D01*
X93061431Y-55463393D01*
X93095409Y-55453085D01*
X93136890Y-55449000D01*
X93813110Y-55449000D01*
X93854591Y-55453085D01*
X93854591Y-55453085D01*
G37*
G36*
X97806000Y-55676000D02*
G01*
X96644000Y-55676000D01*
X96644000Y-53024000D01*
X97806000Y-53024000D01*
X97806000Y-55676000D01*
X97806000Y-55676000D01*
G37*
G36*
X95606000Y-55676000D02*
G01*
X94444000Y-55676000D01*
X94444000Y-53024000D01*
X95606000Y-53024000D01*
X95606000Y-55676000D01*
X95606000Y-55676000D01*
G37*
G36*
X103284468Y-54053565D02*
G01*
X103323138Y-54065296D01*
X103358777Y-54084346D01*
X103390017Y-54109983D01*
X103415654Y-54141223D01*
X103434704Y-54176862D01*
X103446435Y-54215532D01*
X103451000Y-54261888D01*
X103451000Y-54913112D01*
X103446435Y-54959468D01*
X103434704Y-54998138D01*
X103415654Y-55033777D01*
X103390017Y-55065017D01*
X103358777Y-55090654D01*
X103323138Y-55109704D01*
X103284468Y-55121435D01*
X103238112Y-55126000D01*
X102161888Y-55126000D01*
X102115532Y-55121435D01*
X102076862Y-55109704D01*
X102041223Y-55090654D01*
X102009983Y-55065017D01*
X101984346Y-55033777D01*
X101965296Y-54998138D01*
X101953565Y-54959468D01*
X101949000Y-54913112D01*
X101949000Y-54261888D01*
X101953565Y-54215532D01*
X101965296Y-54176862D01*
X101984346Y-54141223D01*
X102009983Y-54109983D01*
X102041223Y-54084346D01*
X102076862Y-54065296D01*
X102115532Y-54053565D01*
X102161888Y-54049000D01*
X103238112Y-54049000D01*
X103284468Y-54053565D01*
X103284468Y-54053565D01*
G37*
G36*
X106631000Y-54976000D02*
G01*
X105469000Y-54976000D01*
X105469000Y-54224000D01*
X106631000Y-54224000D01*
X106631000Y-54976000D01*
X106631000Y-54976000D01*
G37*
G36*
X108831000Y-54976000D02*
G01*
X107669000Y-54976000D01*
X107669000Y-52324000D01*
X108831000Y-52324000D01*
X108831000Y-54976000D01*
X108831000Y-54976000D01*
G37*
G36*
X101384468Y-53878565D02*
G01*
X101423138Y-53890296D01*
X101458777Y-53909346D01*
X101490017Y-53934983D01*
X101515654Y-53966223D01*
X101534704Y-54001862D01*
X101546435Y-54040532D01*
X101551000Y-54086888D01*
X101551000Y-54738112D01*
X101546435Y-54784468D01*
X101534704Y-54823138D01*
X101515654Y-54858777D01*
X101490017Y-54890017D01*
X101458777Y-54915654D01*
X101423138Y-54934704D01*
X101384468Y-54946435D01*
X101338112Y-54951000D01*
X100261888Y-54951000D01*
X100215532Y-54946435D01*
X100176862Y-54934704D01*
X100141223Y-54915654D01*
X100109983Y-54890017D01*
X100084346Y-54858777D01*
X100065296Y-54823138D01*
X100053565Y-54784468D01*
X100049000Y-54738112D01*
X100049000Y-54086888D01*
X100053565Y-54040532D01*
X100065296Y-54001862D01*
X100084346Y-53966223D01*
X100109983Y-53934983D01*
X100141223Y-53909346D01*
X100176862Y-53890296D01*
X100215532Y-53878565D01*
X100261888Y-53874000D01*
X101338112Y-53874000D01*
X101384468Y-53878565D01*
X101384468Y-53878565D01*
G37*
G36*
X93854591Y-53878085D02*
G01*
X93888569Y-53888393D01*
X93919890Y-53905134D01*
X93947339Y-53927661D01*
X93969866Y-53955110D01*
X93986607Y-53986431D01*
X93996915Y-54020409D01*
X94001000Y-54061890D01*
X94001000Y-54663110D01*
X93996915Y-54704591D01*
X93986607Y-54738569D01*
X93969866Y-54769890D01*
X93947339Y-54797339D01*
X93919890Y-54819866D01*
X93888569Y-54836607D01*
X93854591Y-54846915D01*
X93813110Y-54851000D01*
X93136890Y-54851000D01*
X93095409Y-54846915D01*
X93061431Y-54836607D01*
X93030110Y-54819866D01*
X93002661Y-54797339D01*
X92980134Y-54769890D01*
X92963393Y-54738569D01*
X92953085Y-54704591D01*
X92949000Y-54663110D01*
X92949000Y-54061890D01*
X92953085Y-54020409D01*
X92963393Y-53986431D01*
X92980134Y-53955110D01*
X93002661Y-53927661D01*
X93030110Y-53905134D01*
X93061431Y-53888393D01*
X93095409Y-53878085D01*
X93136890Y-53874000D01*
X93813110Y-53874000D01*
X93854591Y-53878085D01*
X93854591Y-53878085D01*
G37*
G36*
X131872798Y-53378247D02*
G01*
X131908367Y-53389037D01*
X131941139Y-53406554D01*
X131969869Y-53430131D01*
X131993446Y-53458861D01*
X132010963Y-53491633D01*
X132021753Y-53527202D01*
X132026000Y-53570325D01*
X132026000Y-54629675D01*
X132021753Y-54672798D01*
X132010963Y-54708367D01*
X131993446Y-54741139D01*
X131969869Y-54769869D01*
X131941139Y-54793446D01*
X131908367Y-54810963D01*
X131872798Y-54821753D01*
X131829675Y-54826000D01*
X128770325Y-54826000D01*
X128727202Y-54821753D01*
X128691633Y-54810963D01*
X128658861Y-54793446D01*
X128630131Y-54769869D01*
X128606554Y-54741139D01*
X128589037Y-54708367D01*
X128578247Y-54672798D01*
X128574000Y-54629675D01*
X128574000Y-53570325D01*
X128578247Y-53527202D01*
X128589037Y-53491633D01*
X128606554Y-53458861D01*
X128630131Y-53430131D01*
X128658861Y-53406554D01*
X128691633Y-53389037D01*
X128727202Y-53378247D01*
X128770325Y-53374000D01*
X131829675Y-53374000D01*
X131872798Y-53378247D01*
X131872798Y-53378247D01*
G37*
G36*
X135772798Y-53378247D02*
G01*
X135808367Y-53389037D01*
X135841139Y-53406554D01*
X135869869Y-53430131D01*
X135893446Y-53458861D01*
X135910963Y-53491633D01*
X135921753Y-53527202D01*
X135926000Y-53570325D01*
X135926000Y-54629675D01*
X135921753Y-54672798D01*
X135910963Y-54708367D01*
X135893446Y-54741139D01*
X135869869Y-54769869D01*
X135841139Y-54793446D01*
X135808367Y-54810963D01*
X135772798Y-54821753D01*
X135729675Y-54826000D01*
X132670325Y-54826000D01*
X132627202Y-54821753D01*
X132591633Y-54810963D01*
X132558861Y-54793446D01*
X132530131Y-54769869D01*
X132506554Y-54741139D01*
X132489037Y-54708367D01*
X132478247Y-54672798D01*
X132474000Y-54629675D01*
X132474000Y-53570325D01*
X132478247Y-53527202D01*
X132489037Y-53491633D01*
X132506554Y-53458861D01*
X132530131Y-53430131D01*
X132558861Y-53406554D01*
X132591633Y-53389037D01*
X132627202Y-53378247D01*
X132670325Y-53374000D01*
X135729675Y-53374000D01*
X135772798Y-53378247D01*
X135772798Y-53378247D01*
G37*
G36*
X125655039Y-50217825D02*
G01*
X125900279Y-50292218D01*
X126126293Y-50413025D01*
X126324396Y-50575604D01*
X126486976Y-50773707D01*
X126607781Y-50999718D01*
X126682175Y-51244961D01*
X126701000Y-51436094D01*
X126701000Y-53563906D01*
X126695081Y-53624000D01*
X126682175Y-53755040D01*
X126611844Y-53986890D01*
X126607781Y-54000282D01*
X126594034Y-54026000D01*
X126486975Y-54226294D01*
X126454617Y-54265722D01*
X126324397Y-54424397D01*
X126190274Y-54534468D01*
X126126294Y-54586975D01*
X126085505Y-54608777D01*
X125948983Y-54681750D01*
X125900280Y-54707782D01*
X125655040Y-54782175D01*
X125400000Y-54807294D01*
X125144961Y-54782175D01*
X124899721Y-54707782D01*
X124851019Y-54681750D01*
X124714496Y-54608777D01*
X124673707Y-54586975D01*
X124609727Y-54534468D01*
X124475604Y-54424397D01*
X124345384Y-54265722D01*
X124313026Y-54226294D01*
X124205967Y-54026000D01*
X124192220Y-54000282D01*
X124188158Y-53986890D01*
X124117826Y-53755040D01*
X124104920Y-53624000D01*
X124099001Y-53563906D01*
X124099000Y-51436095D01*
X124117825Y-51244962D01*
X124117825Y-51244961D01*
X124192218Y-50999721D01*
X124313025Y-50773707D01*
X124475604Y-50575604D01*
X124673706Y-50413025D01*
X124673705Y-50413025D01*
X124673707Y-50413024D01*
X124899718Y-50292219D01*
X124899720Y-50292218D01*
X125144960Y-50217825D01*
X125400000Y-50192706D01*
X125655039Y-50217825D01*
X125655039Y-50217825D01*
G37*
G36*
X120205039Y-50217825D02*
G01*
X120450279Y-50292218D01*
X120676293Y-50413025D01*
X120874396Y-50575604D01*
X121036976Y-50773707D01*
X121157781Y-50999718D01*
X121232175Y-51244961D01*
X121251000Y-51436094D01*
X121251000Y-53563906D01*
X121245081Y-53624000D01*
X121232175Y-53755040D01*
X121161844Y-53986890D01*
X121157781Y-54000282D01*
X121144034Y-54026000D01*
X121036975Y-54226294D01*
X121004617Y-54265722D01*
X120874397Y-54424397D01*
X120740274Y-54534468D01*
X120676294Y-54586975D01*
X120635505Y-54608777D01*
X120498983Y-54681750D01*
X120450280Y-54707782D01*
X120205040Y-54782175D01*
X119950000Y-54807294D01*
X119694961Y-54782175D01*
X119449721Y-54707782D01*
X119401019Y-54681750D01*
X119264496Y-54608777D01*
X119223707Y-54586975D01*
X119159727Y-54534468D01*
X119025604Y-54424397D01*
X118895384Y-54265722D01*
X118863026Y-54226294D01*
X118755967Y-54026000D01*
X118742220Y-54000282D01*
X118738158Y-53986890D01*
X118667826Y-53755040D01*
X118654920Y-53624000D01*
X118649001Y-53563906D01*
X118649000Y-51436095D01*
X118667825Y-51244962D01*
X118667825Y-51244961D01*
X118742218Y-50999721D01*
X118863025Y-50773707D01*
X119025604Y-50575604D01*
X119223706Y-50413025D01*
X119223705Y-50413025D01*
X119223707Y-50413024D01*
X119449718Y-50292219D01*
X119449720Y-50292218D01*
X119694960Y-50217825D01*
X119950000Y-50192706D01*
X120205039Y-50217825D01*
X120205039Y-50217825D01*
G37*
G36*
X115801000Y-54801000D02*
G01*
X113199000Y-54801000D01*
X113199000Y-50199000D01*
X115801000Y-50199000D01*
X115801000Y-54801000D01*
X115801000Y-54801000D01*
G37*
G36*
X104879591Y-53803085D02*
G01*
X104913569Y-53813393D01*
X104944890Y-53830134D01*
X104972339Y-53852661D01*
X104994866Y-53880110D01*
X105011607Y-53911431D01*
X105021915Y-53945409D01*
X105026000Y-53986890D01*
X105026000Y-54588110D01*
X105021915Y-54629591D01*
X105011607Y-54663569D01*
X104994866Y-54694890D01*
X104972339Y-54722339D01*
X104944890Y-54744866D01*
X104913569Y-54761607D01*
X104879591Y-54771915D01*
X104838110Y-54776000D01*
X104161890Y-54776000D01*
X104120409Y-54771915D01*
X104086431Y-54761607D01*
X104055110Y-54744866D01*
X104027661Y-54722339D01*
X104005134Y-54694890D01*
X103988393Y-54663569D01*
X103978085Y-54629591D01*
X103974000Y-54588110D01*
X103974000Y-53986890D01*
X103978085Y-53945409D01*
X103988393Y-53911431D01*
X104005134Y-53880110D01*
X104027661Y-53852661D01*
X104055110Y-53830134D01*
X104086431Y-53813393D01*
X104120409Y-53803085D01*
X104161890Y-53799000D01*
X104838110Y-53799000D01*
X104879591Y-53803085D01*
X104879591Y-53803085D01*
G37*
G36*
X99559468Y-53628565D02*
G01*
X99598138Y-53640296D01*
X99633777Y-53659346D01*
X99665017Y-53684983D01*
X99690654Y-53716223D01*
X99709704Y-53751862D01*
X99721435Y-53790532D01*
X99726000Y-53836888D01*
X99726000Y-54488112D01*
X99721435Y-54534468D01*
X99709704Y-54573138D01*
X99690654Y-54608777D01*
X99665017Y-54640017D01*
X99633777Y-54665654D01*
X99598138Y-54684704D01*
X99559468Y-54696435D01*
X99513112Y-54701000D01*
X98436888Y-54701000D01*
X98390532Y-54696435D01*
X98351862Y-54684704D01*
X98316223Y-54665654D01*
X98284983Y-54640017D01*
X98259346Y-54608777D01*
X98240296Y-54573138D01*
X98228565Y-54534468D01*
X98224000Y-54488112D01*
X98224000Y-53836888D01*
X98228565Y-53790532D01*
X98240296Y-53751862D01*
X98259346Y-53716223D01*
X98284983Y-53684983D01*
X98316223Y-53659346D01*
X98351862Y-53640296D01*
X98390532Y-53628565D01*
X98436888Y-53624000D01*
X99513112Y-53624000D01*
X99559468Y-53628565D01*
X99559468Y-53628565D01*
G37*
G36*
X103284468Y-52178565D02*
G01*
X103323138Y-52190296D01*
X103358777Y-52209346D01*
X103390017Y-52234983D01*
X103415654Y-52266223D01*
X103434704Y-52301862D01*
X103446435Y-52340532D01*
X103451000Y-52386888D01*
X103451000Y-53038112D01*
X103446435Y-53084468D01*
X103434704Y-53123138D01*
X103415654Y-53158777D01*
X103390017Y-53190017D01*
X103358777Y-53215654D01*
X103323138Y-53234704D01*
X103284468Y-53246435D01*
X103238112Y-53251000D01*
X102161888Y-53251000D01*
X102115532Y-53246435D01*
X102076862Y-53234704D01*
X102041223Y-53215654D01*
X102009983Y-53190017D01*
X101984346Y-53158777D01*
X101965296Y-53123138D01*
X101953565Y-53084468D01*
X101949000Y-53038112D01*
X101949000Y-52386888D01*
X101953565Y-52340532D01*
X101965296Y-52301862D01*
X101984346Y-52266223D01*
X102009983Y-52234983D01*
X102041223Y-52209346D01*
X102076862Y-52190296D01*
X102115532Y-52178565D01*
X102161888Y-52174000D01*
X103238112Y-52174000D01*
X103284468Y-52178565D01*
X103284468Y-52178565D01*
G37*
G36*
X104879591Y-52228085D02*
G01*
X104913569Y-52238393D01*
X104944890Y-52255134D01*
X104972339Y-52277661D01*
X104994866Y-52305110D01*
X105011607Y-52336431D01*
X105021915Y-52370409D01*
X105026000Y-52411890D01*
X105026000Y-53013110D01*
X105021915Y-53054591D01*
X105011607Y-53088569D01*
X104994866Y-53119890D01*
X104972339Y-53147339D01*
X104944890Y-53169866D01*
X104913569Y-53186607D01*
X104879591Y-53196915D01*
X104838110Y-53201000D01*
X104161890Y-53201000D01*
X104120409Y-53196915D01*
X104086431Y-53186607D01*
X104055110Y-53169866D01*
X104027661Y-53147339D01*
X104005134Y-53119890D01*
X103988393Y-53088569D01*
X103978085Y-53054591D01*
X103974000Y-53013110D01*
X103974000Y-52411890D01*
X103978085Y-52370409D01*
X103988393Y-52336431D01*
X104005134Y-52305110D01*
X104027661Y-52277661D01*
X104055110Y-52255134D01*
X104086431Y-52238393D01*
X104120409Y-52228085D01*
X104161890Y-52224000D01*
X104838110Y-52224000D01*
X104879591Y-52228085D01*
X104879591Y-52228085D01*
G37*
G36*
X106631000Y-53076000D02*
G01*
X105469000Y-53076000D01*
X105469000Y-52324000D01*
X106631000Y-52324000D01*
X106631000Y-53076000D01*
X106631000Y-53076000D01*
G37*
G36*
X101384468Y-52003565D02*
G01*
X101423138Y-52015296D01*
X101458777Y-52034346D01*
X101490017Y-52059983D01*
X101515654Y-52091223D01*
X101534704Y-52126862D01*
X101546435Y-52165532D01*
X101551000Y-52211888D01*
X101551000Y-52863112D01*
X101546435Y-52909468D01*
X101534704Y-52948138D01*
X101515654Y-52983777D01*
X101490017Y-53015017D01*
X101458777Y-53040654D01*
X101423138Y-53059704D01*
X101384468Y-53071435D01*
X101338112Y-53076000D01*
X100261888Y-53076000D01*
X100215532Y-53071435D01*
X100176862Y-53059704D01*
X100141223Y-53040654D01*
X100109983Y-53015017D01*
X100084346Y-52983777D01*
X100065296Y-52948138D01*
X100053565Y-52909468D01*
X100049000Y-52863112D01*
X100049000Y-52211888D01*
X100053565Y-52165532D01*
X100065296Y-52126862D01*
X100084346Y-52091223D01*
X100109983Y-52059983D01*
X100141223Y-52034346D01*
X100176862Y-52015296D01*
X100215532Y-52003565D01*
X100261888Y-51999000D01*
X101338112Y-51999000D01*
X101384468Y-52003565D01*
X101384468Y-52003565D01*
G37*
G36*
X99559468Y-51753565D02*
G01*
X99598138Y-51765296D01*
X99633777Y-51784346D01*
X99665017Y-51809983D01*
X99690654Y-51841223D01*
X99709704Y-51876862D01*
X99721435Y-51915532D01*
X99726000Y-51961888D01*
X99726000Y-52613112D01*
X99721435Y-52659468D01*
X99709704Y-52698138D01*
X99690654Y-52733777D01*
X99665017Y-52765017D01*
X99633777Y-52790654D01*
X99598138Y-52809704D01*
X99559468Y-52821435D01*
X99513112Y-52826000D01*
X98436888Y-52826000D01*
X98390532Y-52821435D01*
X98351862Y-52809704D01*
X98316223Y-52790654D01*
X98284983Y-52765017D01*
X98259346Y-52733777D01*
X98240296Y-52698138D01*
X98228565Y-52659468D01*
X98224000Y-52613112D01*
X98224000Y-51961888D01*
X98228565Y-51915532D01*
X98240296Y-51876862D01*
X98259346Y-51841223D01*
X98284983Y-51809983D01*
X98316223Y-51784346D01*
X98351862Y-51765296D01*
X98390532Y-51753565D01*
X98436888Y-51749000D01*
X99513112Y-51749000D01*
X99559468Y-51753565D01*
X99559468Y-51753565D01*
G37*
M02*
