M48
; DRILL file {KiCad (5.1.2)-2} date 2021-03-22 2:30:23 AM
; FORMAT={-:-/ absolute / inch / decimal}
; #@! TF.CreationDate,2021-03-22T02:30:23-04:00
; #@! TF.GenerationSoftware,Kicad,Pcbnew,(5.1.2)-2
; #@! TF.FileFunction,Plated,1,4,PTH
FMAT,2
INCH
T1C0.0157
T2C0.0236
T3C0.0472
T4C0.0591
T5C0.1693
%
G90
G05
T1
X3.6407Y-2.1398
X3.7195Y-2.2106
X3.7913Y-2.5502
X3.814Y-2.3504
X3.8209Y-2.5876
X3.8278Y-2.0659
X3.8612Y-2.2766
X3.8967Y-2.1732
X3.8967Y-2.2766
X3.9321Y-2.2766
X3.9321Y-2.4222
X3.9685Y-2.0266
X3.9685Y-2.188
X3.9961Y-2.2343
X4.0Y-2.3642
X4.0197Y-2.4193
X4.0492Y-2.3209
X4.1358Y-2.2106
X4.189Y-2.3209
X4.1929Y-2.5256
X4.2756Y-2.2106
X4.3051Y-2.1122
X4.4232Y-2.4567
X4.9902Y-2.2677
X5.0807Y-2.4035
X5.0827Y-2.0827
X5.1164Y-2.4035
X5.1184Y-2.0827
X5.1299Y-2.2087
X5.1521Y-2.4035
X5.1541Y-2.0827
X5.1879Y-2.4035
X5.1898Y-2.0827
X5.2236Y-2.4035
X5.2255Y-2.0827
X5.2593Y-2.4035
X5.2612Y-2.0827
X5.295Y-2.4035
X5.297Y-2.0827
X5.3307Y-2.4035
X5.3327Y-2.0827
T2
X5.0876Y-2.7657
X5.1248Y-2.676
X5.1248Y-2.8555
X5.2146Y-2.6388
X5.2146Y-2.8927
X5.3043Y-2.676
X5.3043Y-2.8555
X5.3415Y-2.7657
X4.5876Y-2.7657
X4.6248Y-2.676
X4.6248Y-2.8555
X4.7146Y-2.6388
X4.7146Y-2.8927
X4.8043Y-2.676
X4.8043Y-2.8555
X4.8415Y-2.7657
T3
X3.7205Y-2.7972
X3.8583Y-2.7972
X3.9961Y-2.7972
X4.1339Y-2.7972
X4.2717Y-2.7972
T4
X4.5079Y-2.0669
X4.7224Y-2.0669
X4.937Y-2.0669
T5
X5.2146Y-2.7657
X4.7146Y-2.7657
T0
M30
