G04 #@! TF.GenerationSoftware,KiCad,Pcbnew,(5.1.2)-2*
G04 #@! TF.CreationDate,2021-03-22T02:30:38-04:00*
G04 #@! TF.ProjectId,Repowered_Electronic_Load_Module,5265706f-7765-4726-9564-5f456c656374,rev?*
G04 #@! TF.SameCoordinates,Original*
G04 #@! TF.FileFunction,Copper,L2,Inr*
G04 #@! TF.FilePolarity,Positive*
%FSLAX46Y46*%
G04 Gerber Fmt 4.6, Leading zero omitted, Abs format (unit mm)*
G04 Created by KiCad (PCBNEW (5.1.2)-2) date 2021-03-22 02:30:38*
%MOMM*%
%LPD*%
G04 APERTURE LIST*
%ADD10C,0.900000*%
%ADD11C,8.600000*%
%ADD12O,1.800000X3.600000*%
%ADD13C,0.100000*%
%ADD14C,1.800000*%
%ADD15O,2.500000X4.500000*%
%ADD16R,2.500000X4.500000*%
%ADD17C,0.800000*%
%ADD18C,0.254000*%
G04 APERTURE END LIST*
D10*
X134730419Y-67969581D03*
X132450000Y-67025000D03*
X130169581Y-67969581D03*
X129225000Y-70250000D03*
X130169581Y-72530419D03*
X132450000Y-73475000D03*
X134730419Y-72530419D03*
X135675000Y-70250000D03*
D11*
X132450000Y-70250000D03*
D10*
X122030419Y-67969581D03*
X119750000Y-67025000D03*
X117469581Y-67969581D03*
X116525000Y-70250000D03*
X117469581Y-72530419D03*
X119750000Y-73475000D03*
X122030419Y-72530419D03*
X122975000Y-70250000D03*
D11*
X119750000Y-70250000D03*
D12*
X108500000Y-71050000D03*
X105000000Y-71050000D03*
X101500000Y-71050000D03*
X98000000Y-71050000D03*
D13*
G36*
X95174504Y-69251204D02*
G01*
X95198773Y-69254804D01*
X95222571Y-69260765D01*
X95245671Y-69269030D01*
X95267849Y-69279520D01*
X95288893Y-69292133D01*
X95308598Y-69306747D01*
X95326777Y-69323223D01*
X95343253Y-69341402D01*
X95357867Y-69361107D01*
X95370480Y-69382151D01*
X95380970Y-69404329D01*
X95389235Y-69427429D01*
X95395196Y-69451227D01*
X95398796Y-69475496D01*
X95400000Y-69500000D01*
X95400000Y-72600000D01*
X95398796Y-72624504D01*
X95395196Y-72648773D01*
X95389235Y-72672571D01*
X95380970Y-72695671D01*
X95370480Y-72717849D01*
X95357867Y-72738893D01*
X95343253Y-72758598D01*
X95326777Y-72776777D01*
X95308598Y-72793253D01*
X95288893Y-72807867D01*
X95267849Y-72820480D01*
X95245671Y-72830970D01*
X95222571Y-72839235D01*
X95198773Y-72845196D01*
X95174504Y-72848796D01*
X95150000Y-72850000D01*
X93850000Y-72850000D01*
X93825496Y-72848796D01*
X93801227Y-72845196D01*
X93777429Y-72839235D01*
X93754329Y-72830970D01*
X93732151Y-72820480D01*
X93711107Y-72807867D01*
X93691402Y-72793253D01*
X93673223Y-72776777D01*
X93656747Y-72758598D01*
X93642133Y-72738893D01*
X93629520Y-72717849D01*
X93619030Y-72695671D01*
X93610765Y-72672571D01*
X93604804Y-72648773D01*
X93601204Y-72624504D01*
X93600000Y-72600000D01*
X93600000Y-69500000D01*
X93601204Y-69475496D01*
X93604804Y-69451227D01*
X93610765Y-69427429D01*
X93619030Y-69404329D01*
X93629520Y-69382151D01*
X93642133Y-69361107D01*
X93656747Y-69341402D01*
X93673223Y-69323223D01*
X93691402Y-69306747D01*
X93711107Y-69292133D01*
X93732151Y-69279520D01*
X93754329Y-69269030D01*
X93777429Y-69260765D01*
X93801227Y-69254804D01*
X93825496Y-69251204D01*
X93850000Y-69250000D01*
X95150000Y-69250000D01*
X95174504Y-69251204D01*
X95174504Y-69251204D01*
G37*
D14*
X94500000Y-71050000D03*
D15*
X125400000Y-52500000D03*
X119950000Y-52500000D03*
D16*
X114500000Y-52500000D03*
D17*
X97225000Y-52475000D03*
X99875000Y-61525000D03*
X96875000Y-59700000D03*
X96300000Y-64775000D03*
X102100000Y-61450000D03*
X102850000Y-58950000D03*
X94475000Y-56150000D03*
X135400000Y-61050000D03*
X134492852Y-61050000D03*
X133585710Y-61050000D03*
X132678568Y-61050000D03*
X131771426Y-61050000D03*
X130864284Y-61050000D03*
X129957142Y-61050000D03*
X129050000Y-61050000D03*
X108600000Y-56150000D03*
X109350000Y-53650000D03*
X97050000Y-65725000D03*
X99875000Y-57825000D03*
X98975000Y-57825000D03*
X98075000Y-57825000D03*
X100800000Y-51475000D03*
X92475000Y-54350000D03*
X106400000Y-58950000D03*
X105050000Y-56150000D03*
X101500000Y-56750000D03*
X100800000Y-55575000D03*
X98975000Y-55200000D03*
X126750000Y-57600000D03*
X112350000Y-62400000D03*
X130914290Y-52900000D03*
X130007148Y-52900000D03*
X134542858Y-52900000D03*
X132728574Y-52900000D03*
X131821432Y-52900000D03*
X133635716Y-52900000D03*
X129100000Y-52900000D03*
X135450000Y-52900000D03*
X130300000Y-56100000D03*
X106500000Y-64150000D03*
X101600000Y-60050000D03*
D18*
G36*
X100140226Y-50671063D02*
G01*
X99996063Y-50815226D01*
X99882795Y-50984744D01*
X99804774Y-51173102D01*
X99765000Y-51373061D01*
X99765000Y-51576939D01*
X99804774Y-51776898D01*
X99882795Y-51965256D01*
X99996063Y-52134774D01*
X100140226Y-52278937D01*
X100309744Y-52392205D01*
X100498102Y-52470226D01*
X100698061Y-52510000D01*
X100901939Y-52510000D01*
X101101898Y-52470226D01*
X101290256Y-52392205D01*
X101459774Y-52278937D01*
X101603937Y-52134774D01*
X101717205Y-51965256D01*
X101795226Y-51776898D01*
X101835000Y-51576939D01*
X101835000Y-51373061D01*
X101795226Y-51173102D01*
X101717205Y-50984744D01*
X101603937Y-50815226D01*
X101459774Y-50671063D01*
X101443217Y-50660000D01*
X112611928Y-50660000D01*
X112611928Y-54750000D01*
X112624188Y-54874482D01*
X112660498Y-54994180D01*
X112719463Y-55104494D01*
X112798815Y-55201185D01*
X112895506Y-55280537D01*
X113005820Y-55339502D01*
X113125518Y-55375812D01*
X113250000Y-55388072D01*
X115750000Y-55388072D01*
X115874482Y-55375812D01*
X115994180Y-55339502D01*
X116104494Y-55280537D01*
X116201185Y-55201185D01*
X116280537Y-55104494D01*
X116339502Y-54994180D01*
X116375812Y-54874482D01*
X116388072Y-54750000D01*
X116388072Y-50660000D01*
X118261611Y-50660000D01*
X118200061Y-50775153D01*
X118092275Y-51130477D01*
X118065000Y-51407404D01*
X118065001Y-53592597D01*
X118092276Y-53869524D01*
X118200062Y-54224848D01*
X118375098Y-54552317D01*
X118610656Y-54839345D01*
X118897684Y-55074903D01*
X119225153Y-55249939D01*
X119580477Y-55357725D01*
X119950000Y-55394120D01*
X120319524Y-55357725D01*
X120674848Y-55249939D01*
X121002317Y-55074903D01*
X121289345Y-54839345D01*
X121524903Y-54552317D01*
X121699939Y-54224848D01*
X121807725Y-53869524D01*
X121835000Y-53592597D01*
X121835000Y-51407403D01*
X121807725Y-51130476D01*
X121699939Y-50775152D01*
X121638389Y-50660000D01*
X123711611Y-50660000D01*
X123650061Y-50775153D01*
X123542275Y-51130477D01*
X123515000Y-51407404D01*
X123515001Y-53592597D01*
X123542276Y-53869524D01*
X123650062Y-54224848D01*
X123825098Y-54552317D01*
X124060656Y-54839345D01*
X124347684Y-55074903D01*
X124675153Y-55249939D01*
X125030477Y-55357725D01*
X125400000Y-55394120D01*
X125769524Y-55357725D01*
X126124848Y-55249939D01*
X126452317Y-55074903D01*
X126739345Y-54839345D01*
X126974903Y-54552317D01*
X127149939Y-54224848D01*
X127257725Y-53869524D01*
X127285000Y-53592597D01*
X127285000Y-52798061D01*
X128065000Y-52798061D01*
X128065000Y-53001939D01*
X128104774Y-53201898D01*
X128182795Y-53390256D01*
X128296063Y-53559774D01*
X128440226Y-53703937D01*
X128609744Y-53817205D01*
X128798102Y-53895226D01*
X128998061Y-53935000D01*
X129201939Y-53935000D01*
X129401898Y-53895226D01*
X129553574Y-53832399D01*
X129705250Y-53895226D01*
X129905209Y-53935000D01*
X130109087Y-53935000D01*
X130309046Y-53895226D01*
X130460719Y-53832401D01*
X130612392Y-53895226D01*
X130812351Y-53935000D01*
X131016229Y-53935000D01*
X131216188Y-53895226D01*
X131367861Y-53832401D01*
X131519534Y-53895226D01*
X131719493Y-53935000D01*
X131923371Y-53935000D01*
X132123330Y-53895226D01*
X132275003Y-53832401D01*
X132426676Y-53895226D01*
X132626635Y-53935000D01*
X132830513Y-53935000D01*
X133030472Y-53895226D01*
X133182145Y-53832401D01*
X133333818Y-53895226D01*
X133533777Y-53935000D01*
X133737655Y-53935000D01*
X133937614Y-53895226D01*
X134089287Y-53832401D01*
X134240960Y-53895226D01*
X134440919Y-53935000D01*
X134644797Y-53935000D01*
X134844756Y-53895226D01*
X134996429Y-53832401D01*
X135148102Y-53895226D01*
X135348061Y-53935000D01*
X135551939Y-53935000D01*
X135751898Y-53895226D01*
X135940256Y-53817205D01*
X136109774Y-53703937D01*
X136253937Y-53559774D01*
X136367205Y-53390256D01*
X136445226Y-53201898D01*
X136485000Y-53001939D01*
X136485000Y-52798061D01*
X136445226Y-52598102D01*
X136367205Y-52409744D01*
X136253937Y-52240226D01*
X136109774Y-52096063D01*
X135940256Y-51982795D01*
X135751898Y-51904774D01*
X135551939Y-51865000D01*
X135348061Y-51865000D01*
X135148102Y-51904774D01*
X134996429Y-51967599D01*
X134844756Y-51904774D01*
X134644797Y-51865000D01*
X134440919Y-51865000D01*
X134240960Y-51904774D01*
X134089287Y-51967599D01*
X133937614Y-51904774D01*
X133737655Y-51865000D01*
X133533777Y-51865000D01*
X133333818Y-51904774D01*
X133182145Y-51967599D01*
X133030472Y-51904774D01*
X132830513Y-51865000D01*
X132626635Y-51865000D01*
X132426676Y-51904774D01*
X132275003Y-51967599D01*
X132123330Y-51904774D01*
X131923371Y-51865000D01*
X131719493Y-51865000D01*
X131519534Y-51904774D01*
X131367861Y-51967599D01*
X131216188Y-51904774D01*
X131016229Y-51865000D01*
X130812351Y-51865000D01*
X130612392Y-51904774D01*
X130460719Y-51967599D01*
X130309046Y-51904774D01*
X130109087Y-51865000D01*
X129905209Y-51865000D01*
X129705250Y-51904774D01*
X129553574Y-51967601D01*
X129401898Y-51904774D01*
X129201939Y-51865000D01*
X128998061Y-51865000D01*
X128798102Y-51904774D01*
X128609744Y-51982795D01*
X128440226Y-52096063D01*
X128296063Y-52240226D01*
X128182795Y-52409744D01*
X128104774Y-52598102D01*
X128065000Y-52798061D01*
X127285000Y-52798061D01*
X127285000Y-51407403D01*
X127257725Y-51130476D01*
X127149939Y-50775152D01*
X127088389Y-50660000D01*
X136840000Y-50660000D01*
X136840001Y-74340000D01*
X122511648Y-74340000D01*
X122895879Y-74083265D01*
X123583265Y-73395879D01*
X124123340Y-72587599D01*
X124495350Y-71689486D01*
X124685000Y-70736055D01*
X124685000Y-69763945D01*
X124495350Y-68810514D01*
X124123340Y-67912401D01*
X123583265Y-67104121D01*
X122895879Y-66416735D01*
X122087599Y-65876660D01*
X121189486Y-65504650D01*
X120236055Y-65315000D01*
X119263945Y-65315000D01*
X118310514Y-65504650D01*
X117412401Y-65876660D01*
X116604121Y-66416735D01*
X115916735Y-67104121D01*
X115376660Y-67912401D01*
X115004650Y-68810514D01*
X114815000Y-69763945D01*
X114815000Y-70736055D01*
X115004650Y-71689486D01*
X115376660Y-72587599D01*
X115916735Y-73395879D01*
X116604121Y-74083265D01*
X116988352Y-74340000D01*
X92160000Y-74340000D01*
X92160000Y-69500000D01*
X92961928Y-69500000D01*
X92961928Y-72600000D01*
X92978992Y-72773254D01*
X93029528Y-72939850D01*
X93111595Y-73093386D01*
X93222038Y-73227962D01*
X93356614Y-73338405D01*
X93510150Y-73420472D01*
X93676746Y-73471008D01*
X93850000Y-73488072D01*
X95150000Y-73488072D01*
X95323254Y-73471008D01*
X95489850Y-73420472D01*
X95643386Y-73338405D01*
X95777962Y-73227962D01*
X95888405Y-73093386D01*
X95970472Y-72939850D01*
X96021008Y-72773254D01*
X96038072Y-72600000D01*
X96038072Y-70074593D01*
X96465000Y-70074593D01*
X96465000Y-72025408D01*
X96487211Y-72250913D01*
X96574984Y-72540261D01*
X96717520Y-72806927D01*
X96909340Y-73040661D01*
X97143074Y-73232481D01*
X97409740Y-73375017D01*
X97699088Y-73462790D01*
X98000000Y-73492427D01*
X98300913Y-73462790D01*
X98590261Y-73375017D01*
X98856927Y-73232481D01*
X99090661Y-73040661D01*
X99282481Y-72806927D01*
X99425017Y-72540261D01*
X99512790Y-72250913D01*
X99535000Y-72025408D01*
X99535000Y-70074593D01*
X99965000Y-70074593D01*
X99965000Y-72025408D01*
X99987211Y-72250913D01*
X100074984Y-72540261D01*
X100217520Y-72806927D01*
X100409340Y-73040661D01*
X100643074Y-73232481D01*
X100909740Y-73375017D01*
X101199088Y-73462790D01*
X101500000Y-73492427D01*
X101800913Y-73462790D01*
X102090261Y-73375017D01*
X102356927Y-73232481D01*
X102590661Y-73040661D01*
X102782481Y-72806927D01*
X102925017Y-72540261D01*
X103012790Y-72250913D01*
X103035000Y-72025408D01*
X103035000Y-70074593D01*
X103465000Y-70074593D01*
X103465000Y-72025408D01*
X103487211Y-72250913D01*
X103574984Y-72540261D01*
X103717520Y-72806927D01*
X103909340Y-73040661D01*
X104143074Y-73232481D01*
X104409740Y-73375017D01*
X104699088Y-73462790D01*
X105000000Y-73492427D01*
X105300913Y-73462790D01*
X105590261Y-73375017D01*
X105856927Y-73232481D01*
X106090661Y-73040661D01*
X106282481Y-72806927D01*
X106425017Y-72540261D01*
X106512790Y-72250913D01*
X106535000Y-72025408D01*
X106535000Y-71177000D01*
X106965000Y-71177000D01*
X106965000Y-72077000D01*
X107019271Y-72374023D01*
X107130446Y-72654751D01*
X107294252Y-72908396D01*
X107504394Y-73125210D01*
X107752796Y-73296862D01*
X108029913Y-73416755D01*
X108135260Y-73441036D01*
X108373000Y-73320378D01*
X108373000Y-71177000D01*
X108627000Y-71177000D01*
X108627000Y-73320378D01*
X108864740Y-73441036D01*
X108970087Y-73416755D01*
X109247204Y-73296862D01*
X109495606Y-73125210D01*
X109705748Y-72908396D01*
X109869554Y-72654751D01*
X109980729Y-72374023D01*
X110035000Y-72077000D01*
X110035000Y-71177000D01*
X108627000Y-71177000D01*
X108373000Y-71177000D01*
X106965000Y-71177000D01*
X106535000Y-71177000D01*
X106535000Y-70074592D01*
X106529919Y-70023000D01*
X106965000Y-70023000D01*
X106965000Y-70923000D01*
X108373000Y-70923000D01*
X108373000Y-68779622D01*
X108627000Y-68779622D01*
X108627000Y-70923000D01*
X110035000Y-70923000D01*
X110035000Y-70023000D01*
X109980729Y-69725977D01*
X109869554Y-69445249D01*
X109705748Y-69191604D01*
X109495606Y-68974790D01*
X109247204Y-68803138D01*
X108970087Y-68683245D01*
X108864740Y-68658964D01*
X108627000Y-68779622D01*
X108373000Y-68779622D01*
X108135260Y-68658964D01*
X108029913Y-68683245D01*
X107752796Y-68803138D01*
X107504394Y-68974790D01*
X107294252Y-69191604D01*
X107130446Y-69445249D01*
X107019271Y-69725977D01*
X106965000Y-70023000D01*
X106529919Y-70023000D01*
X106512790Y-69849087D01*
X106425017Y-69559739D01*
X106282481Y-69293073D01*
X106090661Y-69059339D01*
X105856926Y-68867519D01*
X105590260Y-68724983D01*
X105300912Y-68637210D01*
X105000000Y-68607573D01*
X104699087Y-68637210D01*
X104409739Y-68724983D01*
X104143073Y-68867519D01*
X103909339Y-69059339D01*
X103717519Y-69293074D01*
X103574983Y-69559740D01*
X103487210Y-69849088D01*
X103465000Y-70074593D01*
X103035000Y-70074593D01*
X103035000Y-70074592D01*
X103012790Y-69849087D01*
X102925017Y-69559739D01*
X102782481Y-69293073D01*
X102590661Y-69059339D01*
X102356926Y-68867519D01*
X102090260Y-68724983D01*
X101800912Y-68637210D01*
X101500000Y-68607573D01*
X101199087Y-68637210D01*
X100909739Y-68724983D01*
X100643073Y-68867519D01*
X100409339Y-69059339D01*
X100217519Y-69293074D01*
X100074983Y-69559740D01*
X99987210Y-69849088D01*
X99965000Y-70074593D01*
X99535000Y-70074593D01*
X99535000Y-70074592D01*
X99512790Y-69849087D01*
X99425017Y-69559739D01*
X99282481Y-69293073D01*
X99090661Y-69059339D01*
X98856926Y-68867519D01*
X98590260Y-68724983D01*
X98300912Y-68637210D01*
X98000000Y-68607573D01*
X97699087Y-68637210D01*
X97409739Y-68724983D01*
X97143073Y-68867519D01*
X96909339Y-69059339D01*
X96717519Y-69293074D01*
X96574983Y-69559740D01*
X96487210Y-69849088D01*
X96465000Y-70074593D01*
X96038072Y-70074593D01*
X96038072Y-69500000D01*
X96021008Y-69326746D01*
X95970472Y-69160150D01*
X95888405Y-69006614D01*
X95777962Y-68872038D01*
X95643386Y-68761595D01*
X95489850Y-68679528D01*
X95323254Y-68628992D01*
X95150000Y-68611928D01*
X93850000Y-68611928D01*
X93676746Y-68628992D01*
X93510150Y-68679528D01*
X93356614Y-68761595D01*
X93222038Y-68872038D01*
X93111595Y-69006614D01*
X93029528Y-69160150D01*
X92978992Y-69326746D01*
X92961928Y-69500000D01*
X92160000Y-69500000D01*
X92160000Y-64048061D01*
X105465000Y-64048061D01*
X105465000Y-64251939D01*
X105504774Y-64451898D01*
X105582795Y-64640256D01*
X105696063Y-64809774D01*
X105840226Y-64953937D01*
X106009744Y-65067205D01*
X106198102Y-65145226D01*
X106398061Y-65185000D01*
X106601939Y-65185000D01*
X106801898Y-65145226D01*
X106990256Y-65067205D01*
X107159774Y-64953937D01*
X107303937Y-64809774D01*
X107417205Y-64640256D01*
X107495226Y-64451898D01*
X107535000Y-64251939D01*
X107535000Y-64048061D01*
X107495226Y-63848102D01*
X107417205Y-63659744D01*
X107303937Y-63490226D01*
X107159774Y-63346063D01*
X106990256Y-63232795D01*
X106801898Y-63154774D01*
X106601939Y-63115000D01*
X106398061Y-63115000D01*
X106198102Y-63154774D01*
X106009744Y-63232795D01*
X105840226Y-63346063D01*
X105696063Y-63490226D01*
X105582795Y-63659744D01*
X105504774Y-63848102D01*
X105465000Y-64048061D01*
X92160000Y-64048061D01*
X92160000Y-62298061D01*
X111315000Y-62298061D01*
X111315000Y-62501939D01*
X111354774Y-62701898D01*
X111432795Y-62890256D01*
X111546063Y-63059774D01*
X111690226Y-63203937D01*
X111859744Y-63317205D01*
X112048102Y-63395226D01*
X112248061Y-63435000D01*
X112451939Y-63435000D01*
X112651898Y-63395226D01*
X112840256Y-63317205D01*
X113009774Y-63203937D01*
X113153937Y-63059774D01*
X113267205Y-62890256D01*
X113345226Y-62701898D01*
X113385000Y-62501939D01*
X113385000Y-62298061D01*
X113345226Y-62098102D01*
X113267205Y-61909744D01*
X113153937Y-61740226D01*
X113009774Y-61596063D01*
X112840256Y-61482795D01*
X112651898Y-61404774D01*
X112451939Y-61365000D01*
X112248061Y-61365000D01*
X112048102Y-61404774D01*
X111859744Y-61482795D01*
X111690226Y-61596063D01*
X111546063Y-61740226D01*
X111432795Y-61909744D01*
X111354774Y-62098102D01*
X111315000Y-62298061D01*
X92160000Y-62298061D01*
X92160000Y-59948061D01*
X100565000Y-59948061D01*
X100565000Y-60151939D01*
X100604774Y-60351898D01*
X100682795Y-60540256D01*
X100796063Y-60709774D01*
X100940226Y-60853937D01*
X101109744Y-60967205D01*
X101298102Y-61045226D01*
X101498061Y-61085000D01*
X101701939Y-61085000D01*
X101901898Y-61045226D01*
X102090256Y-60967205D01*
X102259774Y-60853937D01*
X102403937Y-60709774D01*
X102517205Y-60540256D01*
X102595226Y-60351898D01*
X102635000Y-60151939D01*
X102635000Y-59948061D01*
X102595226Y-59748102D01*
X102517205Y-59559744D01*
X102403937Y-59390226D01*
X102259774Y-59246063D01*
X102090256Y-59132795D01*
X101901898Y-59054774D01*
X101701939Y-59015000D01*
X101498061Y-59015000D01*
X101298102Y-59054774D01*
X101109744Y-59132795D01*
X100940226Y-59246063D01*
X100796063Y-59390226D01*
X100682795Y-59559744D01*
X100604774Y-59748102D01*
X100565000Y-59948061D01*
X92160000Y-59948061D01*
X92160000Y-57723061D01*
X97040000Y-57723061D01*
X97040000Y-57926939D01*
X97079774Y-58126898D01*
X97157795Y-58315256D01*
X97271063Y-58484774D01*
X97415226Y-58628937D01*
X97584744Y-58742205D01*
X97773102Y-58820226D01*
X97973061Y-58860000D01*
X98176939Y-58860000D01*
X98376898Y-58820226D01*
X98525000Y-58758880D01*
X98673102Y-58820226D01*
X98873061Y-58860000D01*
X99076939Y-58860000D01*
X99276898Y-58820226D01*
X99425000Y-58758880D01*
X99573102Y-58820226D01*
X99773061Y-58860000D01*
X99976939Y-58860000D01*
X100036960Y-58848061D01*
X105365000Y-58848061D01*
X105365000Y-59051939D01*
X105404774Y-59251898D01*
X105482795Y-59440256D01*
X105596063Y-59609774D01*
X105740226Y-59753937D01*
X105909744Y-59867205D01*
X106098102Y-59945226D01*
X106298061Y-59985000D01*
X106501939Y-59985000D01*
X106701898Y-59945226D01*
X106890256Y-59867205D01*
X107059774Y-59753937D01*
X107203937Y-59609774D01*
X107317205Y-59440256D01*
X107395226Y-59251898D01*
X107435000Y-59051939D01*
X107435000Y-58848061D01*
X107395226Y-58648102D01*
X107317205Y-58459744D01*
X107203937Y-58290226D01*
X107059774Y-58146063D01*
X106890256Y-58032795D01*
X106701898Y-57954774D01*
X106501939Y-57915000D01*
X106298061Y-57915000D01*
X106098102Y-57954774D01*
X105909744Y-58032795D01*
X105740226Y-58146063D01*
X105596063Y-58290226D01*
X105482795Y-58459744D01*
X105404774Y-58648102D01*
X105365000Y-58848061D01*
X100036960Y-58848061D01*
X100176898Y-58820226D01*
X100365256Y-58742205D01*
X100534774Y-58628937D01*
X100678937Y-58484774D01*
X100792205Y-58315256D01*
X100870226Y-58126898D01*
X100910000Y-57926939D01*
X100910000Y-57723061D01*
X100881898Y-57581781D01*
X101009744Y-57667205D01*
X101198102Y-57745226D01*
X101398061Y-57785000D01*
X101601939Y-57785000D01*
X101801898Y-57745226D01*
X101990256Y-57667205D01*
X102159774Y-57553937D01*
X102215650Y-57498061D01*
X125715000Y-57498061D01*
X125715000Y-57701939D01*
X125754774Y-57901898D01*
X125832795Y-58090256D01*
X125946063Y-58259774D01*
X126090226Y-58403937D01*
X126259744Y-58517205D01*
X126448102Y-58595226D01*
X126648061Y-58635000D01*
X126851939Y-58635000D01*
X127051898Y-58595226D01*
X127240256Y-58517205D01*
X127409774Y-58403937D01*
X127553937Y-58259774D01*
X127667205Y-58090256D01*
X127745226Y-57901898D01*
X127785000Y-57701939D01*
X127785000Y-57498061D01*
X127745226Y-57298102D01*
X127667205Y-57109744D01*
X127553937Y-56940226D01*
X127409774Y-56796063D01*
X127240256Y-56682795D01*
X127051898Y-56604774D01*
X126851939Y-56565000D01*
X126648061Y-56565000D01*
X126448102Y-56604774D01*
X126259744Y-56682795D01*
X126090226Y-56796063D01*
X125946063Y-56940226D01*
X125832795Y-57109744D01*
X125754774Y-57298102D01*
X125715000Y-57498061D01*
X102215650Y-57498061D01*
X102303937Y-57409774D01*
X102417205Y-57240256D01*
X102495226Y-57051898D01*
X102535000Y-56851939D01*
X102535000Y-56648061D01*
X102495226Y-56448102D01*
X102417205Y-56259744D01*
X102303937Y-56090226D01*
X102261772Y-56048061D01*
X104015000Y-56048061D01*
X104015000Y-56251939D01*
X104054774Y-56451898D01*
X104132795Y-56640256D01*
X104246063Y-56809774D01*
X104390226Y-56953937D01*
X104559744Y-57067205D01*
X104748102Y-57145226D01*
X104948061Y-57185000D01*
X105151939Y-57185000D01*
X105351898Y-57145226D01*
X105540256Y-57067205D01*
X105709774Y-56953937D01*
X105853937Y-56809774D01*
X105967205Y-56640256D01*
X106045226Y-56451898D01*
X106085000Y-56251939D01*
X106085000Y-56048061D01*
X106075055Y-55998061D01*
X129265000Y-55998061D01*
X129265000Y-56201939D01*
X129304774Y-56401898D01*
X129382795Y-56590256D01*
X129496063Y-56759774D01*
X129640226Y-56903937D01*
X129809744Y-57017205D01*
X129998102Y-57095226D01*
X130198061Y-57135000D01*
X130401939Y-57135000D01*
X130601898Y-57095226D01*
X130790256Y-57017205D01*
X130959774Y-56903937D01*
X131103937Y-56759774D01*
X131217205Y-56590256D01*
X131295226Y-56401898D01*
X131335000Y-56201939D01*
X131335000Y-55998061D01*
X131295226Y-55798102D01*
X131217205Y-55609744D01*
X131103937Y-55440226D01*
X130959774Y-55296063D01*
X130790256Y-55182795D01*
X130601898Y-55104774D01*
X130401939Y-55065000D01*
X130198061Y-55065000D01*
X129998102Y-55104774D01*
X129809744Y-55182795D01*
X129640226Y-55296063D01*
X129496063Y-55440226D01*
X129382795Y-55609744D01*
X129304774Y-55798102D01*
X129265000Y-55998061D01*
X106075055Y-55998061D01*
X106045226Y-55848102D01*
X105967205Y-55659744D01*
X105853937Y-55490226D01*
X105709774Y-55346063D01*
X105540256Y-55232795D01*
X105351898Y-55154774D01*
X105151939Y-55115000D01*
X104948061Y-55115000D01*
X104748102Y-55154774D01*
X104559744Y-55232795D01*
X104390226Y-55346063D01*
X104246063Y-55490226D01*
X104132795Y-55659744D01*
X104054774Y-55848102D01*
X104015000Y-56048061D01*
X102261772Y-56048061D01*
X102159774Y-55946063D01*
X101990256Y-55832795D01*
X101818177Y-55761517D01*
X101835000Y-55676939D01*
X101835000Y-55473061D01*
X101795226Y-55273102D01*
X101717205Y-55084744D01*
X101603937Y-54915226D01*
X101459774Y-54771063D01*
X101290256Y-54657795D01*
X101101898Y-54579774D01*
X100901939Y-54540000D01*
X100698061Y-54540000D01*
X100498102Y-54579774D01*
X100309744Y-54657795D01*
X100140226Y-54771063D01*
X99996063Y-54915226D01*
X99978778Y-54941095D01*
X99970226Y-54898102D01*
X99892205Y-54709744D01*
X99778937Y-54540226D01*
X99634774Y-54396063D01*
X99465256Y-54282795D01*
X99276898Y-54204774D01*
X99076939Y-54165000D01*
X98873061Y-54165000D01*
X98673102Y-54204774D01*
X98484744Y-54282795D01*
X98315226Y-54396063D01*
X98171063Y-54540226D01*
X98057795Y-54709744D01*
X97979774Y-54898102D01*
X97940000Y-55098061D01*
X97940000Y-55301939D01*
X97979774Y-55501898D01*
X98057795Y-55690256D01*
X98171063Y-55859774D01*
X98315226Y-56003937D01*
X98484744Y-56117205D01*
X98673102Y-56195226D01*
X98873061Y-56235000D01*
X99076939Y-56235000D01*
X99276898Y-56195226D01*
X99465256Y-56117205D01*
X99634774Y-56003937D01*
X99778937Y-55859774D01*
X99796222Y-55833905D01*
X99804774Y-55876898D01*
X99882795Y-56065256D01*
X99996063Y-56234774D01*
X100140226Y-56378937D01*
X100309744Y-56492205D01*
X100481823Y-56563483D01*
X100465000Y-56648061D01*
X100465000Y-56851939D01*
X100493102Y-56993219D01*
X100365256Y-56907795D01*
X100176898Y-56829774D01*
X99976939Y-56790000D01*
X99773061Y-56790000D01*
X99573102Y-56829774D01*
X99425000Y-56891120D01*
X99276898Y-56829774D01*
X99076939Y-56790000D01*
X98873061Y-56790000D01*
X98673102Y-56829774D01*
X98525000Y-56891120D01*
X98376898Y-56829774D01*
X98176939Y-56790000D01*
X97973061Y-56790000D01*
X97773102Y-56829774D01*
X97584744Y-56907795D01*
X97415226Y-57021063D01*
X97271063Y-57165226D01*
X97157795Y-57334744D01*
X97079774Y-57523102D01*
X97040000Y-57723061D01*
X92160000Y-57723061D01*
X92160000Y-55339799D01*
X92173102Y-55345226D01*
X92373061Y-55385000D01*
X92576939Y-55385000D01*
X92776898Y-55345226D01*
X92965256Y-55267205D01*
X93134774Y-55153937D01*
X93278937Y-55009774D01*
X93392205Y-54840256D01*
X93470226Y-54651898D01*
X93510000Y-54451939D01*
X93510000Y-54248061D01*
X93470226Y-54048102D01*
X93392205Y-53859744D01*
X93278937Y-53690226D01*
X93134774Y-53546063D01*
X92965256Y-53432795D01*
X92776898Y-53354774D01*
X92576939Y-53315000D01*
X92373061Y-53315000D01*
X92173102Y-53354774D01*
X92160000Y-53360201D01*
X92160000Y-50660000D01*
X100156783Y-50660000D01*
X100140226Y-50671063D01*
X100140226Y-50671063D01*
G37*
X100140226Y-50671063D02*
X99996063Y-50815226D01*
X99882795Y-50984744D01*
X99804774Y-51173102D01*
X99765000Y-51373061D01*
X99765000Y-51576939D01*
X99804774Y-51776898D01*
X99882795Y-51965256D01*
X99996063Y-52134774D01*
X100140226Y-52278937D01*
X100309744Y-52392205D01*
X100498102Y-52470226D01*
X100698061Y-52510000D01*
X100901939Y-52510000D01*
X101101898Y-52470226D01*
X101290256Y-52392205D01*
X101459774Y-52278937D01*
X101603937Y-52134774D01*
X101717205Y-51965256D01*
X101795226Y-51776898D01*
X101835000Y-51576939D01*
X101835000Y-51373061D01*
X101795226Y-51173102D01*
X101717205Y-50984744D01*
X101603937Y-50815226D01*
X101459774Y-50671063D01*
X101443217Y-50660000D01*
X112611928Y-50660000D01*
X112611928Y-54750000D01*
X112624188Y-54874482D01*
X112660498Y-54994180D01*
X112719463Y-55104494D01*
X112798815Y-55201185D01*
X112895506Y-55280537D01*
X113005820Y-55339502D01*
X113125518Y-55375812D01*
X113250000Y-55388072D01*
X115750000Y-55388072D01*
X115874482Y-55375812D01*
X115994180Y-55339502D01*
X116104494Y-55280537D01*
X116201185Y-55201185D01*
X116280537Y-55104494D01*
X116339502Y-54994180D01*
X116375812Y-54874482D01*
X116388072Y-54750000D01*
X116388072Y-50660000D01*
X118261611Y-50660000D01*
X118200061Y-50775153D01*
X118092275Y-51130477D01*
X118065000Y-51407404D01*
X118065001Y-53592597D01*
X118092276Y-53869524D01*
X118200062Y-54224848D01*
X118375098Y-54552317D01*
X118610656Y-54839345D01*
X118897684Y-55074903D01*
X119225153Y-55249939D01*
X119580477Y-55357725D01*
X119950000Y-55394120D01*
X120319524Y-55357725D01*
X120674848Y-55249939D01*
X121002317Y-55074903D01*
X121289345Y-54839345D01*
X121524903Y-54552317D01*
X121699939Y-54224848D01*
X121807725Y-53869524D01*
X121835000Y-53592597D01*
X121835000Y-51407403D01*
X121807725Y-51130476D01*
X121699939Y-50775152D01*
X121638389Y-50660000D01*
X123711611Y-50660000D01*
X123650061Y-50775153D01*
X123542275Y-51130477D01*
X123515000Y-51407404D01*
X123515001Y-53592597D01*
X123542276Y-53869524D01*
X123650062Y-54224848D01*
X123825098Y-54552317D01*
X124060656Y-54839345D01*
X124347684Y-55074903D01*
X124675153Y-55249939D01*
X125030477Y-55357725D01*
X125400000Y-55394120D01*
X125769524Y-55357725D01*
X126124848Y-55249939D01*
X126452317Y-55074903D01*
X126739345Y-54839345D01*
X126974903Y-54552317D01*
X127149939Y-54224848D01*
X127257725Y-53869524D01*
X127285000Y-53592597D01*
X127285000Y-52798061D01*
X128065000Y-52798061D01*
X128065000Y-53001939D01*
X128104774Y-53201898D01*
X128182795Y-53390256D01*
X128296063Y-53559774D01*
X128440226Y-53703937D01*
X128609744Y-53817205D01*
X128798102Y-53895226D01*
X128998061Y-53935000D01*
X129201939Y-53935000D01*
X129401898Y-53895226D01*
X129553574Y-53832399D01*
X129705250Y-53895226D01*
X129905209Y-53935000D01*
X130109087Y-53935000D01*
X130309046Y-53895226D01*
X130460719Y-53832401D01*
X130612392Y-53895226D01*
X130812351Y-53935000D01*
X131016229Y-53935000D01*
X131216188Y-53895226D01*
X131367861Y-53832401D01*
X131519534Y-53895226D01*
X131719493Y-53935000D01*
X131923371Y-53935000D01*
X132123330Y-53895226D01*
X132275003Y-53832401D01*
X132426676Y-53895226D01*
X132626635Y-53935000D01*
X132830513Y-53935000D01*
X133030472Y-53895226D01*
X133182145Y-53832401D01*
X133333818Y-53895226D01*
X133533777Y-53935000D01*
X133737655Y-53935000D01*
X133937614Y-53895226D01*
X134089287Y-53832401D01*
X134240960Y-53895226D01*
X134440919Y-53935000D01*
X134644797Y-53935000D01*
X134844756Y-53895226D01*
X134996429Y-53832401D01*
X135148102Y-53895226D01*
X135348061Y-53935000D01*
X135551939Y-53935000D01*
X135751898Y-53895226D01*
X135940256Y-53817205D01*
X136109774Y-53703937D01*
X136253937Y-53559774D01*
X136367205Y-53390256D01*
X136445226Y-53201898D01*
X136485000Y-53001939D01*
X136485000Y-52798061D01*
X136445226Y-52598102D01*
X136367205Y-52409744D01*
X136253937Y-52240226D01*
X136109774Y-52096063D01*
X135940256Y-51982795D01*
X135751898Y-51904774D01*
X135551939Y-51865000D01*
X135348061Y-51865000D01*
X135148102Y-51904774D01*
X134996429Y-51967599D01*
X134844756Y-51904774D01*
X134644797Y-51865000D01*
X134440919Y-51865000D01*
X134240960Y-51904774D01*
X134089287Y-51967599D01*
X133937614Y-51904774D01*
X133737655Y-51865000D01*
X133533777Y-51865000D01*
X133333818Y-51904774D01*
X133182145Y-51967599D01*
X133030472Y-51904774D01*
X132830513Y-51865000D01*
X132626635Y-51865000D01*
X132426676Y-51904774D01*
X132275003Y-51967599D01*
X132123330Y-51904774D01*
X131923371Y-51865000D01*
X131719493Y-51865000D01*
X131519534Y-51904774D01*
X131367861Y-51967599D01*
X131216188Y-51904774D01*
X131016229Y-51865000D01*
X130812351Y-51865000D01*
X130612392Y-51904774D01*
X130460719Y-51967599D01*
X130309046Y-51904774D01*
X130109087Y-51865000D01*
X129905209Y-51865000D01*
X129705250Y-51904774D01*
X129553574Y-51967601D01*
X129401898Y-51904774D01*
X129201939Y-51865000D01*
X128998061Y-51865000D01*
X128798102Y-51904774D01*
X128609744Y-51982795D01*
X128440226Y-52096063D01*
X128296063Y-52240226D01*
X128182795Y-52409744D01*
X128104774Y-52598102D01*
X128065000Y-52798061D01*
X127285000Y-52798061D01*
X127285000Y-51407403D01*
X127257725Y-51130476D01*
X127149939Y-50775152D01*
X127088389Y-50660000D01*
X136840000Y-50660000D01*
X136840001Y-74340000D01*
X122511648Y-74340000D01*
X122895879Y-74083265D01*
X123583265Y-73395879D01*
X124123340Y-72587599D01*
X124495350Y-71689486D01*
X124685000Y-70736055D01*
X124685000Y-69763945D01*
X124495350Y-68810514D01*
X124123340Y-67912401D01*
X123583265Y-67104121D01*
X122895879Y-66416735D01*
X122087599Y-65876660D01*
X121189486Y-65504650D01*
X120236055Y-65315000D01*
X119263945Y-65315000D01*
X118310514Y-65504650D01*
X117412401Y-65876660D01*
X116604121Y-66416735D01*
X115916735Y-67104121D01*
X115376660Y-67912401D01*
X115004650Y-68810514D01*
X114815000Y-69763945D01*
X114815000Y-70736055D01*
X115004650Y-71689486D01*
X115376660Y-72587599D01*
X115916735Y-73395879D01*
X116604121Y-74083265D01*
X116988352Y-74340000D01*
X92160000Y-74340000D01*
X92160000Y-69500000D01*
X92961928Y-69500000D01*
X92961928Y-72600000D01*
X92978992Y-72773254D01*
X93029528Y-72939850D01*
X93111595Y-73093386D01*
X93222038Y-73227962D01*
X93356614Y-73338405D01*
X93510150Y-73420472D01*
X93676746Y-73471008D01*
X93850000Y-73488072D01*
X95150000Y-73488072D01*
X95323254Y-73471008D01*
X95489850Y-73420472D01*
X95643386Y-73338405D01*
X95777962Y-73227962D01*
X95888405Y-73093386D01*
X95970472Y-72939850D01*
X96021008Y-72773254D01*
X96038072Y-72600000D01*
X96038072Y-70074593D01*
X96465000Y-70074593D01*
X96465000Y-72025408D01*
X96487211Y-72250913D01*
X96574984Y-72540261D01*
X96717520Y-72806927D01*
X96909340Y-73040661D01*
X97143074Y-73232481D01*
X97409740Y-73375017D01*
X97699088Y-73462790D01*
X98000000Y-73492427D01*
X98300913Y-73462790D01*
X98590261Y-73375017D01*
X98856927Y-73232481D01*
X99090661Y-73040661D01*
X99282481Y-72806927D01*
X99425017Y-72540261D01*
X99512790Y-72250913D01*
X99535000Y-72025408D01*
X99535000Y-70074593D01*
X99965000Y-70074593D01*
X99965000Y-72025408D01*
X99987211Y-72250913D01*
X100074984Y-72540261D01*
X100217520Y-72806927D01*
X100409340Y-73040661D01*
X100643074Y-73232481D01*
X100909740Y-73375017D01*
X101199088Y-73462790D01*
X101500000Y-73492427D01*
X101800913Y-73462790D01*
X102090261Y-73375017D01*
X102356927Y-73232481D01*
X102590661Y-73040661D01*
X102782481Y-72806927D01*
X102925017Y-72540261D01*
X103012790Y-72250913D01*
X103035000Y-72025408D01*
X103035000Y-70074593D01*
X103465000Y-70074593D01*
X103465000Y-72025408D01*
X103487211Y-72250913D01*
X103574984Y-72540261D01*
X103717520Y-72806927D01*
X103909340Y-73040661D01*
X104143074Y-73232481D01*
X104409740Y-73375017D01*
X104699088Y-73462790D01*
X105000000Y-73492427D01*
X105300913Y-73462790D01*
X105590261Y-73375017D01*
X105856927Y-73232481D01*
X106090661Y-73040661D01*
X106282481Y-72806927D01*
X106425017Y-72540261D01*
X106512790Y-72250913D01*
X106535000Y-72025408D01*
X106535000Y-71177000D01*
X106965000Y-71177000D01*
X106965000Y-72077000D01*
X107019271Y-72374023D01*
X107130446Y-72654751D01*
X107294252Y-72908396D01*
X107504394Y-73125210D01*
X107752796Y-73296862D01*
X108029913Y-73416755D01*
X108135260Y-73441036D01*
X108373000Y-73320378D01*
X108373000Y-71177000D01*
X108627000Y-71177000D01*
X108627000Y-73320378D01*
X108864740Y-73441036D01*
X108970087Y-73416755D01*
X109247204Y-73296862D01*
X109495606Y-73125210D01*
X109705748Y-72908396D01*
X109869554Y-72654751D01*
X109980729Y-72374023D01*
X110035000Y-72077000D01*
X110035000Y-71177000D01*
X108627000Y-71177000D01*
X108373000Y-71177000D01*
X106965000Y-71177000D01*
X106535000Y-71177000D01*
X106535000Y-70074592D01*
X106529919Y-70023000D01*
X106965000Y-70023000D01*
X106965000Y-70923000D01*
X108373000Y-70923000D01*
X108373000Y-68779622D01*
X108627000Y-68779622D01*
X108627000Y-70923000D01*
X110035000Y-70923000D01*
X110035000Y-70023000D01*
X109980729Y-69725977D01*
X109869554Y-69445249D01*
X109705748Y-69191604D01*
X109495606Y-68974790D01*
X109247204Y-68803138D01*
X108970087Y-68683245D01*
X108864740Y-68658964D01*
X108627000Y-68779622D01*
X108373000Y-68779622D01*
X108135260Y-68658964D01*
X108029913Y-68683245D01*
X107752796Y-68803138D01*
X107504394Y-68974790D01*
X107294252Y-69191604D01*
X107130446Y-69445249D01*
X107019271Y-69725977D01*
X106965000Y-70023000D01*
X106529919Y-70023000D01*
X106512790Y-69849087D01*
X106425017Y-69559739D01*
X106282481Y-69293073D01*
X106090661Y-69059339D01*
X105856926Y-68867519D01*
X105590260Y-68724983D01*
X105300912Y-68637210D01*
X105000000Y-68607573D01*
X104699087Y-68637210D01*
X104409739Y-68724983D01*
X104143073Y-68867519D01*
X103909339Y-69059339D01*
X103717519Y-69293074D01*
X103574983Y-69559740D01*
X103487210Y-69849088D01*
X103465000Y-70074593D01*
X103035000Y-70074593D01*
X103035000Y-70074592D01*
X103012790Y-69849087D01*
X102925017Y-69559739D01*
X102782481Y-69293073D01*
X102590661Y-69059339D01*
X102356926Y-68867519D01*
X102090260Y-68724983D01*
X101800912Y-68637210D01*
X101500000Y-68607573D01*
X101199087Y-68637210D01*
X100909739Y-68724983D01*
X100643073Y-68867519D01*
X100409339Y-69059339D01*
X100217519Y-69293074D01*
X100074983Y-69559740D01*
X99987210Y-69849088D01*
X99965000Y-70074593D01*
X99535000Y-70074593D01*
X99535000Y-70074592D01*
X99512790Y-69849087D01*
X99425017Y-69559739D01*
X99282481Y-69293073D01*
X99090661Y-69059339D01*
X98856926Y-68867519D01*
X98590260Y-68724983D01*
X98300912Y-68637210D01*
X98000000Y-68607573D01*
X97699087Y-68637210D01*
X97409739Y-68724983D01*
X97143073Y-68867519D01*
X96909339Y-69059339D01*
X96717519Y-69293074D01*
X96574983Y-69559740D01*
X96487210Y-69849088D01*
X96465000Y-70074593D01*
X96038072Y-70074593D01*
X96038072Y-69500000D01*
X96021008Y-69326746D01*
X95970472Y-69160150D01*
X95888405Y-69006614D01*
X95777962Y-68872038D01*
X95643386Y-68761595D01*
X95489850Y-68679528D01*
X95323254Y-68628992D01*
X95150000Y-68611928D01*
X93850000Y-68611928D01*
X93676746Y-68628992D01*
X93510150Y-68679528D01*
X93356614Y-68761595D01*
X93222038Y-68872038D01*
X93111595Y-69006614D01*
X93029528Y-69160150D01*
X92978992Y-69326746D01*
X92961928Y-69500000D01*
X92160000Y-69500000D01*
X92160000Y-64048061D01*
X105465000Y-64048061D01*
X105465000Y-64251939D01*
X105504774Y-64451898D01*
X105582795Y-64640256D01*
X105696063Y-64809774D01*
X105840226Y-64953937D01*
X106009744Y-65067205D01*
X106198102Y-65145226D01*
X106398061Y-65185000D01*
X106601939Y-65185000D01*
X106801898Y-65145226D01*
X106990256Y-65067205D01*
X107159774Y-64953937D01*
X107303937Y-64809774D01*
X107417205Y-64640256D01*
X107495226Y-64451898D01*
X107535000Y-64251939D01*
X107535000Y-64048061D01*
X107495226Y-63848102D01*
X107417205Y-63659744D01*
X107303937Y-63490226D01*
X107159774Y-63346063D01*
X106990256Y-63232795D01*
X106801898Y-63154774D01*
X106601939Y-63115000D01*
X106398061Y-63115000D01*
X106198102Y-63154774D01*
X106009744Y-63232795D01*
X105840226Y-63346063D01*
X105696063Y-63490226D01*
X105582795Y-63659744D01*
X105504774Y-63848102D01*
X105465000Y-64048061D01*
X92160000Y-64048061D01*
X92160000Y-62298061D01*
X111315000Y-62298061D01*
X111315000Y-62501939D01*
X111354774Y-62701898D01*
X111432795Y-62890256D01*
X111546063Y-63059774D01*
X111690226Y-63203937D01*
X111859744Y-63317205D01*
X112048102Y-63395226D01*
X112248061Y-63435000D01*
X112451939Y-63435000D01*
X112651898Y-63395226D01*
X112840256Y-63317205D01*
X113009774Y-63203937D01*
X113153937Y-63059774D01*
X113267205Y-62890256D01*
X113345226Y-62701898D01*
X113385000Y-62501939D01*
X113385000Y-62298061D01*
X113345226Y-62098102D01*
X113267205Y-61909744D01*
X113153937Y-61740226D01*
X113009774Y-61596063D01*
X112840256Y-61482795D01*
X112651898Y-61404774D01*
X112451939Y-61365000D01*
X112248061Y-61365000D01*
X112048102Y-61404774D01*
X111859744Y-61482795D01*
X111690226Y-61596063D01*
X111546063Y-61740226D01*
X111432795Y-61909744D01*
X111354774Y-62098102D01*
X111315000Y-62298061D01*
X92160000Y-62298061D01*
X92160000Y-59948061D01*
X100565000Y-59948061D01*
X100565000Y-60151939D01*
X100604774Y-60351898D01*
X100682795Y-60540256D01*
X100796063Y-60709774D01*
X100940226Y-60853937D01*
X101109744Y-60967205D01*
X101298102Y-61045226D01*
X101498061Y-61085000D01*
X101701939Y-61085000D01*
X101901898Y-61045226D01*
X102090256Y-60967205D01*
X102259774Y-60853937D01*
X102403937Y-60709774D01*
X102517205Y-60540256D01*
X102595226Y-60351898D01*
X102635000Y-60151939D01*
X102635000Y-59948061D01*
X102595226Y-59748102D01*
X102517205Y-59559744D01*
X102403937Y-59390226D01*
X102259774Y-59246063D01*
X102090256Y-59132795D01*
X101901898Y-59054774D01*
X101701939Y-59015000D01*
X101498061Y-59015000D01*
X101298102Y-59054774D01*
X101109744Y-59132795D01*
X100940226Y-59246063D01*
X100796063Y-59390226D01*
X100682795Y-59559744D01*
X100604774Y-59748102D01*
X100565000Y-59948061D01*
X92160000Y-59948061D01*
X92160000Y-57723061D01*
X97040000Y-57723061D01*
X97040000Y-57926939D01*
X97079774Y-58126898D01*
X97157795Y-58315256D01*
X97271063Y-58484774D01*
X97415226Y-58628937D01*
X97584744Y-58742205D01*
X97773102Y-58820226D01*
X97973061Y-58860000D01*
X98176939Y-58860000D01*
X98376898Y-58820226D01*
X98525000Y-58758880D01*
X98673102Y-58820226D01*
X98873061Y-58860000D01*
X99076939Y-58860000D01*
X99276898Y-58820226D01*
X99425000Y-58758880D01*
X99573102Y-58820226D01*
X99773061Y-58860000D01*
X99976939Y-58860000D01*
X100036960Y-58848061D01*
X105365000Y-58848061D01*
X105365000Y-59051939D01*
X105404774Y-59251898D01*
X105482795Y-59440256D01*
X105596063Y-59609774D01*
X105740226Y-59753937D01*
X105909744Y-59867205D01*
X106098102Y-59945226D01*
X106298061Y-59985000D01*
X106501939Y-59985000D01*
X106701898Y-59945226D01*
X106890256Y-59867205D01*
X107059774Y-59753937D01*
X107203937Y-59609774D01*
X107317205Y-59440256D01*
X107395226Y-59251898D01*
X107435000Y-59051939D01*
X107435000Y-58848061D01*
X107395226Y-58648102D01*
X107317205Y-58459744D01*
X107203937Y-58290226D01*
X107059774Y-58146063D01*
X106890256Y-58032795D01*
X106701898Y-57954774D01*
X106501939Y-57915000D01*
X106298061Y-57915000D01*
X106098102Y-57954774D01*
X105909744Y-58032795D01*
X105740226Y-58146063D01*
X105596063Y-58290226D01*
X105482795Y-58459744D01*
X105404774Y-58648102D01*
X105365000Y-58848061D01*
X100036960Y-58848061D01*
X100176898Y-58820226D01*
X100365256Y-58742205D01*
X100534774Y-58628937D01*
X100678937Y-58484774D01*
X100792205Y-58315256D01*
X100870226Y-58126898D01*
X100910000Y-57926939D01*
X100910000Y-57723061D01*
X100881898Y-57581781D01*
X101009744Y-57667205D01*
X101198102Y-57745226D01*
X101398061Y-57785000D01*
X101601939Y-57785000D01*
X101801898Y-57745226D01*
X101990256Y-57667205D01*
X102159774Y-57553937D01*
X102215650Y-57498061D01*
X125715000Y-57498061D01*
X125715000Y-57701939D01*
X125754774Y-57901898D01*
X125832795Y-58090256D01*
X125946063Y-58259774D01*
X126090226Y-58403937D01*
X126259744Y-58517205D01*
X126448102Y-58595226D01*
X126648061Y-58635000D01*
X126851939Y-58635000D01*
X127051898Y-58595226D01*
X127240256Y-58517205D01*
X127409774Y-58403937D01*
X127553937Y-58259774D01*
X127667205Y-58090256D01*
X127745226Y-57901898D01*
X127785000Y-57701939D01*
X127785000Y-57498061D01*
X127745226Y-57298102D01*
X127667205Y-57109744D01*
X127553937Y-56940226D01*
X127409774Y-56796063D01*
X127240256Y-56682795D01*
X127051898Y-56604774D01*
X126851939Y-56565000D01*
X126648061Y-56565000D01*
X126448102Y-56604774D01*
X126259744Y-56682795D01*
X126090226Y-56796063D01*
X125946063Y-56940226D01*
X125832795Y-57109744D01*
X125754774Y-57298102D01*
X125715000Y-57498061D01*
X102215650Y-57498061D01*
X102303937Y-57409774D01*
X102417205Y-57240256D01*
X102495226Y-57051898D01*
X102535000Y-56851939D01*
X102535000Y-56648061D01*
X102495226Y-56448102D01*
X102417205Y-56259744D01*
X102303937Y-56090226D01*
X102261772Y-56048061D01*
X104015000Y-56048061D01*
X104015000Y-56251939D01*
X104054774Y-56451898D01*
X104132795Y-56640256D01*
X104246063Y-56809774D01*
X104390226Y-56953937D01*
X104559744Y-57067205D01*
X104748102Y-57145226D01*
X104948061Y-57185000D01*
X105151939Y-57185000D01*
X105351898Y-57145226D01*
X105540256Y-57067205D01*
X105709774Y-56953937D01*
X105853937Y-56809774D01*
X105967205Y-56640256D01*
X106045226Y-56451898D01*
X106085000Y-56251939D01*
X106085000Y-56048061D01*
X106075055Y-55998061D01*
X129265000Y-55998061D01*
X129265000Y-56201939D01*
X129304774Y-56401898D01*
X129382795Y-56590256D01*
X129496063Y-56759774D01*
X129640226Y-56903937D01*
X129809744Y-57017205D01*
X129998102Y-57095226D01*
X130198061Y-57135000D01*
X130401939Y-57135000D01*
X130601898Y-57095226D01*
X130790256Y-57017205D01*
X130959774Y-56903937D01*
X131103937Y-56759774D01*
X131217205Y-56590256D01*
X131295226Y-56401898D01*
X131335000Y-56201939D01*
X131335000Y-55998061D01*
X131295226Y-55798102D01*
X131217205Y-55609744D01*
X131103937Y-55440226D01*
X130959774Y-55296063D01*
X130790256Y-55182795D01*
X130601898Y-55104774D01*
X130401939Y-55065000D01*
X130198061Y-55065000D01*
X129998102Y-55104774D01*
X129809744Y-55182795D01*
X129640226Y-55296063D01*
X129496063Y-55440226D01*
X129382795Y-55609744D01*
X129304774Y-55798102D01*
X129265000Y-55998061D01*
X106075055Y-55998061D01*
X106045226Y-55848102D01*
X105967205Y-55659744D01*
X105853937Y-55490226D01*
X105709774Y-55346063D01*
X105540256Y-55232795D01*
X105351898Y-55154774D01*
X105151939Y-55115000D01*
X104948061Y-55115000D01*
X104748102Y-55154774D01*
X104559744Y-55232795D01*
X104390226Y-55346063D01*
X104246063Y-55490226D01*
X104132795Y-55659744D01*
X104054774Y-55848102D01*
X104015000Y-56048061D01*
X102261772Y-56048061D01*
X102159774Y-55946063D01*
X101990256Y-55832795D01*
X101818177Y-55761517D01*
X101835000Y-55676939D01*
X101835000Y-55473061D01*
X101795226Y-55273102D01*
X101717205Y-55084744D01*
X101603937Y-54915226D01*
X101459774Y-54771063D01*
X101290256Y-54657795D01*
X101101898Y-54579774D01*
X100901939Y-54540000D01*
X100698061Y-54540000D01*
X100498102Y-54579774D01*
X100309744Y-54657795D01*
X100140226Y-54771063D01*
X99996063Y-54915226D01*
X99978778Y-54941095D01*
X99970226Y-54898102D01*
X99892205Y-54709744D01*
X99778937Y-54540226D01*
X99634774Y-54396063D01*
X99465256Y-54282795D01*
X99276898Y-54204774D01*
X99076939Y-54165000D01*
X98873061Y-54165000D01*
X98673102Y-54204774D01*
X98484744Y-54282795D01*
X98315226Y-54396063D01*
X98171063Y-54540226D01*
X98057795Y-54709744D01*
X97979774Y-54898102D01*
X97940000Y-55098061D01*
X97940000Y-55301939D01*
X97979774Y-55501898D01*
X98057795Y-55690256D01*
X98171063Y-55859774D01*
X98315226Y-56003937D01*
X98484744Y-56117205D01*
X98673102Y-56195226D01*
X98873061Y-56235000D01*
X99076939Y-56235000D01*
X99276898Y-56195226D01*
X99465256Y-56117205D01*
X99634774Y-56003937D01*
X99778937Y-55859774D01*
X99796222Y-55833905D01*
X99804774Y-55876898D01*
X99882795Y-56065256D01*
X99996063Y-56234774D01*
X100140226Y-56378937D01*
X100309744Y-56492205D01*
X100481823Y-56563483D01*
X100465000Y-56648061D01*
X100465000Y-56851939D01*
X100493102Y-56993219D01*
X100365256Y-56907795D01*
X100176898Y-56829774D01*
X99976939Y-56790000D01*
X99773061Y-56790000D01*
X99573102Y-56829774D01*
X99425000Y-56891120D01*
X99276898Y-56829774D01*
X99076939Y-56790000D01*
X98873061Y-56790000D01*
X98673102Y-56829774D01*
X98525000Y-56891120D01*
X98376898Y-56829774D01*
X98176939Y-56790000D01*
X97973061Y-56790000D01*
X97773102Y-56829774D01*
X97584744Y-56907795D01*
X97415226Y-57021063D01*
X97271063Y-57165226D01*
X97157795Y-57334744D01*
X97079774Y-57523102D01*
X97040000Y-57723061D01*
X92160000Y-57723061D01*
X92160000Y-55339799D01*
X92173102Y-55345226D01*
X92373061Y-55385000D01*
X92576939Y-55385000D01*
X92776898Y-55345226D01*
X92965256Y-55267205D01*
X93134774Y-55153937D01*
X93278937Y-55009774D01*
X93392205Y-54840256D01*
X93470226Y-54651898D01*
X93510000Y-54451939D01*
X93510000Y-54248061D01*
X93470226Y-54048102D01*
X93392205Y-53859744D01*
X93278937Y-53690226D01*
X93134774Y-53546063D01*
X92965256Y-53432795D01*
X92776898Y-53354774D01*
X92576939Y-53315000D01*
X92373061Y-53315000D01*
X92173102Y-53354774D01*
X92160000Y-53360201D01*
X92160000Y-50660000D01*
X100156783Y-50660000D01*
X100140226Y-50671063D01*
M02*
