G04 #@! TF.GenerationSoftware,KiCad,Pcbnew,(5.1.2)-2*
G04 #@! TF.CreationDate,2021-03-22T02:30:38-04:00*
G04 #@! TF.ProjectId,Repowered_Electronic_Load_Module,5265706f-7765-4726-9564-5f456c656374,rev?*
G04 #@! TF.SameCoordinates,Original*
G04 #@! TF.FileFunction,Copper,L4,Bot*
G04 #@! TF.FilePolarity,Positive*
%FSLAX46Y46*%
G04 Gerber Fmt 4.6, Leading zero omitted, Abs format (unit mm)*
G04 Created by KiCad (PCBNEW (5.1.2)-2) date 2021-03-22 02:30:38*
%MOMM*%
%LPD*%
G04 APERTURE LIST*
%ADD10C,0.900000*%
%ADD11C,8.600000*%
%ADD12O,1.800000X3.600000*%
%ADD13C,0.100000*%
%ADD14C,1.800000*%
%ADD15O,2.500000X4.500000*%
%ADD16R,2.500000X4.500000*%
%ADD17C,0.800000*%
%ADD18C,0.500000*%
%ADD19C,0.250000*%
%ADD20C,0.254000*%
G04 APERTURE END LIST*
D10*
X134730419Y-67969581D03*
X132450000Y-67025000D03*
X130169581Y-67969581D03*
X129225000Y-70250000D03*
X130169581Y-72530419D03*
X132450000Y-73475000D03*
X134730419Y-72530419D03*
X135675000Y-70250000D03*
D11*
X132450000Y-70250000D03*
D10*
X122030419Y-67969581D03*
X119750000Y-67025000D03*
X117469581Y-67969581D03*
X116525000Y-70250000D03*
X117469581Y-72530419D03*
X119750000Y-73475000D03*
X122030419Y-72530419D03*
X122975000Y-70250000D03*
D11*
X119750000Y-70250000D03*
D12*
X108500000Y-71050000D03*
X105000000Y-71050000D03*
X101500000Y-71050000D03*
X98000000Y-71050000D03*
D13*
G36*
X95174504Y-69251204D02*
G01*
X95198773Y-69254804D01*
X95222571Y-69260765D01*
X95245671Y-69269030D01*
X95267849Y-69279520D01*
X95288893Y-69292133D01*
X95308598Y-69306747D01*
X95326777Y-69323223D01*
X95343253Y-69341402D01*
X95357867Y-69361107D01*
X95370480Y-69382151D01*
X95380970Y-69404329D01*
X95389235Y-69427429D01*
X95395196Y-69451227D01*
X95398796Y-69475496D01*
X95400000Y-69500000D01*
X95400000Y-72600000D01*
X95398796Y-72624504D01*
X95395196Y-72648773D01*
X95389235Y-72672571D01*
X95380970Y-72695671D01*
X95370480Y-72717849D01*
X95357867Y-72738893D01*
X95343253Y-72758598D01*
X95326777Y-72776777D01*
X95308598Y-72793253D01*
X95288893Y-72807867D01*
X95267849Y-72820480D01*
X95245671Y-72830970D01*
X95222571Y-72839235D01*
X95198773Y-72845196D01*
X95174504Y-72848796D01*
X95150000Y-72850000D01*
X93850000Y-72850000D01*
X93825496Y-72848796D01*
X93801227Y-72845196D01*
X93777429Y-72839235D01*
X93754329Y-72830970D01*
X93732151Y-72820480D01*
X93711107Y-72807867D01*
X93691402Y-72793253D01*
X93673223Y-72776777D01*
X93656747Y-72758598D01*
X93642133Y-72738893D01*
X93629520Y-72717849D01*
X93619030Y-72695671D01*
X93610765Y-72672571D01*
X93604804Y-72648773D01*
X93601204Y-72624504D01*
X93600000Y-72600000D01*
X93600000Y-69500000D01*
X93601204Y-69475496D01*
X93604804Y-69451227D01*
X93610765Y-69427429D01*
X93619030Y-69404329D01*
X93629520Y-69382151D01*
X93642133Y-69361107D01*
X93656747Y-69341402D01*
X93673223Y-69323223D01*
X93691402Y-69306747D01*
X93711107Y-69292133D01*
X93732151Y-69279520D01*
X93754329Y-69269030D01*
X93777429Y-69260765D01*
X93801227Y-69254804D01*
X93825496Y-69251204D01*
X93850000Y-69250000D01*
X95150000Y-69250000D01*
X95174504Y-69251204D01*
X95174504Y-69251204D01*
G37*
D14*
X94500000Y-71050000D03*
D15*
X125400000Y-52500000D03*
X119950000Y-52500000D03*
D16*
X114500000Y-52500000D03*
D17*
X97225000Y-52475000D03*
X99875000Y-61525000D03*
X96875000Y-59700000D03*
X96300000Y-64775000D03*
X102100000Y-61450000D03*
X102850000Y-58950000D03*
X94475000Y-56150000D03*
X135400000Y-61050000D03*
X134492852Y-61050000D03*
X133585710Y-61050000D03*
X132678568Y-61050000D03*
X131771426Y-61050000D03*
X130864284Y-61050000D03*
X129957142Y-61050000D03*
X129050000Y-61050000D03*
X108600000Y-56150000D03*
X109350000Y-53650000D03*
X97050000Y-65725000D03*
X99875000Y-57825000D03*
X98975000Y-57825000D03*
X98075000Y-57825000D03*
X100800000Y-51475000D03*
X92475000Y-54350000D03*
X106400000Y-58950000D03*
X105050000Y-56150000D03*
X101500000Y-56750000D03*
X100800000Y-55575000D03*
X98975000Y-55200000D03*
X126750000Y-57600000D03*
X112350000Y-62400000D03*
X130914290Y-52900000D03*
X130007148Y-52900000D03*
X134542858Y-52900000D03*
X132728574Y-52900000D03*
X131821432Y-52900000D03*
X133635716Y-52900000D03*
X129100000Y-52900000D03*
X135450000Y-52900000D03*
X130300000Y-56100000D03*
X106500000Y-64150000D03*
X101600000Y-60050000D03*
D18*
X101500000Y-56750000D02*
X101500000Y-56750000D01*
X105050000Y-56150000D02*
X102100000Y-56150000D01*
X102100000Y-56150000D02*
X101500000Y-56750000D01*
D19*
X101500000Y-67100000D02*
X101500000Y-71000000D01*
X98825000Y-64425000D02*
X101500000Y-67100000D01*
X100300000Y-56075000D02*
X100300000Y-56900000D01*
X100800000Y-55575000D02*
X100300000Y-56075000D01*
X100300000Y-56900000D02*
X100775000Y-57375000D01*
X100775000Y-57375000D02*
X100775000Y-58650000D01*
X100775000Y-58650000D02*
X98825000Y-60600000D01*
X98825000Y-60600000D02*
X98825000Y-64425000D01*
X97075000Y-57100000D02*
X98975000Y-55200000D01*
X97075000Y-58350000D02*
X97075000Y-57100000D01*
X98000000Y-71000000D02*
X98000000Y-59275000D01*
X98000000Y-59275000D02*
X97075000Y-58350000D01*
X101600000Y-60050000D02*
X101050000Y-60600000D01*
X101050000Y-60600000D02*
X101050000Y-62450000D01*
X105000000Y-66400000D02*
X105000000Y-71000000D01*
X101050000Y-62450000D02*
X105000000Y-66400000D01*
D20*
G36*
X118257088Y-50661309D02*
G01*
X118125996Y-51007695D01*
X118065000Y-51373000D01*
X118065000Y-52373000D01*
X119823000Y-52373000D01*
X119823000Y-52353000D01*
X120077000Y-52353000D01*
X120077000Y-52373000D01*
X121835000Y-52373000D01*
X121835000Y-51373000D01*
X121774004Y-51007695D01*
X121642912Y-50661309D01*
X121642095Y-50660000D01*
X122665000Y-50660000D01*
X122665000Y-55000000D01*
X122677201Y-55123882D01*
X122713336Y-55243004D01*
X122772017Y-55352787D01*
X122850987Y-55449013D01*
X122875297Y-55473323D01*
X122875440Y-55474776D01*
X122882667Y-55498601D01*
X122894403Y-55520557D01*
X122910197Y-55539803D01*
X125373000Y-58002606D01*
X125373000Y-74340000D01*
X114127000Y-74340000D01*
X114127000Y-58002606D01*
X116589803Y-55539803D01*
X116605597Y-55520557D01*
X116617333Y-55498601D01*
X116624560Y-55474776D01*
X116627000Y-55450000D01*
X116627000Y-52627000D01*
X118065000Y-52627000D01*
X118065000Y-53627000D01*
X118125996Y-53992305D01*
X118257088Y-54338691D01*
X118453237Y-54652847D01*
X118706906Y-54922699D01*
X119008347Y-55137878D01*
X119345975Y-55290114D01*
X119530355Y-55337695D01*
X119823000Y-55221572D01*
X119823000Y-52627000D01*
X120077000Y-52627000D01*
X120077000Y-55221572D01*
X120369645Y-55337695D01*
X120554025Y-55290114D01*
X120891653Y-55137878D01*
X121193094Y-54922699D01*
X121446763Y-54652847D01*
X121642912Y-54338691D01*
X121774004Y-53992305D01*
X121835000Y-53627000D01*
X121835000Y-52627000D01*
X120077000Y-52627000D01*
X119823000Y-52627000D01*
X118065000Y-52627000D01*
X116627000Y-52627000D01*
X116627000Y-50660000D01*
X118257905Y-50660000D01*
X118257088Y-50661309D01*
X118257088Y-50661309D01*
G37*
X118257088Y-50661309D02*
X118125996Y-51007695D01*
X118065000Y-51373000D01*
X118065000Y-52373000D01*
X119823000Y-52373000D01*
X119823000Y-52353000D01*
X120077000Y-52353000D01*
X120077000Y-52373000D01*
X121835000Y-52373000D01*
X121835000Y-51373000D01*
X121774004Y-51007695D01*
X121642912Y-50661309D01*
X121642095Y-50660000D01*
X122665000Y-50660000D01*
X122665000Y-55000000D01*
X122677201Y-55123882D01*
X122713336Y-55243004D01*
X122772017Y-55352787D01*
X122850987Y-55449013D01*
X122875297Y-55473323D01*
X122875440Y-55474776D01*
X122882667Y-55498601D01*
X122894403Y-55520557D01*
X122910197Y-55539803D01*
X125373000Y-58002606D01*
X125373000Y-74340000D01*
X114127000Y-74340000D01*
X114127000Y-58002606D01*
X116589803Y-55539803D01*
X116605597Y-55520557D01*
X116617333Y-55498601D01*
X116624560Y-55474776D01*
X116627000Y-55450000D01*
X116627000Y-52627000D01*
X118065000Y-52627000D01*
X118065000Y-53627000D01*
X118125996Y-53992305D01*
X118257088Y-54338691D01*
X118453237Y-54652847D01*
X118706906Y-54922699D01*
X119008347Y-55137878D01*
X119345975Y-55290114D01*
X119530355Y-55337695D01*
X119823000Y-55221572D01*
X119823000Y-52627000D01*
X120077000Y-52627000D01*
X120077000Y-55221572D01*
X120369645Y-55337695D01*
X120554025Y-55290114D01*
X120891653Y-55137878D01*
X121193094Y-54922699D01*
X121446763Y-54652847D01*
X121642912Y-54338691D01*
X121774004Y-53992305D01*
X121835000Y-53627000D01*
X121835000Y-52627000D01*
X120077000Y-52627000D01*
X119823000Y-52627000D01*
X118065000Y-52627000D01*
X116627000Y-52627000D01*
X116627000Y-50660000D01*
X118257905Y-50660000D01*
X118257088Y-50661309D01*
G36*
X123707088Y-50661309D02*
G01*
X123575996Y-51007695D01*
X123515000Y-51373000D01*
X123515000Y-52373000D01*
X125273000Y-52373000D01*
X125273000Y-52353000D01*
X125527000Y-52353000D01*
X125527000Y-52373000D01*
X127285000Y-52373000D01*
X127285000Y-51373000D01*
X127224004Y-51007695D01*
X127092912Y-50661309D01*
X127092095Y-50660000D01*
X136840000Y-50660000D01*
X136840000Y-56573000D01*
X126892158Y-56573000D01*
X126851939Y-56565000D01*
X126648061Y-56565000D01*
X126607842Y-56573000D01*
X125052606Y-56573000D01*
X123427000Y-54947394D01*
X123427000Y-52627000D01*
X123515000Y-52627000D01*
X123515000Y-53627000D01*
X123575996Y-53992305D01*
X123707088Y-54338691D01*
X123903237Y-54652847D01*
X124156906Y-54922699D01*
X124458347Y-55137878D01*
X124795975Y-55290114D01*
X124980355Y-55337695D01*
X125273000Y-55221572D01*
X125273000Y-52627000D01*
X125527000Y-52627000D01*
X125527000Y-55221572D01*
X125819645Y-55337695D01*
X126004025Y-55290114D01*
X126341653Y-55137878D01*
X126643094Y-54922699D01*
X126896763Y-54652847D01*
X127092912Y-54338691D01*
X127224004Y-53992305D01*
X127285000Y-53627000D01*
X127285000Y-52627000D01*
X125527000Y-52627000D01*
X125273000Y-52627000D01*
X123515000Y-52627000D01*
X123427000Y-52627000D01*
X123427000Y-50660000D01*
X123707905Y-50660000D01*
X123707088Y-50661309D01*
X123707088Y-50661309D01*
G37*
X123707088Y-50661309D02*
X123575996Y-51007695D01*
X123515000Y-51373000D01*
X123515000Y-52373000D01*
X125273000Y-52373000D01*
X125273000Y-52353000D01*
X125527000Y-52353000D01*
X125527000Y-52373000D01*
X127285000Y-52373000D01*
X127285000Y-51373000D01*
X127224004Y-51007695D01*
X127092912Y-50661309D01*
X127092095Y-50660000D01*
X136840000Y-50660000D01*
X136840000Y-56573000D01*
X126892158Y-56573000D01*
X126851939Y-56565000D01*
X126648061Y-56565000D01*
X126607842Y-56573000D01*
X125052606Y-56573000D01*
X123427000Y-54947394D01*
X123427000Y-52627000D01*
X123515000Y-52627000D01*
X123515000Y-53627000D01*
X123575996Y-53992305D01*
X123707088Y-54338691D01*
X123903237Y-54652847D01*
X124156906Y-54922699D01*
X124458347Y-55137878D01*
X124795975Y-55290114D01*
X124980355Y-55337695D01*
X125273000Y-55221572D01*
X125273000Y-52627000D01*
X125527000Y-52627000D01*
X125527000Y-55221572D01*
X125819645Y-55337695D01*
X126004025Y-55290114D01*
X126341653Y-55137878D01*
X126643094Y-54922699D01*
X126896763Y-54652847D01*
X127092912Y-54338691D01*
X127224004Y-53992305D01*
X127285000Y-53627000D01*
X127285000Y-52627000D01*
X125527000Y-52627000D01*
X125273000Y-52627000D01*
X123515000Y-52627000D01*
X123427000Y-52627000D01*
X123427000Y-50660000D01*
X123707905Y-50660000D01*
X123707088Y-50661309D01*
G36*
X136840000Y-58323911D02*
G01*
X136840001Y-74340000D01*
X126952000Y-74340000D01*
X126952000Y-58615097D01*
X127051898Y-58595226D01*
X127240256Y-58517205D01*
X127409774Y-58403937D01*
X127533391Y-58280320D01*
X136840000Y-58323911D01*
X136840000Y-58323911D01*
G37*
X136840000Y-58323911D02*
X136840001Y-74340000D01*
X126952000Y-74340000D01*
X126952000Y-58615097D01*
X127051898Y-58595226D01*
X127240256Y-58517205D01*
X127409774Y-58403937D01*
X127533391Y-58280320D01*
X136840000Y-58323911D01*
G36*
X112223000Y-61531081D02*
G01*
X112094189Y-61556703D01*
X111934585Y-61622813D01*
X111790945Y-61718790D01*
X111668790Y-61840945D01*
X111572813Y-61984585D01*
X111506703Y-62144189D01*
X111473000Y-62313623D01*
X111473000Y-62486377D01*
X111506703Y-62655811D01*
X111572813Y-62815415D01*
X111668790Y-62959055D01*
X111790945Y-63081210D01*
X111934585Y-63177187D01*
X112094189Y-63243297D01*
X112223000Y-63268919D01*
X112223000Y-74498000D01*
X92002000Y-74498000D01*
X92002000Y-69500000D01*
X93120693Y-69500000D01*
X93120693Y-72600000D01*
X93134706Y-72742281D01*
X93176208Y-72879094D01*
X93243603Y-73005181D01*
X93334302Y-73115698D01*
X93444819Y-73206397D01*
X93570906Y-73273792D01*
X93707719Y-73315294D01*
X93850000Y-73329307D01*
X95150000Y-73329307D01*
X95292281Y-73315294D01*
X95429094Y-73273792D01*
X95555181Y-73206397D01*
X95665698Y-73115698D01*
X95756397Y-73005181D01*
X95823792Y-72879094D01*
X95865294Y-72742281D01*
X95879307Y-72600000D01*
X95879307Y-69500000D01*
X95865294Y-69357719D01*
X95823792Y-69220906D01*
X95756397Y-69094819D01*
X95665698Y-68984302D01*
X95555181Y-68893603D01*
X95429094Y-68826208D01*
X95292281Y-68784706D01*
X95150000Y-68770693D01*
X93850000Y-68770693D01*
X93707719Y-68784706D01*
X93570906Y-68826208D01*
X93444819Y-68893603D01*
X93334302Y-68984302D01*
X93243603Y-69094819D01*
X93176208Y-69220906D01*
X93134706Y-69357719D01*
X93120693Y-69500000D01*
X92002000Y-69500000D01*
X92002000Y-57100000D01*
X96470089Y-57100000D01*
X96473001Y-57129566D01*
X96473000Y-58320443D01*
X96470089Y-58350000D01*
X96473000Y-58379556D01*
X96473000Y-58379565D01*
X96481711Y-58468011D01*
X96516134Y-58581489D01*
X96572034Y-58686070D01*
X96647263Y-58777737D01*
X96670234Y-58796589D01*
X97398001Y-59524357D01*
X97398000Y-68910412D01*
X97231279Y-68999527D01*
X97021603Y-69171604D01*
X96849527Y-69381280D01*
X96721663Y-69620496D01*
X96642925Y-69880062D01*
X96623000Y-70082361D01*
X96623000Y-72017640D01*
X96642926Y-72219939D01*
X96721664Y-72479505D01*
X96849528Y-72718721D01*
X97021604Y-72928397D01*
X97231280Y-73100473D01*
X97470496Y-73228337D01*
X97730062Y-73307075D01*
X98000000Y-73333662D01*
X98269939Y-73307075D01*
X98529505Y-73228337D01*
X98768721Y-73100473D01*
X98978397Y-72928397D01*
X99150473Y-72718721D01*
X99278337Y-72479505D01*
X99357075Y-72219939D01*
X99377000Y-72017640D01*
X99377000Y-70082360D01*
X99357075Y-69880061D01*
X99278337Y-69620495D01*
X99150473Y-69381279D01*
X98978396Y-69171603D01*
X98768720Y-68999527D01*
X98602000Y-68910413D01*
X98602000Y-65053355D01*
X100898000Y-67349357D01*
X100898000Y-68910412D01*
X100731279Y-68999527D01*
X100521603Y-69171604D01*
X100349527Y-69381280D01*
X100221663Y-69620496D01*
X100142925Y-69880062D01*
X100123000Y-70082361D01*
X100123000Y-72017640D01*
X100142926Y-72219939D01*
X100221664Y-72479505D01*
X100349528Y-72718721D01*
X100521604Y-72928397D01*
X100731280Y-73100473D01*
X100970496Y-73228337D01*
X101230062Y-73307075D01*
X101500000Y-73333662D01*
X101769939Y-73307075D01*
X102029505Y-73228337D01*
X102268721Y-73100473D01*
X102478397Y-72928397D01*
X102650473Y-72718721D01*
X102778337Y-72479505D01*
X102857075Y-72219939D01*
X102877000Y-72017640D01*
X102877000Y-70082360D01*
X102857075Y-69880061D01*
X102778337Y-69620495D01*
X102650473Y-69381279D01*
X102478396Y-69171603D01*
X102268720Y-68999527D01*
X102102000Y-68910413D01*
X102102000Y-67129556D01*
X102104911Y-67099999D01*
X102102000Y-67070443D01*
X102102000Y-67070434D01*
X102093289Y-66981988D01*
X102058866Y-66868510D01*
X102002966Y-66763929D01*
X101992286Y-66750916D01*
X101946584Y-66695227D01*
X101946580Y-66695223D01*
X101927737Y-66672263D01*
X101904778Y-66653421D01*
X99427000Y-64175645D01*
X99427000Y-60849355D01*
X99676355Y-60600000D01*
X100445089Y-60600000D01*
X100448000Y-60629557D01*
X100448001Y-62420434D01*
X100445089Y-62450000D01*
X100456712Y-62568012D01*
X100491134Y-62681489D01*
X100491135Y-62681490D01*
X100547035Y-62786071D01*
X100622264Y-62877737D01*
X100645229Y-62896584D01*
X104398000Y-66649356D01*
X104398001Y-68910412D01*
X104231279Y-68999527D01*
X104021603Y-69171604D01*
X103849527Y-69381280D01*
X103721663Y-69620496D01*
X103642925Y-69880062D01*
X103623000Y-70082361D01*
X103623000Y-72017640D01*
X103642926Y-72219939D01*
X103721664Y-72479505D01*
X103849528Y-72718721D01*
X104021604Y-72928397D01*
X104231280Y-73100473D01*
X104470496Y-73228337D01*
X104730062Y-73307075D01*
X105000000Y-73333662D01*
X105269939Y-73307075D01*
X105529505Y-73228337D01*
X105768721Y-73100473D01*
X105978397Y-72928397D01*
X106150473Y-72718721D01*
X106278337Y-72479505D01*
X106357075Y-72219939D01*
X106377000Y-72017640D01*
X106377000Y-71177000D01*
X106965000Y-71177000D01*
X106965000Y-72077000D01*
X107019271Y-72374023D01*
X107130446Y-72654751D01*
X107294252Y-72908396D01*
X107504394Y-73125210D01*
X107752796Y-73296862D01*
X108029913Y-73416755D01*
X108135260Y-73441036D01*
X108373000Y-73320378D01*
X108373000Y-71177000D01*
X108627000Y-71177000D01*
X108627000Y-73320378D01*
X108864740Y-73441036D01*
X108970087Y-73416755D01*
X109247204Y-73296862D01*
X109495606Y-73125210D01*
X109705748Y-72908396D01*
X109869554Y-72654751D01*
X109980729Y-72374023D01*
X110035000Y-72077000D01*
X110035000Y-71177000D01*
X108627000Y-71177000D01*
X108373000Y-71177000D01*
X106965000Y-71177000D01*
X106377000Y-71177000D01*
X106377000Y-70082360D01*
X106371154Y-70023000D01*
X106965000Y-70023000D01*
X106965000Y-70923000D01*
X108373000Y-70923000D01*
X108373000Y-68779622D01*
X108627000Y-68779622D01*
X108627000Y-70923000D01*
X110035000Y-70923000D01*
X110035000Y-70023000D01*
X109980729Y-69725977D01*
X109869554Y-69445249D01*
X109705748Y-69191604D01*
X109495606Y-68974790D01*
X109247204Y-68803138D01*
X108970087Y-68683245D01*
X108864740Y-68658964D01*
X108627000Y-68779622D01*
X108373000Y-68779622D01*
X108135260Y-68658964D01*
X108029913Y-68683245D01*
X107752796Y-68803138D01*
X107504394Y-68974790D01*
X107294252Y-69191604D01*
X107130446Y-69445249D01*
X107019271Y-69725977D01*
X106965000Y-70023000D01*
X106371154Y-70023000D01*
X106357075Y-69880061D01*
X106278337Y-69620495D01*
X106150473Y-69381279D01*
X105978396Y-69171603D01*
X105768720Y-68999527D01*
X105602000Y-68910413D01*
X105602000Y-66429559D01*
X105604911Y-66400000D01*
X105602000Y-66370441D01*
X105602000Y-66370434D01*
X105593289Y-66281988D01*
X105558866Y-66168510D01*
X105502967Y-66063930D01*
X105502966Y-66063928D01*
X105446584Y-65995228D01*
X105427737Y-65972263D01*
X105404773Y-65953417D01*
X103514979Y-64063623D01*
X105623000Y-64063623D01*
X105623000Y-64236377D01*
X105656703Y-64405811D01*
X105722813Y-64565415D01*
X105818790Y-64709055D01*
X105940945Y-64831210D01*
X106084585Y-64927187D01*
X106244189Y-64993297D01*
X106413623Y-65027000D01*
X106586377Y-65027000D01*
X106755811Y-64993297D01*
X106915415Y-64927187D01*
X107059055Y-64831210D01*
X107181210Y-64709055D01*
X107277187Y-64565415D01*
X107343297Y-64405811D01*
X107377000Y-64236377D01*
X107377000Y-64063623D01*
X107343297Y-63894189D01*
X107277187Y-63734585D01*
X107181210Y-63590945D01*
X107059055Y-63468790D01*
X106915415Y-63372813D01*
X106755811Y-63306703D01*
X106586377Y-63273000D01*
X106413623Y-63273000D01*
X106244189Y-63306703D01*
X106084585Y-63372813D01*
X105940945Y-63468790D01*
X105818790Y-63590945D01*
X105722813Y-63734585D01*
X105656703Y-63894189D01*
X105623000Y-64063623D01*
X103514979Y-64063623D01*
X101652000Y-62200645D01*
X101652000Y-60927000D01*
X101686377Y-60927000D01*
X101855811Y-60893297D01*
X102015415Y-60827187D01*
X102159055Y-60731210D01*
X102281210Y-60609055D01*
X102377187Y-60465415D01*
X102443297Y-60305811D01*
X102477000Y-60136377D01*
X102477000Y-59963623D01*
X102443297Y-59794189D01*
X102377187Y-59634585D01*
X102281210Y-59490945D01*
X102159055Y-59368790D01*
X102015415Y-59272813D01*
X101855811Y-59206703D01*
X101686377Y-59173000D01*
X101513623Y-59173000D01*
X101344189Y-59206703D01*
X101184585Y-59272813D01*
X101040945Y-59368790D01*
X100918790Y-59490945D01*
X100822813Y-59634585D01*
X100756703Y-59794189D01*
X100723000Y-59963623D01*
X100723000Y-60075645D01*
X100645233Y-60153412D01*
X100622263Y-60172263D01*
X100547034Y-60263930D01*
X100491134Y-60368511D01*
X100456711Y-60481989D01*
X100448000Y-60570435D01*
X100448000Y-60570444D01*
X100445089Y-60600000D01*
X99676355Y-60600000D01*
X101179777Y-59096580D01*
X101202737Y-59077737D01*
X101221580Y-59054777D01*
X101221584Y-59054773D01*
X101277965Y-58986072D01*
X101277966Y-58986071D01*
X101333866Y-58881490D01*
X101339285Y-58863623D01*
X105523000Y-58863623D01*
X105523000Y-59036377D01*
X105556703Y-59205811D01*
X105622813Y-59365415D01*
X105718790Y-59509055D01*
X105840945Y-59631210D01*
X105984585Y-59727187D01*
X106144189Y-59793297D01*
X106313623Y-59827000D01*
X106486377Y-59827000D01*
X106655811Y-59793297D01*
X106815415Y-59727187D01*
X106959055Y-59631210D01*
X107081210Y-59509055D01*
X107177187Y-59365415D01*
X107243297Y-59205811D01*
X107277000Y-59036377D01*
X107277000Y-58863623D01*
X107243297Y-58694189D01*
X107177187Y-58534585D01*
X107081210Y-58390945D01*
X106959055Y-58268790D01*
X106815415Y-58172813D01*
X106655811Y-58106703D01*
X106486377Y-58073000D01*
X106313623Y-58073000D01*
X106144189Y-58106703D01*
X105984585Y-58172813D01*
X105840945Y-58268790D01*
X105718790Y-58390945D01*
X105622813Y-58534585D01*
X105556703Y-58694189D01*
X105523000Y-58863623D01*
X101339285Y-58863623D01*
X101368289Y-58768012D01*
X101377000Y-58679566D01*
X101377000Y-58679557D01*
X101379911Y-58650001D01*
X101377000Y-58620444D01*
X101377000Y-57619715D01*
X101413623Y-57627000D01*
X101586377Y-57627000D01*
X101755811Y-57593297D01*
X101915415Y-57527187D01*
X102059055Y-57431210D01*
X102181210Y-57309055D01*
X102277187Y-57165415D01*
X102343297Y-57005811D01*
X102360921Y-56917212D01*
X102401133Y-56877000D01*
X104559475Y-56877000D01*
X104634585Y-56927187D01*
X104794189Y-56993297D01*
X104963623Y-57027000D01*
X105136377Y-57027000D01*
X105305811Y-56993297D01*
X105465415Y-56927187D01*
X105609055Y-56831210D01*
X105731210Y-56709055D01*
X105827187Y-56565415D01*
X105893297Y-56405811D01*
X105927000Y-56236377D01*
X105927000Y-56063623D01*
X105893297Y-55894189D01*
X105827187Y-55734585D01*
X105731210Y-55590945D01*
X105609055Y-55468790D01*
X105465415Y-55372813D01*
X105305811Y-55306703D01*
X105136377Y-55273000D01*
X104963623Y-55273000D01*
X104794189Y-55306703D01*
X104634585Y-55372813D01*
X104559475Y-55423000D01*
X102135707Y-55423000D01*
X102099999Y-55419483D01*
X101957482Y-55433520D01*
X101925587Y-55443195D01*
X101820443Y-55475090D01*
X101694147Y-55542597D01*
X101677000Y-55556669D01*
X101677000Y-55488623D01*
X101643297Y-55319189D01*
X101577187Y-55159585D01*
X101481210Y-55015945D01*
X101359055Y-54893790D01*
X101215415Y-54797813D01*
X101055811Y-54731703D01*
X100886377Y-54698000D01*
X100713623Y-54698000D01*
X100544189Y-54731703D01*
X100384585Y-54797813D01*
X100240945Y-54893790D01*
X100118790Y-55015945D01*
X100022813Y-55159585D01*
X99956703Y-55319189D01*
X99923000Y-55488623D01*
X99923000Y-55600645D01*
X99895233Y-55628411D01*
X99872263Y-55647263D01*
X99797034Y-55738930D01*
X99741134Y-55843511D01*
X99706711Y-55956989D01*
X99698000Y-56045435D01*
X99698000Y-56045444D01*
X99695089Y-56075000D01*
X99698000Y-56104556D01*
X99698000Y-56870444D01*
X99695089Y-56900000D01*
X99698000Y-56929556D01*
X99698000Y-56929566D01*
X99701522Y-56965326D01*
X99619189Y-56981703D01*
X99459585Y-57047813D01*
X99425000Y-57070922D01*
X99390415Y-57047813D01*
X99230811Y-56981703D01*
X99061377Y-56948000D01*
X98888623Y-56948000D01*
X98719189Y-56981703D01*
X98559585Y-57047813D01*
X98525000Y-57070922D01*
X98490415Y-57047813D01*
X98330811Y-56981703D01*
X98161377Y-56948000D01*
X98078355Y-56948000D01*
X98949356Y-56077000D01*
X99061377Y-56077000D01*
X99230811Y-56043297D01*
X99390415Y-55977187D01*
X99534055Y-55881210D01*
X99656210Y-55759055D01*
X99752187Y-55615415D01*
X99818297Y-55455811D01*
X99852000Y-55286377D01*
X99852000Y-55113623D01*
X99818297Y-54944189D01*
X99752187Y-54784585D01*
X99656210Y-54640945D01*
X99534055Y-54518790D01*
X99390415Y-54422813D01*
X99230811Y-54356703D01*
X99061377Y-54323000D01*
X98888623Y-54323000D01*
X98719189Y-54356703D01*
X98559585Y-54422813D01*
X98415945Y-54518790D01*
X98293790Y-54640945D01*
X98197813Y-54784585D01*
X98131703Y-54944189D01*
X98098000Y-55113623D01*
X98098000Y-55225644D01*
X96670229Y-56653416D01*
X96647264Y-56672263D01*
X96628417Y-56695228D01*
X96628416Y-56695229D01*
X96572035Y-56763929D01*
X96516134Y-56868511D01*
X96481712Y-56981988D01*
X96470089Y-57100000D01*
X92002000Y-57100000D01*
X92002000Y-55088710D01*
X92059585Y-55127187D01*
X92219189Y-55193297D01*
X92388623Y-55227000D01*
X92561377Y-55227000D01*
X92730811Y-55193297D01*
X92890415Y-55127187D01*
X93034055Y-55031210D01*
X93156210Y-54909055D01*
X93252187Y-54765415D01*
X93318297Y-54605811D01*
X93352000Y-54436377D01*
X93352000Y-54263623D01*
X93318297Y-54094189D01*
X93252187Y-53934585D01*
X93156210Y-53790945D01*
X93034055Y-53668790D01*
X92890415Y-53572813D01*
X92730811Y-53506703D01*
X92561377Y-53473000D01*
X92388623Y-53473000D01*
X92219189Y-53506703D01*
X92059585Y-53572813D01*
X92002000Y-53611290D01*
X92002000Y-51388623D01*
X99923000Y-51388623D01*
X99923000Y-51561377D01*
X99956703Y-51730811D01*
X100022813Y-51890415D01*
X100118790Y-52034055D01*
X100240945Y-52156210D01*
X100384585Y-52252187D01*
X100544189Y-52318297D01*
X100713623Y-52352000D01*
X100886377Y-52352000D01*
X101055811Y-52318297D01*
X101215415Y-52252187D01*
X101359055Y-52156210D01*
X101481210Y-52034055D01*
X101577187Y-51890415D01*
X101643297Y-51730811D01*
X101677000Y-51561377D01*
X101677000Y-51388623D01*
X101643297Y-51219189D01*
X101577187Y-51059585D01*
X101481210Y-50915945D01*
X101359055Y-50793790D01*
X101215415Y-50697813D01*
X101055811Y-50631703D01*
X100886377Y-50598000D01*
X100713623Y-50598000D01*
X100544189Y-50631703D01*
X100384585Y-50697813D01*
X100240945Y-50793790D01*
X100118790Y-50915945D01*
X100022813Y-51059585D01*
X99956703Y-51219189D01*
X99923000Y-51388623D01*
X92002000Y-51388623D01*
X92002000Y-50502000D01*
X112223000Y-50502000D01*
X112223000Y-61531081D01*
X112223000Y-61531081D01*
G37*
X112223000Y-61531081D02*
X112094189Y-61556703D01*
X111934585Y-61622813D01*
X111790945Y-61718790D01*
X111668790Y-61840945D01*
X111572813Y-61984585D01*
X111506703Y-62144189D01*
X111473000Y-62313623D01*
X111473000Y-62486377D01*
X111506703Y-62655811D01*
X111572813Y-62815415D01*
X111668790Y-62959055D01*
X111790945Y-63081210D01*
X111934585Y-63177187D01*
X112094189Y-63243297D01*
X112223000Y-63268919D01*
X112223000Y-74498000D01*
X92002000Y-74498000D01*
X92002000Y-69500000D01*
X93120693Y-69500000D01*
X93120693Y-72600000D01*
X93134706Y-72742281D01*
X93176208Y-72879094D01*
X93243603Y-73005181D01*
X93334302Y-73115698D01*
X93444819Y-73206397D01*
X93570906Y-73273792D01*
X93707719Y-73315294D01*
X93850000Y-73329307D01*
X95150000Y-73329307D01*
X95292281Y-73315294D01*
X95429094Y-73273792D01*
X95555181Y-73206397D01*
X95665698Y-73115698D01*
X95756397Y-73005181D01*
X95823792Y-72879094D01*
X95865294Y-72742281D01*
X95879307Y-72600000D01*
X95879307Y-69500000D01*
X95865294Y-69357719D01*
X95823792Y-69220906D01*
X95756397Y-69094819D01*
X95665698Y-68984302D01*
X95555181Y-68893603D01*
X95429094Y-68826208D01*
X95292281Y-68784706D01*
X95150000Y-68770693D01*
X93850000Y-68770693D01*
X93707719Y-68784706D01*
X93570906Y-68826208D01*
X93444819Y-68893603D01*
X93334302Y-68984302D01*
X93243603Y-69094819D01*
X93176208Y-69220906D01*
X93134706Y-69357719D01*
X93120693Y-69500000D01*
X92002000Y-69500000D01*
X92002000Y-57100000D01*
X96470089Y-57100000D01*
X96473001Y-57129566D01*
X96473000Y-58320443D01*
X96470089Y-58350000D01*
X96473000Y-58379556D01*
X96473000Y-58379565D01*
X96481711Y-58468011D01*
X96516134Y-58581489D01*
X96572034Y-58686070D01*
X96647263Y-58777737D01*
X96670234Y-58796589D01*
X97398001Y-59524357D01*
X97398000Y-68910412D01*
X97231279Y-68999527D01*
X97021603Y-69171604D01*
X96849527Y-69381280D01*
X96721663Y-69620496D01*
X96642925Y-69880062D01*
X96623000Y-70082361D01*
X96623000Y-72017640D01*
X96642926Y-72219939D01*
X96721664Y-72479505D01*
X96849528Y-72718721D01*
X97021604Y-72928397D01*
X97231280Y-73100473D01*
X97470496Y-73228337D01*
X97730062Y-73307075D01*
X98000000Y-73333662D01*
X98269939Y-73307075D01*
X98529505Y-73228337D01*
X98768721Y-73100473D01*
X98978397Y-72928397D01*
X99150473Y-72718721D01*
X99278337Y-72479505D01*
X99357075Y-72219939D01*
X99377000Y-72017640D01*
X99377000Y-70082360D01*
X99357075Y-69880061D01*
X99278337Y-69620495D01*
X99150473Y-69381279D01*
X98978396Y-69171603D01*
X98768720Y-68999527D01*
X98602000Y-68910413D01*
X98602000Y-65053355D01*
X100898000Y-67349357D01*
X100898000Y-68910412D01*
X100731279Y-68999527D01*
X100521603Y-69171604D01*
X100349527Y-69381280D01*
X100221663Y-69620496D01*
X100142925Y-69880062D01*
X100123000Y-70082361D01*
X100123000Y-72017640D01*
X100142926Y-72219939D01*
X100221664Y-72479505D01*
X100349528Y-72718721D01*
X100521604Y-72928397D01*
X100731280Y-73100473D01*
X100970496Y-73228337D01*
X101230062Y-73307075D01*
X101500000Y-73333662D01*
X101769939Y-73307075D01*
X102029505Y-73228337D01*
X102268721Y-73100473D01*
X102478397Y-72928397D01*
X102650473Y-72718721D01*
X102778337Y-72479505D01*
X102857075Y-72219939D01*
X102877000Y-72017640D01*
X102877000Y-70082360D01*
X102857075Y-69880061D01*
X102778337Y-69620495D01*
X102650473Y-69381279D01*
X102478396Y-69171603D01*
X102268720Y-68999527D01*
X102102000Y-68910413D01*
X102102000Y-67129556D01*
X102104911Y-67099999D01*
X102102000Y-67070443D01*
X102102000Y-67070434D01*
X102093289Y-66981988D01*
X102058866Y-66868510D01*
X102002966Y-66763929D01*
X101992286Y-66750916D01*
X101946584Y-66695227D01*
X101946580Y-66695223D01*
X101927737Y-66672263D01*
X101904778Y-66653421D01*
X99427000Y-64175645D01*
X99427000Y-60849355D01*
X99676355Y-60600000D01*
X100445089Y-60600000D01*
X100448000Y-60629557D01*
X100448001Y-62420434D01*
X100445089Y-62450000D01*
X100456712Y-62568012D01*
X100491134Y-62681489D01*
X100491135Y-62681490D01*
X100547035Y-62786071D01*
X100622264Y-62877737D01*
X100645229Y-62896584D01*
X104398000Y-66649356D01*
X104398001Y-68910412D01*
X104231279Y-68999527D01*
X104021603Y-69171604D01*
X103849527Y-69381280D01*
X103721663Y-69620496D01*
X103642925Y-69880062D01*
X103623000Y-70082361D01*
X103623000Y-72017640D01*
X103642926Y-72219939D01*
X103721664Y-72479505D01*
X103849528Y-72718721D01*
X104021604Y-72928397D01*
X104231280Y-73100473D01*
X104470496Y-73228337D01*
X104730062Y-73307075D01*
X105000000Y-73333662D01*
X105269939Y-73307075D01*
X105529505Y-73228337D01*
X105768721Y-73100473D01*
X105978397Y-72928397D01*
X106150473Y-72718721D01*
X106278337Y-72479505D01*
X106357075Y-72219939D01*
X106377000Y-72017640D01*
X106377000Y-71177000D01*
X106965000Y-71177000D01*
X106965000Y-72077000D01*
X107019271Y-72374023D01*
X107130446Y-72654751D01*
X107294252Y-72908396D01*
X107504394Y-73125210D01*
X107752796Y-73296862D01*
X108029913Y-73416755D01*
X108135260Y-73441036D01*
X108373000Y-73320378D01*
X108373000Y-71177000D01*
X108627000Y-71177000D01*
X108627000Y-73320378D01*
X108864740Y-73441036D01*
X108970087Y-73416755D01*
X109247204Y-73296862D01*
X109495606Y-73125210D01*
X109705748Y-72908396D01*
X109869554Y-72654751D01*
X109980729Y-72374023D01*
X110035000Y-72077000D01*
X110035000Y-71177000D01*
X108627000Y-71177000D01*
X108373000Y-71177000D01*
X106965000Y-71177000D01*
X106377000Y-71177000D01*
X106377000Y-70082360D01*
X106371154Y-70023000D01*
X106965000Y-70023000D01*
X106965000Y-70923000D01*
X108373000Y-70923000D01*
X108373000Y-68779622D01*
X108627000Y-68779622D01*
X108627000Y-70923000D01*
X110035000Y-70923000D01*
X110035000Y-70023000D01*
X109980729Y-69725977D01*
X109869554Y-69445249D01*
X109705748Y-69191604D01*
X109495606Y-68974790D01*
X109247204Y-68803138D01*
X108970087Y-68683245D01*
X108864740Y-68658964D01*
X108627000Y-68779622D01*
X108373000Y-68779622D01*
X108135260Y-68658964D01*
X108029913Y-68683245D01*
X107752796Y-68803138D01*
X107504394Y-68974790D01*
X107294252Y-69191604D01*
X107130446Y-69445249D01*
X107019271Y-69725977D01*
X106965000Y-70023000D01*
X106371154Y-70023000D01*
X106357075Y-69880061D01*
X106278337Y-69620495D01*
X106150473Y-69381279D01*
X105978396Y-69171603D01*
X105768720Y-68999527D01*
X105602000Y-68910413D01*
X105602000Y-66429559D01*
X105604911Y-66400000D01*
X105602000Y-66370441D01*
X105602000Y-66370434D01*
X105593289Y-66281988D01*
X105558866Y-66168510D01*
X105502967Y-66063930D01*
X105502966Y-66063928D01*
X105446584Y-65995228D01*
X105427737Y-65972263D01*
X105404773Y-65953417D01*
X103514979Y-64063623D01*
X105623000Y-64063623D01*
X105623000Y-64236377D01*
X105656703Y-64405811D01*
X105722813Y-64565415D01*
X105818790Y-64709055D01*
X105940945Y-64831210D01*
X106084585Y-64927187D01*
X106244189Y-64993297D01*
X106413623Y-65027000D01*
X106586377Y-65027000D01*
X106755811Y-64993297D01*
X106915415Y-64927187D01*
X107059055Y-64831210D01*
X107181210Y-64709055D01*
X107277187Y-64565415D01*
X107343297Y-64405811D01*
X107377000Y-64236377D01*
X107377000Y-64063623D01*
X107343297Y-63894189D01*
X107277187Y-63734585D01*
X107181210Y-63590945D01*
X107059055Y-63468790D01*
X106915415Y-63372813D01*
X106755811Y-63306703D01*
X106586377Y-63273000D01*
X106413623Y-63273000D01*
X106244189Y-63306703D01*
X106084585Y-63372813D01*
X105940945Y-63468790D01*
X105818790Y-63590945D01*
X105722813Y-63734585D01*
X105656703Y-63894189D01*
X105623000Y-64063623D01*
X103514979Y-64063623D01*
X101652000Y-62200645D01*
X101652000Y-60927000D01*
X101686377Y-60927000D01*
X101855811Y-60893297D01*
X102015415Y-60827187D01*
X102159055Y-60731210D01*
X102281210Y-60609055D01*
X102377187Y-60465415D01*
X102443297Y-60305811D01*
X102477000Y-60136377D01*
X102477000Y-59963623D01*
X102443297Y-59794189D01*
X102377187Y-59634585D01*
X102281210Y-59490945D01*
X102159055Y-59368790D01*
X102015415Y-59272813D01*
X101855811Y-59206703D01*
X101686377Y-59173000D01*
X101513623Y-59173000D01*
X101344189Y-59206703D01*
X101184585Y-59272813D01*
X101040945Y-59368790D01*
X100918790Y-59490945D01*
X100822813Y-59634585D01*
X100756703Y-59794189D01*
X100723000Y-59963623D01*
X100723000Y-60075645D01*
X100645233Y-60153412D01*
X100622263Y-60172263D01*
X100547034Y-60263930D01*
X100491134Y-60368511D01*
X100456711Y-60481989D01*
X100448000Y-60570435D01*
X100448000Y-60570444D01*
X100445089Y-60600000D01*
X99676355Y-60600000D01*
X101179777Y-59096580D01*
X101202737Y-59077737D01*
X101221580Y-59054777D01*
X101221584Y-59054773D01*
X101277965Y-58986072D01*
X101277966Y-58986071D01*
X101333866Y-58881490D01*
X101339285Y-58863623D01*
X105523000Y-58863623D01*
X105523000Y-59036377D01*
X105556703Y-59205811D01*
X105622813Y-59365415D01*
X105718790Y-59509055D01*
X105840945Y-59631210D01*
X105984585Y-59727187D01*
X106144189Y-59793297D01*
X106313623Y-59827000D01*
X106486377Y-59827000D01*
X106655811Y-59793297D01*
X106815415Y-59727187D01*
X106959055Y-59631210D01*
X107081210Y-59509055D01*
X107177187Y-59365415D01*
X107243297Y-59205811D01*
X107277000Y-59036377D01*
X107277000Y-58863623D01*
X107243297Y-58694189D01*
X107177187Y-58534585D01*
X107081210Y-58390945D01*
X106959055Y-58268790D01*
X106815415Y-58172813D01*
X106655811Y-58106703D01*
X106486377Y-58073000D01*
X106313623Y-58073000D01*
X106144189Y-58106703D01*
X105984585Y-58172813D01*
X105840945Y-58268790D01*
X105718790Y-58390945D01*
X105622813Y-58534585D01*
X105556703Y-58694189D01*
X105523000Y-58863623D01*
X101339285Y-58863623D01*
X101368289Y-58768012D01*
X101377000Y-58679566D01*
X101377000Y-58679557D01*
X101379911Y-58650001D01*
X101377000Y-58620444D01*
X101377000Y-57619715D01*
X101413623Y-57627000D01*
X101586377Y-57627000D01*
X101755811Y-57593297D01*
X101915415Y-57527187D01*
X102059055Y-57431210D01*
X102181210Y-57309055D01*
X102277187Y-57165415D01*
X102343297Y-57005811D01*
X102360921Y-56917212D01*
X102401133Y-56877000D01*
X104559475Y-56877000D01*
X104634585Y-56927187D01*
X104794189Y-56993297D01*
X104963623Y-57027000D01*
X105136377Y-57027000D01*
X105305811Y-56993297D01*
X105465415Y-56927187D01*
X105609055Y-56831210D01*
X105731210Y-56709055D01*
X105827187Y-56565415D01*
X105893297Y-56405811D01*
X105927000Y-56236377D01*
X105927000Y-56063623D01*
X105893297Y-55894189D01*
X105827187Y-55734585D01*
X105731210Y-55590945D01*
X105609055Y-55468790D01*
X105465415Y-55372813D01*
X105305811Y-55306703D01*
X105136377Y-55273000D01*
X104963623Y-55273000D01*
X104794189Y-55306703D01*
X104634585Y-55372813D01*
X104559475Y-55423000D01*
X102135707Y-55423000D01*
X102099999Y-55419483D01*
X101957482Y-55433520D01*
X101925587Y-55443195D01*
X101820443Y-55475090D01*
X101694147Y-55542597D01*
X101677000Y-55556669D01*
X101677000Y-55488623D01*
X101643297Y-55319189D01*
X101577187Y-55159585D01*
X101481210Y-55015945D01*
X101359055Y-54893790D01*
X101215415Y-54797813D01*
X101055811Y-54731703D01*
X100886377Y-54698000D01*
X100713623Y-54698000D01*
X100544189Y-54731703D01*
X100384585Y-54797813D01*
X100240945Y-54893790D01*
X100118790Y-55015945D01*
X100022813Y-55159585D01*
X99956703Y-55319189D01*
X99923000Y-55488623D01*
X99923000Y-55600645D01*
X99895233Y-55628411D01*
X99872263Y-55647263D01*
X99797034Y-55738930D01*
X99741134Y-55843511D01*
X99706711Y-55956989D01*
X99698000Y-56045435D01*
X99698000Y-56045444D01*
X99695089Y-56075000D01*
X99698000Y-56104556D01*
X99698000Y-56870444D01*
X99695089Y-56900000D01*
X99698000Y-56929556D01*
X99698000Y-56929566D01*
X99701522Y-56965326D01*
X99619189Y-56981703D01*
X99459585Y-57047813D01*
X99425000Y-57070922D01*
X99390415Y-57047813D01*
X99230811Y-56981703D01*
X99061377Y-56948000D01*
X98888623Y-56948000D01*
X98719189Y-56981703D01*
X98559585Y-57047813D01*
X98525000Y-57070922D01*
X98490415Y-57047813D01*
X98330811Y-56981703D01*
X98161377Y-56948000D01*
X98078355Y-56948000D01*
X98949356Y-56077000D01*
X99061377Y-56077000D01*
X99230811Y-56043297D01*
X99390415Y-55977187D01*
X99534055Y-55881210D01*
X99656210Y-55759055D01*
X99752187Y-55615415D01*
X99818297Y-55455811D01*
X99852000Y-55286377D01*
X99852000Y-55113623D01*
X99818297Y-54944189D01*
X99752187Y-54784585D01*
X99656210Y-54640945D01*
X99534055Y-54518790D01*
X99390415Y-54422813D01*
X99230811Y-54356703D01*
X99061377Y-54323000D01*
X98888623Y-54323000D01*
X98719189Y-54356703D01*
X98559585Y-54422813D01*
X98415945Y-54518790D01*
X98293790Y-54640945D01*
X98197813Y-54784585D01*
X98131703Y-54944189D01*
X98098000Y-55113623D01*
X98098000Y-55225644D01*
X96670229Y-56653416D01*
X96647264Y-56672263D01*
X96628417Y-56695228D01*
X96628416Y-56695229D01*
X96572035Y-56763929D01*
X96516134Y-56868511D01*
X96481712Y-56981988D01*
X96470089Y-57100000D01*
X92002000Y-57100000D01*
X92002000Y-55088710D01*
X92059585Y-55127187D01*
X92219189Y-55193297D01*
X92388623Y-55227000D01*
X92561377Y-55227000D01*
X92730811Y-55193297D01*
X92890415Y-55127187D01*
X93034055Y-55031210D01*
X93156210Y-54909055D01*
X93252187Y-54765415D01*
X93318297Y-54605811D01*
X93352000Y-54436377D01*
X93352000Y-54263623D01*
X93318297Y-54094189D01*
X93252187Y-53934585D01*
X93156210Y-53790945D01*
X93034055Y-53668790D01*
X92890415Y-53572813D01*
X92730811Y-53506703D01*
X92561377Y-53473000D01*
X92388623Y-53473000D01*
X92219189Y-53506703D01*
X92059585Y-53572813D01*
X92002000Y-53611290D01*
X92002000Y-51388623D01*
X99923000Y-51388623D01*
X99923000Y-51561377D01*
X99956703Y-51730811D01*
X100022813Y-51890415D01*
X100118790Y-52034055D01*
X100240945Y-52156210D01*
X100384585Y-52252187D01*
X100544189Y-52318297D01*
X100713623Y-52352000D01*
X100886377Y-52352000D01*
X101055811Y-52318297D01*
X101215415Y-52252187D01*
X101359055Y-52156210D01*
X101481210Y-52034055D01*
X101577187Y-51890415D01*
X101643297Y-51730811D01*
X101677000Y-51561377D01*
X101677000Y-51388623D01*
X101643297Y-51219189D01*
X101577187Y-51059585D01*
X101481210Y-50915945D01*
X101359055Y-50793790D01*
X101215415Y-50697813D01*
X101055811Y-50631703D01*
X100886377Y-50598000D01*
X100713623Y-50598000D01*
X100544189Y-50631703D01*
X100384585Y-50697813D01*
X100240945Y-50793790D01*
X100118790Y-50915945D01*
X100022813Y-51059585D01*
X99956703Y-51219189D01*
X99923000Y-51388623D01*
X92002000Y-51388623D01*
X92002000Y-50502000D01*
X112223000Y-50502000D01*
X112223000Y-61531081D01*
M02*
